<svg width="284" height="64" viewBox="0 0 284 64" fill="none" xmlns="http://www.w3.org/2000/svg">
<path d="M1.3916 43.3623C2.15983 43.3625 2.7832 43.9856 2.7832 44.7539V53.6816C2.78334 55.6802 3.57704 57.5975 4.99023 59.0107C6.4035 60.4237 8.32085 61.2178 10.3193 61.2178H19.2471C20.0151 61.2182 20.6377 61.8412 20.6377 62.6094C20.6373 63.3772 20.0149 63.9996 19.2471 64H10.3193C7.58277 64 4.95759 62.9125 3.02246 60.9775C1.08761 59.0425 0.000135474 56.418 0 53.6816V44.7539C6.57807e-06 43.9855 0.623209 43.3623 1.3916 43.3623ZM62.6094 43.3623C63.3774 43.3627 64 43.9858 64 44.7539V53.6816L63.9873 54.1934C63.8607 56.7436 62.7916 59.1635 60.9775 60.9775C59.1635 62.7916 56.7436 63.8606 54.1934 63.9873L53.6816 64H44.7539C43.9858 64 43.3627 63.3774 43.3623 62.6094C43.3623 61.841 43.9855 61.2178 44.7539 61.2178H53.6816L54.0547 61.208C55.9174 61.1156 57.6857 60.3358 59.0107 59.0107C60.3358 57.6857 61.1156 55.9174 61.208 54.0547L61.2178 53.6816V44.7539C61.2178 43.9855 61.841 43.3623 62.6094 43.3623ZM32.8643 7.58887L32.8682 7.59375L32.8809 7.60352L32.9209 7.64355C33.1646 7.88089 33.4065 8.12127 33.6455 8.36328C36.575 11.3539 39.2929 14.5451 41.7793 17.9131C44.4045 21.4834 47.1035 25.7769 48.8555 30.2549L39.1758 41.0381L33.709 35.6201L23.457 45.793L25.5068 47.8242L33.709 39.6836L39.1758 45.1016L49.8535 33.2002C50.4466 35.283 50.7949 37.38 50.7949 39.4395C50.7947 49.1687 42.2793 56.8808 32 56.8809C21.7207 56.8808 13.2053 49.1687 13.2051 39.4395C13.2052 31.9242 17.8178 23.9026 22.2207 17.9121C24.7072 14.5445 27.425 11.3535 30.3545 8.36328C30.6015 8.11462 30.7922 7.9241 30.9258 7.79297L31.0791 7.64355L31.1191 7.60352L31.1299 7.59375L31.1357 7.58887L32 6.76172L32.8643 7.58887ZM23.5391 33.6826L20.7227 34.9561L23.5391 36.2295L24.8232 39.0195L26.1084 36.2295L28.9248 34.9561L26.1084 33.6826L24.8232 30.8926L23.5391 33.6826ZM38.5742 30.9736L35.7588 32.2471L38.5742 33.5205L39.8594 36.3105L41.1445 33.5205L43.96 32.2471L41.1445 30.9736L39.8594 28.1836L38.5742 30.9736ZM29.4941 25.2705L26.9883 26.5234L29.4941 27.7773L30.9746 30.2832L32.4648 27.7773L34.5059 26.5234L32.4648 25.2705L30.9746 22.7646L29.4941 25.2705ZM19.3887 0.0078125C20.0902 0.079135 20.6377 0.671285 20.6377 1.3916C20.6375 2.11179 20.0901 2.70411 19.3887 2.77539L19.2471 2.7832H10.3193C8.32061 2.7832 6.40355 3.57692 4.99023 4.99023C3.57692 6.40355 2.7832 8.3206 2.7832 10.3193V19.2471C2.78281 20.015 2.1596 20.6375 1.3916 20.6377C0.623446 20.6377 0.000390287 20.0151 0 19.2471V10.3193C0 7.58261 1.0873 4.95762 3.02246 3.02246C4.95762 1.08731 7.58261 0 10.3193 0H19.2471L19.3887 0.0078125ZM53.6816 0C56.418 0.000141884 59.0425 1.08761 60.9775 3.02246C62.9125 4.95759 64 7.58277 64 10.3193V19.2471C63.9996 20.0149 63.3772 20.6373 62.6094 20.6377C61.8412 20.6377 61.2182 20.0151 61.2178 19.2471V10.3193C61.2178 8.32085 60.4237 6.4035 59.0107 4.99023C57.5975 3.57704 55.6802 2.78334 53.6816 2.7832H44.7539C43.9856 2.7832 43.3625 2.15984 43.3623 1.3916C43.3623 0.623209 43.9855 6.57804e-06 44.7539 0H53.6816Z" fill="url(#paint0_linear_601_3855)"/>
<path d="M86.9333 50V16.8889H109.6V22.8889H93.8222V31.2889H107.378V37.2889H93.8222V50H86.9333ZM124.14 50.5333C121.74 50.5333 119.547 49.9852 117.562 48.8889C115.607 47.7926 114.036 46.2963 112.851 44.4C111.695 42.4741 111.118 40.2963 111.118 37.8667C111.118 35.4074 111.695 33.2296 112.851 31.3333C114.036 29.437 115.607 27.9407 117.562 26.8444C119.547 25.7481 121.74 25.2 124.14 25.2C126.54 25.2 128.718 25.7481 130.673 26.8444C132.629 27.9407 134.184 29.437 135.34 31.3333C136.525 33.2296 137.118 35.4074 137.118 37.8667C137.118 40.2963 136.525 42.4741 135.34 44.4C134.184 46.2963 132.629 47.7926 130.673 48.8889C128.718 49.9852 126.54 50.5333 124.14 50.5333ZM124.14 44.5333C125.355 44.5333 126.407 44.2519 127.295 43.6889C128.214 43.1259 128.925 42.3407 129.429 41.3333C129.962 40.3259 130.229 39.1704 130.229 37.8667C130.229 36.563 129.962 35.4222 129.429 34.4444C128.925 33.437 128.214 32.6519 127.295 32.0889C126.407 31.4963 125.355 31.2 124.14 31.2C122.925 31.2 121.858 31.4963 120.94 32.0889C120.021 32.6519 119.295 33.437 118.762 34.4444C118.258 35.4222 118.007 36.563 118.007 37.8667C118.007 39.1704 118.258 40.3259 118.762 41.3333C119.295 42.3407 120.021 43.1259 120.94 43.6889C121.858 44.2519 122.925 44.5333 124.14 44.5333ZM141.045 50V25.7333H147.267V31.5556L146.823 30.7111C147.356 28.6667 148.23 27.2889 149.445 26.5778C150.69 25.837 152.156 25.4667 153.845 25.4667H155.267V31.2444H153.178C151.549 31.2444 150.23 31.7481 149.223 32.7556C148.216 33.7333 147.712 35.1259 147.712 36.9333V50H141.045ZM169.878 50.5333C167.3 50.5333 165.063 49.9704 163.167 48.8444C161.271 47.6889 159.804 46.1481 158.767 44.2222C157.73 42.2963 157.211 40.163 157.211 37.8222C157.211 35.3926 157.745 33.2296 158.811 31.3333C159.908 29.437 161.374 27.9407 163.211 26.8444C165.049 25.7481 167.123 25.2 169.434 25.2C171.36 25.2 173.063 25.5111 174.545 26.1333C176.026 26.7259 177.271 27.5704 178.278 28.6667C179.315 29.763 180.1 31.037 180.634 32.4889C181.167 33.9111 181.434 35.4667 181.434 37.1556C181.434 37.6296 181.404 38.1037 181.345 38.5778C181.315 39.0222 181.241 39.4074 181.123 39.7333H162.945V34.8444H177.345L174.189 37.1556C174.486 35.8815 174.471 34.7556 174.145 33.7778C173.819 32.7704 173.241 31.9852 172.411 31.4222C171.611 30.8296 170.619 30.5333 169.434 30.5333C168.278 30.5333 167.286 30.8148 166.456 31.3778C165.626 31.9407 165.004 32.7704 164.589 33.8667C164.174 34.963 164.011 36.2963 164.1 37.8667C163.982 39.2296 164.145 40.4296 164.589 41.4667C165.034 42.5037 165.715 43.3185 166.634 43.9111C167.552 44.4741 168.663 44.7556 169.967 44.7556C171.152 44.7556 172.16 44.5185 172.989 44.0444C173.849 43.5704 174.515 42.9185 174.989 42.0889L180.323 44.6222C179.849 45.8074 179.093 46.8444 178.056 47.7333C177.049 48.6222 175.849 49.3185 174.456 49.8222C173.063 50.2963 171.537 50.5333 169.878 50.5333ZM201.759 50.5333C199.389 50.5333 197.182 50.1037 195.137 49.2444C193.093 48.3852 191.3 47.1852 189.759 45.6444C188.219 44.1037 187.019 42.2963 186.159 40.2222C185.3 38.1481 184.87 35.8815 184.87 33.4222C184.87 30.963 185.285 28.6963 186.115 26.6222C186.945 24.5185 188.115 22.7111 189.626 21.2C191.137 19.6593 192.9 18.4741 194.915 17.6444C196.959 16.7852 199.182 16.3556 201.582 16.3556C203.982 16.3556 206.13 16.7556 208.026 17.5556C209.952 18.3556 211.582 19.4222 212.915 20.7556C214.248 22.0889 215.196 23.5704 215.759 25.2L209.67 28.1333C209.108 26.5333 208.115 25.2148 206.693 24.1778C205.3 23.1111 203.596 22.5778 201.582 22.5778C199.626 22.5778 197.908 23.037 196.426 23.9556C194.945 24.8741 193.789 26.1481 192.959 27.7778C192.159 29.3778 191.759 31.2593 191.759 33.4222C191.759 35.5852 192.189 37.4815 193.048 39.1111C193.908 40.7407 195.078 42.0148 196.559 42.9333C198.07 43.8519 199.804 44.3111 201.759 44.3111C203.27 44.3111 204.678 44.0296 205.982 43.4667C207.315 42.8741 208.382 42.0296 209.182 40.9333C210.011 39.837 210.426 38.5185 210.426 36.9778V34.2222L213.582 36.8889H201.582V31.1111H217.315V34.6222C217.315 37.3185 216.87 39.6741 215.982 41.6889C215.093 43.6741 213.893 45.3333 212.382 46.6667C210.9 47.9704 209.226 48.9481 207.359 49.6C205.522 50.2222 203.656 50.5333 201.759 50.5333ZM221.08 50V16.3556H227.747V50H221.08ZM236.403 59.7778C235.692 59.7778 234.995 59.7185 234.314 59.6C233.662 59.4815 233.084 59.2889 232.581 59.0222V53.5556C232.995 53.6741 233.484 53.7778 234.047 53.8667C234.61 53.9556 235.129 54 235.603 54C236.906 54 237.84 53.6889 238.403 53.0667C238.966 52.4741 239.425 51.7926 239.781 51.0222L241.425 47.2444L241.336 52.8L230.669 25.7333H237.825L244.892 44.9778H242.225L249.292 25.7333H256.447L246.047 52.2667C245.395 53.9259 244.595 55.3185 243.647 56.4444C242.699 57.5704 241.618 58.4 240.403 58.9333C239.218 59.4963 237.884 59.7778 236.403 59.7778ZM270.838 50.5333C268.409 50.5333 266.216 49.9852 264.26 48.8889C262.335 47.763 260.794 46.237 259.638 44.3111C258.512 42.3852 257.949 40.2222 257.949 37.8222C257.949 35.4222 258.512 33.2741 259.638 31.3778C260.764 29.4518 262.305 27.9407 264.26 26.8444C266.216 25.7481 268.409 25.2 270.838 25.2C272.646 25.2 274.32 25.5111 275.86 26.1333C277.401 26.7556 278.72 27.6296 279.816 28.7556C280.912 29.8519 281.697 31.1556 282.172 32.6667L276.394 35.1556C275.979 33.9407 275.268 32.9778 274.26 32.2667C273.283 31.5556 272.142 31.2 270.838 31.2C269.683 31.2 268.646 31.4815 267.727 32.0444C266.838 32.6074 266.127 33.3926 265.594 34.4C265.09 35.4074 264.838 36.563 264.838 37.8667C264.838 39.1704 265.09 40.3259 265.594 41.3333C266.127 42.3407 266.838 43.1259 267.727 43.6889C268.646 44.2519 269.683 44.5333 270.838 44.5333C272.172 44.5333 273.327 44.1778 274.305 43.4667C275.283 42.7556 275.979 41.7926 276.394 40.5778L282.172 43.1111C281.727 44.5333 280.957 45.8074 279.86 46.9333C278.764 48.0593 277.446 48.9481 275.905 49.6C274.364 50.2222 272.675 50.5333 270.838 50.5333Z" fill="url(#paint1_linear_601_3855)"/>
<defs>
<linearGradient id="paint0_linear_601_3855" x1="60.7667" y1="58.6" x2="44.9771" y2="-12.906" gradientUnits="userSpaceOnUse">
<stop stop-color="#1976FF"/>
<stop offset="1" stop-color="#B9D7FE"/>
</linearGradient>
<linearGradient id="paint1_linear_601_3855" x1="273.896" y1="58.6" x2="268.623" y2="-16.02" gradientUnits="userSpaceOnUse">
<stop stop-color="#1976FF"/>
<stop offset="1" stop-color="#B9D7FE"/>
</linearGradient>
</defs>
</svg>
