<svg width="712" height="732" viewBox="0 0 712 732" fill="none" xmlns="http://www.w3.org/2000/svg">
<path d="M356 38L664.305 558.5H47.6949L356 38Z" fill="url(#paint0_linear_579_14)"/>
<path fill-rule="evenodd" clip-rule="evenodd" d="M276.161 14.7497C280.339 10.5721 286.005 8.2251 291.913 8.2251H318.302C320.573 8.2251 322.414 6.38384 322.414 4.11254C322.414 1.84124 320.573 -1.10383e-05 318.302 -1.10383e-05H291.913C283.823 -1.10383e-05 276.065 3.21353 270.345 8.93366C264.625 14.6538 261.411 22.4119 261.411 30.5014V56.8903C261.411 59.1616 263.253 61.0029 265.524 61.0029C267.795 61.0029 269.637 59.1616 269.637 56.8903V30.5014C269.637 24.5934 271.983 18.9273 276.161 14.7497ZM393.699 -1.10383e-05C391.427 -1.10383e-05 389.586 1.84124 389.586 4.11254C389.586 6.38384 391.427 8.2251 393.699 8.2251H420.087C425.996 8.2251 431.662 10.5721 435.839 14.7497C440.017 18.9273 442.364 24.5934 442.364 30.5014V56.8903C442.364 59.1616 444.205 61.0029 446.476 61.0029C448.748 61.0029 450.589 59.1616 450.589 56.8903V30.5014C450.589 22.4119 447.375 14.6538 441.655 8.93366C435.935 3.21353 428.177 -1.10383e-05 420.087 -1.10383e-05H393.699ZM269.637 132.287C269.637 130.016 267.795 128.175 265.524 128.175C263.253 128.175 261.411 130.016 261.411 132.287V158.676C261.411 166.766 264.625 174.524 270.345 180.244C276.065 185.964 283.823 189.177 291.913 189.177H318.302C320.573 189.177 322.414 187.336 322.414 185.065C322.414 182.794 320.573 180.952 318.302 180.952H291.913C286.005 180.952 280.339 178.605 276.161 174.428C271.983 170.25 269.637 164.584 269.637 158.676V132.287ZM450.589 132.287C450.589 130.016 448.748 128.175 446.476 128.175C444.205 128.175 442.364 130.016 442.364 132.287V158.676C442.364 164.584 440.017 170.25 435.839 174.428C431.662 178.605 425.996 180.952 420.087 180.952H393.699C391.427 180.952 389.586 182.794 389.586 185.065C389.586 187.336 391.427 189.177 393.699 189.177H420.087C428.177 189.177 435.935 185.964 441.655 180.244C447.375 174.524 450.589 166.766 450.589 158.676V132.287ZM356 19.9856L353.445 22.43L353.43 22.4448L353.396 22.4744L353.278 22.593L352.826 23.0337C352.431 23.4214 351.868 23.9831 351.137 24.7189C342.477 33.5582 334.443 42.9897 327.093 52.9448C314.078 70.6522 300.445 94.3633 300.445 116.578C300.445 145.337 325.615 168.134 356 168.134C386.385 168.134 411.556 145.337 411.556 116.578C411.556 110.49 410.532 104.29 408.779 98.1324L377.212 133.315L361.051 117.299L336.808 141.363L330.748 135.357L361.051 105.287L377.212 121.303L405.826 89.4277C400.647 76.1911 392.668 63.502 384.908 52.9485C377.558 42.9921 369.523 33.5594 360.863 24.7189C360.156 24.0033 359.443 23.2947 358.722 22.593L358.604 22.4744L358.567 22.4448L358.556 22.43L356 19.9856ZM375.435 99.0812L367.111 95.3174L375.435 91.5536L379.233 83.3054L383.03 91.5536L391.354 95.3174L383.03 99.0812L379.233 107.329L375.435 99.0812ZM334.788 115.337L338.586 107.089L346.909 103.325L338.586 99.5616L334.788 91.3134L330.99 99.5616L322.667 103.325L330.99 107.089L334.788 115.337ZM352.97 89.5116L357.374 82.1042L363.408 78.4005L357.374 74.6968L352.97 67.2894L348.593 74.6968L341.185 78.4005L348.593 82.1042L352.97 89.5116Z" fill="white"/>
<path d="M258.933 265.178V232.066H281.6V238.066H265.822V246.466H279.378V252.466H265.822V265.178H258.933ZM296.14 265.711C293.74 265.711 291.547 265.163 289.562 264.066C287.607 262.97 286.036 261.474 284.851 259.578C283.695 257.652 283.118 255.474 283.118 253.044C283.118 250.585 283.695 248.407 284.851 246.511C286.036 244.615 287.607 243.118 289.562 242.022C291.547 240.926 293.74 240.378 296.14 240.378C298.54 240.378 300.718 240.926 302.673 242.022C304.629 243.118 306.184 244.615 307.34 246.511C308.525 248.407 309.118 250.585 309.118 253.044C309.118 255.474 308.525 257.652 307.34 259.578C306.184 261.474 304.629 262.97 302.673 264.066C300.718 265.163 298.54 265.711 296.14 265.711ZM296.14 259.711C297.355 259.711 298.407 259.429 299.295 258.866C300.214 258.303 300.925 257.518 301.429 256.511C301.962 255.503 302.229 254.348 302.229 253.044C302.229 251.74 301.962 250.6 301.429 249.622C300.925 248.615 300.214 247.829 299.295 247.266C298.407 246.674 297.355 246.378 296.14 246.378C294.925 246.378 293.858 246.674 292.94 247.266C292.021 247.829 291.295 248.615 290.762 249.622C290.258 250.6 290.007 251.74 290.007 253.044C290.007 254.348 290.258 255.503 290.762 256.511C291.295 257.518 292.021 258.303 292.94 258.866C293.858 259.429 294.925 259.711 296.14 259.711ZM313.045 265.178V240.911H319.267V246.733L318.823 245.889C319.356 243.844 320.23 242.466 321.445 241.755C322.69 241.015 324.156 240.644 325.845 240.644H327.267V246.422H325.178C323.549 246.422 322.23 246.926 321.223 247.933C320.216 248.911 319.712 250.303 319.712 252.111V265.178H313.045ZM341.878 265.711C339.3 265.711 337.063 265.148 335.167 264.022C333.271 262.866 331.804 261.326 330.767 259.4C329.73 257.474 329.211 255.34 329.211 253C329.211 250.57 329.745 248.407 330.811 246.511C331.908 244.615 333.374 243.118 335.211 242.022C337.049 240.926 339.123 240.378 341.434 240.378C343.36 240.378 345.063 240.689 346.545 241.311C348.026 241.903 349.271 242.748 350.278 243.844C351.315 244.94 352.1 246.215 352.634 247.666C353.167 249.089 353.434 250.644 353.434 252.333C353.434 252.807 353.404 253.281 353.345 253.755C353.315 254.2 353.241 254.585 353.123 254.911H334.945V250.022H349.345L346.189 252.333C346.486 251.059 346.471 249.933 346.145 248.955C345.819 247.948 345.241 247.163 344.411 246.6C343.611 246.007 342.619 245.711 341.434 245.711C340.278 245.711 339.286 245.992 338.456 246.555C337.626 247.118 337.004 247.948 336.589 249.044C336.174 250.14 336.011 251.474 336.1 253.044C335.982 254.407 336.145 255.607 336.589 256.644C337.034 257.681 337.715 258.496 338.634 259.089C339.552 259.652 340.663 259.933 341.967 259.933C343.152 259.933 344.16 259.696 344.989 259.222C345.849 258.748 346.515 258.096 346.989 257.266L352.323 259.8C351.849 260.985 351.093 262.022 350.056 262.911C349.049 263.8 347.849 264.496 346.456 265C345.063 265.474 343.537 265.711 341.878 265.711ZM373.759 265.711C371.389 265.711 369.182 265.281 367.137 264.422C365.093 263.563 363.3 262.363 361.759 260.822C360.219 259.281 359.019 257.474 358.159 255.4C357.3 253.326 356.87 251.059 356.87 248.6C356.87 246.14 357.285 243.874 358.115 241.8C358.945 239.696 360.115 237.889 361.626 236.378C363.137 234.837 364.9 233.652 366.915 232.822C368.959 231.963 371.182 231.533 373.582 231.533C375.982 231.533 378.13 231.933 380.026 232.733C381.952 233.533 383.582 234.6 384.915 235.933C386.248 237.266 387.196 238.748 387.759 240.378L381.67 243.311C381.108 241.711 380.115 240.392 378.693 239.355C377.3 238.289 375.596 237.755 373.582 237.755C371.626 237.755 369.908 238.215 368.426 239.133C366.945 240.052 365.789 241.326 364.959 242.955C364.159 244.555 363.759 246.437 363.759 248.6C363.759 250.763 364.189 252.659 365.048 254.289C365.908 255.918 367.078 257.192 368.559 258.111C370.07 259.029 371.804 259.489 373.759 259.489C375.27 259.489 376.678 259.207 377.982 258.644C379.315 258.052 380.382 257.207 381.182 256.111C382.011 255.015 382.426 253.696 382.426 252.155V249.4L385.582 252.066H373.582V246.289H389.315V249.8C389.315 252.496 388.87 254.852 387.982 256.866C387.093 258.852 385.893 260.511 384.382 261.844C382.9 263.148 381.226 264.126 379.359 264.778C377.522 265.4 375.656 265.711 373.759 265.711ZM393.08 265.178V231.533H399.747V265.178H393.08ZM408.403 274.955C407.692 274.955 406.995 274.896 406.314 274.778C405.662 274.659 405.084 274.466 404.581 274.2V268.733C404.995 268.852 405.484 268.955 406.047 269.044C406.61 269.133 407.129 269.178 407.603 269.178C408.906 269.178 409.84 268.866 410.403 268.244C410.966 267.652 411.425 266.97 411.781 266.2L413.425 262.422L413.336 267.978L402.669 240.911H409.825L416.892 260.155H414.225L421.292 240.911H428.447L418.047 267.444C417.395 269.103 416.595 270.496 415.647 271.622C414.699 272.748 413.618 273.578 412.403 274.111C411.218 274.674 409.884 274.955 408.403 274.955ZM442.838 265.711C440.409 265.711 438.216 265.163 436.26 264.066C434.335 262.94 432.794 261.415 431.638 259.489C430.512 257.563 429.949 255.4 429.949 253C429.949 250.6 430.512 248.452 431.638 246.555C432.764 244.629 434.305 243.118 436.26 242.022C438.216 240.926 440.409 240.378 442.838 240.378C444.646 240.378 446.32 240.689 447.86 241.311C449.401 241.933 450.72 242.807 451.816 243.933C452.912 245.029 453.697 246.333 454.172 247.844L448.394 250.333C447.979 249.118 447.268 248.155 446.26 247.444C445.283 246.733 444.142 246.378 442.838 246.378C441.683 246.378 440.646 246.659 439.727 247.222C438.838 247.785 438.127 248.57 437.594 249.578C437.09 250.585 436.838 251.74 436.838 253.044C436.838 254.348 437.09 255.503 437.594 256.511C438.127 257.518 438.838 258.303 439.727 258.866C440.646 259.429 441.683 259.711 442.838 259.711C444.172 259.711 445.327 259.355 446.305 258.644C447.283 257.933 447.979 256.97 448.394 255.755L454.172 258.289C453.727 259.711 452.957 260.985 451.86 262.111C450.764 263.237 449.446 264.126 447.905 264.778C446.364 265.4 444.675 265.711 442.838 265.711Z" fill="white"/>
<defs>
<linearGradient id="paint0_linear_579_14" x1="676.029" y1="673.444" x2="508.751" y2="-103.753" gradientUnits="userSpaceOnUse">
<stop stop-color="#1976FF"/>
<stop offset="1" stop-color="#B9D7FE"/>
</linearGradient>
</defs>
</svg>
