<svg width="220" height="218" viewBox="0 0 220 218" fill="none" xmlns="http://www.w3.org/2000/svg">
<path d="M200.929 149.06C204.562 147.186 208.842 146.94 212.876 147.607C215.046 147.963 217.306 148.609 218.779 150.243C220.252 151.876 220.533 154.753 218.839 156.131C217.837 156.968 216.424 157.093 215.116 157.078C211.959 157.038 208.456 156.482 205.935 158.386C204.492 159.468 203.535 161.272 201.816 161.803C200.097 162.335 198.233 161.332 197.341 159.799C196.449 158.266 196.414 156.376 196.84 154.662C197.045 153.477 197.521 152.355 198.23 151.384C198.939 150.412 199.863 149.617 200.929 149.06Z" fill="#EBEBEB"/>
<path d="M192.605 132.989C194.83 136.161 199.145 135.109 201.15 133.175C203.154 131.24 203.996 128.429 204.768 125.753C206.527 119.634 208.275 113.225 206.993 106.991C206.677 105.103 205.849 103.338 204.597 101.89C203.289 100.507 201.275 99.6849 199.436 100.171C197.261 100.747 195.928 102.882 194.926 104.907C192.045 110.902 190.537 117.463 190.511 124.114C190.511 127.206 190.862 130.444 192.605 132.999" fill="#EBEBEB"/>
<path d="M186.507 137.539C188.917 134.678 189.373 130.524 188.301 126.915C187.228 123.307 184.793 120.276 182.007 117.785C178.718 114.857 174.89 112.598 170.737 111.135C169.129 110.488 167.401 110.196 165.67 110.278C163.952 110.439 162.218 111.321 161.416 112.849C160.233 115.109 161.366 117.86 162.599 120.095C164.767 124.04 167.242 127.808 170 131.365C172.22 134.227 174.761 137.048 178.143 138.341C181.526 139.634 185.034 139.479 186.828 137.133" fill="#EBEBEB"/>
<path d="M192.455 180.856C192.573 180.385 192.64 179.903 192.656 179.418C192.761 178.365 192.886 177.047 193.041 175.479C193.237 173.544 193.532 171.621 193.923 169.716C194.441 167.394 195.143 165.117 196.023 162.906C196.885 160.697 198.056 158.622 199.501 156.742C200.677 155.211 202.18 153.961 203.901 153.084C205.066 152.506 206.316 152.117 207.604 151.931C208.087 151.912 208.568 151.843 209.037 151.726C208.554 151.661 208.064 151.652 207.579 151.701C206.242 151.803 204.933 152.142 203.715 152.703C201.904 153.557 200.316 154.82 199.075 156.391C197.569 158.296 196.355 160.414 195.472 162.675C194.58 164.92 193.882 167.237 193.387 169.601C193.014 171.533 192.758 173.486 192.62 175.449C192.495 177.118 192.45 178.456 192.425 179.408C192.384 179.89 192.394 180.376 192.455 180.856Z" fill="#E0E0E0"/>
<path d="M192.726 177.829C192.766 177.608 192.78 177.383 192.766 177.158C192.766 176.657 192.766 176.025 192.766 175.249C192.766 173.585 192.766 171.185 192.851 168.233C192.996 162.295 193.507 155.911 194.495 146.905C195.432 138.442 196.685 128.585 198.002 122.18C198.288 120.722 198.574 119.409 198.844 118.262C199.115 117.114 199.345 116.122 199.531 115.315C199.716 114.508 199.857 113.947 199.977 113.456C200.041 113.242 200.08 113.022 200.092 112.799C199.989 112.997 199.911 113.208 199.862 113.426L199.305 115.26C199.06 116.052 198.804 117.039 198.519 118.186C198.233 119.334 197.902 120.637 197.592 122.09C195.953 129.668 194.721 137.327 193.898 145.036C192.896 154.056 192.465 162.275 192.425 168.223C192.39 171.2 192.455 173.605 192.53 175.269C192.575 176.045 192.615 176.677 192.646 177.178C192.648 177.397 192.675 177.616 192.726 177.829Z" fill="#E0E0E0"/>
<path d="M192.766 161.984C192.819 161.317 192.819 160.646 192.766 159.979C192.696 158.696 192.515 156.837 192.154 154.562C191.714 151.898 191.122 149.261 190.381 146.665C189.52 143.473 188.416 140.352 187.078 137.329C184.342 130.839 180.624 125.532 177.392 122.245C176.678 121.491 175.916 120.782 175.111 120.125C174.761 119.83 174.455 119.534 174.139 119.299L173.252 118.692C172.721 118.291 172.16 117.93 171.574 117.615C171.478 117.745 173.954 119.203 177.086 122.536C180.218 125.868 183.821 131.13 186.532 137.569C187.844 140.576 188.953 143.666 189.854 146.82C190.716 149.721 191.293 152.387 191.728 154.632C192.164 156.877 192.38 158.721 192.52 159.994C192.552 160.663 192.634 161.328 192.766 161.984Z" fill="#E0E0E0"/>
<path d="M177.452 189.937L179.04 211.69H206.983L208.571 189.937H177.452Z" fill="#E0E0E0"/>
<path d="M211.904 181.362H174.751V189.936H211.904V181.362Z" fill="#E0E0E0"/>
<path d="M174.751 210.858V213.233H176.5H211.292V210.858H174.751Z" fill="#EBEBEB"/>
<path d="M178.208 217.418L176.5 213.233H209.959L207.965 217.418H178.208Z" fill="#E0E0E0"/>
<path d="M208.055 197.047C208.018 197.117 207.975 197.182 207.925 197.242L207.504 197.799L205.875 199.883L205.805 199.974L205.735 199.878L201.726 194.366H201.956C200.764 196.05 199.451 197.929 198.018 199.943L197.892 200.119L197.757 199.954L193.087 194.396H193.357L193.097 194.722C191.648 196.536 190.25 198.295 188.922 199.954L188.782 200.129L188.657 199.948C187.238 197.944 185.91 196.07 184.718 194.376H184.943L180.092 199.888L180.007 199.984L179.942 199.873C179.301 198.801 178.79 197.944 178.439 197.323C178.278 197.047 178.148 196.822 178.048 196.641C178 196.565 177.96 196.485 177.928 196.401C177.99 196.465 178.044 196.538 178.088 196.616L178.524 197.273L180.118 199.778H179.967L184.738 194.186L184.858 194.04L184.968 194.196L188.942 199.743H188.682L192.846 194.501L193.102 194.176L193.237 194.01L193.372 194.171L198.028 199.738H197.767L201.746 194.191L201.861 194.03L201.976 194.191L205.88 199.783H205.72L207.413 197.754L207.864 197.227C207.99 197.097 208.045 197.042 208.055 197.047Z" fill="#F5F5F5"/>
<path d="M208.962 189.791C208.962 189.886 201.946 189.966 193.322 189.966C184.698 189.966 177.682 189.886 177.682 189.791C177.682 189.696 184.698 189.621 193.322 189.621C201.946 189.621 208.962 189.696 208.962 189.791Z" fill="#F5F5F5"/>
<path d="M210.375 213.469C210.375 213.564 202.763 213.639 193.377 213.639C183.991 213.639 176.379 213.564 176.379 213.469C176.379 213.374 183.986 213.293 193.377 213.293C202.768 213.293 210.375 213.374 210.375 213.469Z" fill="#F5F5F5"/>
<path d="M55.4594 68.8912C55.6173 68.7984 55.7855 68.7244 55.9605 68.6707C56.4922 68.503 57.0625 68.503 57.5942 68.6707C58.0257 68.8112 58.4165 69.055 58.7326 69.3807C59.0487 69.7064 59.2806 70.1043 59.4082 70.5398C59.58 71.1431 59.545 71.7866 59.3089 72.3677C59.0728 72.9489 58.6492 73.4344 58.1053 73.747V73.6568C60.5157 78.247 63.9934 84.8718 68.1778 92.8296L74.9128 105.693C75.242 106.261 75.5203 106.856 75.7447 107.472C76.0654 108.444 76.1352 109.481 75.9477 110.486C75.7602 111.492 75.3215 112.434 74.6723 113.225C73.769 114.322 72.5115 115.069 71.1165 115.338C69.7215 115.607 68.2764 115.381 67.0302 114.698C66.1578 114.212 65.414 113.525 64.8604 112.694C64.5998 112.268 64.3593 111.837 64.1588 111.411C63.9584 110.985 63.7128 110.559 63.4923 110.133L60.8715 105.122C59.1577 101.83 57.4939 98.6476 55.9054 95.6008L47.3864 79.2543L47.5167 79.2994C47.1594 79.4681 46.7709 79.561 46.3759 79.5723C45.9809 79.5835 45.5879 79.5127 45.2216 79.3645C44.7293 79.1636 44.3037 78.828 43.9936 78.3961C43.6835 77.9642 43.5015 77.4536 43.4685 76.923C43.4355 76.3923 43.5529 75.8631 43.8072 75.3962C44.0614 74.9292 44.4422 74.5434 44.9058 74.2832L50.5685 71.3466L54.1565 69.5025L55.0936 69.0265L55.4143 68.8711C55.4143 68.8711 55.3141 68.9362 55.1036 69.0515L54.1816 69.5526L50.6186 71.4468L44.981 74.4235C44.4312 74.7318 44.0113 75.2283 43.7984 75.8216C43.6132 76.3169 43.5806 76.8563 43.7048 77.3702C43.8291 77.8841 44.1045 78.3491 44.4955 78.705C44.8865 79.061 45.3752 79.2916 45.8985 79.3672C46.4218 79.4427 46.9558 79.3598 47.4315 79.129L47.5167 79.0889L47.5618 79.1741L56.1159 95.4905L61.097 105.012C61.9522 106.655 62.8258 108.326 63.7178 110.023C63.9383 110.449 64.1588 110.875 64.3843 111.301C64.6098 111.727 64.8253 112.158 65.0759 112.559C65.5783 113.324 66.2536 113.96 67.0472 114.416C67.8409 114.872 68.7306 115.135 69.6446 115.184C70.5586 115.232 71.4713 115.066 72.309 114.697C73.1466 114.328 73.8858 113.767 74.4668 113.06C75.2966 112.034 75.762 110.761 75.7898 109.442C75.7948 108.799 75.6966 108.159 75.4991 107.547C75.2759 106.947 75.0044 106.365 74.6873 105.809C72.302 101.243 70.052 96.9187 67.9723 92.9348C63.8231 84.957 60.3754 78.3222 57.98 73.7219L57.955 73.6618L58.0101 73.6317C58.5651 73.3149 58.9908 72.8128 59.2128 72.2136C59.3358 71.8756 59.39 71.5165 59.3722 71.1573C59.3543 70.798 59.2648 70.446 59.1088 70.122C58.9528 69.7979 58.7336 69.5083 58.464 69.2702C58.1944 69.0322 57.8799 68.8505 57.539 68.7358C57.0225 68.5645 56.4676 68.5453 55.9405 68.6807C55.6298 68.806 55.4694 68.9062 55.4594 68.8912Z" fill="#E0E0E0"/>
<path d="M51.7622 84.0181L59.6145 79.9147L74.0713 107.58C74.5471 108.49 74.6417 109.553 74.3343 110.533C74.0269 111.513 73.3427 112.331 72.4322 112.807L71.4506 113.32C70.9997 113.556 70.5066 113.701 69.9996 113.747C69.4925 113.793 68.9814 113.738 68.4955 113.586C68.0096 113.434 67.5585 113.188 67.1679 112.861C66.7772 112.535 66.4548 112.134 66.219 111.683L51.7622 84.0181Z" fill="#E0E0E0"/>
<path d="M58.0852 73.7068C58.1203 73.7719 55.7851 75.0648 52.8686 76.5932C49.9521 78.1216 47.5617 79.3093 47.5317 79.2441C47.5016 79.179 49.8318 77.8911 52.7483 76.3627C55.6648 74.8343 58.0501 73.6466 58.0852 73.7068Z" fill="#E0E0E0"/>
<path d="M146.638 20.0371C143.461 29.4481 138.384 44.6621 136.049 51.6477C135.886 52.1392 135.822 52.6581 135.859 53.1747C135.897 53.6912 136.036 54.1952 136.269 54.6579C136.502 55.1205 136.823 55.5328 137.216 55.871C137.608 56.2092 138.063 56.4667 138.555 56.6288L164.267 65.2781C164.759 65.4464 165.279 65.5159 165.797 65.4824C166.315 65.449 166.822 65.3133 167.288 65.0832C167.754 64.8531 168.169 64.5331 168.511 64.1417C168.853 63.7503 169.113 63.2952 169.278 62.8026L179.802 31.4777C180.168 30.3882 180.315 29.2374 180.236 28.0909C180.157 26.9445 179.853 25.8248 179.341 24.796C178.829 23.7671 178.119 22.8491 177.253 22.0945C176.386 21.3399 175.379 20.7634 174.29 20.3979L175.843 15.7876L159.005 10.125L157.537 14.4797H157.477C155.302 13.8161 152.955 14.0252 150.932 15.0625C148.908 16.0998 147.368 17.884 146.638 20.0371Z" fill="#F5F5F5"/>
<path d="M158.785 10.7114L158.083 12.8061L174.721 19.0701L175.623 16.3741L158.785 10.7114Z" fill="#E0E0E0"/>
<path d="M160.638 3.51903L178.573 9.55132C178.951 9.67843 179.262 9.95046 179.44 10.3076C179.617 10.6647 179.645 11.0776 179.518 11.4555L177.494 17.4734C177.412 17.7165 177.237 17.9172 177.008 18.0313C176.778 18.1454 176.512 18.1635 176.269 18.0818L157.323 11.7092C157.079 11.6274 156.879 11.4524 156.765 11.2227C156.651 10.993 156.632 10.7273 156.714 10.4842L158.74 4.46154C158.867 4.08363 159.139 3.77169 159.496 3.59434C159.853 3.417 160.266 3.38877 160.644 3.51588L160.638 3.51903Z" fill="#EBEBEB"/>
<path d="M159.051 12.335C158.925 12.2899 159.457 10.3956 160.228 8.10051C161 5.80539 161.732 3.9713 161.847 4.01139C161.962 4.05148 161.441 5.95071 160.669 8.24584C159.897 10.541 159.171 12.365 159.051 12.335Z" fill="#E0E0E0"/>
<path d="M161.271 13.0815C161.145 13.0364 161.671 11.1422 162.448 8.84709C163.225 6.55197 163.952 4.71788 164.067 4.75797C164.182 4.79806 163.661 6.6973 162.889 8.99242C162.117 11.2875 161.391 13.1216 161.271 13.0815Z" fill="#E0E0E0"/>
<path d="M163.485 13.8281C163.365 13.783 163.891 11.8888 164.663 9.58867C165.435 7.28853 166.166 5.46447 166.287 5.50455C166.407 5.54464 165.881 7.44388 165.109 9.739C164.337 12.0341 163.626 13.8682 163.485 13.8281Z" fill="#E0E0E0"/>
<path d="M165.705 14.5747C165.585 14.5296 166.111 12.6354 166.883 10.3353C167.655 8.03512 168.386 6.21105 168.507 6.25114C168.627 6.29123 168.101 8.19047 167.324 10.4856C166.547 12.7807 165.826 14.6148 165.705 14.5747Z" fill="#E0E0E0"/>
<path d="M167.925 15.3163C167.805 15.2762 168.331 13.382 169.103 11.0818C169.875 8.7817 170.606 6.95763 170.722 6.99772C170.837 7.03781 170.321 8.93203 169.544 11.2322C168.767 13.5323 168.046 15.3714 167.925 15.3163Z" fill="#E0E0E0"/>
<path d="M170.14 16.0634C170.015 16.0233 170.546 14.129 171.318 11.8289C172.09 9.52877 172.821 7.7047 172.937 7.74479C173.052 7.78488 172.531 9.67911 171.759 11.9792C170.987 14.2794 170.266 16.1085 170.14 16.0634Z" fill="#E0E0E0"/>
<path d="M172.36 16.8099C172.24 16.7698 172.766 14.8756 173.543 12.5755C174.32 10.2754 175.046 8.45128 175.162 8.49137C175.277 8.53146 174.756 10.4257 173.984 12.7258C173.212 15.026 172.486 16.8751 172.36 16.8099Z" fill="#E0E0E0"/>
<path d="M174.58 17.5565C174.46 17.5164 174.986 15.6222 175.758 13.3221C176.53 11.0219 177.261 9.19786 177.381 9.23795C177.502 9.27804 176.976 11.1723 176.204 13.4724C175.432 15.7725 174.706 17.6016 174.58 17.5565Z" fill="#E0E0E0"/>
<path d="M173.24 34.0283L150.522 26.3873C150.134 26.2567 149.713 26.4656 149.583 26.8538L144.688 41.407C144.557 41.7952 144.766 42.2158 145.154 42.3464L167.872 49.9874C168.261 50.118 168.681 49.9091 168.812 49.5209L173.707 34.9677C173.837 34.5795 173.628 34.1589 173.24 34.0283Z" fill="#EBEBEB"/>
<path d="M167.324 48.5909C167.34 48.4972 167.363 48.405 167.394 48.3153C167.454 48.1149 167.534 47.8693 167.625 47.5686C167.845 46.8771 168.144 45.9383 168.522 44.7524C169.318 42.3069 170.441 38.8642 171.809 34.6799L171.924 34.9154L150.762 27.8446L151.058 27.6993V27.7294V27.7895L151.023 27.9048L150.942 28.1353L150.787 28.5913L150.481 29.5083L149.87 31.3174C149.464 32.515 149.068 33.6977 148.677 34.8553C147.891 37.1704 147.139 39.4004 146.417 41.5201L146.287 41.2495L161.426 46.4512L165.781 47.9796L166.948 48.4005C167.09 48.447 167.229 48.5023 167.364 48.5659C167.235 48.5432 167.107 48.5096 166.983 48.4656L165.836 48.1048L161.491 46.7067L146.087 41.6805L145.886 41.6154L145.951 41.4099C146.663 39.2852 147.41 37.0552 148.181 34.735C148.572 33.5774 148.968 32.3948 149.369 31.1971C149.569 30.5958 149.775 29.9944 149.98 29.3831L150.286 28.471L150.441 28.01L150.516 27.7795L150.557 27.6642V27.6041C150.291 27.7294 150.917 27.4237 150.852 27.4538L172.045 34.5646L172.22 34.6248L172.16 34.7951L168.637 44.9378C168.226 46.097 167.902 47.0124 167.665 47.6839L167.404 48.3855C167.386 48.457 167.359 48.526 167.324 48.5909Z" fill="#E0E0E0"/>
<path d="M167.204 38.1227C167.164 38.243 163.911 37.2608 159.943 35.9228C155.974 34.5848 152.792 33.4172 152.832 33.2869C152.872 33.1566 156.124 34.1488 160.093 35.4818C164.062 36.8148 167.244 37.9974 167.204 38.1227Z" fill="#E0E0E0"/>
<path d="M166.382 40.5629C166.342 40.6882 163.09 39.701 159.121 38.368C155.152 37.0351 151.97 35.8624 152.01 35.7271C152.05 35.5918 155.302 36.5891 159.271 37.9271C163.24 39.265 166.422 40.4276 166.382 40.5629Z" fill="#E0E0E0"/>
<path d="M165.59 42.9332C165.55 43.0535 162.303 42.0713 158.334 40.7333C154.365 39.3953 151.178 38.2277 151.223 38.0974C151.268 37.9671 154.51 38.9594 158.479 40.2923C162.448 41.6253 165.63 42.7879 165.59 42.9332Z" fill="#E0E0E0"/>
<path d="M173.357 19.9267C173.317 20.047 169.774 18.9646 165.445 17.5113C161.115 16.0581 157.612 14.7752 157.672 14.65C157.733 14.5247 161.26 15.6121 165.59 17.0704C169.92 18.5286 173.398 19.8065 173.357 19.9267Z" fill="#E0E0E0"/>
<path d="M138.069 50.3047C138.169 49.7938 138.308 49.2912 138.485 48.8014C138.82 47.7691 139.256 46.401 139.788 44.7423C140.905 41.3197 142.484 36.5991 144.248 31.3975C145.14 28.8017 145.986 26.3312 146.753 24.0712C147.52 21.8111 148.447 19.7967 149.725 18.4537C150.698 17.3648 151.991 16.6122 153.418 16.3039C153.805 16.2353 154.199 16.2134 154.591 16.2387C154.727 16.242 154.862 16.2656 154.992 16.3089C154.477 16.3259 153.964 16.3845 153.458 16.4843C152.094 16.8429 150.871 17.6064 149.95 18.6741C148.758 19.9921 147.886 21.9615 147.144 24.2115L144.669 31.5479C142.905 36.7495 141.281 41.45 140.078 44.8476L138.64 48.8565C138.487 49.353 138.296 49.8372 138.069 50.3047Z" fill="white"/>
<path d="M167.214 64.9471C166.846 64.7277 166.499 64.4762 166.176 64.1954C165.861 63.9399 165.465 63.6342 164.989 63.3035C164.513 62.9727 163.987 62.5618 163.375 62.1759C161.954 61.2247 160.478 60.358 158.955 59.5801C155.216 57.6777 151.218 56.3354 147.089 55.5963C145.406 55.2977 143.708 55.0969 142.002 54.9949C141.276 54.9298 140.614 54.9348 140.033 54.9197C139.452 54.9047 138.956 54.9197 138.53 54.9197C138.106 54.9548 137.679 54.9447 137.257 54.8897C137.673 54.8025 138.095 54.7522 138.52 54.7393C138.931 54.6993 139.432 54.6692 140.023 54.6692C140.614 54.6692 141.276 54.6291 142.028 54.6692C143.752 54.7212 145.472 54.8886 147.174 55.1703C151.35 55.8664 155.388 57.2195 159.141 59.1793C160.669 59.981 162.142 60.8833 163.551 61.8803C164.162 62.2912 164.673 62.7171 165.134 63.0729C165.595 63.4287 165.981 63.7595 166.287 64.0401C166.625 64.3108 166.936 64.6147 167.214 64.9471Z" fill="white"/>
<path d="M180.959 71.5872C179.752 69.6829 178.108 67.3828 177.166 65.6689C175.604 68.3896 174.333 71.2668 173.373 74.2531C172.759 75.9119 172.463 77.6714 172.501 79.4397C172.611 81.1986 173.352 82.9876 174.791 84.0099C176.63 85.3228 179.737 85.2076 181.516 83.8144C183.295 82.4213 183.966 80.3066 183.936 78.0265C183.906 75.7464 182.167 73.5014 180.959 71.5872Z" fill="#EBEBEB"/>
<path d="M189.684 56.5937C188.792 55.1906 187.579 53.4968 186.888 52.229C185.735 54.2344 184.798 56.3559 184.091 58.5581C183.641 59.7797 183.423 61.0749 183.45 62.3767C183.436 63.1525 183.644 63.9161 184.05 64.5776C184.455 65.2391 185.042 65.7707 185.74 66.1099C186.438 66.4491 187.218 66.5817 187.989 66.4921C188.759 66.4024 189.488 66.0942 190.09 65.6039C191.398 64.5716 191.899 63.003 191.874 61.3393C191.849 59.6756 190.576 58.0019 189.684 56.5937Z" fill="#EBEBEB"/>
<path d="M9.59204 190.382L13.7012 217.378H37.5645L43.1018 190.773L9.59204 190.382Z" fill="#F5F5F5"/>
<path d="M39.7644 207.681C39.7644 207.761 33.6507 207.821 26.1089 207.821C18.5671 207.821 12.4534 207.761 12.4534 207.681C12.4534 207.601 18.5671 207.541 26.1089 207.541C33.6507 207.541 39.7644 207.606 39.7644 207.681Z" fill="#FAFAFA"/>
<path d="M39.8495 206.353C39.8495 206.433 33.6908 206.493 26.0988 206.493C18.5069 206.493 12.3481 206.433 12.3481 206.353C12.3481 206.273 18.5019 206.218 26.0988 206.218C33.6958 206.218 39.8495 206.298 39.8495 206.353Z" fill="#FAFAFA"/>
<path d="M39.8095 204.855C39.8095 204.935 33.6557 204.995 26.0638 204.995C18.4719 204.995 12.3131 204.935 12.3131 204.855C12.3131 204.774 18.4668 204.714 26.0638 204.714C33.6607 204.714 39.8095 204.795 39.8095 204.855Z" fill="#FAFAFA"/>
<path d="M16.4423 215.819C15.8566 213.574 15.4593 211.284 15.2546 208.974C15.5868 210.087 15.8314 211.225 15.9863 212.376C16.2281 213.51 16.3806 214.661 16.4423 215.819Z" fill="#FAFAFA"/>
<path d="M18.0659 215.549C17.8962 214.452 17.7958 213.345 17.7652 212.236C17.6472 211.131 17.5953 210.02 17.6099 208.909C17.8725 209.992 18.0186 211.101 18.0458 212.216C18.1667 213.323 18.1735 214.44 18.0659 215.549Z" fill="#FAFAFA"/>
<path d="M21.0225 215.549C20.4621 213.309 20.1926 211.007 20.2207 208.698C20.4395 209.828 20.5934 210.969 20.6818 212.116C20.8606 213.253 20.9744 214.399 21.0225 215.549Z" fill="#FAFAFA"/>
<path d="M23.0972 215.689C22.8736 214.551 22.7628 213.395 22.7664 212.236C22.6846 211.079 22.7215 209.917 22.8767 208.768C22.999 209.916 23.0559 211.071 23.0471 212.226C23.1317 213.378 23.1484 214.534 23.0972 215.689Z" fill="#FAFAFA"/>
<path d="M26.7753 215.549C26.5996 214.465 26.5158 213.369 26.5248 212.271C26.4402 211.177 26.4503 210.077 26.5549 208.984C26.7306 210.067 26.8144 211.164 26.8054 212.261C26.89 213.356 26.8799 214.456 26.7753 215.549Z" fill="#FAFAFA"/>
<path d="M29.4613 215.694C29.296 213.434 29.3144 211.165 29.5165 208.909C29.6885 211.168 29.6701 213.438 29.4613 215.694Z" fill="#FAFAFA"/>
<path d="M31.982 215.318C31.9521 214.132 32.0191 212.945 32.1825 211.77C32.2598 210.59 32.4274 209.417 32.6836 208.262C32.7134 209.448 32.6464 210.635 32.4831 211.81C32.4058 212.99 32.2383 214.163 31.982 215.318Z" fill="#FAFAFA"/>
<path d="M35.2292 214.977C35.2333 213.962 35.3681 212.951 35.6301 211.971C35.8007 210.966 36.0988 209.988 36.5171 209.059C36.3682 210.059 36.1624 211.049 35.9007 212.026C35.73 213.021 35.5058 214.006 35.2292 214.977Z" fill="#FAFAFA"/>
<path d="M6.85089 185.036V190.087C6.85089 190.619 7.06207 191.128 7.43799 191.504C7.8139 191.88 8.32375 192.091 8.85536 192.091H43.4325C43.9641 192.091 44.474 191.88 44.8499 191.504C45.2258 191.128 45.437 190.619 45.437 190.087V185.036H6.85089Z" fill="#F5F5F5"/>
<path d="M9.8476 192.076L10.1332 193.685L42.0244 195.96L42.8312 192.076H9.8476Z" fill="#E0E0E0"/>
<path d="M12.0575 185.06C12.0575 185.06 -1.37747 169.576 0.115867 169.024C1.6092 168.473 13.5508 177.042 13.5508 177.042C13.5508 177.042 3.2679 154.086 5.33752 152.407C7.40714 150.729 18.2163 172.748 18.2163 172.748C18.2163 172.748 16.5375 140.651 18.2163 140.275C19.895 139.899 26.0538 172.372 26.0538 172.372C26.0538 172.372 35.1942 142.706 37.81 142.706C40.4258 142.706 35.0087 171.269 35.0087 171.269C35.0087 171.269 45.8329 152.984 47.5116 155.409C49.1904 157.834 39.8495 177.599 39.8495 177.599C39.8495 177.599 53.48 166.208 54.0412 167.711C54.6025 169.215 39.2983 185.065 39.2983 185.065L12.0575 185.06Z" fill="#EBEBEB"/>
<path d="M10.1833 161.739C10.2735 161.693 12.6588 166.805 15.5052 173.149C18.3516 179.493 20.5865 184.675 20.5164 184.71C20.4462 184.745 18.0409 179.644 15.1945 173.299C12.3482 166.955 10.0881 161.779 10.1833 161.739Z" fill="#E0E0E0"/>
<path d="M21.0375 164.59C21.1377 164.59 21.5386 169.1 21.9195 174.647C22.3003 180.195 22.5409 184.725 22.4206 184.73C22.3003 184.735 21.9195 180.22 21.5386 174.672C21.1578 169.125 20.9323 164.6 21.0375 164.59Z" fill="#E0E0E0"/>
<path d="M36.006 150.218C35.9984 150.343 35.9731 150.466 35.9308 150.584C35.8506 150.854 35.7504 151.19 35.6351 151.586C35.3545 152.523 34.9736 153.786 34.5076 155.324C33.5605 158.481 32.2877 162.841 30.9998 167.712C29.7119 172.583 28.6245 177.013 27.8728 180.24C27.507 181.808 27.2063 183.091 26.9808 184.043C26.8806 184.459 26.7954 184.8 26.7302 185.076C26.7103 185.199 26.6714 185.319 26.615 185.431C26.6157 185.307 26.6292 185.182 26.6551 185.061L26.8405 184.013C27.0109 183.106 27.2715 181.798 27.6172 180.185C28.3038 176.957 29.3361 172.518 30.6239 167.657C31.9118 162.796 33.2398 158.426 34.252 155.289C34.7532 153.721 35.1791 152.453 35.4848 151.581L35.8456 150.579C35.8856 150.453 35.9394 150.332 36.006 150.218Z" fill="#E0E0E0"/>
<path d="M42.4804 166.76C42.5656 166.82 39.9398 170.729 36.6224 175.494C33.305 180.26 30.5488 184.073 30.4636 184.013C30.3784 183.953 33.0043 180.044 36.3217 175.279C39.6391 170.513 42.4003 166.71 42.4804 166.76Z" fill="#E0E0E0"/>
<path d="M16.5926 184.75C16.1626 184.526 15.7661 184.242 15.415 183.908C14.522 183.167 13.6689 182.379 12.8593 181.548C12.0469 180.718 11.2808 179.845 10.5642 178.932C10.2408 178.571 9.96768 178.168 9.75238 177.734C9.83757 177.664 11.2557 179.358 13.1249 181.287C14.9941 183.216 16.6578 184.649 16.5926 184.75Z" fill="#E0E0E0"/>
<path d="M24.7508 178.581C24.8511 178.581 25.0665 180.004 25.2269 181.773C25.3873 183.542 25.4374 184.995 25.3371 185.005C25.2369 185.015 25.0214 183.582 24.836 181.808C24.6506 180.034 24.6506 178.591 24.7508 178.581Z" fill="#E0E0E0"/>
<path d="M72.6527 60.5327L65.6872 48.6312C69.8009 41.7479 71.1914 33.5748 69.5851 25.7184C67.9789 17.8621 63.4923 10.8906 57.007 6.1742C50.5217 1.45784 42.5069 -0.662271 34.5379 0.230574C26.5689 1.12342 19.222 4.96465 13.9413 10.9993C8.66054 17.0339 5.82792 24.8254 6.00015 32.8425C6.17239 40.8595 9.33702 48.5222 14.872 54.3245C20.4071 60.1267 27.9122 63.6489 35.9122 64.1986C43.9122 64.7484 51.8286 62.286 58.1053 57.2955L72.6527 60.5327Z" fill="#FAFAFA"/>
<path d="M72.6527 60.5324L58.0802 57.3704C58.0638 57.3667 58.0494 57.3569 58.04 57.3429C58.0307 57.3289 58.0271 57.3118 58.0301 57.2952L58.1203 57.3854C56.106 58.9897 53.9092 60.3504 51.5757 61.4394C47.2483 63.4527 42.5222 64.4634 37.7499 64.396C35.9481 64.3849 34.1506 64.2172 32.3779 63.8949C26.1042 62.756 20.3091 59.7824 15.7253 55.3502C11.1414 50.918 7.97469 45.2262 6.6254 38.9944C5.63458 34.2876 5.68932 29.4208 6.78576 24.7375C7.95938 19.8385 10.2662 15.2831 13.5208 11.4379C14.3578 10.4499 15.2495 9.50966 16.1917 8.62158C17.1349 7.75199 18.127 6.93717 19.1634 6.18113C21.2015 4.68112 23.4143 3.43422 25.7531 2.46784C28.0382 1.5139 30.426 0.82781 32.869 0.423278C35.252 0.0376593 37.6702 -0.085015 40.0801 0.0574622C44.7093 0.326484 49.2241 1.60227 53.3096 3.79581C58.533 6.57702 62.885 10.7492 65.8841 15.8506C68.8832 20.952 70.4124 26.7837 70.3025 32.7003C70.2562 35.7607 69.7702 38.7984 68.8593 41.7204C68.0936 44.1472 67.0476 46.4765 65.7423 48.6609V48.6008L72.6527 60.5324L65.6371 48.6609C65.6323 48.6516 65.6297 48.6413 65.6297 48.6309C65.6297 48.6204 65.6323 48.6101 65.6371 48.6008C66.9298 46.4205 67.9625 44.0961 68.714 41.6753C69.6136 38.7654 70.0896 35.741 70.1271 32.6953C70.1673 29.1981 69.6428 25.7173 68.5736 22.3873C66.0042 14.5169 60.4969 7.94155 53.1993 4.03133C49.1417 1.85963 44.6597 0.597645 40.065 0.333079C37.6735 0.193273 35.2739 0.315943 32.9091 0.698895C30.4882 1.09502 28.1208 1.76758 25.8533 2.70337C23.5419 3.66738 21.3547 4.90567 19.3388 6.3916C18.3111 7.14116 17.3289 7.95106 16.3972 8.81701C15.4592 9.69426 14.574 10.6263 13.7463 11.6082C10.5219 15.4105 8.23407 19.9159 7.06638 24.7626C5.96948 29.4132 5.91131 34.2485 6.896 38.9242C8.22754 45.1161 11.367 50.7735 15.9167 55.1796C20.4664 59.5857 26.2216 62.5421 32.453 63.6744C35.8814 64.2808 39.3843 64.34 42.8312 63.8498C45.8443 63.4098 48.7789 62.5408 51.5456 61.2691C53.8671 60.1932 56.0537 58.8477 58.0602 57.2601C58.0723 57.2485 58.0885 57.242 58.1053 57.242C58.1221 57.242 58.1383 57.2485 58.1504 57.2601C58.1599 57.2703 58.1652 57.2838 58.1652 57.2977C58.1652 57.3117 58.1599 57.3251 58.1504 57.3353L58.1153 57.2351L72.6527 60.5324Z" fill="#263238"/>
<path d="M49.2766 17.1737L27.5138 16.9952C26.1633 16.9841 25.0594 18.0699 25.0484 19.4205L24.8405 44.7612C24.8294 46.1117 25.9153 47.2155 27.2658 47.2266L49.0286 47.4051C50.3792 47.4162 51.483 46.3304 51.4941 44.9798L51.7019 19.6391C51.713 18.2886 50.6272 17.1848 49.2766 17.1737Z" fill="#B2D1FF"/>
<path d="M29.36 26.7367L29.3458 28.4655C29.3264 30.8344 31.231 32.7706 33.6 32.7901L43.587 32.872C45.956 32.8914 47.8922 30.9867 47.9116 28.6178L47.9258 26.889C47.9452 24.52 46.0405 22.5838 43.6715 22.5643L33.6846 22.4824C31.3156 22.463 29.3794 24.3677 29.36 26.7367Z" fill="white"/>
<path d="M43.5878 32.8759C44.2446 32.8358 44.8868 32.6654 45.477 32.3748C46.1607 32.0343 46.7392 31.5148 47.1508 30.8714C47.412 30.4741 47.5988 30.0326 47.702 29.5685C47.8073 29.0443 47.8477 28.509 47.8223 27.9749C47.8437 27.3847 47.8252 26.7937 47.7671 26.206C47.6715 25.5813 47.4312 24.9876 47.0656 24.4721C46.6642 23.9019 46.1278 23.44 45.5043 23.1279C44.8808 22.8157 44.1896 22.6629 43.4926 22.6831L33.6907 22.613C32.8659 22.6109 32.0589 22.853 31.3714 23.3086C30.6839 23.7643 30.1466 24.4132 29.8271 25.1737C29.678 25.54 29.5769 25.924 29.5264 26.3162C29.4964 26.6971 29.4964 27.098 29.4964 27.4939C29.4284 28.2501 29.4877 29.0123 29.6718 29.7489C29.8801 30.4131 30.2509 31.0149 30.7506 31.4997C31.2502 31.9844 31.8629 32.3369 32.5331 32.5251C33.1537 32.6686 33.7911 32.7259 34.4274 32.6955L36.2164 32.7205L41.6134 32.8057L43.0817 32.8458H41.6134H34.4224C33.7664 32.881 33.1087 32.8253 32.468 32.6804C31.7567 32.4876 31.1053 32.1189 30.5738 31.6084C30.0422 31.0979 29.6476 30.4619 29.4262 29.7589C29.2295 28.9989 29.1617 28.2112 29.2258 27.4287C29.2258 27.0328 29.2258 26.6369 29.2558 26.221C29.3059 25.8044 29.4121 25.3965 29.5715 25.0083C29.9069 24.2092 30.4675 23.5249 31.1851 23.0389C31.5531 22.7965 31.9528 22.6059 32.3728 22.4727C32.8013 22.3491 33.2448 22.2851 33.6907 22.2822L43.4926 22.3724C44.2281 22.3548 44.9566 22.5199 45.6125 22.8532C46.2685 23.1864 46.8315 23.6772 47.251 24.2817C47.6324 24.8283 47.8812 25.4563 47.9776 26.1158C48.0328 26.7155 48.0462 27.3183 48.0177 27.9198C48.0366 28.4683 47.9877 29.0169 47.8724 29.5535C47.7602 30.0354 47.5597 30.4925 47.2811 30.9015C46.8445 31.5551 46.2358 32.0754 45.5221 32.4048C45.0745 32.6172 44.5926 32.7478 44.099 32.7907C43.9722 32.7999 43.8449 32.7999 43.7181 32.7907C43.681 32.8277 43.6367 32.8567 43.5878 32.8759Z" fill="#263238"/>
<g opacity="0.4">
<path d="M33.8361 17.0503C34.227 19.2201 36.3768 21.2797 38.5767 21.1695C39.6601 21.121 40.6904 20.6867 41.4816 19.9451C42.2729 19.2035 42.7729 18.2034 42.8913 17.1255" fill="black"/>
</g>
<path d="M40.0149 20.7838C39.5446 21.0462 39.015 21.184 38.4764 21.184C37.9379 21.184 37.4083 21.0462 36.938 20.7838L37.0132 12.0293C37.0223 11.6256 37.1899 11.2418 37.4795 10.9605C37.7692 10.6793 38.1579 10.5232 38.5616 10.5259C38.9661 10.5351 39.3507 10.7033 39.6321 10.9941C39.9135 11.2849 40.069 11.6748 40.065 12.0794L40.0149 20.7838Z" fill="#8CBAFF"/>
<path d="M39.0062 11.939L38.1093 11.9316L38.079 15.6248L38.9759 15.6321L39.0062 11.939Z" fill="white"/>
<path d="M37.9753 40.0971C37.9402 40.0971 37.9753 39.7363 37.8049 39.1249C37.5742 38.2634 37.0628 37.5033 36.3517 36.9651C35.8326 36.5674 35.2218 36.3066 34.5755 36.2067C33.9293 36.1069 33.2683 36.1712 32.6534 36.3938C31.9247 36.6489 31.2905 37.1189 30.8343 37.7418C30.3396 38.4041 30.0693 39.2071 30.063 40.0337C30.0567 40.8603 30.3147 41.6674 30.7993 42.3371C31.2453 42.9662 31.8704 43.4464 32.5933 43.7152C33.2042 43.947 33.8634 44.0226 34.511 43.9351C35.1586 43.8476 35.774 43.5998 36.3015 43.214C37.0277 42.6889 37.557 41.9355 37.8049 41.0743C37.9703 40.4679 37.9552 40.1071 37.9903 40.1071C38.0044 40.1934 38.0044 40.2814 37.9903 40.3677C37.9891 40.6162 37.9572 40.8637 37.8951 41.1043C37.682 42.0089 37.1612 42.8114 36.4218 43.3744C35.9835 43.7059 35.4835 43.9466 34.9511 44.0826C34.4186 44.2186 33.8644 44.247 33.3208 44.1663C32.7773 44.0856 32.2552 43.8973 31.7853 43.6125C31.3153 43.3277 30.9069 42.952 30.5838 42.5075C30.0623 41.7912 29.7847 40.9263 29.7919 40.0404C29.7991 39.1544 30.0908 38.2942 30.6239 37.5865C30.9524 37.1446 31.3663 36.7732 31.8412 36.4944C32.316 36.2156 32.842 36.035 33.388 35.9635C33.934 35.892 34.4888 35.9309 35.0194 36.078C35.55 36.2251 36.0457 36.4774 36.4769 36.8198C37.2071 37.3935 37.7154 38.203 37.9151 39.1099C37.9693 39.3534 37.9962 39.6021 37.9953 39.8515C38.0005 39.9339 37.9938 40.0166 37.9753 40.0971Z" fill="#263238"/>
<path d="M31.8316 40.0469C31.8617 40.0469 32.2024 40.2273 32.7286 40.4879C33.2548 40.7485 33.9764 41.1694 34.8433 41.6655L34.6429 41.7758C34.6429 41.2446 34.6429 40.6683 34.6429 40.072C34.6429 39.4757 34.6429 38.8994 34.6429 38.3632L34.8383 38.4784C33.9614 38.9795 33.2147 39.3754 32.7036 39.621C32.1924 39.8665 31.8316 40.0469 31.8015 40.0469C31.7715 40.0469 32.0471 39.8715 32.5733 39.5458C33.0994 39.2201 33.8511 38.7691 34.708 38.268L34.9035 38.1577V38.3832C34.9035 38.9194 34.9035 39.4957 34.9035 40.092C34.9035 40.6884 34.9035 41.2646 34.9035 41.8008V42.0263L34.708 41.9111C33.8561 41.41 33.1295 40.959 32.5933 40.5982C32.0571 40.2374 31.7915 40.0469 31.8316 40.0469Z" fill="#263238"/>
<path d="M38.737 40.1018C38.7671 40.1018 38.737 40.4626 38.9074 41.074C39.137 41.9373 39.6485 42.6993 40.3606 43.2388C40.8811 43.6336 41.4918 43.8926 42.1375 43.9923C42.7831 44.0921 43.4435 44.0294 44.0589 43.8101C44.8098 43.5381 45.4601 43.0438 45.9229 42.3929C46.3858 41.742 46.6393 40.9655 46.6497 40.1669C46.6507 39.3405 46.3932 38.5344 45.913 37.8618C45.4645 37.2362 44.84 36.7583 44.119 36.4887C43.5084 36.255 42.8488 36.1784 42.2009 36.266C41.553 36.3536 40.9374 36.6024 40.4107 36.9898C39.6845 37.515 39.1552 38.2684 38.9074 39.1296C38.737 39.741 38.752 40.1018 38.722 40.0968C38.7087 40.0121 38.7087 39.9259 38.722 39.8412C38.7277 39.593 38.7597 39.3461 38.8172 39.1046C39.0381 38.1957 39.5699 37.3926 40.3205 36.8345C40.83 36.4438 41.4238 36.1778 42.0544 36.0578C42.8746 35.905 43.7218 36.0037 44.4849 36.3408C45.248 36.678 45.8915 37.2378 46.3309 37.947C46.7703 38.6562 46.9851 39.4817 46.9472 40.3151C46.9093 41.1485 46.6204 41.951 46.1185 42.6174C45.6504 43.2444 45.0135 43.7252 44.2824 44.0038C43.5512 44.2825 42.7559 44.3473 41.9893 44.1909C41.2193 44.0355 40.5109 43.6603 39.9497 43.1107C39.3885 42.561 38.9986 41.8606 38.8272 41.094C38.7694 40.8527 38.7408 40.6054 38.742 40.3574C38.729 40.2728 38.7274 40.1868 38.737 40.1018Z" fill="#263238"/>
<path d="M44.8908 40.1523C44.8657 40.1523 44.5199 39.9769 43.9988 39.7113C43.4776 39.4457 42.751 39.0298 41.8841 38.5337L42.0795 38.4234C42.0795 38.9596 42.0795 39.5309 42.0795 40.1322C42.0795 40.7336 42.0795 41.3048 42.0795 41.836L41.8841 41.7258C42.756 41.2247 43.5077 40.8288 44.0138 40.5832C44.5199 40.3377 44.8908 40.1573 44.9158 40.1523C44.672 40.3366 44.4158 40.504 44.1491 40.6534C43.6029 41.0042 42.8713 41.4301 42.0093 41.9312L41.8139 42.0465V41.816C41.8139 41.2798 41.8139 40.7085 41.8139 40.1072C41.8139 39.5058 41.8139 38.9346 41.8139 38.4034V38.1729L42.0043 38.2881C42.8562 38.7892 43.5829 39.2452 44.1241 39.601C44.389 39.7714 44.6449 39.9554 44.8908 40.1523Z" fill="#263238"/>
<path d="M38.1206 28.8367C38.1206 29.7186 37.3589 30.2598 36.1713 30.2498C34.9836 30.2398 34.257 29.6886 34.262 28.8066C34.2605 28.545 34.3437 28.29 34.499 28.0796C34.6543 27.8692 34.8735 27.7146 35.1239 27.639C34.9187 27.552 34.7447 27.4049 34.6249 27.217C34.505 27.0291 34.4449 26.8094 34.4524 26.5866C34.4524 25.7748 35.164 25.2787 36.2113 25.2837C37.2587 25.2887 37.9703 25.7848 37.9653 26.6167C37.9681 26.8405 37.903 27.0598 37.7787 27.2459C37.6543 27.432 37.4765 27.576 37.2687 27.659C37.5189 27.7369 37.737 27.8938 37.8906 28.1061C38.0442 28.3184 38.1249 28.5747 38.1206 28.8367ZM37.424 28.8116C37.424 28.2754 36.963 27.9397 36.1913 27.9346C35.4196 27.9296 34.9585 28.2554 34.9585 28.7916C34.9585 29.3278 35.4045 29.6835 36.1763 29.6886C36.948 29.6936 37.419 29.3578 37.424 28.8116ZM35.1389 26.6217C35.1389 27.1228 35.5298 27.4035 36.1963 27.4085C36.8628 27.4135 37.2787 27.1178 37.2837 26.6368C37.2887 26.1557 36.8578 25.85 36.2063 25.845C35.5549 25.84 35.144 26.1356 35.1389 26.6217Z" fill="#8CBAFF"/>
<path d="M38.8022 29.7788C38.8013 29.7143 38.8139 29.6504 38.8392 29.591C38.8645 29.5317 38.902 29.4784 38.9492 29.4345C38.9964 29.3905 39.0524 29.357 39.1134 29.3361C39.1744 29.3151 39.2391 29.3072 39.3033 29.3128C39.367 29.3124 39.4301 29.3255 39.4883 29.3512C39.5466 29.377 39.5987 29.4147 39.6414 29.4621C39.684 29.5094 39.7161 29.5652 39.7355 29.6259C39.755 29.6865 39.7614 29.7506 39.7543 29.8139C39.7564 29.8755 39.7459 29.9368 39.7236 29.9942C39.7013 30.0516 39.6675 30.1039 39.6245 30.1479C39.5814 30.192 39.5298 30.2268 39.4729 30.2503C39.416 30.2739 39.3549 30.2857 39.2933 30.285C39.2265 30.2888 39.1597 30.2782 39.0973 30.254C39.035 30.2297 38.9786 30.1922 38.932 30.1442C38.8854 30.0962 38.8497 30.0387 38.8273 29.9757C38.8049 29.9126 38.7963 29.8455 38.8022 29.7788Z" fill="#8CBAFF"/>
<path d="M43.8033 28.8016C43.8033 29.6385 43.192 30.305 41.9542 30.305C41.3088 30.3154 40.6799 30.1011 40.1752 29.6986L40.501 29.1524C40.9016 29.5021 41.4174 29.6913 41.9492 29.6836C42.6858 29.6836 43.1068 29.3529 43.1068 28.8267C43.1068 28.3005 42.771 27.9397 41.6485 27.9297H40.541L40.8217 25.394H43.5578V26.0004H41.403L41.2627 27.3334H41.8039C43.2471 27.3334 43.8083 27.9397 43.8033 28.8016Z" fill="#8CBAFF"/>
<path d="M42.9113 17.1256C42.9393 17.2914 42.9393 17.4608 42.9113 17.6267C42.8313 18.1037 42.6612 18.5612 42.4102 18.9747C42.0488 19.599 41.5437 20.1281 40.9369 20.5181C40.1918 21.0066 39.3222 21.2709 38.4313 21.2798C37.5381 21.2616 36.6734 20.9617 35.9608 20.4229C35.3777 20.0096 34.8821 19.485 34.5025 18.8795C34.2426 18.4755 34.0497 18.0321 33.9313 17.5665C33.878 17.405 33.8526 17.2355 33.8561 17.0654C34.0516 17.6741 34.3244 18.2551 34.6679 18.7943C35.0494 19.3664 35.5357 19.8612 36.1011 20.2525C36.7744 20.7493 37.5848 21.0258 38.4213 21.0443C39.1861 21.0258 39.9345 20.8185 40.5999 20.4408C41.2652 20.0631 41.8269 19.5267 42.2348 18.8795C42.5548 18.3358 42.7833 17.7433 42.9113 17.1256Z" fill="#263238"/>
<path d="M82.0939 89.6873C79.6384 65.6687 76.9875 49.7933 84.9703 26.4512L101.337 30.0592C108.448 52.4141 108.022 76.3676 107.531 99.8199C107.486 101.935 107.41 104.165 106.293 105.964C104.058 109.557 98.9916 109.727 94.7671 109.471C90.9937 109.261 83.5471 112.263 80.9212 109.542C78.4758 107.021 82.4446 93.1951 82.0939 89.6873Z" fill="#263238"/>
<path d="M162.383 94.8391L147.971 90.2739L133.914 89.873L94.4013 94.789L70.4178 154.467L79.7436 195.935L73.5999 217.418H156.61C156.61 217.418 165.169 117.159 164.929 116.192C164.688 115.225 162.373 94.8441 162.373 94.8441" fill="#8CBAFF"/>
<path d="M94.4013 94.7886C94.4013 94.7886 75.0882 97.199 66.9751 108.915C60.7262 117.935 45.4922 147.621 45.4922 147.621L34.8835 142.265C34.8835 142.265 28.1134 164.604 27.928 168.824C27.6423 175.228 28.2737 189.199 33.4403 193.534C39.5239 198.64 50.2879 193.283 53.6153 190.668C58.0051 187.21 72.4824 160.435 72.4824 160.435L94.4013 94.7886Z" fill="#8CBAFF"/>
<path d="M79.7536 195.934C79.7536 195.934 79.7536 195.869 79.6984 195.739C79.6433 195.609 79.6082 195.408 79.5481 195.163L78.9969 192.943C78.5308 190.993 77.8593 188.202 77.0325 184.76C76.2056 181.317 75.2285 177.183 74.1461 172.612C73.6048 170.327 73.0386 167.927 72.4473 165.441C72.307 164.82 72.1366 164.199 72.0213 163.557C71.9061 162.916 71.7808 162.269 71.6755 161.618C71.445 160.315 71.2496 158.987 71.0792 157.639C70.7335 155.015 70.6195 152.365 70.7384 149.721C70.8706 147.257 71.25 144.813 71.871 142.425C72.949 138.398 74.3414 134.463 76.0353 130.654C77.4534 127.392 78.7163 124.806 79.5882 123.022L80.5904 120.972C80.7007 120.747 80.7909 120.571 80.861 120.441C80.8892 120.38 80.9227 120.321 80.9613 120.266C80.9613 120.266 80.9613 120.331 80.8811 120.456L80.6355 120.997C80.405 121.485 80.081 122.175 79.6634 123.067C78.8215 124.866 77.5837 127.462 76.1856 130.724C74.5251 134.536 73.1549 138.467 72.0865 142.485C71.4796 144.86 71.1087 147.289 70.979 149.736C70.8646 152.366 70.9803 155 71.3248 157.609C71.4951 158.945 71.6922 160.267 71.9161 161.573C72.0213 162.224 72.1466 162.866 72.2568 163.502C72.3671 164.139 72.5425 164.765 72.6828 165.386C73.2641 167.892 73.8303 170.277 74.3615 172.562C75.4289 177.138 76.366 181.252 77.1979 184.719C78.0297 188.187 78.6361 190.968 79.0821 192.918C79.2975 193.88 79.4679 194.627 79.5832 195.153C79.6333 195.398 79.6784 195.589 79.7085 195.734C79.7303 195.799 79.7454 195.866 79.7536 195.934Z" fill="#263238"/>
<path d="M52.137 137.7C52.1604 137.731 52.1774 137.767 52.1871 137.805L52.3123 138.126C52.4455 138.544 52.5509 138.971 52.6281 139.404C52.8716 140.998 52.9622 142.612 52.8987 144.224C52.8987 146.264 52.6281 148.684 52.7433 151.36C52.9055 154.269 53.3044 157.16 53.936 160.004C55.2188 166.073 56.8124 171.505 57.093 175.599C57.2463 177.204 57.2463 178.82 57.093 180.425C57.0533 180.868 56.9846 181.309 56.8876 181.743C56.8475 181.873 56.8174 181.979 56.7923 182.069C56.7833 182.107 56.7699 182.144 56.7523 182.179C56.7456 182.141 56.7456 182.102 56.7523 182.064C56.7523 181.974 56.7923 181.863 56.8224 181.728C56.9025 181.3 56.9594 180.869 56.9928 180.435C57.1042 178.836 57.0773 177.229 56.9126 175.634C56.5819 171.575 54.9683 166.158 53.6804 160.1C53.0452 157.241 52.6513 154.335 52.5028 151.41C52.4026 148.704 52.6732 146.289 52.7132 144.259C52.7946 142.657 52.7325 141.05 52.5278 139.459C52.4645 139.028 52.3758 138.601 52.2622 138.181C52.2222 138.051 52.1921 137.945 52.162 137.855C52.1484 137.804 52.14 137.752 52.137 137.7Z" fill="#263238"/>
<path d="M62.7907 138.797C62.7256 138.827 61.568 136.602 60.21 133.821C58.852 131.04 57.7996 128.765 57.8647 128.735C57.9299 128.705 59.0825 130.93 60.4455 133.706C61.8086 136.482 62.8559 138.767 62.7907 138.797Z" fill="white"/>
<path d="M71.0642 133.234C71.1244 133.279 68.8292 136.466 65.9428 140.35C63.0564 144.234 60.671 147.366 60.6159 147.311C60.5608 147.256 62.8459 144.083 65.7323 140.195C68.6188 136.306 71.0091 133.194 71.0642 133.234Z" fill="white"/>
<path d="M70.2874 144.735C69.7688 144.193 69.3147 143.593 68.9344 142.946C68.4826 142.348 68.1025 141.699 67.8019 141.012C68.3205 141.554 68.7746 142.154 69.1549 142.801C69.6067 143.399 69.9868 144.048 70.2874 144.735Z" fill="white"/>
<path d="M81.4424 134.607C81.5025 134.637 80.2547 137.173 78.6512 140.265C77.0476 143.357 75.6895 145.837 75.6444 145.807C75.5993 145.777 76.8321 143.237 78.4357 140.145C80.0393 137.053 81.3973 134.572 81.4424 134.607Z" fill="white"/>
<path d="M86.8093 144.72C86.485 144.554 86.1876 144.339 85.9274 144.084C85.2628 143.515 84.6507 142.888 84.0983 142.21C83.5324 141.537 83.0292 140.814 82.5949 140.05C82.3943 139.741 82.2422 139.403 82.1439 139.048C82.2141 139.008 82.9858 140.471 84.2737 142.029C85.5615 143.588 86.8595 144.66 86.8093 144.72Z" fill="white"/>
<path d="M95.1429 133.019C94.7884 133.402 94.4065 133.759 94.0004 134.086C93.2788 134.728 92.2815 135.62 91.2041 136.622C90.1267 137.624 89.1997 138.556 88.4831 139.228C88.1296 139.612 87.7459 139.967 87.3355 140.29C87.6335 139.864 87.9689 139.465 88.3377 139.098C88.9942 138.391 89.9313 137.439 91.0137 136.432C92.0961 135.424 93.1084 134.552 93.8651 133.926C94.2595 133.582 94.6876 133.278 95.1429 133.019Z" fill="white"/>
<path d="M100.485 148.268C100.43 148.313 98.6007 146.263 96.3957 143.642C94.1908 141.022 92.452 138.897 92.5071 138.852C92.5622 138.807 94.3913 140.856 96.5962 143.477C98.8011 146.098 100.535 148.218 100.485 148.268Z" fill="white"/>
<path d="M106.333 136.051C105.512 137.029 104.624 137.95 103.677 138.807C102.79 139.727 101.843 140.586 100.841 141.378C101.661 140.408 102.547 139.496 103.492 138.647C104.379 137.718 105.328 136.851 106.333 136.051Z" fill="white"/>
<path d="M115.569 146.665C115.103 146.419 114.665 146.125 114.261 145.788C112.242 144.245 110.439 142.44 108.899 140.421C108.562 140.016 108.268 139.578 108.022 139.113C108.379 139.49 108.714 139.888 109.024 140.305C109.64 141.052 110.527 142.054 111.565 143.097C112.602 144.139 113.609 145.021 114.356 145.642C114.782 145.956 115.187 146.298 115.569 146.665Z" fill="white"/>
<path d="M121.236 136.582C120.971 136.882 120.681 137.158 120.369 137.409C119.818 137.91 119.071 138.597 118.28 139.413C117.488 140.23 116.816 140.977 116.33 141.533C116.087 141.851 115.816 142.147 115.518 142.415C115.701 142.055 115.927 141.719 116.19 141.413C116.78 140.645 117.416 139.914 118.094 139.223C118.774 138.533 119.493 137.884 120.249 137.279C120.546 137.004 120.878 136.77 121.236 136.582Z" fill="white"/>
<path d="M128.963 148.168C128.913 148.218 127.285 146.584 125.325 144.525C123.366 142.465 121.817 140.746 121.878 140.696C123.151 141.85 124.366 143.067 125.516 144.344C127.47 146.414 129.014 148.123 128.963 148.168Z" fill="white"/>
<path d="M134 134.257C133.672 134.668 133.316 135.055 132.932 135.414C132.266 136.116 131.354 137.093 130.392 138.216C129.429 139.338 128.603 140.391 128.011 141.162C127.708 141.596 127.373 142.006 127.009 142.39C127.244 141.919 127.523 141.471 127.841 141.052C128.397 140.25 129.204 139.173 130.171 138.045C131.138 136.918 132.075 135.956 132.782 135.284C133.153 134.902 133.561 134.558 134 134.257Z" fill="white"/>
<path d="M139.677 145.973C139.282 145.74 138.911 145.468 138.57 145.161C137.908 144.62 137.021 143.838 136.064 142.931C135.107 142.024 134.33 141.152 133.769 140.506C133.446 140.175 133.162 139.808 132.922 139.413C133.28 139.71 133.615 140.033 133.925 140.38C134.511 140.997 135.333 141.838 136.265 142.746C137.197 143.653 138.059 144.444 138.685 145.021C139.043 145.308 139.375 145.627 139.677 145.973Z" fill="white"/>
<path d="M149.675 134.137C149.39 134.548 149.064 134.929 148.702 135.274C148.066 135.951 147.154 136.848 146.087 137.78C145.019 138.712 144.007 139.489 143.255 140.025C142.862 140.336 142.439 140.608 141.992 140.837C142.353 140.49 142.738 140.17 143.145 139.88C143.867 139.308 144.859 138.506 145.916 137.584C146.974 136.662 147.921 135.785 148.572 135.149C148.915 134.786 149.284 134.448 149.675 134.137Z" fill="white"/>
<path d="M158.615 135.324C158.664 135.744 158.664 136.168 158.615 136.587C158.58 137.369 158.489 138.446 158.329 139.629C158.169 140.811 157.968 141.869 157.798 142.636C157.732 143.054 157.616 143.463 157.452 143.853C157.47 143.432 157.525 143.012 157.617 142.6C157.743 141.834 157.913 140.771 158.073 139.594C158.234 138.416 158.349 137.349 158.434 136.587C158.45 136.161 158.511 135.738 158.615 135.324Z" fill="white"/>
<g opacity="0.3">
<path d="M107.28 147.206C106.238 146.008 105.14 144.775 103.682 144.144C101.678 143.282 99.3874 143.698 97.2526 144.144C88.3628 145.988 79.5097 148.016 70.6934 150.227L71.6004 151.185C74.4317 154.878 79.7686 155.334 84.414 155.098C89.0593 154.863 94.1307 154.367 97.9793 156.983C101.399 159.418 104.363 162.437 106.734 165.902C113.419 175.865 118.209 181.016 125.661 187.536C133.443 194.351 140.193 202.068 150.396 200.289C136.639 182.105 122.267 164.411 107.28 147.206Z" fill="black"/>
</g>
<path d="M34.683 143.703L35.8557 139.268C35.8557 139.268 24.5554 129.872 26.4597 125.828C26.6272 125.191 26.9975 124.626 27.5146 124.218C28.0318 123.811 28.6677 123.582 29.3261 123.568C29.3261 123.568 28.0182 120.832 29.8272 118.812C31.6362 116.793 33.6357 117.625 33.6357 117.625C33.6357 117.625 32.6836 114.768 33.2799 113.46C33.3784 113.243 33.494 113.033 33.6257 112.834C34.0067 112.253 34.5275 111.777 35.1404 111.449C35.7533 111.122 36.4386 110.954 37.1335 110.96H38.0556L36.1764 104.145C35.9267 103.238 35.9371 102.279 36.2064 101.379L36.5572 100.196C36.8632 99.2157 37.5288 98.3877 38.4203 97.8783C39.3119 97.3688 40.3632 97.2157 41.3629 97.4497C42.7911 97.8005 43.8685 98.4219 43.8685 99.5444V100.141L41.4732 101.449C41.4732 101.449 45.1314 110.584 45.4872 111.085C45.8429 111.586 49.4159 115.846 49.4159 115.846C49.4159 115.846 49.7717 110.494 52.147 110.133C54.5223 109.772 55.3592 111.205 55.0034 112.278C54.6476 113.35 54.6877 114.718 55.0836 116.352C55.0836 116.352 53.8157 127.978 53.931 131.07C54.0463 134.162 52.6231 134.162 52.6231 134.162C52.6231 134.162 52.3876 138.561 51.5557 140.942C50.7238 143.322 43.1119 152.117 39.6591 151.175C36.2064 150.233 34.683 143.703 34.683 143.703Z" fill="#D3A890"/>
<path d="M29.2258 123.373C29.326 123.395 29.4235 123.429 29.5165 123.473L30.3283 123.804L33.3049 125.061L37.6997 126.956L40.2955 128.083C40.7633 128.271 41.22 128.485 41.6636 128.725C42.1523 128.973 42.5413 129.382 42.766 129.882C42.8762 130.191 42.8618 130.531 42.726 130.829C42.5885 131.111 42.3681 131.343 42.0946 131.496C41.5878 131.78 41.0253 131.951 40.4459 131.997C37.6955 132.347 34.9059 131.793 32.4981 130.418H32.5984C31.799 131.189 30.7501 131.647 29.6418 131.711C29.5639 131.725 29.4841 131.725 29.4062 131.711C29.4062 131.711 29.732 131.711 30.3032 131.546C31.1231 131.331 31.8727 130.906 32.4781 130.313L32.5232 130.268L32.5783 130.298C34.0483 131.101 35.6598 131.611 37.3239 131.801C38.3518 131.918 39.39 131.91 40.4158 131.776C40.9563 131.736 41.4823 131.583 41.9592 131.325C42.1866 131.195 42.3711 131.002 42.4904 130.769C42.5977 130.532 42.6085 130.262 42.5205 130.017C42.3068 129.581 41.9542 129.229 41.5183 129.015C41.0861 128.777 40.6392 128.566 40.1803 128.384L37.5945 127.241L33.2197 125.292L30.2782 123.959L29.4864 123.583C29.3895 123.526 29.3017 123.455 29.2258 123.373Z" fill="#796342"/>
<path d="M32.9191 117.489C33.0074 117.498 33.0947 117.514 33.1797 117.539C33.4247 117.593 33.6658 117.664 33.9013 117.75C34.7721 118.068 35.5989 118.496 36.3618 119.023C38.3412 120.275 40.5963 122.701 43.9537 123.954C44.7677 124.291 45.5236 124.755 46.1937 125.327C46.8094 125.899 47.2271 126.652 47.3864 127.477C47.4686 127.852 47.46 128.241 47.3616 128.612C47.2631 128.984 47.0775 129.326 46.8201 129.611C46.3395 130.077 45.7004 130.344 45.0311 130.358C44.4934 130.374 43.958 130.28 43.4576 130.082C43.0857 129.938 42.7269 129.762 42.3852 129.556C42.0996 129.391 41.8841 129.256 41.7488 129.155C41.6723 129.113 41.6016 129.06 41.5384 129C41.8434 129.142 42.1411 129.299 42.4303 129.471C42.7775 129.656 43.1376 129.815 43.5078 129.947C43.989 130.121 44.5 130.198 45.0111 130.173C45.6273 130.15 46.2123 129.896 46.6498 129.461C46.8819 129.201 47.0485 128.889 47.1357 128.552C47.2228 128.215 47.2281 127.861 47.1509 127.522C46.9993 126.751 46.6061 126.049 46.0284 125.517C45.3741 124.968 44.641 124.52 43.8535 124.189C43.0501 123.857 42.267 123.477 41.5083 123.052C40.812 122.636 40.1425 122.178 39.5038 121.679C38.2811 120.737 37.2287 119.829 36.2666 119.173C35.5242 118.638 34.722 118.19 33.8763 117.84C33.2649 117.6 32.9141 117.519 32.9191 117.489Z" fill="#796342"/>
<path d="M37.1135 111.085C37.2159 111.115 37.3137 111.159 37.4042 111.215L38.2009 111.641L41.1124 113.245L45.412 115.65C46.292 116.088 47.108 116.645 47.8374 117.304C48.2392 117.67 48.5475 118.128 48.7366 118.638C48.9258 119.148 48.9903 119.695 48.9249 120.235C48.8214 120.793 48.5163 121.292 48.068 121.639C47.6258 121.959 47.1075 122.157 46.5646 122.215C45.5651 122.295 44.5657 122.058 43.7082 121.538C42.8814 121.087 42.1648 120.566 41.4632 120.14C40.7617 119.714 40.1002 119.328 39.4587 119.013C38.4763 118.508 37.4411 118.113 36.3719 117.835C35.6152 117.65 35.1842 117.6 35.1842 117.574C35.2908 117.563 35.3983 117.563 35.5049 117.574C35.8049 117.605 36.1028 117.653 36.3969 117.72C37.4851 117.961 38.5401 118.333 39.5389 118.827C40.1753 119.133 40.8518 119.504 41.5434 119.935C42.2349 120.366 42.9766 120.872 43.7834 121.308C44.5993 121.8 45.5501 122.021 46.4995 121.939C46.9892 121.884 47.4558 121.701 47.8525 121.408C48.2504 121.104 48.5203 120.663 48.6092 120.17C48.6692 119.672 48.6096 119.167 48.4353 118.696C48.261 118.225 47.977 117.803 47.6069 117.464C46.8947 116.822 46.1011 116.276 45.2467 115.841L40.9721 113.385L38.1007 111.706L37.329 111.24C37.2549 111.192 37.183 111.14 37.1135 111.085Z" fill="#796342"/>
<path d="M43.8234 99.5596C43.8234 99.5596 43.8635 99.6498 43.8886 99.8302C43.8801 99.9422 43.86 100.053 43.8284 100.161C43.77 100.296 43.696 100.424 43.608 100.542C43.0495 101.161 42.3237 101.604 41.5183 101.82C40.7356 102.071 39.914 102.18 39.0929 102.14C38.7461 102.141 38.4037 102.064 38.0906 101.915C38.0906 101.87 38.4765 101.955 39.0929 101.955C39.8861 101.943 40.6731 101.812 41.4281 101.569C42.1806 101.36 42.8694 100.968 43.4326 100.427C43.5205 100.328 43.5978 100.221 43.6631 100.106C43.7032 99.9955 43.7332 99.9003 43.7583 99.8252C43.7603 99.7329 43.7826 99.6423 43.8234 99.5596Z" fill="#796342"/>
<path d="M46.5896 138.647C46.1916 137.366 45.5965 136.156 44.8256 135.059C43.985 134.014 42.9856 133.107 41.864 132.373C42.2477 132.492 42.6086 132.675 42.9314 132.914C43.7417 133.458 44.4534 134.135 45.0361 134.918C45.6192 135.695 46.0681 136.564 46.3641 137.489C46.504 137.859 46.5803 138.251 46.5896 138.647Z" fill="#796342"/>
<path d="M43.2471 141.558C43.2471 141.558 43.1519 141.653 42.9464 141.773C42.6564 141.944 42.3468 142.078 42.0244 142.174C40.9507 142.51 39.7984 142.498 38.732 142.139C37.6669 141.763 36.7467 141.062 36.1012 140.135C35.9012 139.861 35.7331 139.565 35.6 139.253C35.5407 139.143 35.5049 139.022 35.4948 138.897C35.5399 138.897 35.7253 139.368 36.2315 140.024C36.8838 140.881 37.7763 141.525 38.7954 141.873C39.8145 142.221 40.9141 142.258 41.9542 141.979C42.7761 141.793 43.2271 141.518 43.2471 141.558Z" fill="#796342"/>
<path d="M50.2277 135.605C49.9355 135.701 49.6252 135.728 49.3207 135.685C48.5794 135.633 47.8612 135.404 47.226 135.019C46.5909 134.634 46.0552 134.105 45.6625 133.475C45.4843 133.225 45.366 132.937 45.3168 132.633C45.3569 132.633 45.4972 132.934 45.8179 133.375C46.2332 133.945 46.7578 134.427 47.3613 134.793C47.9686 135.157 48.6409 135.398 49.3408 135.505C49.6382 135.52 49.9344 135.553 50.2277 135.605Z" fill="#796342"/>
<path d="M52.3775 126.73C52.0024 126.804 51.6156 126.794 51.245 126.7C50.3332 126.53 49.487 126.109 48.8017 125.483C48.1164 124.858 47.6193 124.054 47.3663 123.162C47.2381 122.803 47.1919 122.419 47.231 122.04C47.2761 122.04 47.3162 122.466 47.5417 123.107C47.8353 123.941 48.3271 124.69 48.9749 125.292C49.6311 125.884 50.4227 126.305 51.28 126.52C51.9315 126.685 52.3775 126.685 52.3775 126.73Z" fill="#796342"/>
<path d="M40.6263 102.24L50.4532 122.11C50.4532 122.11 53.4599 125.342 53.7907 127.747L58.0752 133.395L61.0819 131.495L59.0223 124.871C59.0223 124.871 55.9605 121.684 55.9605 119.068L44.7655 100.146L40.6263 102.24Z" fill="#B2D1FF"/>
<path d="M55.9856 119.073C55.2177 119.8 54.3566 120.422 53.4249 120.922C52.5352 121.497 51.5638 121.935 50.5434 122.22C50.5134 122.145 51.8012 121.578 53.2946 120.717C54.7879 119.855 55.9405 119.013 55.9856 119.073Z" fill="#263238"/>
<path d="M58.9672 124.876C58.1689 125.457 57.3222 125.968 56.4366 126.404C55.5927 126.918 54.7037 127.355 53.7806 127.707C54.5705 127.127 55.4088 126.616 56.2862 126.179C57.1388 125.665 58.0361 125.229 58.9672 124.876Z" fill="#263238"/>
<path d="M47.7873 105.222C47.1119 105.745 46.3868 106.2 45.6225 106.58C44.8984 107.034 44.1292 107.412 43.3273 107.708C44.0021 107.182 44.7292 106.727 45.4972 106.35C46.2192 105.895 46.9868 105.517 47.7873 105.222Z" fill="#263238"/>
<path d="M51.8463 115.55L51.9365 115.51C52.1746 115.396 52.4482 115.38 52.6978 115.466C52.9474 115.553 53.1529 115.734 53.2695 115.971L55.4744 120.301C55.5368 120.42 55.5747 120.55 55.5858 120.684C55.5969 120.818 55.5809 120.953 55.5388 121.08C55.4968 121.208 55.4294 121.326 55.3409 121.427C55.2523 121.528 55.1444 121.61 55.0234 121.669C54.9066 121.73 54.7789 121.767 54.6477 121.779C54.5165 121.79 54.3842 121.776 54.2586 121.736C54.1329 121.697 54.0163 121.633 53.9153 121.548C53.8144 121.463 53.7312 121.36 53.6704 121.243L51.3752 116.953C51.3076 116.831 51.2662 116.697 51.2535 116.558C51.2407 116.419 51.2571 116.28 51.3014 116.148C51.3457 116.016 51.417 115.894 51.5109 115.791C51.6047 115.688 51.7189 115.606 51.8463 115.55Z" fill="#8CBAFF"/>
<path d="M131.775 188.082L112.231 162.069L126.764 147.115L144.904 163.572L149.67 135.324L158.279 95.7358C158.279 95.7358 175.653 101.504 175.653 117.099C175.653 132.693 169.79 181.161 165.876 188.758C164.438 191.55 163.175 194.576 161.266 196.656C157.978 200.234 153.659 201.923 149.594 201.126C138.134 198.861 131.775 188.082 131.775 188.082Z" fill="#8CBAFF"/>
<path d="M56.3865 140.285C56.3865 140.285 56.3263 137.394 59.9244 137.459C59.9244 137.459 62.2395 137.519 65.131 141.187L67.6366 142.084L58.1404 133.405C58.1404 133.405 59.9595 130.97 61.9539 131.546C63.9484 132.122 65.0658 134.888 67.2507 135.72C69.4356 136.552 72.3321 138.872 72.3321 138.872L78.7564 139.965L79.3377 139.258L66.2535 126.174C66.2535 126.174 68.4484 123.102 71.0843 125.172C73.7202 127.241 77.7291 131.295 78.5008 131.877C79.2726 132.458 82.164 134.447 82.164 134.447L87.1752 135.344L90.9035 133.996C90.9035 133.996 89.9414 131.105 92.5722 130.458C95.2031 129.812 101.186 132.518 101.186 132.518C102.702 131.457 104.514 130.903 106.363 130.934C109.58 130.934 112.056 133.766 112.246 135.946C112.437 138.126 105.732 146.655 105.732 146.655L102.99 148.323L86.0827 150.954L82.9307 150.633L75.3789 152.112L60.225 147.166C60.225 147.166 58.877 144.66 61.3175 144.209L56.3865 140.285Z" fill="#D3A890"/>
<path d="M83.6172 144.45C83.6172 144.475 83.3065 144.369 82.7403 144.319C81.9388 144.284 81.1373 144.386 80.37 144.62C79.3678 144.876 78.2553 145.342 76.9173 145.622C75.4556 145.901 73.9515 145.871 72.5024 145.532C70.959 145.226 69.5408 144.76 68.2329 144.43C67.0866 144.114 65.9114 143.914 64.7251 143.833C63.9232 143.793 63.1194 143.858 62.3347 144.029C61.7835 144.159 61.4879 144.279 61.4778 144.254C61.4678 144.229 61.548 144.209 61.6833 144.154C61.8866 144.066 62.0959 143.992 62.3097 143.933C63.0978 143.719 63.9138 143.624 64.7301 143.653C65.9357 143.701 67.1323 143.883 68.2981 144.194C69.616 144.52 71.0342 144.976 72.5576 145.276C73.975 145.606 75.4448 145.644 76.8772 145.387C78.1851 145.111 79.3277 144.66 80.3299 144.425C81.1187 144.207 81.9402 144.132 82.7553 144.204C82.9745 144.234 83.1908 144.283 83.4018 144.349C83.4785 144.371 83.5513 144.405 83.6172 144.45Z" fill="#796342"/>
<path d="M79.6784 143.873C78.958 143.703 78.2261 143.586 77.4886 143.523C76.6886 143.476 75.886 143.527 75.0982 143.673C74.6315 143.76 74.1698 143.872 73.7151 144.009C73.2113 144.181 72.6756 144.239 72.1466 144.179C71.1669 143.953 70.2228 143.594 69.3404 143.112L67.1705 142.024C66.6829 141.779 66.1809 141.563 65.6672 141.378C65.3064 141.243 65.0959 141.212 65.1009 141.187C65.1059 141.162 65.156 141.187 65.2563 141.187C65.4053 141.204 65.5528 141.232 65.6972 141.273C66.226 141.426 66.742 141.621 67.2407 141.854C67.8721 142.135 68.6087 142.5 69.4356 142.891C70.3019 143.339 71.2211 143.676 72.1717 143.893C72.667 143.946 73.1677 143.891 73.64 143.733C74.1006 143.596 74.5692 143.487 75.0431 143.407C75.8507 143.271 76.6725 143.237 77.4886 143.307C78.0373 143.355 78.5797 143.459 79.1072 143.618C79.3092 143.674 79.5018 143.76 79.6784 143.873Z" fill="#796342"/>
<path d="M82.154 135.52C82.2041 135.58 81.5577 136.136 81.0215 137.023C80.4853 137.91 80.2698 138.732 80.1946 138.717C80.209 138.061 80.4183 137.424 80.796 136.888C81.0985 136.304 81.5723 135.826 82.154 135.52Z" fill="#796342"/>
<path d="M88.0421 139.649C87.9619 139.649 88.0421 138.797 87.9018 137.785C87.7615 136.772 87.4007 135.996 87.4808 135.96C87.8685 136.48 88.1028 137.098 88.1574 137.744C88.2956 138.378 88.2557 139.037 88.0421 139.649Z" fill="#796342"/>
<path d="M96.2354 138.646C95.7365 138.896 95.2188 139.105 94.6869 139.273C93.7248 139.629 92.3768 140.095 90.8985 140.616C90.5327 140.746 90.1669 140.861 89.8211 140.997L88.8189 141.388L87.1401 142.044C86.6297 142.267 86.1017 142.448 85.5616 142.585C86.0429 142.308 86.5456 142.07 87.0649 141.874L88.7337 141.167L89.7359 140.756C90.0817 140.621 90.4475 140.501 90.8183 140.37C92.3217 139.869 93.6546 139.408 94.6318 139.097C95.1534 138.905 95.6897 138.754 96.2354 138.646Z" fill="#796342"/>
<path d="M104.118 141.453C103.919 141.412 103.725 141.353 103.537 141.277L101.983 140.716C100.67 140.245 98.8563 139.599 96.8318 138.937C95.8295 138.596 94.8273 138.321 93.9804 137.975C93.1978 137.686 92.4831 137.239 91.8807 136.662C91.4771 136.269 91.1716 135.787 90.9887 135.254C90.9098 135.062 90.8755 134.855 90.8885 134.647C90.8885 134.647 90.9386 134.858 91.0839 135.219C91.2974 135.717 91.6132 136.164 92.011 136.532C92.6108 137.069 93.3107 137.483 94.0706 137.749C94.9225 138.075 95.9047 138.346 96.9169 138.686C98.9214 139.353 100.75 140.029 102.048 140.546C102.695 140.801 103.216 141.022 103.552 141.182C103.752 141.245 103.943 141.336 104.118 141.453Z" fill="#796342"/>
<path d="M106.348 133.726C105.938 133.761 105.524 133.727 105.125 133.625C104.157 133.434 103.2 133.189 102.259 132.894C101.156 132.553 100.169 132.202 99.4676 131.922C99.0774 131.801 98.7036 131.633 98.3551 131.42C98.7574 131.497 99.1516 131.611 99.5327 131.761L102.334 132.658C103.431 132.994 104.434 133.28 105.165 133.46C105.897 133.64 106.353 133.69 106.348 133.726Z" fill="#796342"/>
<path d="M102.675 148.368L113.138 161.292L124.949 148.985L111.555 134.352L102.675 148.368Z" fill="#D3A890"/>
<path d="M170.466 168.413C170.466 168.413 170.466 168.548 170.411 168.814C170.356 169.079 170.306 169.475 170.225 169.986C170.06 170.989 169.81 172.532 169.454 174.497C169.098 176.461 168.632 178.826 167.98 181.562C167.274 184.672 166.334 187.724 165.169 190.693C164.484 192.426 163.56 194.056 162.423 195.533C161.155 197.115 159.605 198.448 157.853 199.467C155.968 200.55 153.855 201.174 151.684 201.286C149.38 201.362 147.087 200.929 144.969 200.018C142.748 199.074 140.694 197.778 138.886 196.18C137.009 194.515 135.281 192.691 133.719 190.728C132.112 188.747 130.524 186.7 128.953 184.589C127.383 182.478 125.785 180.345 124.158 178.19L112.131 162.154L112.066 162.069L112.141 161.989L126.673 147.045L126.743 146.975L126.814 147.03C127.816 147.817 128.678 148.629 129.57 149.421L132.151 151.756L136.936 156.136L144.954 163.527C147.544 165.395 149.504 168.009 150.572 171.019C150.726 171.479 150.847 171.949 150.932 172.427C151.012 172.77 151.064 173.118 151.088 173.469C151.088 173.745 151.123 173.97 151.133 174.111C151.143 174.251 151.133 174.326 151.133 174.326C151.133 174.326 151.133 174.256 151.103 174.111C151.073 173.965 151.068 173.75 151.038 173.474C151.008 173.125 150.951 172.778 150.867 172.437C150.773 171.965 150.648 171.499 150.491 171.044C150.05 169.777 149.429 168.581 148.647 167.491C148.16 166.796 147.617 166.143 147.024 165.537C146.363 164.843 145.64 164.21 144.864 163.647L136.846 156.291L132.055 151.901L129.465 149.571C128.583 148.789 127.681 147.957 126.733 147.206H126.874L112.341 162.169V162.009L124.368 178.044C125.992 180.206 127.59 182.339 129.164 184.444C130.737 186.548 132.323 188.593 133.919 190.577C135.479 192.525 137.202 194.336 139.071 195.989C140.859 197.569 142.889 198.85 145.084 199.783C147.168 200.685 149.425 201.116 151.694 201.046C153.823 200.943 155.897 200.338 157.748 199.282C159.478 198.284 161.008 196.972 162.258 195.413C163.389 193.954 164.31 192.343 164.994 190.628C166.165 187.671 167.114 184.631 167.83 181.532C168.497 178.801 168.973 176.426 169.333 174.486C169.694 172.547 169.975 171.029 170.155 169.976C170.246 169.475 170.316 169.079 170.366 168.809C170.416 168.538 170.466 168.413 170.466 168.413Z" fill="#263238"/>
<path d="M150.937 117.279C150.943 117.319 150.943 117.359 150.937 117.399C150.937 117.494 150.897 117.605 150.872 117.745C150.807 118.071 150.712 118.512 150.597 119.068C150.351 120.21 150.005 121.869 149.594 123.924C148.768 128.028 147.725 133.715 146.808 140.035C145.891 146.354 145.28 152.112 144.909 156.281C144.719 158.366 144.578 160.054 144.488 161.222C144.443 161.788 144.403 162.224 144.378 162.565C144.378 162.705 144.353 162.82 144.343 162.916C144.345 162.956 144.345 162.996 144.343 163.036C144.334 162.996 144.334 162.955 144.343 162.916C144.343 162.82 144.343 162.705 144.343 162.565C144.343 162.234 144.378 161.783 144.403 161.217C144.463 160.044 144.573 158.355 144.739 156.266C145.064 152.092 145.651 146.329 146.563 140C147.475 133.67 148.567 127.973 149.429 123.884C149.865 121.834 150.236 120.18 150.516 119.043C150.652 118.492 150.757 118.041 150.837 117.735L150.927 117.394C150.922 117.319 150.937 117.279 150.937 117.279Z" fill="#263238"/>
<path d="M158.033 147.406C158.033 147.406 157.893 147.326 157.667 147.14C157.442 146.955 157.126 146.674 156.745 146.324C155.754 145.398 154.811 144.423 153.919 143.402C153.03 142.385 152.194 141.323 151.413 140.22C151.113 139.799 150.877 139.448 150.722 139.218C150.63 139.096 150.558 138.961 150.506 138.817C150.886 139.231 151.239 139.667 151.564 140.125C152.2 140.942 153.092 142.059 154.135 143.247C155.177 144.434 156.169 145.467 156.896 146.203C157.298 146.582 157.677 146.984 158.033 147.406Z" fill="white"/>
<path d="M163.851 133.225C163.172 134.674 162.417 136.088 161.591 137.459C160.835 138.875 159.998 140.247 159.086 141.568C159.763 140.117 160.517 138.704 161.346 137.334C162.104 135.919 162.94 134.547 163.851 133.225Z" fill="white"/>
<path d="M172.145 148.007C172.08 148.032 171.057 145.762 169.87 142.936C168.682 140.11 167.765 137.789 167.83 137.764C167.895 137.739 168.918 140.004 170.105 142.836C171.293 145.667 172.23 147.977 172.145 148.007Z" fill="white"/>
<path d="M113.975 6.23616C116.901 5.97057 119.848 6.73728 122.519 7.94999C129.139 10.9567 134.225 16.7196 137.593 23.1639C140.96 29.6083 142.754 36.7493 144.167 43.8802C145.981 52.9992 147.223 62.2227 147.886 71.4968C148.086 74.293 149.564 94.6134 149.89 98.7476L106.468 10.3052C108.147 7.89487 111.048 6.50176 113.975 6.23616Z" fill="#263238"/>
<path d="M129.119 23.0187L109.756 15.2163L104.684 15.7826C93.2838 15.7826 85.3561 28.3105 85.2408 37.5411C85.1055 47.799 85.3511 60.332 86.9446 67.9039C90.1518 83.1229 102.008 84.4859 102.008 84.4859C102.008 84.4859 101.873 88.6452 101.748 93.7516C101.696 95.9271 102.086 98.0904 102.894 100.111C103.701 102.132 104.91 103.968 106.446 105.509C107.983 107.05 109.815 108.264 111.833 109.078C113.852 109.891 116.014 110.288 118.189 110.243C122.393 110.16 126.397 108.436 129.347 105.439C132.296 102.443 133.957 98.412 133.975 94.2076L134.22 28.2654C134.182 26.9107 133.637 25.6196 132.692 24.648C131.747 23.6763 130.472 23.0948 129.119 23.0187Z" fill="#D3A890"/>
<path d="M90.1818 48.7511C90.2014 49.266 90.4225 49.7525 90.7975 50.1059C91.1724 50.4593 91.6712 50.6512 92.1863 50.6403C92.4377 50.6484 92.6881 50.6059 92.9227 50.5154C93.1574 50.4249 93.3715 50.2882 93.5523 50.1134C93.7332 49.9386 93.8771 49.7293 93.9756 49.4979C94.0741 49.2665 94.1251 49.0177 94.1256 48.7662C94.106 48.2513 93.8849 47.7648 93.51 47.4114C93.135 47.058 92.6363 46.8661 92.1211 46.8769C91.8698 46.8689 91.6194 46.9114 91.3847 47.0019C91.1501 47.0924 90.936 47.2291 90.7551 47.4039C90.5743 47.5787 90.4303 47.788 90.3319 48.0194C90.2334 48.2508 90.1824 48.4996 90.1818 48.7511Z" fill="#263238"/>
<path d="M88.2776 42.7775C88.5382 43.0231 89.9714 41.8455 92.0911 41.7452C94.2108 41.645 95.8144 42.6272 96.0299 42.3566C96.1351 42.2363 95.8645 41.7853 95.1629 41.3243C94.2154 40.736 93.1094 40.4543 91.9959 40.5175C90.8971 40.5705 89.8438 40.9725 88.9892 41.6651C88.3527 42.1963 88.1523 42.6723 88.2776 42.7775Z" fill="#263238"/>
<path d="M102.219 59.3544C102.219 59.2341 100.896 59.0738 98.746 58.9084C98.2048 58.8784 97.6836 58.7982 97.5784 58.4324C97.4731 58.0665 97.6285 57.4301 97.859 56.8087C98.3 55.4758 98.761 54.0776 99.2521 52.6144C101.176 46.641 102.544 41.7401 102.299 41.6649C102.053 41.5898 100.294 46.3704 98.3751 52.3438L97.0522 56.5582C96.8768 57.1846 96.5511 57.9012 96.8768 58.698C96.9645 58.8846 97.0935 59.0489 97.2542 59.1783C97.4148 59.3076 97.6028 59.3987 97.8039 59.4446C98.1087 59.5076 98.4198 59.5345 98.7309 59.5248C100.881 59.5348 102.214 59.4697 102.219 59.3544Z" fill="#263238"/>
<path d="M102.013 84.4857C109.244 84.2327 116.263 81.9774 122.288 77.9712C122.288 77.9712 117.347 88.8805 101.913 88.2141L102.013 84.4857Z" fill="#796342"/>
<path d="M103.366 64.4157C103.743 63.8871 104.249 63.4637 104.836 63.1857C105.423 62.9076 106.071 62.7842 106.719 62.8272C107.188 62.8446 107.649 62.9571 108.074 63.1578C108.498 63.3585 108.878 63.6432 109.189 63.9948C109.488 64.3324 109.677 64.7534 109.73 65.2013C109.783 65.6491 109.697 66.1025 109.485 66.5004C108.954 67.3322 107.766 67.5778 106.744 67.3423C105.725 67.0395 104.776 66.5369 103.953 65.864C103.707 65.7039 103.492 65.5021 103.316 65.2676C103.233 65.1538 103.185 65.0179 103.179 64.877C103.173 64.7362 103.208 64.5967 103.281 64.4759" fill="#796342"/>
<path d="M108.503 60.5074C108.157 60.5074 108.267 62.8025 106.383 64.5163C104.499 66.2302 102.038 66.1199 102.033 66.4406C102.033 66.586 102.605 66.8616 103.637 66.8365C104.985 66.7888 106.273 66.2671 107.275 65.3632C108.232 64.493 108.816 63.2863 108.904 61.9957C108.964 61.0436 108.678 60.4723 108.503 60.5074Z" fill="#263238"/>
<path d="M89.5906 36.8594C89.9865 37.3204 91.4197 36.7491 93.1736 36.6389C94.9275 36.5287 96.4309 36.7993 96.7466 36.2781C96.8819 36.0275 96.6263 35.5565 95.9548 35.1355C95.0551 34.634 94.0269 34.4105 93.0002 34.4935C91.9734 34.5764 90.9944 34.9621 90.1869 35.6016C89.5906 36.1278 89.4152 36.6339 89.5906 36.8594Z" fill="#263238"/>
<path d="M113.91 48.6257C113.92 49.138 113.729 49.6339 113.379 50.0081C113.029 50.3824 112.547 50.6055 112.036 50.6302C111.785 50.6528 111.533 50.6253 111.294 50.5492C111.054 50.4732 110.832 50.3501 110.641 50.1872C110.45 50.0244 110.293 49.825 110.179 49.6008C110.066 49.3765 109.999 49.1319 109.981 48.8813C109.971 48.369 110.162 47.8731 110.512 47.4989C110.861 47.1246 111.343 46.9015 111.855 46.8768C112.105 46.8542 112.358 46.8817 112.597 46.9578C112.837 47.0338 113.059 47.1569 113.25 47.3198C113.441 47.4826 113.598 47.682 113.711 47.9062C113.825 48.1305 113.892 48.3751 113.91 48.6257Z" fill="#263238"/>
<path d="M117.523 42.532C117.282 42.7926 115.774 41.7052 113.654 41.7402C111.535 41.7753 109.996 42.8527 109.761 42.5921C109.645 42.4819 109.891 42.0109 110.562 41.5097C111.472 40.864 112.559 40.5141 113.674 40.5075C114.777 40.4899 115.856 40.8234 116.756 41.4596C117.438 41.9307 117.663 42.4318 117.523 42.532Z" fill="#263238"/>
<path d="M116.621 35.8069C116.255 36.308 114.787 35.8069 113.028 35.8069C111.269 35.8069 109.791 36.1727 109.44 35.6716C109.289 35.4311 109.515 34.945 110.161 34.4789C111.028 33.9235 112.04 33.6376 113.07 33.6572C114.099 33.6768 115.099 34.0011 115.944 34.5892C116.571 35.0803 116.781 35.5714 116.621 35.8069Z" fill="#263238"/>
<path d="M112.011 13.5827C116.912 11.5782 124.413 12.2747 128.623 15.4719C132.832 18.669 135.458 23.6702 136.42 28.8668C137.382 34.0634 136.094 41.7656 134.721 46.872C126.784 36.6491 118.615 24.8578 110.958 14.4245L112.011 13.5827Z" fill="#263238"/>
<path d="M108.237 8.93704C81.3422 5.14858 83.8879 39.5353 83.8879 39.5353C95.614 31.1616 107.375 15.1559 107.375 15.1559L111.615 14.4393L108.237 8.93704Z" fill="#263238"/>
<path d="M131.163 54.1778C131.108 53.0353 132.291 50.2741 133.413 50.0436C136.42 49.4222 141.847 49.3922 142.283 57.0593C142.874 67.5226 132.261 65.9591 132.216 65.6585C132.171 65.3578 131.349 58.1216 131.163 54.1778Z" fill="#D3A890"/>
<path d="M135.187 61.4743C135.232 61.4392 135.378 61.5946 135.688 61.7148C136.131 61.8771 136.62 61.8609 137.051 61.6697C138.134 61.1987 138.961 59.3946 138.906 57.5054C138.882 56.6069 138.658 55.725 138.249 54.9247C137.883 54.178 137.362 53.6719 136.801 53.6067C136.589 53.5615 136.368 53.5924 136.176 53.6941C135.984 53.7959 135.835 53.9619 135.754 54.163C135.628 54.4636 135.708 54.6641 135.653 54.6891C135.598 54.7142 135.418 54.5288 135.478 54.0928C135.521 53.8292 135.654 53.5885 135.854 53.4113C136.132 53.176 136.493 53.0607 136.856 53.0906C137.663 53.0906 138.43 53.8022 138.861 54.5939C139.357 55.4734 139.63 56.4609 139.657 57.4703C139.707 59.5851 138.74 61.6196 137.257 62.1408C136.98 62.2423 136.684 62.2802 136.391 62.2516C136.098 62.2229 135.815 62.1285 135.563 61.9754C135.217 61.7499 135.152 61.5194 135.187 61.4743Z" fill="#796342"/>
<path d="M105.907 14.4391C107.202 14.2306 108.528 14.3707 109.751 14.845C110.588 15.1319 111.405 15.4751 112.196 15.8723L112.837 16.193C113.033 16.2933 113.339 16.4837 113.589 16.639C114.093 16.9843 114.57 17.3662 115.017 17.7816C115.913 18.617 116.75 19.5128 117.523 20.4626L118.691 21.8507C118.881 22.0762 119.076 22.2967 119.267 22.5021L119.913 23.1987C121.677 25.1129 123.677 27.1826 125.796 29.5729C128.16 32.1654 130.257 34.9892 132.055 38.0017C133.051 39.7093 133.904 41.496 134.606 43.3436C135.289 45.2427 135.86 47.1803 136.315 49.1466C137.239 53.2057 137.752 57.3474 137.848 61.5092C137.912 63.9885 137.838 66.4695 137.628 68.9407C141.394 72.2011 144.46 76.1913 146.641 80.6701C148.822 85.1489 150.072 90.0233 150.316 94.9989C150.722 97.6699 149.204 100.907 147.044 102.897C146.657 103.419 146.23 103.91 145.766 104.365C144.666 105.486 143.366 106.392 141.932 107.036C140.92 107.48 139.838 107.746 138.735 107.823C137.345 107.926 135.953 107.664 134.696 107.061C133.339 106.368 132.171 105.355 131.294 104.109C130.443 102.912 129.769 101.599 129.289 100.211C128.244 97.3187 127.717 94.2653 127.731 91.1904C127.759 87.9482 128.051 84.7137 128.603 81.5188C129.104 78.2716 129.715 75.0644 130.061 71.8071C130.439 68.452 130.586 65.0749 130.502 61.6996C130.418 57.996 130.009 54.307 129.279 50.675C128.936 48.9836 128.506 47.3109 127.991 45.6638C127.482 44.1402 126.857 42.6576 126.122 41.2289C124.646 38.4858 122.943 35.8709 121.031 33.4115C119.217 30.976 117.413 28.6709 115.844 26.476L115.258 25.6491C115.047 25.3485 114.857 25.0578 114.677 24.7772C114.311 24.2109 113.995 23.6847 113.674 23.1836C113.068 22.1814 112.522 21.3094 111.981 20.5878C111.737 20.259 111.474 19.9444 111.194 19.6457C111.048 19.5104 110.973 19.4152 110.778 19.2549L110.277 18.8289C109.605 18.2727 109.009 17.8267 108.458 17.4057C107.638 16.7996 106.748 16.2949 105.807 15.9024C105.15 15.6368 104.709 15.4965 104.659 15.2359C104.609 14.9753 104.995 14.6446 105.907 14.4391Z" fill="#263238"/>
<path d="M173.388 108.695C171.383 105.813 168.827 102.947 165.48 101.614C161.727 100.11 155.573 102.115 151.95 103.934C148.327 105.753 144.689 107.943 140.645 107.983C138.876 108.06 137.139 107.499 135.749 106.404C134.421 105.262 133.694 103.343 134.245 101.684C135.012 99.4439 137.603 98.5269 139.472 97.0736C142.358 94.8437 143.661 91.1304 144.333 87.5524C145.004 83.9744 145.2 80.2511 146.533 76.8535C150.356 79.2589 147.765 86.1543 151.188 89.1109C153.012 90.6894 155.698 90.3937 158.114 90.6944C161.842 91.1604 167.575 93.661 169.584 96.8331C171.594 100.005 174.876 104.57 173.363 108.705" fill="#263238"/>
<path d="M131.158 59.5249C131.158 73 127.37 87.7028 128.177 96.0715C128.983 104.44 129.044 109.045 129.214 117.449C129.368 125.456 127.643 133.387 124.178 140.606C129.936 139.148 136.069 137.469 139.968 132.989C144.338 127.978 144.779 120.772 145.591 114.162C146.402 107.552 150.391 103.583 156.294 102.18L131.158 59.5249Z" fill="#263238"/>
<path d="M209.368 217.417C209.368 217.488 162.764 217.548 105.326 217.548C47.8875 217.548 1.26343 217.488 1.26343 217.417C1.26343 217.347 47.8424 217.287 105.316 217.287C162.789 217.287 209.368 217.322 209.368 217.417Z" fill="#263238"/>
</svg>
