<svg width="328" height="245" viewBox="0 0 328 245" fill="none" xmlns="http://www.w3.org/2000/svg">
<path d="M120.12 57.2622H54.8744V166.335H120.12V57.2622Z" fill="#B2D1FF"/>
<path d="M53.5558 56.8424V167.28H121.78V56.8424H53.5558ZM57.1703 61.1195H118.139V79.0415H57.1703V61.1195ZM118.139 163.639H57.1703V82.7806H118.139V163.639Z" fill="#E4E4E7"/>
<path d="M103.497 82.7806H86.8676L66.1445 163.442H82.7741L103.497 82.7806Z" fill="#FAFAFA"/>
<path d="M91.6039 163.639H87.4973L108.22 82.7806H112.327L91.6039 163.639Z" fill="#FAFAFA"/>
<path d="M83.6466 61.1261H71.832L62.7399 79.0415H74.5544L83.6466 61.1261Z" fill="#FAFAFA"/>
<path d="M86.6773 79.0415H79.704L88.7961 61.1261H95.7629L86.6773 79.0415Z" fill="#FAFAFA"/>
<path d="M123.604 101.234H51.3976V104.173H123.604V101.234Z" fill="#D1E3FF"/>
<path d="M123.604 106.318H51.3976V109.257H123.604V106.318Z" fill="#D1E3FF"/>
<path d="M123.604 111.395H51.3976V114.334H123.604V111.395Z" fill="#D1E3FF"/>
<path d="M123.604 116.479H51.3976V119.418H123.604V116.479Z" fill="#D1E3FF"/>
<path d="M123.604 121.557H51.3976V124.496H123.604V121.557Z" fill="#D1E3FF"/>
<path d="M123.604 96.1565H51.3976V99.0954H123.604V96.1565Z" fill="#D1E3FF"/>
<path d="M123.604 91.0725H51.3976V94.0114H123.604V91.0725Z" fill="#D1E3FF"/>
<path d="M123.604 85.995H51.3976V88.9339H123.604V85.995Z" fill="#D1E3FF"/>
<path d="M123.604 80.911H51.3976V83.8499H123.604V80.911Z" fill="#D1E3FF"/>
<path d="M123.604 75.8336H51.3976V78.7725H123.604V75.8336Z" fill="#D1E3FF"/>
<path d="M123.604 70.7496H51.3976V73.6885H123.604V70.7496Z" fill="#D1E3FF"/>
<path d="M123.604 65.6656H51.3976V68.6045H123.604V65.6656Z" fill="#D1E3FF"/>
<path d="M123.604 60.5881H51.3976V63.527H123.604V60.5881Z" fill="#D1E3FF"/>
<path d="M123.604 55.5042H51.3976V58.443H123.604V55.5042Z" fill="#D1E3FF"/>
<path d="M328 214.774H0V214.938H328V214.774Z" fill="#F4F4F5"/>
<path d="M295.134 225.329H273.408V225.493H295.134V225.329Z" fill="#F4F4F5"/>
<path d="M217.28 227.114H211.58V227.278H217.28V227.114Z" fill="#F4F4F5"/>
<path d="M272.752 219.242H260.163V219.406H272.752V219.242Z" fill="#F4F4F5"/>
<path d="M62.7465 220.344H34.4138V220.508H62.7465V220.344Z" fill="#F4F4F5"/>
<path d="M72.7438 220.344H68.5913V220.508H72.7438V220.344Z" fill="#F4F4F5"/>
<path d="M147.698 223.112H86.2444V223.276H147.698V223.112Z" fill="#F4F4F5"/>
<path d="M155.472 185.517H28.805C27.8127 185.515 26.8616 185.12 26.1606 184.417C25.4595 183.715 25.0658 182.763 25.0658 181.771V3.71296C25.0744 2.72635 25.472 1.78299 26.1721 1.08779C26.8722 0.392589 27.8184 0.00169011 28.805 0H155.472C156.465 0 157.418 0.394642 158.121 1.09711C158.823 1.79957 159.218 2.75232 159.218 3.74576V181.771C159.218 182.764 158.823 183.717 158.121 184.42C157.418 185.122 156.465 185.517 155.472 185.517ZM28.805 0.1312C27.8562 0.132938 26.9468 0.511067 26.2765 1.18259C25.6063 1.85411 25.2298 2.76415 25.2298 3.71296V181.771C25.2298 182.72 25.6063 183.63 26.2765 184.301C26.9468 184.973 27.8562 185.351 28.805 185.353H155.472C156.421 185.351 157.331 184.973 158.003 184.302C158.674 183.63 159.052 182.72 159.054 181.771V3.71296C159.052 2.76355 158.674 1.85352 158.003 1.18219C157.331 0.510854 156.421 0.132935 155.472 0.1312H28.805Z" fill="#F4F4F5"/>
<path d="M297.371 185.517H170.698C169.705 185.515 168.753 185.12 168.051 184.418C167.349 183.716 166.954 182.764 166.952 181.771V3.71296C166.962 2.72575 167.361 1.7824 168.063 1.08738C168.764 0.392359 169.711 0.00167168 170.698 0H297.371C298.357 0.00341415 299.301 0.395075 300 1.09009C300.699 1.78511 301.095 2.72749 301.104 3.71296V181.771C301.104 182.762 300.711 183.713 300.012 184.415C299.312 185.117 298.363 185.513 297.371 185.517ZM170.698 0.1312C169.748 0.132935 168.838 0.510854 168.167 1.18219C167.496 1.85352 167.118 2.76355 167.116 3.71296V181.771C167.118 182.72 167.496 183.63 168.167 184.302C168.838 184.973 169.748 185.351 170.698 185.353H297.371C298.321 185.351 299.231 184.973 299.902 184.302C300.573 183.63 300.951 182.72 300.953 181.771V3.71296C300.951 2.76355 300.573 1.85352 299.902 1.18219C299.231 0.510854 298.321 0.132935 297.371 0.1312H170.698Z" fill="#F4F4F5"/>
<path d="M153.412 215.253H249.333L249.333 74.6265H153.412V215.253Z" fill="#B2D1FF"/>
<path d="M156.804 105.026L245.941 105.026V79.0546L156.804 79.0546V105.026Z" fill="#D1E3FF"/>
<path d="M240.877 105.026H245.941V83.2596H240.877V105.026Z" fill="#F4F4F5"/>
<path d="M216.388 105.026H221.453V83.2596H216.388V105.026Z" fill="#F4F4F5"/>
<path d="M184.9 104.166L189.89 105.026L193.588 83.5761L188.597 82.7159L184.9 104.166Z" fill="#F4F4F5"/>
<path d="M234.599 105.026H239.663V86.1263H234.599V105.026Z" fill="#F4F4F5"/>
<path d="M222.968 105.026H228.032V86.1263H222.968V105.026Z" fill="#F4F4F5"/>
<path d="M193.586 105.026H198.65V86.1263H193.586V105.026Z" fill="#F4F4F5"/>
<path d="M205.651 103.919L210.594 105.018L214.694 86.5686L209.751 85.4699L205.651 103.919Z" fill="#F4F4F5"/>
<path d="M230.223 105.026H232.755V82.1772H230.223V105.026Z" fill="#F4F4F5"/>
<path d="M200.106 105.026H202.638V82.1772H200.106V105.026Z" fill="#F4F4F5"/>
<path d="M245.941 109.139H156.804V135.11H245.941V109.139Z" fill="#D1E3FF"/>
<path d="M161.868 113.344H156.804V135.11H161.868V113.344Z" fill="#F4F4F5"/>
<path d="M186.35 113.344H181.286V135.11H186.35V113.344Z" fill="#F4F4F5"/>
<path d="M214.155 112.796L209.165 113.656L212.862 135.106L217.853 134.246L214.155 112.796Z" fill="#F4F4F5"/>
<path d="M168.139 116.21H163.075V135.11H168.139V116.21Z" fill="#F4F4F5"/>
<path d="M179.777 116.21H174.712V135.11H179.777V116.21Z" fill="#F4F4F5"/>
<path d="M209.159 116.21H204.095V135.11H209.159V116.21Z" fill="#F4F4F5"/>
<path d="M193.011 115.551L188.068 116.65L192.168 135.099L197.112 134L193.011 115.551Z" fill="#F4F4F5"/>
<path d="M172.521 112.261H169.989V135.11H172.521V112.261Z" fill="#F4F4F5"/>
<path d="M202.638 112.261H200.106V135.11H202.638V112.261Z" fill="#F4F4F5"/>
<path d="M240.877 135.11H245.941V113.344H240.877V135.11Z" fill="#F4F4F5"/>
<path d="M234.599 135.11H239.663V116.211H234.599V135.11Z" fill="#F4F4F5"/>
<path d="M222.968 135.11H228.032V116.211H222.968V135.11Z" fill="#F4F4F5"/>
<path d="M230.223 135.11H232.755V112.261H230.223V135.11Z" fill="#F4F4F5"/>
<path d="M156.804 165.2H245.941V139.229H156.804V165.2Z" fill="#D1E3FF"/>
<path d="M189.715 165.2H194.78V143.434H189.715V165.2Z" fill="#F4F4F5"/>
<path d="M158.227 164.328L163.218 165.189L166.915 143.739L161.924 142.879L158.227 164.328Z" fill="#F4F4F5"/>
<path d="M207.926 165.2H212.99V146.301H207.926V165.2Z" fill="#F4F4F5"/>
<path d="M196.282 165.2H201.346V146.301H196.282V165.2Z" fill="#F4F4F5"/>
<path d="M166.913 165.2H171.977V146.301H166.913V165.2Z" fill="#F4F4F5"/>
<path d="M178.978 164.093L183.921 165.191L188.022 146.742L183.078 145.643L178.978 164.093Z" fill="#F4F4F5"/>
<path d="M203.55 165.2H206.082V142.352H203.55V165.2Z" fill="#F4F4F5"/>
<path d="M173.427 165.2H175.959V142.352H173.427V165.2Z" fill="#F4F4F5"/>
<path d="M216.48 164.331L221.471 165.191L225.168 143.742L220.178 142.881L216.48 164.331Z" fill="#F4F4F5"/>
<path d="M225.159 165.2H230.223V146.301H225.159V165.2Z" fill="#F4F4F5"/>
<path d="M237.227 164.088L242.171 165.187L246.271 146.737L241.328 145.639L237.227 164.088Z" fill="#F4F4F5"/>
<path d="M231.679 165.2H234.212V142.352H231.679V165.2Z" fill="#F4F4F5"/>
<path d="M265.883 74.6266H249.333V215.627H265.883V74.6266Z" fill="#D1E3FF"/>
<path d="M248.178 42.476V24.7705H223.125V42.476H248.178Z" fill="#B2D1FF"/>
<path d="M247.004 41.3215V25.9252H224.306V41.3215H247.004Z" fill="#FAFAFA"/>
<path d="M239.499 64.7144V47.0089H214.446V64.7144H239.499Z" fill="#B2D1FF"/>
<path d="M238.318 63.5599V48.1636H215.621V63.5599H238.318Z" fill="#FAFAFA"/>
<path d="M202.435 42.476H218.376V19.9161L202.435 19.9161V42.476Z" fill="#B2D1FF"/>
<path d="M203.478 41.4132H217.339V20.9788H203.478V41.4132Z" fill="#FAFAFA"/>
<path d="M193.369 72.0681H211.075V47.0155H193.369V72.0681Z" fill="#B2D1FF"/>
<path d="M194.524 70.8873H209.92V48.1897H194.524V70.8873Z" fill="#FAFAFA"/>
<path d="M177.402 28.6147V42.476H197.016V28.6147H177.402Z" fill="#B2D1FF"/>
<path d="M178.327 29.5134V41.5707H196.098V29.5134H178.327Z" fill="#FAFAFA"/>
<path d="M164 244.399C234.246 244.399 291.192 241.075 291.192 236.974C291.192 232.872 234.246 229.548 164 229.548C93.7538 229.548 36.8081 232.872 36.8081 236.974C36.8081 241.075 93.7538 244.399 164 244.399Z" fill="#F5F5F5"/>
<path d="M109.047 112.589L121.563 101.09L112.681 96.0842L100.165 104.179L109.047 112.589Z" fill="#E4897B"/>
<path d="M146.321 139.813C137.399 139.046 98.131 133.857 96.655 130.918C98.9576 128.359 117.85 107.787 117.85 107.787L108.345 97.0879C108.345 97.0879 61.3228 120.704 69.3392 135.543C77.3555 150.381 148.42 166.801 148.42 166.801L146.321 139.813Z" fill="#8CBAFF"/>
<path opacity="0.2" d="M96.655 130.918L92.9683 135.398L106.141 133.949C101.359 132.886 97.5143 132.099 96.655 130.918Z" fill="black"/>
<path d="M155.734 226.09C138.232 174.43 139.498 142.896 146.321 139.813C146.321 139.813 162.189 132.158 163.442 131.771C171.537 129.258 185.09 125.106 194.675 125.106C214.086 125.106 218.068 127.92 218.068 127.92C219.708 145.015 222.089 154.921 224.582 169.668C226.412 180.452 228.609 190.62 230.82 199.778C233.031 208.936 236.127 219.32 238.036 226.09H155.734Z" fill="#263238"/>
<path d="M200.296 125.407C199.365 135.903 198.637 146.918 195.554 151.602C195.554 151.602 186.822 163.928 175.874 167.398C164.781 170.914 158.601 160.904 156.928 156.62C155 151.857 156.194 143.113 157.978 134.231C159.493 133.299 162.045 132.492 163.442 131.771C172.588 128.599 182.043 126.4 191.65 125.211C194.532 124.994 197.428 125.06 200.296 125.407Z" fill="#8CBAFF"/>
<path d="M190.365 127.212C190.365 127.212 176.457 143.933 171.419 144.924C167.89 145.639 161.579 140.948 161.579 140.948C163.535 139.49 165.11 137.581 166.171 135.385C168.644 129.862 165.391 124.483 161.428 119.772L171.754 96.3074C173.058 101.214 174.734 106.015 176.766 110.667C180.072 118.27 184.684 125.368 190.365 127.212Z" fill="#E4897B"/>
<path opacity="0.2" d="M176.726 110.68C177.087 119.897 175.382 130.983 166.125 135.379C168.599 129.855 165.345 124.476 161.383 119.766L171.708 96.3008C173.014 101.214 174.691 106.021 176.726 110.68Z" fill="black"/>
<path d="M129.527 91.3151C130.124 96.8648 135.339 106.515 140.732 100.283C146.124 94.0506 128.504 81.7834 129.527 91.3151Z" fill="#263238"/>
<path d="M143.343 117.234C143.677 117.608 143.999 117.975 144.353 118.329C153.432 127.743 169.478 125.775 174.634 113.98C175.042 113.049 175.371 112.086 175.618 111.1C178.045 101.588 173.774 94.7591 167.549 82.551C161.324 70.3428 144.418 68.1583 135.7 79.3759C127.192 90.3442 134.906 107.8 143.343 117.234Z" fill="#E4897B"/>
<path d="M169.668 66.5183L154.816 70.0148L156.823 78.5428C157.053 78.3001 157.322 78.0639 157.538 77.8278C157.538 77.8278 161.96 89.8457 170.166 92.0564C177.618 82.0983 177.028 69.4572 169.668 66.5183Z" fill="#263238"/>
<path d="M178.616 88.9994C178.993 90.6583 179.037 92.3756 178.744 94.0515C178.451 95.7273 177.828 97.3281 176.91 98.7607C174.424 102.585 170.14 101.096 168.284 97.1863C166.617 93.6702 165.896 87.4447 169.596 84.9782C173.296 82.5116 177.651 84.8929 178.616 88.9994Z" fill="#E4897B"/>
<path d="M144.32 101.024C144.32 101.024 145.212 107.656 144.32 111.651C146.891 112.176 149.371 109.768 149.371 109.768L144.32 101.024Z" fill="#DE5753"/>
<path d="M158.752 110.936C159.238 110.944 159.722 110.985 160.202 111.061C160.244 111.067 160.285 111.082 160.322 111.104C160.359 111.127 160.391 111.156 160.417 111.191C160.443 111.225 160.461 111.265 160.471 111.307C160.482 111.349 160.484 111.392 160.477 111.435C160.471 111.477 160.456 111.517 160.434 111.553C160.412 111.589 160.384 111.62 160.349 111.645C160.315 111.67 160.277 111.688 160.235 111.698C160.194 111.708 160.152 111.71 160.11 111.704C158.746 111.463 157.345 111.549 156.021 111.955C154.697 112.361 153.488 113.075 152.494 114.039C152.435 114.104 152.354 114.144 152.266 114.149C152.179 114.154 152.093 114.124 152.028 114.065C151.963 114.007 151.923 113.925 151.918 113.838C151.913 113.751 151.943 113.665 152.002 113.6C152.884 112.717 153.939 112.025 155.1 111.566C156.261 111.108 157.504 110.894 158.752 110.936Z" fill="#263238"/>
<path d="M151.648 91.3479C151.551 91.4116 151.44 91.4488 151.325 91.4557C151.21 91.4626 151.095 91.439 150.992 91.3873C150.262 91.0025 149.453 90.7933 148.628 90.7762C147.804 90.7592 146.987 90.9347 146.242 91.2889C146.168 91.3338 146.085 91.3636 145.999 91.3764C145.913 91.3891 145.826 91.3847 145.741 91.3634C145.657 91.342 145.578 91.3041 145.509 91.2519C145.439 91.1997 145.381 91.1342 145.337 91.0593C145.251 90.9095 145.227 90.7317 145.271 90.5647C145.316 90.3976 145.424 90.2548 145.573 90.1671C146.505 89.6976 147.537 89.4574 148.581 89.4666C149.625 89.4757 150.651 89.7339 151.575 90.2196C151.731 90.2971 151.85 90.4332 151.905 90.598C151.96 90.7629 151.948 90.9429 151.871 91.0987C151.821 91.2009 151.744 91.2872 151.648 91.3479Z" fill="#263238"/>
<path d="M134.408 102.211C134.314 102.284 134.203 102.33 134.086 102.344C133.968 102.359 133.849 102.341 133.741 102.293C133.633 102.246 133.539 102.169 133.471 102.073C133.402 101.977 133.361 101.863 133.352 101.745C133.247 100.715 133.392 99.675 133.776 98.7132C134.16 97.7514 134.77 96.8967 135.556 96.222C135.624 96.1685 135.702 96.1292 135.786 96.1062C135.87 96.0832 135.957 96.0771 136.043 96.088C136.129 96.099 136.212 96.127 136.287 96.1702C136.362 96.2135 136.428 96.2712 136.481 96.34C136.585 96.4772 136.63 96.6496 136.608 96.8201C136.586 96.9906 136.498 97.1457 136.363 97.2519C135.742 97.7902 135.263 98.4721 134.967 99.2383C134.671 100.004 134.567 100.831 134.664 101.647C134.671 101.755 134.651 101.863 134.607 101.961C134.562 102.06 134.494 102.146 134.408 102.211Z" fill="#263238"/>
<path d="M175.362 74.7052C174.706 69.4048 175.874 65.9608 166.919 62.2019C157.716 58.3315 152.192 60.352 152.192 60.352C152.192 60.352 129.612 66.7742 126.805 74.7184C123.735 83.4104 122.259 97.0224 128.432 97.0224C134.605 97.0224 137.616 91.2889 140.24 87.7793C142.864 84.2697 146.8 79.2513 146.8 79.2513C151.569 81.2193 152.487 81.6129 156.64 82.3739C157.653 82.5639 158.697 82.4938 159.676 82.1703C160.655 81.8468 161.535 81.2803 162.235 80.524C162.5 80.2579 162.738 79.9655 162.944 79.6515L175.362 74.7052Z" fill="#263238"/>
<path opacity="0.2" d="M145.291 87.2938C145.734 87.1587 146.135 86.9113 146.454 86.5757C146.774 86.2401 147.001 85.8276 147.115 85.3783C147.429 83.8761 145.606 82.938 145.606 82.938C145.606 82.938 148.151 84.3156 147.764 85.4636C147.377 86.6116 145.291 87.2938 145.291 87.2938Z" fill="black"/>
<path opacity="0.2" d="M146.577 81.8359C146.712 82.2783 146.96 82.678 147.295 82.9964C147.631 83.3148 148.043 83.541 148.492 83.6531C149.994 83.9679 150.932 82.1443 150.932 82.1443C150.932 82.1443 149.561 84.6895 148.413 84.3025C147.265 83.9155 146.577 81.8359 146.577 81.8359Z" fill="black"/>
<path opacity="0.2" d="M151.884 82.9642C151.44 83.0994 151.04 83.3467 150.72 83.6823C150.401 84.018 150.173 84.4304 150.06 84.8798C149.745 86.382 151.569 87.3201 151.569 87.3201C151.569 87.3201 149.023 85.9425 149.411 84.7945C149.798 83.6465 151.884 82.9642 151.884 82.9642Z" fill="black"/>
<path opacity="0.2" d="M150.598 88.4221C150.462 87.9798 150.215 87.58 149.879 87.2617C149.544 86.9433 149.131 86.7171 148.682 86.605C147.18 86.2901 146.242 88.1138 146.242 88.1138C146.242 88.1138 147.62 85.5685 148.768 85.9556C149.916 86.3426 150.598 88.4221 150.598 88.4221Z" fill="black"/>
<path d="M151.333 93.493C150.247 93.4948 149.207 93.9266 148.44 94.6939C147.673 95.4612 147.241 96.5014 147.239 97.5865C147.278 98.4816 147.661 99.3271 148.308 99.9468C148.955 100.566 149.817 100.912 150.713 100.912C151.609 100.912 152.47 100.566 153.117 99.9468C153.764 99.3271 154.147 98.4816 154.186 97.5865C154.186 96.8297 153.886 96.1038 153.35 95.5687C152.815 95.0335 152.089 94.7329 151.333 94.7329C150.576 94.7329 149.85 95.0335 149.315 95.5687C148.78 96.1038 148.479 96.8297 148.479 97.5865C148.479 98.178 148.714 98.7453 149.132 99.1636C149.551 99.5819 150.118 99.8169 150.709 99.8169C151.301 99.8169 151.868 99.5819 152.287 99.1636C152.705 98.7453 152.94 98.178 152.94 97.5865C152.94 97.1602 152.77 96.7514 152.469 96.45C152.168 96.1486 151.759 95.9793 151.333 95.9793C150.906 95.9793 150.498 96.1486 150.196 96.45C149.895 96.7514 149.725 97.1602 149.725 97.5865C149.753 97.8279 149.869 98.0506 150.05 98.2122C150.232 98.3739 150.466 98.4632 150.709 98.4632C150.952 98.4632 151.187 98.3739 151.368 98.2122C151.55 98.0506 151.665 97.8279 151.693 97.5865C151.693 97.5082 151.662 97.4331 151.607 97.3777C151.552 97.3224 151.476 97.2913 151.398 97.2913H151.254C151.176 97.2913 151.1 97.3224 151.045 97.3777C150.99 97.4331 150.959 97.5082 150.959 97.5865C150.959 97.6543 150.932 97.7194 150.884 97.7674C150.836 97.8154 150.771 97.8423 150.703 97.8423C150.635 97.8407 150.571 97.8132 150.524 97.7655C150.476 97.7179 150.449 97.6538 150.447 97.5865C150.447 97.3533 150.54 97.1298 150.704 96.9649C150.869 96.8 151.093 96.7074 151.326 96.7074C151.559 96.7074 151.783 96.8 151.948 96.9649C152.112 97.1298 152.205 97.3533 152.205 97.5865C152.18 97.9669 152.011 98.3235 151.733 98.584C151.454 98.8446 151.087 98.9895 150.706 98.9895C150.325 98.9895 149.958 98.8446 149.68 98.584C149.401 98.3235 149.232 97.9669 149.207 97.5865C149.207 97.0245 149.43 96.4856 149.828 96.0882C150.225 95.6908 150.764 95.4676 151.326 95.4676C151.888 95.4676 152.427 95.6908 152.824 96.0882C153.222 96.4856 153.445 97.0245 153.445 97.5865C153.445 98.3137 153.156 99.0112 152.642 99.5254C152.128 100.04 151.43 100.329 150.703 100.329C149.976 100.329 149.278 100.04 148.764 99.5254C148.25 99.0112 147.961 98.3137 147.961 97.5865C147.961 96.6939 148.315 95.838 148.946 95.2069C149.578 94.5758 150.433 94.2212 151.326 94.2212C152.219 94.2212 153.075 94.5758 153.706 95.2069C154.337 95.838 154.691 96.6939 154.691 97.5865C154.691 97.663 154.722 97.7364 154.776 97.7906C154.83 97.8447 154.903 97.8751 154.98 97.8751H155.131C155.207 97.8751 155.281 97.8447 155.335 97.7906C155.389 97.7364 155.419 97.663 155.419 97.5865C155.418 96.5025 154.987 95.4633 154.221 94.6962C153.455 93.9291 152.417 93.4965 151.333 93.493Z" fill="#263238"/>
<path d="M139.151 100.637C138.064 100.637 137.023 101.068 136.254 101.836C135.485 102.603 135.052 103.644 135.051 104.73C135.051 105.653 135.417 106.537 136.069 107.189C136.721 107.841 137.605 108.207 138.527 108.207C139.45 108.207 140.334 107.841 140.986 107.189C141.638 106.537 142.004 105.653 142.004 104.73C142.004 103.974 141.704 103.248 141.168 102.713C140.633 102.177 139.907 101.877 139.151 101.877C138.394 101.877 137.668 102.177 137.133 102.713C136.598 103.248 136.297 103.974 136.297 104.73C136.297 105.322 136.532 105.889 136.95 106.308C137.369 106.726 137.936 106.961 138.527 106.961C139.119 106.961 139.686 106.726 140.105 106.308C140.523 105.889 140.758 105.322 140.758 104.73C140.732 104.321 140.551 103.937 140.252 103.656C139.952 103.376 139.558 103.219 139.147 103.219C138.737 103.219 138.342 103.376 138.043 103.656C137.744 103.937 137.563 104.321 137.537 104.73C137.565 104.972 137.68 105.195 137.862 105.356C138.043 105.518 138.278 105.607 138.521 105.607C138.764 105.607 138.998 105.518 139.18 105.356C139.361 105.195 139.477 104.972 139.505 104.73C139.506 104.692 139.499 104.654 139.485 104.619C139.471 104.583 139.449 104.551 139.422 104.524C139.395 104.497 139.363 104.476 139.328 104.462C139.292 104.448 139.254 104.441 139.216 104.442H139.072C139.033 104.441 138.995 104.448 138.959 104.462C138.924 104.476 138.891 104.497 138.864 104.524C138.836 104.551 138.814 104.583 138.799 104.618C138.784 104.654 138.777 104.692 138.777 104.73C138.777 104.798 138.75 104.863 138.702 104.911C138.654 104.959 138.589 104.986 138.521 104.986C138.453 104.986 138.388 104.959 138.34 104.911C138.292 104.863 138.265 104.798 138.265 104.73C138.265 104.497 138.358 104.274 138.523 104.109C138.687 103.944 138.911 103.851 139.144 103.851C139.377 103.851 139.601 103.944 139.766 104.109C139.931 104.274 140.023 104.497 140.023 104.73C140.023 105.129 139.865 105.511 139.583 105.793C139.301 106.074 138.919 106.233 138.521 106.233C138.122 106.233 137.74 106.074 137.459 105.793C137.177 105.511 137.019 105.129 137.019 104.73C137.049 104.188 137.286 103.678 137.68 103.304C138.075 102.931 138.598 102.723 139.141 102.723C139.684 102.723 140.207 102.931 140.601 103.304C140.996 103.678 141.233 104.188 141.263 104.73C141.263 105.458 140.974 106.155 140.46 106.669C139.946 107.184 139.248 107.472 138.521 107.472C137.794 107.472 137.096 107.184 136.582 106.669C136.068 106.155 135.779 105.458 135.779 104.73C135.779 104.288 135.866 103.851 136.035 103.443C136.204 103.034 136.452 102.663 136.764 102.351C137.077 102.038 137.448 101.79 137.856 101.621C138.265 101.452 138.702 101.365 139.144 101.365C139.586 101.365 140.024 101.452 140.432 101.621C140.84 101.79 141.211 102.038 141.524 102.351C141.836 102.663 142.084 103.034 142.253 103.443C142.422 103.851 142.509 104.288 142.509 104.73C142.509 104.808 142.54 104.882 142.594 104.937C142.647 104.992 142.721 105.024 142.798 105.026H142.949C143.026 105.024 143.099 104.992 143.153 104.937C143.207 104.882 143.238 104.808 143.238 104.73C143.236 103.646 142.805 102.607 142.039 101.84C141.273 101.073 140.235 100.64 139.151 100.637Z" fill="#263238"/>
<path d="M112.983 98.4917L121.793 101.181C131.456 100.525 128.484 88.2647 128.484 88.2647L129.442 81.7834C129.763 79.5858 128.209 77.4144 125.762 76.6469L119.615 74.7183C116.814 73.8392 113.868 75.1119 113.094 77.5325L111.343 82.9707C110.836 84.5556 110.728 86.241 111.028 87.8776L112.983 98.4917Z" fill="#E4897B"/>
<path d="M178.688 145.081L174.096 151.044L180.078 165.541C178.005 166.718 175.754 167.549 173.414 168.001C171.501 168.382 169.525 168.283 167.66 167.713L170.061 151.536L164.892 146.701L171.163 145.035L178.688 145.081Z" fill="#8CBAFF"/>
<path opacity="0.5" d="M178.688 145.081L174.096 151.044L180.078 165.541C178.005 166.718 175.754 167.549 173.414 168.001C171.501 168.382 169.525 168.283 167.66 167.713L170.061 151.536L164.892 146.701L171.163 145.035L178.688 145.081Z" fill="white"/>
<path d="M170.061 151.516L172.475 151.149L175.992 148.754L178.688 145.081L169.255 150.762L170.061 151.516Z" fill="#263238"/>
<path d="M167.352 148.984L173.401 145.035L171.164 145.015L169.255 145.52L165.896 147.62L167.352 148.984Z" fill="#263238"/>
<path d="M173.315 151.149L169.228 157.099L168.533 161.737L174.909 153.058L174.076 151.044L173.315 151.149Z" fill="#263238"/>
<path d="M167.772 166.814L176.379 156.62L177.336 158.942L169.307 168.126C168.742 168.045 168.184 167.915 167.641 167.739L167.772 166.814Z" fill="#263238"/>
<path d="M178.216 161.068L172.764 168.1C173.863 167.956 174.944 167.701 175.992 167.339L179.213 163.488L178.216 161.068Z" fill="#263238"/>
<path d="M166.217 152.481C167.641 147.003 171.419 144.943 171.419 144.943C167.601 142.024 167.024 136.1 167.044 132.623V132.558C167.044 132.427 167.044 132.295 167.044 132.171C167.043 131.471 166.995 130.772 166.899 130.078C164.795 131.197 162.922 132.706 161.382 134.526C160.326 136.553 161.009 151.169 166.217 152.481Z" fill="#263238"/>
<path d="M171.419 144.976C171.419 144.976 176.267 147.816 181.686 150.408C186.481 145.494 197.384 133.024 194.248 126.011C192.726 124.174 186.757 124.699 186.757 124.699C186.757 124.699 183.404 134.539 171.419 144.976Z" fill="#263238"/>
<g opacity="0.2">
<path d="M171.419 144.976C171.419 144.976 176.267 147.816 181.686 150.408C186.481 145.494 197.384 133.024 194.248 126.011C192.726 124.174 186.757 124.699 186.757 124.699C186.757 124.699 183.404 134.539 171.419 144.976Z" fill="white"/>
<path d="M166.217 152.481C167.641 147.003 171.419 144.943 171.419 144.943C167.601 142.024 167.024 136.1 167.044 132.623V132.558C167.044 132.427 167.044 132.295 167.044 132.171C167.043 131.471 166.995 130.772 166.899 130.078C164.795 131.197 162.922 132.706 161.382 134.526C160.326 136.553 161.009 151.169 166.217 152.481Z" fill="white"/>
</g>
<path opacity="0.3" d="M148.42 201.72L159.041 211.658L165.725 199.024L177.612 208.05L183.831 195.147L194.832 203.845L201.353 190.994L213.39 198.952L218.199 187.327L230.151 196.643L230.899 200.907L218.894 191.723L214.282 203.367L202.35 195.534L195.901 208.267L184.178 199.109L178.622 212.118L166.44 202.363L159.88 214.873L149.338 205.19L148.42 201.72Z" fill="white"/>
<path d="M190.719 210.478L192.949 219.412C191.814 229.029 179.705 225.434 179.705 225.434L173.184 226.09C170.973 226.3 168.887 224.634 168.244 222.154L166.637 215.922C165.902 213.075 167.293 210.202 169.779 209.553L175.303 208.083C176.911 207.657 178.599 207.637 180.216 208.024L190.719 210.478Z" fill="#E4897B"/>
<path d="M189.663 210.222L203.517 205.872L206.771 216.9L192.726 220.665L189.663 210.222Z" fill="#E4897B"/>
<path d="M215.824 127.041C205.479 125.224 209.677 148.689 216.526 158.037C220.521 163.994 222.141 165.378 224.582 169.668C233.26 184.913 234.422 190.771 234.422 190.771C230.925 193.074 190.962 207.709 190.962 207.709L196.406 223.453C196.406 223.453 256.102 214.44 256.706 195.606C257.237 179.626 251.222 167.615 240.004 150.401C226.786 130.124 222.312 128.176 215.824 127.041Z" fill="#8CBAFF"/>
<path opacity="0.2" d="M234.395 190.771L242.963 187.045L229.6 178.983C232.519 184.874 233.464 186.789 234.395 190.771Z" fill="black"/>
<path d="M209.349 58.266C206.817 58.266 205.092 56.7966 204.856 54.4218C204.79 52.9196 204.889 51.0631 206.292 49.9479C206.631 49.6706 207.04 49.4942 207.474 49.4388C207.908 49.3835 208.349 49.4514 208.746 49.6349C209.143 49.8183 209.48 50.1099 209.719 50.4762C209.958 50.8425 210.089 51.2687 210.097 51.706C210.169 53.018 209.907 53.9954 209.369 54.5334C209.228 54.675 209.059 54.785 208.872 54.8563C208.686 54.9275 208.486 54.9583 208.287 54.9466C207.152 54.881 206.843 54.3693 206.725 53.6346C206.675 53.3231 206.722 53.0038 206.857 52.719C206.993 52.4343 207.213 52.1977 207.486 52.0406L207.65 52.3292C207.43 52.4529 207.254 52.6417 207.146 52.8696C207.038 53.0975 207.003 53.3533 207.047 53.6018C207.132 54.1201 207.283 54.5662 208.306 54.6252C208.46 54.6362 208.615 54.613 208.759 54.5575C208.903 54.5019 209.033 54.4153 209.139 54.3038C209.605 53.8446 209.835 52.9065 209.795 51.7322C209.795 51.3537 209.685 50.9834 209.479 50.6657C209.273 50.3481 208.98 50.0966 208.634 49.9414C208.291 49.7875 207.912 49.7318 207.539 49.7804C207.166 49.829 206.814 49.9801 206.522 50.2169C205.21 51.2337 205.144 52.9917 205.21 54.4021C205.426 56.5866 207.027 57.9446 209.376 57.9446C209.883 57.8985 210.374 57.7368 210.809 57.4718C211.245 57.2069 211.614 56.8457 211.888 56.4161C212.474 55.6439 212.882 54.7524 213.085 53.8047C213.288 52.857 213.28 51.8762 213.062 50.9319C212.699 49.8365 212.119 48.8256 211.356 47.9599C210.592 47.0942 209.662 46.3915 208.621 45.8938C207.943 45.5648 207.2 45.3938 206.447 45.3938C205.693 45.3938 204.95 45.5648 204.272 45.8938C200.559 47.7306 200.913 50.9516 201.648 54.3628L201.326 54.4349C200.749 51.7519 199.87 47.7044 204.121 45.5986C204.842 45.2487 205.632 45.0669 206.433 45.0669C207.234 45.0669 208.025 45.2487 208.746 45.5986C209.835 46.1096 210.808 46.8392 211.604 47.742C212.399 48.6448 213.001 49.7016 213.371 50.8466C213.602 51.84 213.611 52.8719 213.399 53.8695C213.187 54.867 212.759 55.8058 212.144 56.6194C211.836 57.0905 211.424 57.4842 210.939 57.7698C210.455 58.0554 209.91 58.2252 209.349 58.266Z" fill="#8CBAFF"/>
<path d="M141.578 32.2687C139.929 32.2715 138.338 31.6585 137.117 30.5499C136.068 29.5952 135.441 28.263 135.373 26.846C135.305 25.4291 135.803 24.0432 136.756 22.9928C137.526 22.1496 138.599 21.6452 139.739 21.5899C140.88 21.5346 141.996 21.9328 142.844 22.6976C143.528 23.3188 143.937 24.1861 143.981 25.1087C144.025 26.0314 143.701 26.9338 143.08 27.6176C142.576 28.1689 141.875 28.4983 141.128 28.5339C140.382 28.5696 139.653 28.3085 139.098 27.8079C138.657 27.3956 138.395 26.8276 138.367 26.2248C138.339 25.6219 138.547 25.0319 138.947 24.5803C139.104 24.3899 139.297 24.2335 139.516 24.1207C139.735 24.0079 139.974 23.941 140.22 23.9243C140.47 23.9177 140.718 23.9606 140.952 24.0507C141.185 24.1408 141.398 24.2762 141.578 24.4491C141.873 24.7231 142.049 25.1015 142.069 25.5036C142.088 25.9057 141.95 26.2995 141.683 26.6008C141.457 26.843 141.147 26.9906 140.817 27.0141C140.652 27.0226 140.487 26.9979 140.331 26.9416C140.176 26.8852 140.033 26.7984 139.912 26.6861C139.71 26.5018 139.59 26.2455 139.576 25.9728C139.563 25.7001 139.657 25.4331 139.84 25.2298L140.082 25.4463C139.958 25.5857 139.893 25.7688 139.903 25.9556C139.913 26.1424 139.996 26.3178 140.135 26.4434C140.317 26.6088 140.557 26.6955 140.803 26.6844C141.049 26.6734 141.28 26.5655 141.447 26.3843C141.657 26.1486 141.767 25.8405 141.755 25.525C141.747 25.3681 141.708 25.2143 141.641 25.0725C141.573 24.9306 141.478 24.8035 141.361 24.6984C141.061 24.4066 140.658 24.2441 140.24 24.2458C140.038 24.2625 139.841 24.3199 139.662 24.4146C139.483 24.5093 139.324 24.6393 139.197 24.7968C138.849 25.1823 138.668 25.6895 138.692 26.208C138.717 26.7265 138.945 27.2143 139.328 27.5651C139.57 27.7852 139.853 27.9553 140.16 28.0659C140.468 28.1764 140.795 28.2252 141.121 28.2093C141.448 28.1935 141.768 28.1134 142.064 27.9736C142.359 27.8337 142.625 27.637 142.844 27.3946C143.405 26.775 143.698 25.9578 143.657 25.1227C143.617 24.2875 143.246 23.5026 142.628 22.9403C141.845 22.2318 140.814 21.8629 139.76 21.9145C138.705 21.9662 137.715 22.4343 137.006 23.2159C136.557 23.7007 136.21 24.2701 135.985 24.8908C135.76 25.5115 135.661 26.1709 135.694 26.8304C135.725 27.4894 135.886 28.1357 136.167 28.7323C136.448 29.3289 136.845 29.8641 137.334 30.3072C138.575 31.4309 140.211 32.0164 141.884 31.9352C143.556 31.854 145.128 31.1129 146.255 29.8743L146.498 30.0907C145.915 30.7398 145.209 31.2661 144.421 31.6389C143.632 32.0117 142.777 32.2236 141.906 32.2621L141.578 32.2687Z" fill="#8CBAFF"/>
<path d="M159.29 55.2287L160.294 51.6994L157.014 49.4821L161.022 49.2525L161.606 47.1992L162.498 49.1672L165.778 48.977L163.442 51.2402L165.063 54.8547L161.901 52.7359L159.29 55.2287ZM160.602 51.8896L159.946 54.1463L161.586 52.5587L160.602 51.8896ZM162.117 52.5456L164.269 53.9823L163.167 51.5223L162.117 52.5456ZM160.694 51.5944L161.835 52.3554L163.023 51.2074L162.275 49.5477L161.265 49.6002L160.694 51.5944ZM157.998 49.7904L160.412 51.4042L160.917 49.6199L157.998 49.7904ZM162.629 49.528L163.285 50.9647L164.905 49.3968L162.629 49.528ZM161.665 48.216L161.356 49.2984L162.13 49.2591L161.665 48.216Z" fill="#8CBAFF"/>
<path d="M93.8868 66.9579L93.9261 63.2843L90.1476 62.0183L93.9589 60.7456V58.6071L95.3365 60.2799L98.4394 59.2368L96.7863 62.0379L99.2988 65.0949L95.6908 63.8813L93.8868 66.9579ZM94.2541 63.3959V65.7378L95.4153 63.7698L94.2541 63.3959ZM95.881 63.5927L98.341 64.4192L96.6223 62.32L95.881 63.5927ZM94.2607 63.0482L95.5727 63.4877L96.4189 62.0642L95.2578 60.6603L94.2935 60.9818L94.2607 63.0482ZM91.1775 62.0183L93.9327 62.9432V61.0933L91.1775 62.0183ZM95.5793 60.5488L96.5829 61.769L97.7309 59.801L95.5793 60.5488ZM94.3001 59.5058V60.6341L95.0348 60.3914L94.3001 59.5058Z" fill="#8CBAFF"/>
<path d="M188.134 97.7833L186.586 94.3065L183.09 95.0413L185.819 92.5944L184.198 88.947L187.715 90.915L189.302 89.4915L189 91.6301L191.867 93.2176L188.685 93.8736L188.134 97.7833ZM186.914 94.2409L187.964 96.6091L188.344 93.9392L186.914 94.2409ZM185.963 92.9289L184.218 94.464L186.448 93.9982L185.963 92.9289ZM186.219 92.6993L186.776 93.9523L188.39 93.6112L188.646 91.8072L187.76 91.3152L186.219 92.6993ZM188.954 91.9777L188.731 93.539L190.935 93.0798L188.954 91.9777ZM184.9 89.7277L186.075 92.3845L187.452 91.1446L184.9 89.7277ZM188.016 91.0856L188.672 91.4595L188.83 90.3312L188.016 91.0856Z" fill="#8CBAFF"/>
<path d="M190.83 60.3126C188.58 58.653 186.107 57.0326 183.45 55.3926C185.76 53.3066 187.885 51.227 189.781 49.1738C198.125 40.1538 201.281 32.6885 198.657 28.149C196.033 23.6094 187.997 22.6123 176.011 25.3282C166.289 27.5323 154.888 31.9669 143.264 38.0086C130.715 34.2432 118.684 32.0194 108.719 31.6717C96.4452 31.2518 88.7306 33.7315 86.9988 38.6778C85.2669 43.624 89.7671 50.3677 99.653 57.7018C101.903 59.3614 104.376 60.9818 107.033 62.6283C104.724 64.7144 102.598 66.7939 100.703 68.8406C92.3583 77.8278 89.216 85.28 91.84 89.8326C93.4669 92.66 97.2914 94.1557 102.894 94.1557C106.801 94.0787 110.688 93.575 114.485 92.6534C124.207 90.4493 135.608 86.0213 147.233 79.973C159.782 83.745 171.813 85.9622 181.771 86.3099C182.676 86.3427 183.575 86.3624 184.441 86.3624C195.14 86.3624 201.91 83.8565 203.465 79.3104C205.203 74.3641 200.736 67.6205 190.83 60.3126ZM181.784 85.6539C172.043 85.3194 160.313 83.1742 148.046 79.54C150.333 78.333 152.625 77.0712 154.921 75.7549C164.907 70.0784 174.296 63.4103 182.945 55.8518C185.648 57.4918 188.161 59.1318 190.443 60.844C200.073 67.9616 204.482 74.4429 202.861 79.0939C201.241 83.745 193.756 86.0803 181.784 85.6539ZM106.082 32.2818C116.151 32.2818 129.042 34.4925 142.431 38.4482C140.141 39.6552 137.839 40.9082 135.562 42.2333C125.571 47.9104 116.178 54.5807 107.525 62.1429C93.5588 53.7002 85.5228 44.9163 87.622 38.8942C89.1045 34.6302 95.6645 32.2818 106.082 32.2818ZM108.102 62.4906C116.691 55.0273 125.999 48.435 135.89 42.8106C138.37 41.3805 140.848 40.0226 143.323 38.7368C145.999 39.5371 148.702 40.4096 151.398 41.3608C162.167 45.0288 172.542 49.7646 182.368 55.4976C173.786 62.9631 164.481 69.5556 154.593 75.1776C152.113 76.6142 149.627 77.9722 147.154 79.2645C144.477 78.4598 141.788 77.5851 139.085 76.6405C128.313 72.9649 117.934 68.2249 108.102 62.4906ZM151.615 40.7179C149.122 39.8432 146.638 39.032 144.163 38.2842C160.891 29.6709 177.002 24.5082 187.596 24.5082C192.956 24.5082 196.584 25.8923 198.092 28.4966C201.281 34.0267 195.016 44.1553 182.88 55.0581C172.967 49.2385 162.492 44.4341 151.615 40.7179ZM138.869 77.2702C141.361 78.1361 143.854 78.943 146.321 79.6974C134.952 85.5621 123.827 89.8589 114.328 92.0171C102.644 94.6411 94.8576 93.7686 92.3911 89.5046C89.216 83.968 95.4677 73.8525 107.584 62.976C117.505 68.781 127.986 73.57 138.869 77.2702Z" fill="#8CBAFF"/>
<path d="M92.5682 36.4081L101.129 44.3522L102.822 43.1649L109.841 47.711L102.284 39.0846L100.171 41.0329L92.5682 36.4081Z" fill="#8CBAFF"/>
<path d="M200.828 100.145L209.389 108.083L211.081 106.902L218.107 111.448L210.55 102.822L208.437 104.77L200.828 100.145Z" fill="#8CBAFF"/>
<path d="M215.837 31.1534L207.27 39.091L205.577 37.9037L198.558 42.4563L206.115 33.8299L208.228 35.7717L215.837 31.1534Z" fill="#8CBAFF"/>
<path d="M101.208 96.6091L92.6404 104.553L90.9479 103.366L83.9287 107.912L91.4858 99.2856L93.5981 101.234L101.208 96.6091Z" fill="#8CBAFF"/>
<path d="M274.871 226.09H52.4996V236.455H274.871V226.09Z" fill="#8CBAFF"/>
<path opacity="0.2" d="M274.871 226.09H52.4996V236.455H274.871V226.09Z" fill="#FAFAFA"/>
<path d="M278.19 226.09H49.81C49.1141 226.09 48.4467 226.367 47.9546 226.859C47.4625 227.351 47.186 228.018 47.186 228.714C47.1851 229.058 47.2526 229.398 47.3846 229.715C47.5165 230.032 47.7103 230.319 47.9546 230.56C48.1989 230.801 48.4888 230.992 48.8073 231.12C49.1259 231.248 49.4668 231.311 49.81 231.306H278.19C278.532 231.305 278.871 231.236 279.186 231.103C279.502 230.97 279.787 230.776 280.027 230.532C280.267 230.288 280.456 229.999 280.583 229.681C280.71 229.364 280.773 229.024 280.768 228.682C280.76 227.999 280.486 227.347 280.004 226.863C279.523 226.379 278.872 226.102 278.19 226.09Z" fill="#8CBAFF"/>
<path opacity="0.4" d="M278.19 226.09H49.81C49.1141 226.09 48.4467 226.367 47.9546 226.859C47.4625 227.351 47.186 228.018 47.186 228.714C47.1851 229.058 47.2526 229.398 47.3846 229.715C47.5165 230.032 47.7103 230.319 47.9546 230.56C48.1989 230.801 48.4888 230.992 48.8073 231.12C49.1259 231.248 49.4668 231.311 49.81 231.306H278.19C278.532 231.305 278.871 231.236 279.186 231.103C279.502 230.97 279.787 230.776 280.027 230.532C280.267 230.288 280.456 229.999 280.583 229.681C280.71 229.364 280.773 229.024 280.768 228.682C280.76 227.999 280.486 227.347 280.004 226.863C279.523 226.379 278.872 226.102 278.19 226.09Z" fill="#FAFAFA"/>
<path d="M108.115 225.959H93.8933V221.728C93.9917 217.628 92.6601 211.153 91.5055 204.961C90.5149 202.553 91.6433 195.403 92.3977 189.105H109.985C110.759 195.226 111.953 202.101 110.877 204.961C109.395 211.56 107.827 218.317 108.115 221.735V225.959Z" fill="#8CBAFF"/>
<path opacity="0.6" d="M108.115 225.959H93.8933V221.728C93.9917 217.628 92.6601 211.153 91.5055 204.961C90.5149 202.553 91.6433 195.403 92.3977 189.105H109.985C110.759 195.226 111.953 202.101 110.877 204.961C109.395 211.56 107.827 218.317 108.115 221.735V225.959Z" fill="white"/>
<path opacity="0.7" d="M107.309 224.877H94.7527V221.092C94.8314 217.477 93.6637 211.757 92.6404 206.292C92.109 203.531 92.0827 201.7 92.7519 196.157H109.644C110.3 201.556 110.3 202.717 109.736 206.292C108.424 212.118 107.046 218.1 107.302 221.098L107.309 224.877Z" fill="#8CBAFF"/>
<path opacity="0.5" d="M92.7454 196.177L109.644 196.157L108.909 189.053L93.5457 189.072L92.7454 196.177Z" fill="white"/>
<path d="M96.6354 199.03C96.9905 199.03 97.2783 198.743 97.2783 198.388C97.2783 198.032 96.9905 197.745 96.6354 197.745C96.2804 197.745 95.9926 198.032 95.9926 198.388C95.9926 198.743 96.2804 199.03 96.6354 199.03Z" fill="#8CBAFF"/>
<path opacity="0.4" d="M96.6354 199.03C96.9905 199.03 97.2783 198.743 97.2783 198.388C97.2783 198.032 96.9905 197.745 96.6354 197.745C96.2804 197.745 95.9926 198.032 95.9926 198.388C95.9926 198.743 96.2804 199.03 96.6354 199.03Z" fill="white"/>
<path d="M101.195 203.065C101.195 203.195 101.156 203.322 101.084 203.429C101.012 203.537 100.909 203.621 100.79 203.671C100.67 203.721 100.538 203.734 100.411 203.708C100.283 203.683 100.166 203.621 100.075 203.529C99.983 203.437 99.9205 203.32 99.8952 203.193C99.8699 203.066 99.8828 202.934 99.9325 202.814C99.9822 202.694 100.066 202.592 100.174 202.52C100.282 202.447 100.409 202.409 100.539 202.409C100.713 202.409 100.879 202.478 101.002 202.601C101.125 202.724 101.195 202.891 101.195 203.065Z" fill="#8CBAFF"/>
<path opacity="0.4" d="M101.195 203.065C101.195 203.195 101.156 203.322 101.084 203.429C101.012 203.537 100.909 203.621 100.79 203.671C100.67 203.721 100.538 203.734 100.411 203.708C100.283 203.683 100.166 203.621 100.075 203.529C99.983 203.437 99.9205 203.32 99.8952 203.193C99.8699 203.066 99.8828 202.934 99.9325 202.814C99.9822 202.694 100.066 202.592 100.174 202.52C100.282 202.447 100.409 202.409 100.539 202.409C100.713 202.409 100.879 202.478 101.002 202.601C101.125 202.724 101.195 202.891 101.195 203.065Z" fill="white"/>
<path d="M107.833 197.876C108.188 197.876 108.476 197.588 108.476 197.233C108.476 196.878 108.188 196.59 107.833 196.59C107.478 196.59 107.19 196.878 107.19 197.233C107.19 197.588 107.478 197.876 107.833 197.876Z" fill="#8CBAFF"/>
<path opacity="0.4" d="M107.833 197.876C108.188 197.876 108.476 197.588 108.476 197.233C108.476 196.878 108.188 196.59 107.833 196.59C107.478 196.59 107.19 196.878 107.19 197.233C107.19 197.588 107.478 197.876 107.833 197.876Z" fill="white"/>
<path d="M101.385 198.394C101.74 198.394 102.028 198.106 102.028 197.751C102.028 197.396 101.74 197.108 101.385 197.108C101.03 197.108 100.742 197.396 100.742 197.751C100.742 198.106 101.03 198.394 101.385 198.394Z" fill="#8CBAFF"/>
<path opacity="0.4" d="M101.385 198.394C101.74 198.394 102.028 198.106 102.028 197.751C102.028 197.396 101.74 197.108 101.385 197.108C101.03 197.108 100.742 197.396 100.742 197.751C100.742 198.106 101.03 198.394 101.385 198.394Z" fill="white"/>
<path d="M93.6638 202.763C94.0188 202.763 94.3066 202.475 94.3066 202.12C94.3066 201.765 94.0188 201.477 93.6638 201.477C93.3087 201.477 93.0209 201.765 93.0209 202.12C93.0209 202.475 93.3087 202.763 93.6638 202.763Z" fill="#8CBAFF"/>
<path opacity="0.4" d="M93.6638 202.763C94.0188 202.763 94.3066 202.475 94.3066 202.12C94.3066 201.765 94.0188 201.477 93.6638 201.477C93.3087 201.477 93.0209 201.765 93.0209 202.12C93.0209 202.475 93.3087 202.763 93.6638 202.763Z" fill="white"/>
<path d="M106.272 205.38C106.627 205.38 106.915 205.093 106.915 204.738C106.915 204.383 106.627 204.095 106.272 204.095C105.917 204.095 105.629 204.383 105.629 204.738C105.629 205.093 105.917 205.38 106.272 205.38Z" fill="#8CBAFF"/>
<path opacity="0.4" d="M106.272 205.38C106.627 205.38 106.915 205.093 106.915 204.738C106.915 204.383 106.627 204.095 106.272 204.095C105.917 204.095 105.629 204.383 105.629 204.738C105.629 205.093 105.917 205.38 106.272 205.38Z" fill="white"/>
<path d="M95.9925 208.155C96.3475 208.155 96.6354 207.868 96.6354 207.512C96.6354 207.157 96.3475 206.87 95.9925 206.87C95.6374 206.87 95.3496 207.157 95.3496 207.512C95.3496 207.868 95.6374 208.155 95.9925 208.155Z" fill="#8CBAFF"/>
<path opacity="0.4" d="M95.9925 208.155C96.3475 208.155 96.6354 207.868 96.6354 207.512C96.6354 207.157 96.3475 206.87 95.9925 206.87C95.6374 206.87 95.3496 207.157 95.3496 207.512C95.3496 207.868 95.6374 208.155 95.9925 208.155Z" fill="white"/>
<path d="M96.4911 203.859C96.4898 203.937 96.4652 204.014 96.4205 204.079C96.3757 204.144 96.3128 204.194 96.2395 204.224C96.1663 204.253 96.0861 204.26 96.0089 204.244C95.9317 204.228 95.861 204.189 95.8057 204.133C95.7504 204.076 95.7129 204.005 95.698 203.928C95.6831 203.85 95.6914 203.77 95.7219 203.697C95.7523 203.625 95.8036 203.563 95.8693 203.519C95.9349 203.475 96.012 203.452 96.0909 203.452C96.144 203.452 96.1966 203.462 96.2456 203.483C96.2946 203.503 96.339 203.534 96.3762 203.571C96.4135 203.609 96.4428 203.654 96.4625 203.703C96.4822 203.753 96.4919 203.806 96.4911 203.859Z" fill="#8CBAFF"/>
<path opacity="0.4" d="M96.4911 203.859C96.4898 203.937 96.4652 204.014 96.4205 204.079C96.3757 204.144 96.3128 204.194 96.2395 204.224C96.1663 204.253 96.0861 204.26 96.0089 204.244C95.9317 204.228 95.861 204.189 95.8057 204.133C95.7504 204.076 95.7129 204.005 95.698 203.928C95.6831 203.85 95.6914 203.77 95.7219 203.697C95.7523 203.625 95.8036 203.563 95.8693 203.519C95.9349 203.475 96.012 203.452 96.0909 203.452C96.144 203.452 96.1966 203.462 96.2456 203.483C96.2946 203.503 96.339 203.534 96.3762 203.571C96.4135 203.609 96.4428 203.654 96.4625 203.703C96.4822 203.753 96.4919 203.806 96.4911 203.859Z" fill="white"/>
<path d="M96.8978 201.72C96.8853 201.818 96.8374 201.908 96.7631 201.974C96.6889 202.039 96.5933 202.075 96.4944 202.075C96.3954 202.075 96.2999 202.039 96.2256 201.974C96.1514 201.908 96.1035 201.818 96.0909 201.72C96.0836 201.663 96.0886 201.604 96.1055 201.549C96.1224 201.494 96.1509 201.443 96.1891 201.4C96.2273 201.356 96.2742 201.322 96.3269 201.298C96.3795 201.274 96.4366 201.262 96.4944 201.262C96.5521 201.262 96.6092 201.274 96.6619 201.298C96.7145 201.322 96.7615 201.356 96.7996 201.4C96.8378 201.443 96.8663 201.494 96.8832 201.549C96.9002 201.604 96.9051 201.663 96.8978 201.72Z" fill="#8CBAFF"/>
<path opacity="0.4" d="M96.8978 201.72C96.8853 201.818 96.8374 201.908 96.7631 201.974C96.6889 202.039 96.5933 202.075 96.4944 202.075C96.3954 202.075 96.2999 202.039 96.2256 201.974C96.1514 201.908 96.1035 201.818 96.0909 201.72C96.0836 201.663 96.0886 201.604 96.1055 201.549C96.1224 201.494 96.1509 201.443 96.1891 201.4C96.2273 201.356 96.2742 201.322 96.3269 201.298C96.3795 201.274 96.4366 201.262 96.4944 201.262C96.5521 201.262 96.6092 201.274 96.6619 201.298C96.7145 201.322 96.7615 201.356 96.7996 201.4C96.8378 201.443 96.8663 201.494 96.8832 201.549C96.9002 201.604 96.9051 201.663 96.8978 201.72Z" fill="white"/>
<path d="M99.22 200.165C99.22 200.271 99.1778 200.373 99.1028 200.448C99.0277 200.523 98.926 200.565 98.8198 200.565C98.7137 200.565 98.6119 200.523 98.5369 200.448C98.4618 200.373 98.4197 200.271 98.4197 200.165C98.4197 200.059 98.4618 199.957 98.5369 199.882C98.6119 199.807 98.7137 199.765 98.8198 199.765C98.926 199.765 99.0277 199.807 99.1028 199.882C99.1778 199.957 99.22 200.059 99.22 200.165Z" fill="#8CBAFF"/>
<path opacity="0.4" d="M99.22 200.165C99.22 200.271 99.1778 200.373 99.1028 200.448C99.0277 200.523 98.926 200.565 98.8198 200.565C98.7137 200.565 98.6119 200.523 98.5369 200.448C98.4618 200.373 98.4197 200.271 98.4197 200.165C98.4197 200.059 98.4618 199.957 98.5369 199.882C98.6119 199.807 98.7137 199.765 98.8198 199.765C98.926 199.765 99.0277 199.807 99.1028 199.882C99.1778 199.957 99.22 200.059 99.22 200.165Z" fill="white"/>
<path d="M104.212 207.27C104.433 207.27 104.612 207.091 104.612 206.87C104.612 206.649 104.433 206.469 104.212 206.469C103.991 206.469 103.812 206.649 103.812 206.87C103.812 207.091 103.991 207.27 104.212 207.27Z" fill="#8CBAFF"/>
<path opacity="0.4" d="M104.212 207.27C104.433 207.27 104.612 207.091 104.612 206.87C104.612 206.649 104.433 206.469 104.212 206.469C103.991 206.469 103.812 206.649 103.812 206.87C103.812 207.091 103.991 207.27 104.212 207.27Z" fill="white"/>
<path d="M106.672 210.524C106.673 210.577 106.663 210.629 106.644 210.679C106.624 210.728 106.595 210.773 106.557 210.811C106.52 210.849 106.476 210.879 106.427 210.899C106.378 210.92 106.325 210.93 106.272 210.93C106.164 210.93 106.061 210.887 105.984 210.811C105.908 210.735 105.865 210.631 105.865 210.524C105.865 210.47 105.876 210.418 105.896 210.369C105.917 210.32 105.947 210.275 105.985 210.238C106.023 210.201 106.068 210.172 106.117 210.152C106.166 210.132 106.219 210.122 106.272 210.123C106.325 210.123 106.377 210.134 106.425 210.154C106.474 210.174 106.518 210.203 106.555 210.241C106.592 210.278 106.622 210.322 106.642 210.37C106.662 210.419 106.672 210.471 106.672 210.524Z" fill="#8CBAFF"/>
<path opacity="0.4" d="M106.672 210.524C106.673 210.577 106.663 210.629 106.644 210.679C106.624 210.728 106.595 210.773 106.557 210.811C106.52 210.849 106.476 210.879 106.427 210.899C106.378 210.92 106.325 210.93 106.272 210.93C106.164 210.93 106.061 210.887 105.984 210.811C105.908 210.735 105.865 210.631 105.865 210.524C105.865 210.47 105.876 210.418 105.896 210.369C105.917 210.32 105.947 210.275 105.985 210.238C106.023 210.201 106.068 210.172 106.117 210.152C106.166 210.132 106.219 210.122 106.272 210.123C106.325 210.123 106.377 210.134 106.425 210.154C106.474 210.174 106.518 210.203 106.555 210.241C106.592 210.278 106.622 210.322 106.642 210.37C106.662 210.419 106.672 210.471 106.672 210.524Z" fill="white"/>
<path d="M107.079 199.424C107.079 199.477 107.068 199.53 107.048 199.579C107.027 199.628 106.997 199.672 106.959 199.709C106.922 199.747 106.877 199.776 106.827 199.796C106.778 199.815 106.725 199.825 106.672 199.824C106.566 199.824 106.464 199.782 106.389 199.707C106.314 199.632 106.272 199.53 106.272 199.424C106.271 199.371 106.281 199.318 106.301 199.269C106.32 199.22 106.35 199.175 106.387 199.137C106.424 199.099 106.469 199.069 106.518 199.048C106.567 199.028 106.619 199.017 106.672 199.017C106.78 199.017 106.884 199.06 106.96 199.136C107.036 199.213 107.079 199.316 107.079 199.424Z" fill="#8CBAFF"/>
<path opacity="0.4" d="M107.079 199.424C107.079 199.477 107.068 199.53 107.048 199.579C107.027 199.628 106.997 199.672 106.959 199.709C106.922 199.747 106.877 199.776 106.827 199.796C106.778 199.815 106.725 199.825 106.672 199.824C106.566 199.824 106.464 199.782 106.389 199.707C106.314 199.632 106.272 199.53 106.272 199.424C106.271 199.371 106.281 199.318 106.301 199.269C106.32 199.22 106.35 199.175 106.387 199.137C106.424 199.099 106.469 199.069 106.518 199.048C106.567 199.028 106.619 199.017 106.672 199.017C106.78 199.017 106.884 199.06 106.96 199.136C107.036 199.213 107.079 199.316 107.079 199.424Z" fill="white"/>
<path d="M92.2467 189.046C92.6199 189.046 92.9224 188.744 92.9224 188.371C92.9224 187.997 92.6199 187.695 92.2467 187.695C91.8736 187.695 91.571 187.997 91.571 188.371C91.571 188.744 91.8736 189.046 92.2467 189.046Z" fill="#8CBAFF"/>
<path opacity="0.4" d="M92.2467 189.046C92.6199 189.046 92.9224 188.744 92.9224 188.371C92.9224 187.997 92.6199 187.695 92.2467 187.695C91.8736 187.695 91.571 187.997 91.571 188.371C91.571 188.744 91.8736 189.046 92.2467 189.046Z" fill="white"/>
<path d="M94.3656 187.032C94.7388 187.032 95.0413 186.73 95.0413 186.357C95.0413 185.983 94.7388 185.681 94.3656 185.681C93.9925 185.681 93.6899 185.983 93.6899 186.357C93.6899 186.73 93.9925 187.032 94.3656 187.032Z" fill="#8CBAFF"/>
<path opacity="0.4" d="M94.3656 187.032C94.7388 187.032 95.0413 186.73 95.0413 186.357C95.0413 185.983 94.7388 185.681 94.3656 185.681C93.9925 185.681 93.6899 185.983 93.6899 186.357C93.6899 186.73 93.9925 187.032 94.3656 187.032Z" fill="white"/>
<path d="M95.9466 186.219C95.9466 186.325 95.915 186.429 95.8559 186.518C95.7968 186.606 95.7128 186.675 95.6145 186.716C95.5162 186.757 95.4081 186.767 95.3037 186.746C95.1994 186.726 95.1035 186.674 95.0283 186.599C94.953 186.524 94.9018 186.428 94.8811 186.324C94.8603 186.219 94.871 186.111 94.9117 186.013C94.9524 185.915 95.0213 185.831 95.1098 185.772C95.1983 185.712 95.3023 185.681 95.4086 185.681C95.5513 185.681 95.6881 185.738 95.789 185.838C95.8899 185.939 95.9466 186.076 95.9466 186.219Z" fill="#8CBAFF"/>
<path opacity="0.4" d="M95.9466 186.219C95.9466 186.325 95.915 186.429 95.8559 186.518C95.7968 186.606 95.7128 186.675 95.6145 186.716C95.5162 186.757 95.4081 186.767 95.3037 186.746C95.1994 186.726 95.1035 186.674 95.0283 186.599C94.953 186.524 94.9018 186.428 94.8811 186.324C94.8603 186.219 94.871 186.111 94.9117 186.013C94.9524 185.915 95.0213 185.831 95.1098 185.772C95.1983 185.712 95.3023 185.681 95.4086 185.681C95.5513 185.681 95.6881 185.738 95.789 185.838C95.8899 185.939 95.9466 186.076 95.9466 186.219Z" fill="white"/>
<path d="M98.1442 187.432C98.5174 187.432 98.8199 187.13 98.8199 186.757C98.8199 186.384 98.5174 186.081 98.1442 186.081C97.771 186.081 97.4685 186.384 97.4685 186.757C97.4685 187.13 97.771 187.432 98.1442 187.432Z" fill="#8CBAFF"/>
<path opacity="0.4" d="M98.1442 187.432C98.5174 187.432 98.8199 187.13 98.8199 186.757C98.8199 186.384 98.5174 186.081 98.1442 186.081C97.771 186.081 97.4685 186.384 97.4685 186.757C97.4685 187.13 97.771 187.432 98.1442 187.432Z" fill="white"/>
<path d="M100.978 188.37C101.351 188.37 101.654 188.068 101.654 187.695C101.654 187.322 101.351 187.019 100.978 187.019C100.605 187.019 100.302 187.322 100.302 187.695C100.302 188.068 100.605 188.37 100.978 188.37Z" fill="#8CBAFF"/>
<path opacity="0.4" d="M100.978 188.37C101.351 188.37 101.654 188.068 101.654 187.695C101.654 187.322 101.351 187.019 100.978 187.019C100.605 187.019 100.302 187.322 100.302 187.695C100.302 188.068 100.605 188.37 100.978 188.37Z" fill="white"/>
<path d="M106.429 187.032C106.803 187.032 107.105 186.73 107.105 186.357C107.105 185.983 106.803 185.681 106.429 185.681C106.056 185.681 105.754 185.983 105.754 186.357C105.754 186.73 106.056 187.032 106.429 187.032Z" fill="#8CBAFF"/>
<path opacity="0.4" d="M106.429 187.032C106.803 187.032 107.105 186.73 107.105 186.357C107.105 185.983 106.803 185.681 106.429 185.681C106.056 185.681 105.754 185.983 105.754 186.357C105.754 186.73 106.056 187.032 106.429 187.032Z" fill="white"/>
<path d="M93.6637 189.053C94.3303 189.053 94.8707 188.512 94.8707 187.846C94.8707 187.179 94.3303 186.639 93.6637 186.639C92.9971 186.639 92.4567 187.179 92.4567 187.846C92.4567 188.512 92.9971 189.053 93.6637 189.053Z" fill="#8CBAFF"/>
<path opacity="0.4" d="M93.6637 189.053C94.3303 189.053 94.8707 188.512 94.8707 187.846C94.8707 187.179 94.3303 186.639 93.6637 186.639C92.9971 186.639 92.4567 187.179 92.4567 187.846C92.4567 188.512 92.9971 189.053 93.6637 189.053Z" fill="white"/>
<path d="M96.8059 187.288C97.4726 187.288 98.013 186.748 98.013 186.081C98.013 185.414 97.4726 184.874 96.8059 184.874C96.1393 184.874 95.5989 185.414 95.5989 186.081C95.5989 186.748 96.1393 187.288 96.8059 187.288Z" fill="#8CBAFF"/>
<path opacity="0.4" d="M96.8059 187.288C97.4726 187.288 98.013 186.748 98.013 186.081C98.013 185.414 97.4726 184.874 96.8059 184.874C96.1393 184.874 95.5989 185.414 95.5989 186.081C95.5989 186.748 96.1393 187.288 96.8059 187.288Z" fill="white"/>
<path d="M99.6792 187.846C100.346 187.846 100.886 187.305 100.886 186.639C100.886 185.972 100.346 185.432 99.6792 185.432C99.0126 185.432 98.4722 185.972 98.4722 186.639C98.4722 187.305 99.0126 187.846 99.6792 187.846Z" fill="#8CBAFF"/>
<path opacity="0.4" d="M99.6792 187.846C100.346 187.846 100.886 187.305 100.886 186.639C100.886 185.972 100.346 185.432 99.6792 185.432C99.0126 185.432 98.4722 185.972 98.4722 186.639C98.4722 187.305 99.0126 187.846 99.6792 187.846Z" fill="white"/>
<path d="M102.592 188.489C103.259 188.489 103.799 187.948 103.799 187.282C103.799 186.615 103.259 186.074 102.592 186.074C101.925 186.074 101.385 186.615 101.385 187.282C101.385 187.948 101.925 188.489 102.592 188.489Z" fill="#8CBAFF"/>
<path opacity="0.4" d="M102.592 188.489C103.259 188.489 103.799 187.948 103.799 187.282C103.799 186.615 103.259 186.074 102.592 186.074C101.925 186.074 101.385 186.615 101.385 187.282C101.385 187.948 101.925 188.489 102.592 188.489Z" fill="white"/>
<path d="M104.835 188.489C105.502 188.489 106.042 187.948 106.042 187.282C106.042 186.615 105.502 186.074 104.835 186.074C104.169 186.074 103.628 186.615 103.628 187.282C103.628 187.948 104.169 188.489 104.835 188.489Z" fill="#8CBAFF"/>
<path opacity="0.4" d="M104.835 188.489C105.502 188.489 106.042 187.948 106.042 187.282C106.042 186.615 105.502 186.074 104.835 186.074C104.169 186.074 103.628 186.615 103.628 187.282C103.628 187.948 104.169 188.489 104.835 188.489Z" fill="white"/>
<path d="M107.833 188.239C108.5 188.239 109.04 187.699 109.04 187.032C109.04 186.366 108.5 185.825 107.833 185.825C107.167 185.825 106.626 186.366 106.626 187.032C106.626 187.699 107.167 188.239 107.833 188.239Z" fill="#8CBAFF"/>
<path opacity="0.4" d="M107.833 188.239C108.5 188.239 109.04 187.699 109.04 187.032C109.04 186.366 108.5 185.825 107.833 185.825C107.167 185.825 106.626 186.366 106.626 187.032C106.626 187.699 107.167 188.239 107.833 188.239Z" fill="white"/>
<path d="M109.644 189.053C110.311 189.053 110.851 188.512 110.851 187.846C110.851 187.179 110.311 186.639 109.644 186.639C108.977 186.639 108.437 187.179 108.437 187.846C108.437 188.512 108.977 189.053 109.644 189.053Z" fill="#8CBAFF"/>
<path opacity="0.4" d="M109.644 189.053C110.311 189.053 110.851 188.512 110.851 187.846C110.851 187.179 110.311 186.639 109.644 186.639C108.977 186.639 108.437 187.179 108.437 187.846C108.437 188.512 108.977 189.053 109.644 189.053Z" fill="white"/>
<path d="M92.3911 189.072L109.978 189.046L109.913 187.564L106.633 186.357L104.232 187.282L100.742 187.564L99.2857 186.639L96.806 186.081L94.4903 186.357L92.3911 189.072Z" fill="#8CBAFF"/>
<path opacity="0.4" d="M92.3911 189.072L109.978 189.046L109.913 187.564L106.633 186.357L104.232 187.282L100.742 187.564L99.2857 186.639L96.806 186.081L94.4903 186.357L92.3911 189.072Z" fill="white"/>
</svg>
