<svg width="280" height="277" viewBox="0 0 280 277" fill="none" xmlns="http://www.w3.org/2000/svg">
<path d="M255.728 189.712C260.352 187.327 265.799 187.014 270.933 187.862C273.694 188.315 276.571 189.138 278.446 191.217C280.321 193.296 280.678 196.957 278.522 198.711C277.247 199.776 275.448 199.936 273.784 199.917C269.766 199.866 265.307 199.158 262.099 201.581C260.263 202.959 259.044 205.255 256.857 205.931C254.669 206.607 252.297 205.331 251.161 203.38C250.026 201.428 249.981 199.024 250.524 196.843C250.785 195.334 251.39 193.906 252.293 192.669C253.195 191.433 254.371 190.421 255.728 189.712Z" fill="#EBEBEB"/>
<path d="M245.134 169.258C247.966 173.295 253.457 171.956 256.008 169.494C258.56 167.032 259.631 163.454 260.613 160.049C262.852 152.261 265.078 144.104 263.445 136.17C263.044 133.767 261.989 131.521 260.396 129.677C258.732 127.917 256.168 126.871 253.827 127.49C251.059 128.223 249.363 130.94 248.087 133.517C244.421 141.147 242.501 149.498 242.468 157.963C242.468 161.898 242.915 166.018 245.134 169.271" fill="#EBEBEB"/>
<path d="M237.372 175.05C240.44 171.408 241.02 166.121 239.656 161.529C238.291 156.937 235.191 153.078 231.645 149.908C227.459 146.182 222.587 143.307 217.301 141.445C215.256 140.621 213.056 140.249 210.853 140.354C208.666 140.558 206.459 141.681 205.438 143.626C203.933 146.503 205.375 150.004 206.944 152.849C209.703 157.869 212.853 162.665 216.364 167.192C219.189 170.834 222.423 174.425 226.728 176.07C231.033 177.716 235.497 177.518 237.781 174.533" fill="#EBEBEB"/>
<path d="M244.943 230.18C245.092 229.581 245.178 228.967 245.198 228.35C245.332 227.01 245.491 225.333 245.689 223.337C245.939 220.874 246.313 218.426 246.812 216.002C247.47 213.046 248.364 210.148 249.484 207.335C250.581 204.523 252.071 201.882 253.91 199.49C255.407 197.541 257.32 195.95 259.51 194.834C260.994 194.099 262.584 193.604 264.223 193.367C264.839 193.342 265.45 193.255 266.047 193.106C265.432 193.023 264.809 193.012 264.191 193.074C262.489 193.203 260.824 193.635 259.274 194.349C256.969 195.436 254.947 197.043 253.368 199.043C251.452 201.467 249.906 204.163 248.782 207.041C247.647 209.898 246.759 212.847 246.129 215.855C245.654 218.314 245.328 220.8 245.153 223.298C244.994 225.422 244.936 227.125 244.905 228.337C244.852 228.951 244.865 229.569 244.943 230.18Z" fill="#E0E0E0"/>
<path d="M245.287 226.328C245.339 226.046 245.356 225.759 245.338 225.473C245.338 224.836 245.338 224.032 245.338 223.044C245.338 220.926 245.338 217.871 245.447 214.114C245.632 206.557 246.282 198.431 247.539 186.97C248.731 176.198 250.326 163.653 252.003 155.502C252.367 153.646 252.73 151.975 253.075 150.514C253.419 149.054 253.712 147.791 253.948 146.764C254.184 145.737 254.363 145.023 254.516 144.398C254.598 144.126 254.647 143.846 254.663 143.562C254.531 143.814 254.432 144.082 254.369 144.36L253.661 146.694C253.349 147.702 253.024 148.958 252.66 150.419C252.297 151.879 251.876 153.537 251.48 155.387C249.395 165.031 247.826 174.78 246.78 184.591C245.504 196.071 244.956 206.531 244.905 214.102C244.86 217.89 244.943 220.952 245.039 223.069C245.096 224.058 245.147 224.861 245.185 225.499C245.189 225.778 245.223 226.056 245.287 226.328Z" fill="#E0E0E0"/>
<path d="M245.338 206.161C245.405 205.312 245.405 204.459 245.338 203.61C245.249 201.977 245.019 199.611 244.56 196.715C244 193.325 243.246 189.969 242.302 186.664C241.208 182.602 239.802 178.629 238.099 174.782C234.617 166.523 229.885 159.768 225.771 155.585C224.862 154.624 223.893 153.723 222.869 152.887C222.423 152.51 222.034 152.134 221.632 151.834L220.503 151.063C219.827 150.552 219.112 150.093 218.366 149.691C218.245 149.857 221.396 151.713 225.382 155.954C229.368 160.196 233.954 166.893 237.404 175.088C239.074 178.914 240.486 182.848 241.633 186.862C242.73 190.554 243.463 193.947 244.018 196.805C244.573 199.662 244.847 202.009 245.026 203.629C245.066 204.48 245.17 205.326 245.338 206.161Z" fill="#E0E0E0"/>
<path d="M225.848 241.736L227.869 269.423H263.432L265.454 241.736H225.848Z" fill="#E0E0E0"/>
<path d="M269.695 230.824H222.41V241.737H269.695V230.824Z" fill="#E0E0E0"/>
<path d="M222.41 268.364V271.387H224.636H268.917V268.364H222.41Z" fill="#EBEBEB"/>
<path d="M226.811 276.713L224.636 271.388H267.221L264.682 276.713H226.811Z" fill="#E0E0E0"/>
<path d="M264.797 250.787C264.751 250.875 264.695 250.959 264.631 251.036L264.096 251.744L262.023 254.397L261.934 254.512L261.844 254.39L256.742 247.375H257.035C255.517 249.518 253.846 251.909 252.022 254.473L251.863 254.697L251.691 254.486L245.746 247.413H246.091L245.759 247.828C243.916 250.136 242.137 252.375 240.446 254.486L240.268 254.709L240.108 254.48C238.304 251.928 236.613 249.543 235.095 247.387H235.382L229.209 254.403L229.1 254.524L229.017 254.384C228.201 253.019 227.55 251.928 227.104 251.138C226.9 250.787 226.734 250.5 226.606 250.27C226.546 250.173 226.494 250.071 226.453 249.964C226.533 250.047 226.601 250.139 226.658 250.238L227.212 251.074L229.241 254.263H229.049L235.121 247.145L235.274 246.96L235.414 247.158L240.472 254.218H240.14L245.44 247.547L245.766 247.132L245.938 246.922L246.11 247.126L252.035 254.212H251.703L256.767 247.151L256.914 246.947L257.061 247.151L262.029 254.269H261.825L263.981 251.686L264.555 251.016C264.714 250.851 264.784 250.78 264.797 250.787Z" fill="#F5F5F5"/>
<path d="M265.952 241.552C265.952 241.673 257.023 241.775 246.046 241.775C235.07 241.775 226.141 241.673 226.141 241.552C226.141 241.431 235.07 241.335 246.046 241.335C257.023 241.335 265.952 241.431 265.952 241.552Z" fill="#F5F5F5"/>
<path d="M267.75 271.687C267.75 271.808 258.062 271.904 246.116 271.904C234.171 271.904 224.483 271.808 224.483 271.687C224.483 271.566 234.164 271.464 246.116 271.464C258.069 271.464 267.75 271.566 267.75 271.687Z" fill="#F5F5F5"/>
<path d="M70.5847 87.6789C70.7856 87.5609 70.9996 87.4667 71.2224 87.3983C71.8991 87.1849 72.625 87.1849 73.3016 87.3983C73.8509 87.5772 74.3482 87.8874 74.7505 88.302C75.1528 88.7165 75.448 89.2229 75.6104 89.7773C75.829 90.5451 75.7846 91.364 75.4841 92.1037C75.1836 92.8433 74.6443 93.4613 73.9522 93.8591V93.7443C77.0199 99.5864 81.4462 108.018 86.7717 118.146L95.3435 134.518C95.7625 135.24 96.1167 135.998 96.4023 136.782C96.8104 138.019 96.8993 139.338 96.6607 140.618C96.4221 141.899 95.8637 143.098 95.0374 144.104C93.8878 145.5 92.2874 146.451 90.5119 146.793C88.7365 147.135 86.8972 146.847 85.3112 145.979C84.2008 145.36 83.2541 144.486 82.5495 143.428C82.2179 142.886 81.9117 142.337 81.6566 141.795C81.4015 141.253 81.089 140.711 80.8084 140.169L77.4728 133.791C75.2915 129.601 73.1741 125.551 71.1523 121.673L60.3099 100.868L60.4757 100.926C60.021 101.141 59.5266 101.259 59.0239 101.273C58.5211 101.287 58.0209 101.197 57.5547 101.009C56.9281 100.753 56.3864 100.326 55.9918 99.7761C55.5971 99.2265 55.3655 98.5766 55.3235 97.9012C55.2816 97.2259 55.431 96.5523 55.7545 95.958C56.0781 95.3637 56.5628 94.8728 57.1529 94.5415L64.3599 90.8041L68.9264 88.457L70.1191 87.8511L70.5273 87.6534C70.5273 87.6534 70.3997 87.7363 70.1318 87.883L68.9583 88.5208L64.4236 90.9316L57.2485 94.7201C56.5488 95.1125 56.0143 95.7444 55.7434 96.4995C55.5076 97.1298 55.4662 97.8163 55.6243 98.4704C55.7825 99.1246 56.1329 99.7163 56.6306 100.169C57.1282 100.622 57.7502 100.916 58.4162 101.012C59.0823 101.108 59.7618 101.003 60.3673 100.709L60.4757 100.658L60.5331 100.766L71.4202 121.533L77.7598 133.651C78.8482 135.743 79.9601 137.869 81.0954 140.028C81.376 140.571 81.6566 141.113 81.9436 141.655C82.2307 142.197 82.5049 142.745 82.8238 143.256C83.4633 144.229 84.3227 145.039 85.3328 145.62C86.3429 146.2 87.4753 146.535 88.6386 146.597C89.8019 146.659 90.9635 146.446 92.0296 145.977C93.0957 145.507 94.0365 144.794 94.7759 143.893C95.832 142.588 96.4243 140.968 96.4597 139.289C96.466 138.47 96.3411 137.656 96.0898 136.878C95.8056 136.113 95.4601 135.373 95.0565 134.665C92.0207 128.854 89.157 123.35 86.5102 118.28C81.2293 108.126 76.8413 99.6821 73.7927 93.8272L73.7608 93.7507L73.831 93.7124C74.5373 93.3092 75.0792 92.6702 75.3617 91.9075C75.5183 91.4773 75.5873 91.0202 75.5645 90.5631C75.5418 90.1059 75.4278 89.6579 75.2293 89.2454C75.0308 88.833 74.7518 88.4644 74.4087 88.1614C74.0656 87.8584 73.6653 87.6272 73.2315 87.4812C72.5741 87.2631 71.8678 87.2388 71.1969 87.4111C70.8015 87.5705 70.5974 87.6981 70.5847 87.6789Z" fill="#E0E0E0"/>
<path d="M65.8791 106.932L75.8729 101.709L94.2725 136.919C94.8781 138.078 94.9985 139.43 94.6073 140.678C94.216 141.925 93.3452 142.967 92.1864 143.572L90.9371 144.225C90.3632 144.526 89.7357 144.711 89.0903 144.769C88.445 144.827 87.7945 144.757 87.1761 144.564C86.5577 144.37 85.9835 144.057 85.4863 143.641C84.9892 143.226 84.5788 142.716 84.2787 142.142L65.8791 106.932Z" fill="#E0E0E0"/>
<path d="M73.9267 93.8084C73.9713 93.8914 70.9992 95.5368 67.2873 97.4821C63.5754 99.4273 60.5331 100.939 60.4949 100.856C60.4566 100.773 63.4223 99.134 67.1342 97.1887C70.8462 95.2435 73.882 93.7319 73.9267 93.8084Z" fill="#E0E0E0"/>
<path d="M186.63 25.5012C182.586 37.4788 176.126 56.842 173.154 65.7328C172.946 66.3584 172.864 67.0188 172.912 67.6762C172.96 68.3336 173.137 68.9751 173.433 69.5639C173.729 70.1528 174.139 70.6775 174.638 71.1079C175.137 71.5383 175.716 71.8661 176.343 72.0724L209.067 83.0806C209.693 83.2948 210.355 83.3832 211.014 83.3406C211.674 83.2981 212.319 83.1254 212.912 82.8325C213.505 82.5397 214.034 82.1325 214.469 81.6343C214.903 81.1361 215.235 80.5569 215.445 79.9299L228.839 40.0618C229.304 38.6753 229.492 37.2106 229.391 35.7515C229.291 34.2924 228.903 32.8674 228.252 31.5579C227.6 30.2484 226.697 29.0801 225.594 28.1196C224.491 27.1592 223.21 26.4255 221.823 25.9604L223.8 20.0927L202.371 12.8857L200.502 18.4281H200.425C197.658 17.5836 194.67 17.8496 192.095 19.1698C189.52 20.4901 187.56 22.7609 186.63 25.5012Z" fill="#F5F5F5"/>
<path d="M202.09 13.6318L201.197 16.2978L222.372 24.2701L223.52 20.8388L202.09 13.6318Z" fill="#E0E0E0"/>
<path d="M204.448 4.47823L227.274 12.1557C227.755 12.3175 228.152 12.6637 228.378 13.1182C228.604 13.5727 228.64 14.0982 228.478 14.5792L225.902 22.2383C225.798 22.5478 225.575 22.8032 225.282 22.9484C224.99 23.0936 224.652 23.1167 224.343 23.0126L200.229 14.9021C199.919 14.798 199.664 14.5753 199.519 14.2829C199.373 13.9905 199.35 13.6524 199.454 13.343L202.033 5.67779C202.194 5.19681 202.541 4.7998 202.995 4.57409C203.449 4.34838 203.975 4.31245 204.456 4.47423L204.448 4.47823Z" fill="#EBEBEB"/>
<path d="M202.428 15.699C202.269 15.6416 202.945 13.2307 203.927 10.3097C204.909 7.38859 205.84 5.05429 205.987 5.10531C206.134 5.15634 205.47 7.57355 204.488 10.4946C203.506 13.4157 202.581 15.7372 202.428 15.699Z" fill="#E0E0E0"/>
<path d="M205.253 16.6492C205.094 16.5918 205.764 14.1809 206.752 11.2598C207.741 8.33879 208.666 6.00449 208.812 6.05551C208.959 6.10653 208.296 8.52374 207.313 11.4448C206.331 14.3659 205.406 16.7002 205.253 16.6492Z" fill="#E0E0E0"/>
<path d="M208.072 17.5993C207.919 17.5419 208.589 15.1311 209.571 12.2037C210.553 9.27623 211.485 6.95469 211.638 7.00571C211.791 7.05673 211.121 9.47394 210.139 12.395C209.157 15.3161 208.251 17.6504 208.072 17.5993Z" fill="#E0E0E0"/>
<path d="M210.898 18.5495C210.745 18.4921 211.414 16.0813 212.397 13.1539C213.379 10.2264 214.31 7.90488 214.463 7.9559C214.616 8.00693 213.946 10.4241 212.958 13.3452C211.969 16.2663 211.051 18.6006 210.898 18.5495Z" fill="#E0E0E0"/>
<path d="M213.723 19.4934C213.57 19.4423 214.24 17.0315 215.222 14.1041C216.204 11.1766 217.135 8.85508 217.282 8.9061C217.429 8.95712 216.772 11.368 215.783 14.2954C214.795 17.2228 213.876 19.5635 213.723 19.4934Z" fill="#E0E0E0"/>
<path d="M216.542 20.4436C216.383 20.3925 217.059 17.9817 218.041 15.0543C219.023 12.1268 219.954 9.80527 220.101 9.85629C220.248 9.90732 219.584 12.3182 218.602 15.2456C217.62 18.173 216.702 20.501 216.542 20.4436Z" fill="#E0E0E0"/>
<path d="M219.368 21.3938C219.215 21.3427 219.884 18.9319 220.873 16.0045C221.861 13.077 222.786 10.7555 222.933 10.8065C223.08 10.8575 222.416 13.2683 221.434 16.1958C220.452 19.1232 219.527 21.4767 219.368 21.3938Z" fill="#E0E0E0"/>
<path d="M222.193 22.3439C222.04 22.2929 222.71 19.8821 223.692 16.9547C224.674 14.0272 225.605 11.7057 225.758 11.7567C225.911 11.8077 225.242 14.2185 224.259 17.146C223.277 20.0734 222.352 22.4014 222.193 22.3439Z" fill="#E0E0E0"/>
<path d="M220.487 43.3081L191.574 33.5831C191.08 33.4169 190.544 33.6828 190.378 34.1769L184.148 52.6991C183.982 53.1932 184.248 53.7285 184.742 53.8947L213.656 63.6196C214.15 63.7858 214.685 63.5199 214.851 63.0258L221.081 44.5037C221.247 44.0095 220.981 43.4743 220.487 43.3081Z" fill="#EBEBEB"/>
<path d="M212.958 61.843C212.978 61.7238 213.008 61.6064 213.047 61.4922C213.124 61.2371 213.226 60.9246 213.341 60.5419C213.621 59.6618 214.002 58.467 214.482 56.9576C215.496 53.8451 216.925 49.4636 218.666 44.138L218.813 44.4378L191.879 35.4386L192.255 35.2537V35.2919V35.3685L192.211 35.5152L192.109 35.8085L191.911 36.3889L191.522 37.5561L190.744 39.8585C190.227 41.3828 189.723 42.888 189.226 44.3613C188.224 47.3078 187.268 50.146 186.349 52.8438L186.184 52.4994L205.451 59.1196L210.993 61.0649L212.48 61.6006C212.66 61.6599 212.837 61.7302 213.009 61.8111C212.844 61.7822 212.682 61.7395 212.524 61.6835L211.064 61.2243L205.534 59.4449L185.928 53.0479L185.673 52.965L185.756 52.7035C186.662 49.9993 187.612 47.1611 188.594 44.2082C189.092 42.7349 189.596 41.2297 190.106 39.7054C190.361 38.9401 190.623 38.1747 190.884 37.3966L191.273 36.2358L191.471 35.6491L191.566 35.3557L191.618 35.209V35.1325C191.279 35.2919 192.077 34.9029 191.994 34.9411L218.966 43.9913L219.189 44.0679L219.112 44.2847L214.629 57.1935C214.106 58.6689 213.693 59.834 213.392 60.6886L213.06 61.5815C213.037 61.6725 213.002 61.7603 212.958 61.843Z" fill="#E0E0E0"/>
<path d="M212.805 48.5189C212.754 48.672 208.615 47.4219 203.563 45.719C198.512 44.0161 194.462 42.5301 194.513 42.3642C194.564 42.1984 198.703 43.4612 203.755 45.1578C208.806 46.8543 212.856 48.3594 212.805 48.5189Z" fill="#E0E0E0"/>
<path d="M211.759 51.6254C211.708 51.7848 207.569 50.5284 202.517 48.8319C197.466 47.1354 193.416 45.6429 193.467 45.4707C193.518 45.2985 197.657 46.5677 202.709 48.2706C207.76 49.9735 211.81 51.4532 211.759 51.6254Z" fill="#E0E0E0"/>
<path d="M210.751 54.6419C210.7 54.795 206.567 53.5449 201.516 51.8421C196.465 50.1392 192.408 48.6531 192.466 48.4873C192.523 48.3215 196.65 49.5843 201.701 51.2808C206.752 52.9773 210.802 54.457 210.751 54.6419Z" fill="#E0E0E0"/>
<path d="M220.637 25.3612C220.586 25.5143 216.077 24.1367 210.566 22.2871C205.056 20.4375 200.598 18.8048 200.674 18.6453C200.751 18.4859 205.241 19.8699 210.751 21.7258C216.262 23.5818 220.688 25.2081 220.637 25.3612Z" fill="#E0E0E0"/>
<path d="M175.724 64.024C175.851 63.3737 176.028 62.7341 176.253 62.1107C176.681 60.7968 177.235 59.0557 177.911 56.9446C179.334 52.5885 181.343 46.5806 183.588 39.9603C184.723 36.6566 185.801 33.5123 186.777 30.6359C187.753 27.7595 188.932 25.1956 190.559 23.4863C191.797 22.1005 193.443 21.1427 195.259 20.7502C195.752 20.6629 196.253 20.6351 196.752 20.6673C196.925 20.6714 197.097 20.7015 197.262 20.7566C196.606 20.7782 195.954 20.8529 195.31 20.9798C193.575 21.4362 192.018 22.408 190.846 23.7669C189.328 25.4443 188.218 27.9508 187.274 30.8145L184.124 40.1517C181.878 46.7719 179.812 52.7543 178.281 57.0785L176.451 62.1808C176.256 62.8128 176.013 63.429 175.724 64.024Z" fill="white"/>
<path d="M212.818 82.6603C212.35 82.3811 211.908 82.061 211.497 81.7036C211.096 81.3784 210.592 80.9893 209.986 80.5684C209.38 80.1474 208.71 79.6245 207.932 79.1334C206.123 77.9227 204.245 76.8196 202.307 75.8296C197.548 73.4083 192.46 71.6999 187.204 70.7592C185.063 70.3792 182.901 70.1237 180.73 69.9939C179.806 69.911 178.964 69.9173 178.224 69.8982C177.484 69.8791 176.853 69.8982 176.311 69.8982C175.771 69.9428 175.228 69.93 174.691 69.8599C175.22 69.749 175.758 69.685 176.298 69.6686C176.821 69.6176 177.459 69.5793 178.211 69.5793C178.964 69.5793 179.806 69.5283 180.762 69.5793C182.957 69.6456 185.146 69.8586 187.312 70.2171C192.627 71.1031 197.767 72.8252 202.543 75.3194C204.488 76.3398 206.363 77.4882 208.155 78.7571C208.933 79.2801 209.584 79.8222 210.171 80.275C210.757 80.7278 211.249 81.1488 211.638 81.5059C212.068 81.8505 212.464 82.2372 212.818 82.6603Z" fill="white"/>
<path d="M230.312 91.1104C228.775 88.6868 226.683 85.7594 225.484 83.5781C223.496 87.0407 221.878 90.7026 220.656 94.5034C219.875 96.6146 219.498 98.854 219.546 101.105C219.686 103.343 220.63 105.62 222.461 106.921C224.802 108.592 228.756 108.445 231.02 106.672C233.284 104.899 234.139 102.208 234.1 99.306C234.062 96.404 231.849 93.5467 230.312 91.1104Z" fill="#EBEBEB"/>
<path d="M241.416 72.0278C240.281 70.242 238.737 68.0863 237.857 66.4727C236.391 69.025 235.198 71.7251 234.298 74.5279C233.725 76.0827 233.448 77.7311 233.482 79.3878C233.464 80.3753 233.729 81.3472 234.245 82.1891C234.761 83.0309 235.508 83.7076 236.396 84.1393C237.284 84.571 238.277 84.7397 239.258 84.6256C240.239 84.5115 241.167 84.1193 241.933 83.4952C243.597 82.1814 244.235 80.1851 244.203 78.0676C244.171 75.9502 242.551 73.82 241.416 72.0278Z" fill="#EBEBEB"/>
<path d="M12.208 242.305L17.4379 276.662H47.8093L54.8568 242.802L12.208 242.305Z" fill="#F5F5F5"/>
<path d="M50.6092 264.321C50.6092 264.423 42.8282 264.5 33.2295 264.5C23.6308 264.5 15.8498 264.423 15.8498 264.321C15.8498 264.219 23.6308 264.143 33.2295 264.143C42.8282 264.143 50.6092 264.225 50.6092 264.321Z" fill="#FAFAFA"/>
<path d="M50.7176 262.63C50.7176 262.732 42.8792 262.809 33.2167 262.809C23.5542 262.809 15.7158 262.732 15.7158 262.63C15.7158 262.528 23.5479 262.458 33.2167 262.458C42.8856 262.458 50.7176 262.56 50.7176 262.63Z" fill="#FAFAFA"/>
<path d="M50.6666 260.724C50.6666 260.826 42.8345 260.902 33.1721 260.902C23.5096 260.902 15.6712 260.826 15.6712 260.724C15.6712 260.621 23.5032 260.545 33.1721 260.545C42.8409 260.545 50.6666 260.647 50.6666 260.724Z" fill="#FAFAFA"/>
<path d="M20.9266 274.678C20.1812 271.821 19.6755 268.907 19.415 265.966C19.8377 267.383 20.1491 268.831 20.3462 270.296C20.654 271.739 20.848 273.205 20.9266 274.678Z" fill="#FAFAFA"/>
<path d="M22.993 274.334C22.777 272.939 22.6492 271.531 22.6103 270.119C22.4601 268.712 22.3941 267.298 22.4126 265.884C22.7468 267.263 22.9328 268.674 22.9675 270.093C23.1213 271.502 23.1299 272.924 22.993 274.334Z" fill="#FAFAFA"/>
<path d="M26.7559 274.334C26.0427 271.483 25.6997 268.553 25.7355 265.615C26.0139 267.053 26.2098 268.505 26.3222 269.965C26.5499 271.412 26.6947 272.87 26.7559 274.334Z" fill="#FAFAFA"/>
<path d="M29.3964 274.513C29.1118 273.066 28.9708 271.594 28.9754 270.119C28.8713 268.646 28.9183 267.168 29.1157 265.705C29.2715 267.167 29.3439 268.636 29.3326 270.106C29.4403 271.572 29.4616 273.044 29.3964 274.513Z" fill="#FAFAFA"/>
<path d="M34.0777 274.334C33.8541 272.955 33.7474 271.559 33.7588 270.162C33.6512 268.769 33.664 267.369 33.7971 265.979C34.0208 267.357 34.1275 268.753 34.116 270.15C34.2237 271.543 34.2109 272.943 34.0777 274.334Z" fill="#FAFAFA"/>
<path d="M37.4963 274.519C37.2858 271.644 37.3092 268.756 37.5664 265.884C37.7854 268.759 37.762 271.648 37.4963 274.519Z" fill="#FAFAFA"/>
<path d="M40.7043 274.041C40.6663 272.531 40.7516 271.021 40.9595 269.525C41.0579 268.023 41.2711 266.53 41.5972 265.061C41.6352 266.57 41.5499 268.08 41.3421 269.576C41.2437 271.078 41.0305 272.571 40.7043 274.041Z" fill="#FAFAFA"/>
<path d="M44.8372 273.606C44.8424 272.314 45.0139 271.028 45.3474 269.78C45.5645 268.502 45.9439 267.256 46.4763 266.074C46.2867 267.347 46.0248 268.607 45.6918 269.85C45.4745 271.117 45.1892 272.371 44.8372 273.606Z" fill="#FAFAFA"/>
<path d="M8.71933 235.499V241.928C8.71933 242.605 8.9881 243.253 9.46654 243.732C9.94497 244.21 10.5939 244.479 11.2705 244.479H55.2778C55.9544 244.479 56.6033 244.21 57.0817 243.732C57.5601 243.253 57.8289 242.605 57.8289 241.928V235.499H8.71933Z" fill="#F5F5F5"/>
<path d="M12.5333 244.46L12.8968 246.507L53.4856 249.403L54.5124 244.46H12.5333Z" fill="#E0E0E0"/>
<path d="M15.3459 235.531C15.3459 235.531 -1.75314 215.824 0.147467 215.122C2.04807 214.421 17.2465 225.327 17.2465 225.327C17.2465 225.327 4.15915 196.11 6.79321 193.973C9.42727 191.837 23.1843 219.861 23.1843 219.861C23.1843 219.861 21.0477 179.011 23.1843 178.532C25.3209 178.054 33.1593 219.383 33.1593 219.383C33.1593 219.383 44.7926 181.626 48.1218 181.626C51.4511 181.626 44.5566 217.98 44.5566 217.98C44.5566 217.98 58.3328 194.707 60.4694 197.794C62.6059 200.881 50.7176 226.035 50.7176 226.035C50.7176 226.035 68.0654 211.538 68.7797 213.451C69.494 215.365 50.016 235.538 50.016 235.538L15.3459 235.531Z" fill="#EBEBEB"/>
<path d="M12.9606 205.848C13.0754 205.791 16.1113 212.296 19.7339 220.37C23.3565 228.445 26.2011 235.04 26.1118 235.084C26.0225 235.129 22.9611 228.636 19.3385 220.562C15.7158 212.487 12.8394 205.899 12.9606 205.848Z" fill="#E0E0E0"/>
<path d="M26.7751 209.478C26.9026 209.478 27.4129 215.218 27.8976 222.278C28.3823 229.338 28.6884 235.104 28.5354 235.11C28.3823 235.117 27.8976 229.37 27.4129 222.31C26.9281 215.25 26.6411 209.49 26.7751 209.478Z" fill="#E0E0E0"/>
<path d="M45.8258 191.186C45.8161 191.344 45.7839 191.501 45.7301 191.651C45.6281 191.996 45.5005 192.423 45.3538 192.927C44.9966 194.119 44.5119 195.727 43.9188 197.685C42.7134 201.703 41.0934 207.251 39.4543 213.451C37.8152 219.65 36.4312 225.288 35.4745 229.395C35.0089 231.392 34.6262 233.024 34.3392 234.236C34.2117 234.766 34.1032 235.199 34.0203 235.55C33.9949 235.708 33.9455 235.86 33.8736 236.003C33.8746 235.844 33.8917 235.686 33.9247 235.531L34.1606 234.198C34.3775 233.044 34.7091 231.379 35.1492 229.325C36.023 225.218 37.3368 219.567 38.9759 213.381C40.6151 207.194 42.3052 201.632 43.5935 197.64C44.2313 195.644 44.7734 194.03 45.1625 192.92L45.6217 191.645C45.6726 191.485 45.741 191.331 45.8258 191.186Z" fill="#E0E0E0"/>
<path d="M54.066 212.239C54.1744 212.315 50.8324 217.29 46.6102 223.356C42.3881 229.421 38.8803 234.274 38.7718 234.198C38.6634 234.121 42.0054 229.147 46.2276 223.081C50.4497 217.016 53.9639 212.175 54.066 212.239Z" fill="#E0E0E0"/>
<path d="M21.1179 235.136C20.5705 234.851 20.066 234.49 19.6191 234.064C18.4825 233.121 17.3968 232.118 16.3664 231.06C15.3325 230.005 14.3573 228.894 13.4453 227.731C13.0337 227.272 12.6861 226.759 12.4121 226.207C12.5205 226.117 14.3255 228.273 16.7044 230.729C19.0834 233.184 21.2008 235.008 21.1179 235.136Z" fill="#E0E0E0"/>
<path d="M31.5011 227.284C31.6286 227.284 31.9029 229.095 32.107 231.347C32.3111 233.598 32.3748 235.448 32.2473 235.461C32.1197 235.473 31.8455 233.649 31.6095 231.392C31.3735 229.134 31.3735 227.297 31.5011 227.284Z" fill="#E0E0E0"/>
<path d="M92.4671 77.0416L83.6019 61.8941C88.8376 53.1336 90.6072 42.7315 88.5629 32.7325C86.5186 22.7334 80.8083 13.8606 72.5544 7.85799C64.3004 1.85535 54.0998 -0.842979 43.9574 0.29337C33.815 1.42972 24.4644 6.31856 17.7434 13.999C11.0225 21.6794 7.41736 31.5959 7.63657 41.7994C7.85578 52.0029 11.8835 61.7555 18.9281 69.1401C25.9726 76.5248 35.5246 81.0076 45.7064 81.7073C55.8883 82.407 65.9636 79.273 73.9522 72.9215L92.4671 77.0416Z" fill="#FAFAFA"/>
<path d="M92.4671 77.0413L73.9203 73.0168C73.8994 73.0122 73.881 72.9997 73.8691 72.9818C73.8572 72.964 73.8527 72.9423 73.8565 72.9212L73.9713 73.036C71.4076 75.0778 68.6117 76.8097 65.6418 78.1957C60.1342 80.758 54.1192 82.0443 48.0453 81.9586C45.7521 81.9445 43.4644 81.731 41.2082 81.3208C33.2235 79.8712 25.848 76.0867 20.014 70.4457C14.18 64.8047 10.1496 57.5606 8.43232 49.6292C7.17128 43.6388 7.24095 37.4446 8.63641 31.4841C10.1301 25.249 13.0661 19.4513 17.2083 14.5573C18.2735 13.2999 19.4084 12.1032 20.6077 10.9729C21.808 9.86617 23.0708 8.82913 24.3898 7.86689C26.9837 5.95778 29.8 4.37083 32.7767 3.14089C35.6849 1.92679 38.724 1.05358 41.8332 0.538718C44.8662 0.04793 47.9439 -0.108201 51.011 0.0731337C56.9028 0.415525 62.6489 2.03925 67.8486 4.83103C74.4965 8.37075 80.0355 13.6808 83.8525 20.1734C87.6695 26.6661 89.6158 34.0883 89.4759 41.6186C89.417 45.5136 88.7984 49.3798 87.6391 53.0988C86.6646 56.1874 85.3333 59.1519 83.672 61.9321V61.8556L92.4671 77.0413L83.5381 61.9321C83.532 61.9203 83.5288 61.9072 83.5288 61.8938C83.5288 61.8805 83.532 61.8674 83.5381 61.8556C85.1834 59.0806 86.4977 56.1224 87.4541 53.0413C88.5992 49.3377 89.2049 45.4885 89.2527 41.6122C89.3039 37.1612 88.6363 32.7311 87.2755 28.4929C84.0054 18.4761 76.9961 10.1074 67.7082 5.13078C62.5439 2.36681 56.8396 0.760639 50.9918 0.423918C47.9481 0.245983 44.894 0.40211 41.8842 0.889503C38.8032 1.39366 35.7901 2.24964 32.9042 3.44065C29.9624 4.66758 27.1787 6.24358 24.613 8.13476C23.3051 9.08875 22.0549 10.1195 20.8692 11.2217C19.6754 12.3381 18.5488 13.5244 17.4953 14.7741C13.3916 19.6134 10.4797 25.3475 8.99358 31.516C7.59752 37.435 7.52348 43.589 8.77673 49.5399C10.4714 57.4206 14.4671 64.6209 20.2576 70.2286C26.0482 75.8363 33.3729 79.5991 41.3039 81.0402C45.6673 81.8119 50.1254 81.8872 54.5124 81.2634C58.3473 80.7034 62.0822 79.5973 65.6035 77.9788C68.5581 76.6096 71.341 74.897 73.8948 72.8765C73.9102 72.8617 73.9308 72.8534 73.9522 72.8534C73.9736 72.8534 73.9941 72.8617 74.0096 72.8765C74.0217 72.8895 74.0284 72.9066 74.0284 72.9244C74.0284 72.9421 74.0217 72.9592 74.0096 72.9722L73.9649 72.8446L92.4671 77.0413Z" fill="#263238"/>
<path d="M62.7157 21.8572L35.0176 21.63C33.2987 21.6159 31.8938 22.9979 31.8797 24.7168L31.6152 56.9686C31.6011 58.6875 32.983 60.0923 34.7019 60.1064L62.4001 60.3336C64.1189 60.3477 65.5238 58.9657 65.5379 57.2469L65.8025 24.9951C65.8166 23.2762 64.4346 21.8713 62.7157 21.8572Z" fill="#B2D1FF"/>
<path d="M37.3673 34.0279L37.3492 36.2282C37.3245 39.2433 39.7486 41.7076 42.7637 41.7323L55.4744 41.8366C58.4895 41.8613 60.9537 39.4371 60.9784 36.4221L60.9965 34.2218C61.0212 31.2067 58.5971 28.7424 55.582 28.7177L42.8713 28.6134C39.8563 28.5887 37.392 31.0129 37.3673 34.0279Z" fill="white"/>
<path d="M55.4755 41.8422C56.3113 41.7911 57.1287 41.5743 57.8799 41.2044C58.7501 40.7712 59.4863 40.1099 60.0102 39.291C60.3427 38.7854 60.5804 38.2235 60.7117 37.6328C60.8458 36.9656 60.8972 36.2844 60.8648 35.6046C60.892 34.8534 60.8686 34.1013 60.7946 33.3532C60.6728 32.5582 60.3671 31.8025 59.9017 31.1465C59.3909 30.4208 58.7082 29.833 57.9146 29.4356C57.1211 29.0383 56.2414 28.8438 55.3543 28.8696L42.8792 28.7803C41.8294 28.7777 40.8023 29.0858 39.9273 29.6657C39.0523 30.2457 38.3684 31.0716 37.9619 32.0394C37.7721 32.5056 37.6434 32.9944 37.5792 33.4936C37.5409 33.9783 37.5409 34.4885 37.5409 34.9924C37.4545 35.9548 37.5299 36.9249 37.7641 37.8624C38.0293 38.7078 38.5013 39.4737 39.1372 40.0907C39.7731 40.7077 40.5529 41.1562 41.4059 41.3957C42.1957 41.5784 43.007 41.6514 43.8167 41.6126L46.0936 41.6445L52.9626 41.7529L54.8313 41.8039H52.9626H43.8104C42.9755 41.8487 42.1385 41.7778 41.323 41.5935C40.4177 41.348 39.5886 40.8788 38.9121 40.229C38.2356 39.5793 37.7334 38.7698 37.4516 37.8752C37.2012 36.9078 37.115 35.9053 37.1965 34.9094C37.1965 34.4056 37.1965 33.9017 37.2348 33.3724C37.2985 32.8421 37.4337 32.323 37.6366 31.8289C38.0634 30.8118 38.777 29.9409 39.6903 29.3224C40.1586 29.0139 40.6672 28.7714 41.2018 28.6017C41.7472 28.4445 42.3116 28.363 42.8792 28.3594L55.3543 28.4742C56.2904 28.4517 57.2175 28.6619 58.0524 29.086C58.8873 29.5101 59.6038 30.1349 60.1377 30.9041C60.6231 31.5998 60.9398 32.3991 61.0625 33.2384C61.1327 34.0017 61.1498 34.7689 61.1135 35.5345C61.1375 36.2325 61.0754 36.9308 60.9286 37.6137C60.7857 38.2271 60.5306 38.8088 60.176 39.3293C59.6204 40.1612 58.8456 40.8234 57.9374 41.2427C57.3676 41.5129 56.7542 41.6793 56.126 41.7338C55.9647 41.7455 55.8027 41.7455 55.6413 41.7338C55.5941 41.7809 55.5376 41.8179 55.4755 41.8422Z" fill="#263238"/>
<g opacity="0.4">
<path d="M43.0641 21.7002C43.5616 24.4618 46.2977 27.0831 49.0976 26.9428C50.4764 26.8811 51.7878 26.3284 52.7948 25.3845C53.8018 24.4406 54.4382 23.1678 54.589 21.7959" fill="black"/>
</g>
<path d="M50.9281 26.452C50.3295 26.786 49.6555 26.9614 48.9701 26.9614C48.2846 26.9614 47.6106 26.786 47.0121 26.452L47.1077 15.3099C47.1194 14.7962 47.3326 14.3076 47.7013 13.9497C48.07 13.5917 48.5646 13.393 49.0785 13.3965C49.5933 13.4082 50.0828 13.6223 50.441 13.9924C50.7991 14.3625 50.997 14.8587 50.9918 15.3737L50.9281 26.452Z" fill="#8CBAFF"/>
<path d="M49.6443 15.1949L48.5027 15.1855L48.4641 19.8859L49.6057 19.8952L49.6443 15.1949Z" fill="white"/>
<path d="M48.3323 51.0327C48.2876 51.0327 48.3323 50.5735 48.1154 49.7954C47.8218 48.6989 47.171 47.7316 46.2658 47.0466C45.6052 46.5404 44.8279 46.2085 44.0053 46.0814C43.1828 45.9543 42.3416 46.0362 41.559 46.3195C40.6316 46.6442 39.8243 47.2424 39.2438 48.0351C38.6141 48.878 38.2701 49.9 38.2621 50.9521C38.2541 52.0042 38.5824 53.0313 39.1992 53.8836C39.7668 54.6844 40.5624 55.2956 41.4824 55.6376C42.26 55.9327 43.099 56.0289 43.9232 55.9175C44.7474 55.8061 45.5307 55.4907 46.2021 54.9998C47.1263 54.3314 47.8 53.3726 48.1154 52.2764C48.3259 51.5047 48.3068 51.0455 48.3514 51.0455C48.3694 51.1553 48.3694 51.2673 48.3514 51.3771C48.3499 51.6935 48.3092 52.0084 48.2302 52.3147C47.959 53.466 47.2962 54.4873 46.3551 55.2039C45.7973 55.6257 45.1609 55.9322 44.4833 56.1052C43.8056 56.2783 43.1002 56.3145 42.4084 56.2118C41.7166 56.109 41.0522 55.8694 40.4541 55.5069C39.8559 55.1444 39.3361 54.6663 38.9249 54.1005C38.2612 53.1889 37.9079 52.0882 37.917 50.9605C37.9262 49.8329 38.2974 48.7381 38.9759 47.8374C39.394 47.275 39.9209 46.8023 40.5252 46.4475C41.1296 46.0926 41.7991 45.8629 42.4939 45.7718C43.1888 45.6808 43.8949 45.7304 44.5703 45.9176C45.2456 46.1048 45.8764 46.4258 46.4253 46.8616C47.3546 47.5919 48.0016 48.6221 48.2557 49.7763C48.3247 50.0862 48.3589 50.4028 48.3578 50.7202C48.3644 50.8251 48.3558 50.9303 48.3323 51.0327Z" fill="#263238"/>
<path d="M40.513 50.9689C40.5513 50.9689 40.985 51.1985 41.6546 51.5302C42.3243 51.8618 43.2427 52.3976 44.3461 53.029L44.091 53.1693C44.091 52.4932 44.091 51.7598 44.091 51.0008C44.091 50.2418 44.091 49.5084 44.091 48.8259L44.3397 48.9726C43.2236 49.6104 42.2733 50.1143 41.6228 50.4268C40.9722 50.7393 40.513 50.9689 40.4747 50.9689C40.4365 50.9689 40.7873 50.7457 41.4569 50.3311C42.1266 49.9166 43.0833 49.3426 44.1739 48.7048L44.4226 48.5645V48.8515C44.4226 49.5339 44.4226 50.2673 44.4226 51.0263C44.4226 51.7853 44.4226 52.5187 44.4226 53.2012V53.4882L44.1739 53.3415C43.0897 52.7037 42.1649 52.1297 41.4824 51.6705C40.8 51.2113 40.462 50.9689 40.513 50.9689Z" fill="#263238"/>
<path d="M49.3017 51.0387C49.34 51.0387 49.3017 51.4979 49.5186 52.276C49.8109 53.3749 50.4618 54.3446 51.3681 55.0313C52.0306 55.5338 52.8078 55.8634 53.6296 55.9903C54.4513 56.1173 55.2918 56.0375 56.075 55.7583C57.0308 55.4122 57.8583 54.7831 58.4474 53.9547C59.0366 53.1263 59.3592 52.138 59.3724 51.1216C59.3737 50.0698 59.0459 49.0439 58.4348 48.1878C57.864 47.3916 57.0692 46.7833 56.1515 46.4403C55.3744 46.1428 54.535 46.0454 53.7103 46.1568C52.8857 46.2682 52.1023 46.585 51.4319 47.0781C50.5077 47.7465 49.834 48.7053 49.5186 49.8014C49.3017 50.5795 49.3208 51.0387 49.2826 51.0323C49.2657 50.9246 49.2657 50.8148 49.2826 50.7071C49.2899 50.3912 49.3305 50.0769 49.4038 49.7695C49.685 48.6127 50.3618 47.5907 51.3171 46.8803C51.9655 46.3832 52.7212 46.0446 53.5239 45.8918C54.5677 45.6974 55.646 45.823 56.6172 46.252C57.5885 46.6811 58.4074 47.3937 58.9666 48.2963C59.5258 49.1989 59.7992 50.2495 59.751 51.3102C59.7028 52.3709 59.3351 53.3923 58.6963 54.2404C58.1005 55.0384 57.29 55.6504 56.3595 56.005C55.4289 56.3596 54.4167 56.4422 53.4409 56.2431C52.461 56.0453 51.5593 55.5677 50.8451 54.8682C50.1309 54.1687 49.6347 53.2772 49.4165 52.3015C49.3429 51.9945 49.3065 51.6797 49.3081 51.364C49.2916 51.2563 49.2894 51.1469 49.3017 51.0387Z" fill="#263238"/>
<path d="M57.1337 51.1023C57.1018 51.1023 56.6618 50.879 55.9985 50.541C55.3352 50.203 54.4104 49.6736 53.307 49.0422L53.5557 48.9019C53.5557 49.5843 53.5557 50.3114 53.5557 51.0768C53.5557 51.8421 53.5557 52.5692 53.5557 53.2452L53.307 53.1049C54.4168 52.4671 55.3734 51.9633 56.0176 51.6508C56.6618 51.3382 57.1337 51.1086 57.1656 51.1023C56.8553 51.3368 56.5292 51.5499 56.1898 51.7401C55.4946 52.1865 54.5634 52.7286 53.4664 53.3664L53.2177 53.5131V53.2197C53.2177 52.5373 53.2177 51.8102 53.2177 51.0449C53.2177 50.2795 53.2177 49.5524 53.2177 48.8764V48.583L53.4601 48.7297C54.5443 49.3675 55.4691 49.9479 56.1579 50.4007C56.4951 50.6175 56.8208 50.8516 57.1337 51.1023Z" fill="#263238"/>
<path d="M48.5172 36.7016C48.5172 37.8242 47.5478 38.513 46.0362 38.5002C44.5247 38.4875 43.5999 37.7859 43.6063 36.6634C43.6044 36.3305 43.7102 36.006 43.9079 35.7381C44.1056 35.4703 44.3846 35.2736 44.7033 35.1773C44.4421 35.0666 44.2207 34.8794 44.0681 34.6403C43.9155 34.4012 43.839 34.1214 43.8486 33.838C43.8486 32.8048 44.7543 32.1734 46.0873 32.1797C47.4202 32.1861 48.3259 32.8175 48.3195 33.8763C48.3231 34.1611 48.2403 34.4402 48.082 34.6771C47.9238 34.9139 47.6975 35.0972 47.433 35.2028C47.7514 35.302 48.0291 35.5016 48.2245 35.7718C48.42 36.042 48.5227 36.3682 48.5172 36.7016ZM47.6307 36.6698C47.6307 35.9873 47.0439 35.56 46.0617 35.5536C45.0796 35.5473 44.4928 35.9618 44.4928 36.6442C44.4928 37.3267 45.0604 37.7795 46.0426 37.7859C47.0248 37.7923 47.6243 37.3649 47.6307 36.6698ZM44.7224 33.8826C44.7224 34.5204 45.2199 34.8776 46.0681 34.884C46.9164 34.8903 47.4457 34.514 47.4521 33.9018C47.4585 33.2895 46.91 32.9004 46.0809 32.8941C45.2518 32.8877 44.7288 33.264 44.7224 33.8826Z" fill="#8CBAFF"/>
<path d="M49.3846 37.9001C49.3834 37.818 49.3994 37.7366 49.4317 37.6611C49.4639 37.5856 49.5116 37.5177 49.5717 37.4618C49.6318 37.4059 49.703 37.3632 49.7806 37.3365C49.8583 37.3099 49.9406 37.2998 50.0224 37.3069C50.1035 37.3064 50.1837 37.3231 50.2579 37.3558C50.332 37.3886 50.3984 37.4367 50.4526 37.4969C50.5068 37.5572 50.5477 37.6282 50.5725 37.7054C50.5973 37.7826 50.6054 37.8641 50.5964 37.9447C50.599 38.0231 50.5857 38.1011 50.5573 38.1742C50.5289 38.2473 50.486 38.3138 50.4311 38.3698C50.3763 38.4259 50.3107 38.4702 50.2382 38.5002C50.1658 38.5301 50.088 38.5451 50.0097 38.5442C49.9246 38.5491 49.8396 38.5357 49.7602 38.5048C49.6809 38.4739 49.6091 38.4262 49.5498 38.3651C49.4905 38.304 49.445 38.2308 49.4165 38.1506C49.388 38.0703 49.3772 37.9849 49.3846 37.9001Z" fill="#8CBAFF"/>
<path d="M55.7497 36.6563C55.7497 37.7214 54.9716 38.5697 53.3963 38.5697C52.5749 38.5829 51.7745 38.3101 51.1322 37.7979L51.5467 37.1027C52.0566 37.5478 52.7131 37.7886 53.3899 37.7788C54.3275 37.7788 54.8632 37.3579 54.8632 36.6882C54.8632 36.0185 54.4359 35.5593 53.0072 35.5465H51.5977L51.9549 32.3193H55.4372V33.0911H52.6947L52.5162 34.7876H53.205C55.0418 34.7876 55.7561 35.5593 55.7497 36.6563Z" fill="#8CBAFF"/>
<path d="M54.6145 21.7963C54.6502 22.0074 54.6502 22.223 54.6145 22.434C54.5126 23.0412 54.2962 23.6234 53.9767 24.1497C53.5168 24.9443 52.874 25.6177 52.1016 26.1141C51.1533 26.7357 50.0465 27.0722 48.9127 27.0835C47.7758 27.0604 46.6754 26.6787 45.7684 25.9929C45.0263 25.4668 44.3956 24.7992 43.9124 24.0285C43.5816 23.5143 43.3361 22.95 43.1853 22.3575C43.1176 22.1519 43.0852 21.9362 43.0897 21.7197C43.3385 22.4944 43.6857 23.2339 44.1229 23.9201C44.6084 24.6482 45.2273 25.278 45.9469 25.7761C46.8039 26.4083 47.8353 26.7602 48.8999 26.7838C49.8734 26.7602 50.8259 26.4963 51.6727 26.0156C52.5195 25.5349 53.2343 24.8523 53.7535 24.0285C54.1607 23.3366 54.4516 22.5825 54.6145 21.7963Z" fill="#263238"/>
<path d="M104.483 114.147C101.358 83.5783 97.984 63.3732 108.144 33.665L128.974 38.2571C138.024 66.7088 137.482 97.195 136.857 127.043C136.8 129.735 136.704 132.573 135.282 134.863C132.437 139.436 125.989 139.652 120.613 139.327C115.81 139.059 106.333 142.88 102.991 139.417C99.8782 136.208 104.929 118.612 104.483 114.147Z" fill="#263238"/>
<path d="M206.669 120.704L188.327 114.894L170.437 114.384L120.147 120.64L89.6226 196.595L101.492 249.371L93.6726 276.713H199.322C199.322 276.713 210.215 149.111 209.909 147.88C209.603 146.649 206.657 120.711 206.657 120.711" fill="#8CBAFF"/>
<path d="M120.147 120.641C120.147 120.641 95.5668 123.708 85.241 138.62C77.2878 150.1 57.8991 187.883 57.8991 187.883L44.3971 181.065C44.3971 181.065 35.7806 209.497 35.5446 214.867C35.1811 223.018 35.9847 240.8 42.5603 246.317C50.303 252.816 64.0027 245.998 68.2376 242.668C73.8246 238.268 92.2503 204.191 92.2503 204.191L120.147 120.641Z" fill="#8CBAFF"/>
<path d="M101.505 249.371C101.505 249.371 101.505 249.288 101.434 249.123C101.364 248.957 101.32 248.702 101.243 248.389L100.541 245.564C99.9484 243.083 99.0937 239.53 98.0414 235.149C96.989 230.767 95.7453 225.505 94.3677 219.689C93.6789 216.78 92.9582 213.725 92.2056 210.562C92.027 209.771 91.8102 208.98 91.6635 208.164C91.5168 207.347 91.3574 206.525 91.2234 205.696C90.93 204.037 90.6813 202.347 90.4645 200.632C90.0245 197.292 89.8794 193.92 90.0308 190.555C90.199 187.419 90.6819 184.308 91.4722 181.268C92.8442 176.144 94.6163 171.134 96.7722 166.287C98.5771 162.135 100.184 158.844 101.294 156.573L102.57 153.965C102.71 153.678 102.825 153.454 102.914 153.289C102.95 153.211 102.993 153.136 103.042 153.065C103.042 153.065 103.042 153.148 102.94 153.308L102.627 153.997C102.334 154.617 101.921 155.495 101.39 156.631C100.318 158.92 98.7429 162.224 96.9635 166.376C94.8502 171.227 93.1062 176.231 91.7464 181.345C90.9741 184.367 90.502 187.459 90.3369 190.574C90.1913 193.92 90.3386 197.273 90.777 200.593C90.9938 202.294 91.2447 203.976 91.5296 205.638C91.6635 206.467 91.823 207.284 91.9633 208.094C92.1036 208.904 92.3268 209.701 92.5054 210.492C93.2452 213.681 93.9659 216.717 94.642 219.625C96.0005 225.448 97.1931 230.684 98.2518 235.098C99.3106 239.511 100.082 243.051 100.65 245.532C100.924 246.756 101.141 247.707 101.288 248.376C101.351 248.689 101.409 248.931 101.447 249.116C101.475 249.199 101.494 249.284 101.505 249.371Z" fill="#263238"/>
<path d="M66.3561 175.254C66.3859 175.294 66.4076 175.339 66.4199 175.388L66.5794 175.796C66.7488 176.329 66.883 176.872 66.9812 177.422C67.2911 179.452 67.4065 181.506 67.3256 183.558C67.3256 186.154 66.9812 189.234 67.1279 192.64C67.3343 196.342 67.8419 200.022 68.6458 203.642C70.2785 211.365 72.3067 218.279 72.6639 223.49C72.859 225.532 72.859 227.589 72.6639 229.632C72.6132 230.196 72.5259 230.756 72.4024 231.309C72.3513 231.475 72.3131 231.609 72.2812 231.724C72.2697 231.772 72.2526 231.819 72.2302 231.864C72.2217 231.815 72.2217 231.766 72.2302 231.717C72.2302 231.602 72.2812 231.462 72.3194 231.29C72.4214 230.746 72.4938 230.196 72.5363 229.644C72.678 227.609 72.6439 225.564 72.4342 223.534C72.0133 218.368 69.9596 211.474 68.3205 203.763C67.5121 200.125 67.0107 196.426 66.8217 192.704C66.6942 189.26 67.0386 186.186 67.0896 183.603C67.1931 181.563 67.1141 179.518 66.8536 177.493C66.773 176.944 66.6602 176.401 66.5156 175.866C66.4646 175.7 66.4263 175.566 66.388 175.452C66.3707 175.387 66.36 175.321 66.3561 175.254Z" fill="#263238"/>
<path d="M79.9155 176.651C79.8326 176.689 78.3593 173.857 76.6309 170.318C74.9025 166.778 73.5631 163.882 73.646 163.844C73.729 163.806 75.1959 166.638 76.9307 170.171C78.6654 173.704 79.9984 176.613 79.9155 176.651Z" fill="white"/>
<path d="M90.4453 169.572C90.5219 169.629 87.6008 173.685 83.9272 178.628C80.2535 183.571 77.2176 187.557 77.1475 187.487C77.0773 187.417 79.9856 183.38 83.6593 178.431C87.3329 173.481 90.3752 169.521 90.4453 169.572Z" fill="white"/>
<path d="M89.4568 184.208C88.7967 183.519 88.2188 182.755 87.7347 181.932C87.1598 181.17 86.676 180.344 86.2934 179.47C86.9535 180.16 87.5313 180.924 88.0154 181.747C88.5904 182.508 89.0741 183.334 89.4568 184.208Z" fill="white"/>
<path d="M103.654 171.319C103.73 171.357 102.142 174.584 100.101 178.519C98.0605 182.455 96.3321 185.612 96.2747 185.573C96.2173 185.535 97.7863 182.302 99.8272 178.366C101.868 174.431 103.597 171.274 103.654 171.319Z" fill="white"/>
<path d="M110.485 184.19C110.072 183.978 109.693 183.705 109.362 183.38C108.516 182.656 107.737 181.857 107.034 180.994C106.314 180.138 105.674 179.218 105.121 178.245C104.865 177.852 104.672 177.422 104.547 176.97C104.636 176.919 105.618 178.781 107.257 180.765C108.897 182.748 110.548 184.113 110.485 184.19Z" fill="white"/>
<path d="M121.091 169.297C120.64 169.784 120.154 170.238 119.637 170.655C118.718 171.472 117.449 172.607 116.078 173.883C114.707 175.158 113.527 176.344 112.615 177.199C112.165 177.688 111.677 178.14 111.154 178.551C111.534 178.008 111.96 177.5 112.43 177.033C113.265 176.134 114.458 174.922 115.836 173.64C117.213 172.358 118.502 171.249 119.465 170.451C119.967 170.013 120.511 169.626 121.091 169.297Z" fill="white"/>
<path d="M127.89 188.705C127.82 188.762 125.492 186.154 122.685 182.818C119.879 179.482 117.666 176.778 117.736 176.721C117.806 176.663 120.134 179.272 122.941 182.607C125.747 185.943 127.954 188.641 127.89 188.705Z" fill="white"/>
<path d="M135.333 173.155C134.288 174.401 133.158 175.573 131.953 176.663C130.824 177.834 129.618 178.927 128.343 179.935C129.387 178.701 130.514 177.539 131.717 176.459C132.846 175.277 134.054 174.174 135.333 173.155Z" fill="white"/>
<path d="M147.087 186.664C146.495 186.351 145.937 185.977 145.423 185.548C142.854 183.585 140.559 181.288 138.598 178.717C138.169 178.203 137.795 177.645 137.482 177.053C137.937 177.533 138.363 178.04 138.758 178.571C139.542 179.521 140.671 180.797 141.991 182.123C143.311 183.45 144.593 184.572 145.544 185.363C146.086 185.762 146.602 186.197 147.087 186.664Z" fill="white"/>
<path d="M154.301 173.832C153.963 174.213 153.594 174.565 153.197 174.884C152.496 175.522 151.545 176.396 150.538 177.436C149.53 178.475 148.675 179.425 148.057 180.133C147.747 180.538 147.402 180.914 147.023 181.256C147.256 180.798 147.543 180.37 147.878 179.98C148.629 179.003 149.438 178.072 150.302 177.193C151.167 176.315 152.082 175.489 153.044 174.719C153.422 174.369 153.845 174.071 154.301 173.832Z" fill="white"/>
<path d="M164.135 188.578C164.071 188.642 161.999 186.562 159.505 183.941C157.011 181.32 155.04 179.132 155.117 179.068C156.738 180.536 158.284 182.086 159.747 183.711C162.235 186.346 164.199 188.52 164.135 188.578Z" fill="white"/>
<path d="M170.545 170.872C170.128 171.395 169.674 171.888 169.187 172.345C168.338 173.238 167.177 174.482 165.953 175.911C164.728 177.339 163.676 178.679 162.923 179.661C162.537 180.212 162.111 180.735 161.648 181.223C161.947 180.624 162.302 180.054 162.707 179.52C163.415 178.5 164.441 177.129 165.672 175.694C166.903 174.259 168.096 173.034 168.995 172.18C169.467 171.694 169.987 171.256 170.545 170.872Z" fill="white"/>
<path d="M177.771 185.784C177.267 185.488 176.795 185.142 176.362 184.751C175.52 184.062 174.391 183.067 173.173 181.913C171.955 180.758 170.966 179.649 170.252 178.826C169.841 178.405 169.479 177.938 169.174 177.436C169.629 177.813 170.056 178.224 170.449 178.666C171.196 179.451 172.242 180.522 173.428 181.677C174.614 182.831 175.711 183.839 176.508 184.572C176.964 184.938 177.387 185.344 177.771 185.784Z" fill="white"/>
<path d="M190.495 170.72C190.133 171.243 189.718 171.728 189.258 172.167C188.448 173.029 187.287 174.17 185.928 175.356C184.57 176.543 183.282 177.531 182.325 178.214C181.825 178.61 181.286 178.956 180.718 179.247C181.176 178.806 181.667 178.399 182.185 178.029C183.103 177.302 184.366 176.281 185.712 175.108C187.057 173.934 188.263 172.818 189.092 172.008C189.528 171.546 189.997 171.115 190.495 170.72Z" fill="white"/>
<path d="M201.873 172.23C201.937 172.764 201.937 173.304 201.873 173.838C201.828 174.833 201.714 176.204 201.51 177.709C201.305 179.214 201.05 180.56 200.834 181.536C200.75 182.068 200.602 182.589 200.393 183.086C200.416 182.549 200.487 182.015 200.604 181.491C200.763 180.515 200.98 179.163 201.184 177.664C201.388 176.166 201.535 174.807 201.644 173.838C201.664 173.295 201.741 172.757 201.873 172.23Z" fill="white"/>
<g opacity="0.3">
<path d="M136.538 187.353C135.212 185.828 133.815 184.259 131.959 183.456C129.408 182.359 126.493 182.888 123.776 183.456C112.462 185.803 101.194 188.384 89.9734 191.198L91.1278 192.417C94.7313 197.117 101.524 197.697 107.436 197.398C113.348 197.098 119.803 196.467 124.701 199.796C129.054 202.895 132.826 206.738 135.843 211.148C144.351 223.828 150.448 230.384 159.932 238.682C169.837 247.356 178.428 257.178 191.413 254.913C173.904 231.77 155.612 209.25 136.538 187.353Z" fill="black"/>
</g>
<path d="M44.142 182.895L45.6344 177.25C45.6344 177.25 31.2523 165.292 33.6759 160.145C33.8891 159.334 34.3604 158.615 35.0186 158.096C35.6768 157.577 36.4861 157.286 37.3241 157.268C37.3241 157.268 35.6594 153.786 37.9619 151.216C40.2643 148.645 42.809 149.704 42.809 149.704C42.809 149.704 41.5972 146.069 42.3562 144.404C42.4816 144.127 42.6287 143.861 42.7963 143.607C43.2812 142.867 43.9441 142.261 44.7241 141.844C45.5042 141.428 46.3764 141.213 47.2608 141.222H48.4343L46.0426 132.548C45.7248 131.394 45.7381 130.174 46.0809 129.027L46.5273 127.522C46.9167 126.274 47.7639 125.221 48.8986 124.572C50.0332 123.924 51.3713 123.729 52.6437 124.027C54.4614 124.473 55.8326 125.264 55.8326 126.693V127.452L52.784 129.116C52.784 129.116 57.4399 140.743 57.8927 141.381C58.3455 142.019 62.8929 147.44 62.8929 147.44C62.8929 147.44 63.3458 140.628 66.3689 140.169C69.392 139.71 70.4571 141.534 70.0043 142.899C69.5514 144.264 69.6025 146.005 70.1063 148.084C70.1063 148.084 68.4927 162.881 68.6394 166.816C68.7861 170.751 66.9748 170.751 66.9748 170.751C66.9748 170.751 66.675 176.351 65.6163 179.38C64.5576 182.41 54.8696 193.603 50.4752 192.404C46.0809 191.205 44.142 182.895 44.142 182.895Z" fill="#D3A890"/>
<path d="M37.1965 157.02C37.324 157.049 37.4481 157.091 37.5664 157.147L38.5996 157.568L42.3881 159.169L47.9815 161.58L51.2852 163.015C51.8805 163.254 52.4618 163.526 53.0264 163.831C53.6484 164.148 54.1434 164.668 54.4295 165.304C54.5697 165.698 54.5514 166.13 54.3785 166.51C54.2035 166.868 53.9231 167.164 53.5749 167.358C52.9299 167.72 52.214 167.938 51.4766 167.996C47.9761 168.442 44.4256 167.737 41.3613 165.987H41.4888C40.4714 166.967 39.1365 167.551 37.7259 167.632C37.6268 167.65 37.5252 167.65 37.4261 167.632C37.4261 167.632 37.8407 167.632 38.5678 167.422C39.6112 167.149 40.5653 166.608 41.3358 165.853L41.3932 165.795L41.4633 165.834C43.3342 166.855 45.3852 167.505 47.5032 167.747C48.8113 167.896 50.1327 167.885 51.4383 167.715C52.1262 167.664 52.7956 167.469 53.4027 167.141C53.692 166.976 53.9269 166.73 54.0787 166.433C54.2152 166.131 54.229 165.788 54.117 165.477C53.845 164.922 53.3963 164.473 52.8414 164.201C52.2914 163.897 51.7226 163.629 51.1385 163.397L47.8476 161.943L42.2797 159.462L38.5359 157.766L37.5282 157.287C37.4048 157.215 37.293 157.125 37.1965 157.02Z" fill="#796342"/>
<path d="M41.897 149.532C42.0093 149.543 42.1204 149.564 42.2287 149.596C42.5404 149.665 42.8473 149.754 43.1471 149.864C44.2554 150.269 45.3077 150.813 46.2786 151.484C48.7979 153.078 51.6679 156.165 55.9411 157.76C56.9771 158.189 57.9391 158.779 58.792 159.507C59.5755 160.235 60.1071 161.193 60.3099 162.243C60.4145 162.721 60.4036 163.216 60.2783 163.689C60.1529 164.162 59.9167 164.597 59.5892 164.96C58.9774 165.553 58.164 165.893 57.3123 165.911C56.6279 165.931 55.9465 165.811 55.3097 165.56C54.8362 165.376 54.3796 165.152 53.9448 164.89C53.5813 164.68 53.307 164.507 53.1348 164.38C53.0375 164.326 52.9474 164.259 52.8669 164.182C53.2552 164.363 53.6341 164.563 54.0022 164.782C54.444 165.017 54.9023 165.219 55.3734 165.388C55.9859 165.609 56.6363 165.707 57.2868 165.675C58.071 165.645 58.8156 165.322 59.3724 164.769C59.6678 164.438 59.8798 164.042 59.9908 163.612C60.1017 163.183 60.1084 162.733 60.0102 162.301C59.8173 161.32 59.3168 160.426 58.5815 159.75C57.7488 159.051 56.8157 158.481 55.8135 158.059C54.7909 157.636 53.7942 157.153 52.8287 156.612C51.9425 156.083 51.0904 155.5 50.2775 154.864C48.7213 153.665 47.382 152.511 46.1574 151.675C45.2125 150.994 44.1916 150.424 43.1152 149.979C42.3371 149.673 41.8906 149.57 41.897 149.532Z" fill="#796342"/>
<path d="M47.2353 141.381C47.3656 141.419 47.4901 141.475 47.6052 141.547L48.6193 142.089L52.3248 144.13L57.797 147.191C58.917 147.749 59.9556 148.457 60.8839 149.296C61.3952 149.762 61.7876 150.344 62.0284 150.994C62.2691 151.643 62.3512 152.34 62.2679 153.027C62.1362 153.736 61.748 154.372 61.1773 154.813C60.6146 155.22 59.9549 155.473 59.2639 155.546C57.9918 155.648 56.7199 155.347 55.6286 154.685C54.5762 154.111 53.6642 153.448 52.7713 152.906C51.8784 152.364 51.0365 151.872 50.2201 151.471C48.9697 150.828 47.6522 150.325 46.2914 149.972C45.3283 149.736 44.7798 149.672 44.7798 149.64C44.9155 149.626 45.0523 149.626 45.188 149.64C45.5698 149.679 45.9489 149.741 46.3232 149.825C47.7082 150.132 49.0509 150.605 50.3222 151.235C51.1322 151.624 51.9932 152.096 52.8733 152.644C53.7535 153.193 54.6974 153.837 55.7242 154.392C56.7627 155.018 57.9728 155.299 59.181 155.195C59.8044 155.125 60.3982 154.892 60.9031 154.519C61.4095 154.133 61.753 153.571 61.8661 152.944C61.9425 152.31 61.8667 151.667 61.6448 151.068C61.423 150.469 61.0616 149.931 60.5905 149.5C59.684 148.683 58.6741 147.988 57.5866 147.433L52.1462 144.308L48.4917 142.172L47.5095 141.579C47.4152 141.517 47.3237 141.451 47.2353 141.381Z" fill="#796342"/>
<path d="M55.7752 126.712C55.7752 126.712 55.8263 126.827 55.8582 127.056C55.8474 127.199 55.8218 127.34 55.7816 127.477C55.7072 127.649 55.613 127.812 55.501 127.962C54.7902 128.75 53.8664 129.315 52.8414 129.588C51.8453 129.908 50.7996 130.047 49.7545 129.997C49.3132 129.997 48.8774 129.899 48.479 129.71C48.479 129.652 48.9701 129.761 49.7545 129.761C50.7641 129.745 51.7657 129.579 52.7266 129.269C53.6844 129.004 54.5611 128.504 55.2778 127.815C55.3897 127.69 55.4881 127.553 55.5712 127.407C55.6222 127.267 55.6604 127.146 55.6923 127.05C55.6949 126.933 55.7232 126.817 55.7752 126.712Z" fill="#796342"/>
<path d="M59.2958 176.46C58.7894 174.83 58.032 173.289 57.0508 171.893C55.9809 170.563 54.709 169.41 53.2815 168.475C53.7699 168.626 54.2292 168.859 54.64 169.163C55.6713 169.856 56.5771 170.718 57.3187 171.715C58.0609 172.703 58.6322 173.809 59.0088 174.986C59.187 175.458 59.284 175.956 59.2958 176.46Z" fill="#796342"/>
<path d="M55.0418 180.165C55.0418 180.165 54.9206 180.286 54.6591 180.439C54.2899 180.656 53.8959 180.827 53.4856 180.949C52.119 181.377 50.6525 181.361 49.2953 180.905C47.9397 180.426 46.7686 179.534 45.9469 178.354C45.6924 178.005 45.4785 177.628 45.3092 177.231C45.2336 177.091 45.188 176.937 45.1752 176.778C45.2326 176.778 45.4686 177.378 46.1128 178.213C46.9431 179.304 48.079 180.123 49.376 180.565C50.673 181.008 52.0725 181.055 53.3963 180.701C54.4423 180.465 55.0163 180.114 55.0418 180.165Z" fill="#796342"/>
<path d="M63.9262 172.588C63.5543 172.71 63.1593 172.745 62.7718 172.69C61.8282 172.623 60.9142 172.333 60.1058 171.842C59.2974 171.352 58.6157 170.679 58.1159 169.877C57.889 169.558 57.7384 169.192 57.6758 168.806C57.7269 168.806 57.9055 169.188 58.3136 169.75C58.8422 170.476 59.5099 171.089 60.278 171.555C61.0509 172.017 61.9066 172.325 62.7973 172.46C63.1759 172.479 63.5529 172.522 63.9262 172.588Z" fill="#796342"/>
<path d="M66.6623 161.293C66.1849 161.387 65.6926 161.374 65.2209 161.255C64.0604 161.038 62.9834 160.502 62.1113 159.706C61.2391 158.911 60.6064 157.888 60.2844 156.752C60.1213 156.294 60.0624 155.806 60.1122 155.323C60.1696 155.323 60.2206 155.865 60.5076 156.682C60.8813 157.743 61.5073 158.697 62.3317 159.462C63.1668 160.216 64.1743 160.752 65.2655 161.025C66.0946 161.236 66.6623 161.236 66.6623 161.293Z" fill="#796342"/>
<path d="M51.7062 130.124L64.2132 155.412C64.2132 155.412 68.0399 159.526 68.4608 162.587L73.9139 169.775L77.7406 167.358L75.1193 158.926C75.1193 158.926 71.2224 154.87 71.2224 151.541L56.9743 127.458L51.7062 130.124Z" fill="#B2D1FF"/>
<path d="M71.2543 151.548C70.277 152.473 69.1811 153.265 67.9952 153.901C66.8629 154.633 65.6266 155.19 64.328 155.553C64.2897 155.457 65.9288 154.737 67.8294 153.64C69.73 152.543 71.1969 151.471 71.2543 151.548Z" fill="#263238"/>
<path d="M75.0492 158.933C74.0331 159.672 72.9556 160.323 71.8283 160.878C70.7543 161.532 69.6229 162.087 68.4481 162.536C69.4534 161.798 70.5203 161.147 71.637 160.591C72.7222 159.937 73.8642 159.382 75.0492 158.933Z" fill="#263238"/>
<path d="M60.8201 133.919C59.9606 134.584 59.0377 135.163 58.0649 135.647C57.1434 136.225 56.1645 136.706 55.1438 137.082C56.0027 136.413 56.9281 135.834 57.9055 135.354C58.8245 134.776 59.8013 134.295 60.8201 133.919Z" fill="#263238"/>
<path d="M65.9862 147.064L66.101 147.013C66.4041 146.868 66.7523 146.848 67.07 146.958C67.3876 147.068 67.6491 147.298 67.7975 147.6L70.6038 153.111C70.6833 153.262 70.7315 153.428 70.7456 153.598C70.7597 153.769 70.7394 153.94 70.6858 154.103C70.6323 154.265 70.5466 154.415 70.4339 154.544C70.3212 154.673 70.1838 154.777 70.0298 154.852C69.8811 154.929 69.7187 154.977 69.5516 154.992C69.3846 155.006 69.2163 154.988 69.0564 154.938C68.8964 154.887 68.748 154.806 68.6195 154.698C68.4911 154.59 68.3851 154.458 68.3078 154.31L65.3867 148.85C65.3007 148.695 65.2479 148.524 65.2317 148.348C65.2155 148.171 65.2363 147.993 65.2927 147.825C65.3491 147.657 65.4399 147.503 65.5593 147.372C65.6787 147.241 65.8241 147.136 65.9862 147.064Z" fill="#8CBAFF"/>
<path d="M167.713 239.377L142.84 206.27L161.335 187.238L184.423 208.183L190.489 172.231L201.446 121.846C201.446 121.846 223.558 129.187 223.558 149.035C223.558 168.882 216.096 230.569 211.115 240.238C209.284 243.791 207.677 247.643 205.247 250.29C201.063 254.843 195.565 256.993 190.393 255.979C175.807 253.096 167.713 239.377 167.713 239.377Z" fill="#8CBAFF"/>
<path d="M71.7646 178.545C71.7646 178.545 71.688 174.865 76.2674 174.948C76.2674 174.948 79.2139 175.025 82.894 179.693L86.0829 180.835L73.9968 169.788C73.9968 169.788 76.312 166.689 78.8504 167.422C81.3888 168.156 82.811 171.676 85.5918 172.735C88.3725 173.794 92.059 176.747 92.059 176.747L100.235 178.137L100.975 177.238L84.3226 160.585C84.3226 160.585 87.1161 156.675 90.4709 159.309C93.8256 161.944 98.9279 167.103 99.9101 167.843C100.892 168.583 104.572 171.115 104.572 171.115L110.95 172.257L115.695 170.541C115.695 170.541 114.471 166.861 117.819 166.038C121.168 165.215 128.783 168.659 128.783 168.659C130.711 167.309 133.017 166.604 135.371 166.644C139.466 166.644 142.616 170.247 142.859 173.022C143.101 175.796 134.567 186.651 134.567 186.651L131.079 188.775L109.56 192.124L105.548 191.715L95.9367 193.597L76.65 187.302C76.65 187.302 74.9344 184.113 78.0404 183.539L71.7646 178.545Z" fill="#D3A890"/>
<path d="M106.422 183.846C106.422 183.877 106.026 183.743 105.306 183.68C104.286 183.635 103.266 183.765 102.289 184.062C101.013 184.388 99.5976 184.981 97.8947 185.338C96.0343 185.693 94.1201 185.654 92.2758 185.223C90.3114 184.834 88.5065 184.241 86.8419 183.82C85.3829 183.418 83.8872 183.164 82.3773 183.061C81.3567 183.009 80.3337 183.093 79.3351 183.31C78.6335 183.476 78.2572 183.629 78.2445 183.597C78.2317 183.565 78.3338 183.539 78.506 183.469C78.7647 183.357 79.0312 183.263 79.3032 183.189C80.3063 182.916 81.3448 182.795 82.3837 182.831C83.9181 182.893 85.441 183.124 86.9248 183.52C88.6021 183.935 90.4071 184.515 92.346 184.898C94.15 185.317 96.0206 185.365 97.8437 185.038C99.5083 184.687 100.962 184.113 102.238 183.814C103.242 183.536 104.287 183.441 105.325 183.533C105.604 183.571 105.879 183.633 106.148 183.718C106.245 183.745 106.338 183.789 106.422 183.846Z" fill="#796342"/>
<path d="M101.409 183.111C100.492 182.895 99.5605 182.746 98.6218 182.665C97.6037 182.606 96.5822 182.67 95.5795 182.856C94.9855 182.967 94.3979 183.11 93.8192 183.284C93.178 183.503 92.4962 183.577 91.823 183.5C90.5761 183.213 89.3744 182.756 88.2514 182.142L85.4897 180.758C84.8691 180.445 84.2302 180.171 83.5764 179.935C83.1172 179.763 82.8493 179.725 82.8557 179.693C82.8621 179.661 82.9258 179.693 83.0534 179.693C83.2431 179.714 83.4309 179.75 83.6147 179.801C84.2876 179.997 84.9443 180.244 85.579 180.541C86.3827 180.898 87.3202 181.364 88.3725 181.861C89.4751 182.431 90.6451 182.86 91.8549 183.137C92.4852 183.203 93.1225 183.134 93.7236 182.933C94.3098 182.758 94.9062 182.62 95.5094 182.518C96.5373 182.344 97.5831 182.301 98.6218 182.391C99.3202 182.452 100.01 182.584 100.682 182.786C100.939 182.858 101.184 182.967 101.409 183.111Z" fill="#796342"/>
<path d="M104.56 172.479C104.623 172.556 103.801 173.264 103.118 174.393C102.436 175.522 102.161 176.568 102.066 176.549C102.084 175.714 102.35 174.903 102.831 174.221C103.216 173.477 103.819 172.87 104.56 172.479Z" fill="#796342"/>
<path d="M112.054 177.735C111.952 177.735 112.054 176.651 111.875 175.363C111.696 174.074 111.237 173.086 111.339 173.041C111.833 173.703 112.131 174.489 112.2 175.312C112.376 176.117 112.325 176.956 112.054 177.735Z" fill="#796342"/>
<path d="M122.481 176.46C121.846 176.777 121.187 177.044 120.511 177.257C119.286 177.71 117.57 178.303 115.689 178.966C115.223 179.132 114.758 179.279 114.318 179.451L113.042 179.949L110.906 180.784C110.256 181.068 109.584 181.299 108.897 181.473C109.509 181.121 110.149 180.818 110.81 180.567L112.934 179.668L114.209 179.145C114.649 178.973 115.115 178.82 115.587 178.654C117.5 178.016 119.197 177.429 120.44 177.034C121.104 176.788 121.787 176.596 122.481 176.46Z" fill="#796342"/>
<path d="M132.514 180.031C132.261 179.98 132.013 179.905 131.774 179.808L129.797 179.094C128.126 178.494 125.817 177.671 123.24 176.83C121.965 176.396 120.689 176.045 119.611 175.605C118.615 175.237 117.706 174.669 116.939 173.934C116.425 173.434 116.036 172.82 115.804 172.142C115.703 171.898 115.66 171.634 115.676 171.37C115.676 171.37 115.74 171.638 115.925 172.097C116.197 172.731 116.599 173.3 117.105 173.768C117.868 174.452 118.759 174.979 119.726 175.318C120.81 175.733 122.06 176.077 123.349 176.511C125.9 177.359 128.228 178.22 129.88 178.877C130.702 179.202 131.366 179.483 131.793 179.687C132.048 179.767 132.291 179.883 132.514 180.031Z" fill="#796342"/>
<path d="M135.352 170.197C134.83 170.242 134.304 170.199 133.796 170.069C132.564 169.825 131.346 169.514 130.148 169.138C128.744 168.704 127.488 168.258 126.595 167.9C126.098 167.748 125.623 167.533 125.179 167.263C125.691 167.36 126.193 167.506 126.678 167.696L130.243 168.838C131.64 169.265 132.916 169.629 133.847 169.858C134.778 170.088 135.358 170.152 135.352 170.197Z" fill="#796342"/>
<path d="M130.677 188.833L143.994 205.282L159.027 189.618L141.979 170.994L130.677 188.833Z" fill="#D3A890"/>
<path d="M216.957 214.344C216.957 214.344 216.957 214.516 216.887 214.854C216.816 215.192 216.753 215.696 216.651 216.347C216.44 217.622 216.121 219.587 215.668 222.087C215.216 224.587 214.622 227.597 213.793 231.08C212.894 235.037 211.698 238.922 210.215 242.7C209.343 244.907 208.167 246.981 206.72 248.861C205.106 250.874 203.134 252.571 200.904 253.868C198.505 255.246 195.815 256.04 193.053 256.183C190.12 256.279 187.202 255.728 184.506 254.569C181.679 253.368 179.065 251.718 176.763 249.684C174.375 247.565 172.175 245.243 170.188 242.745C168.143 240.223 166.121 237.619 164.122 234.932C162.124 232.245 160.09 229.53 158.019 226.787L142.712 206.378L142.629 206.27L142.725 206.168L161.221 187.149L161.31 187.06L161.399 187.13C162.675 188.131 163.772 189.164 164.907 190.172L168.192 193.144L174.282 198.718L184.487 208.126C187.784 210.504 190.278 213.83 191.637 217.661C191.833 218.246 191.987 218.845 192.096 219.453C192.197 219.889 192.263 220.333 192.294 220.779C192.294 221.13 192.338 221.417 192.351 221.596C192.364 221.774 192.351 221.87 192.351 221.87C192.351 221.87 192.351 221.781 192.313 221.596C192.274 221.411 192.268 221.137 192.23 220.786C192.192 220.341 192.12 219.899 192.013 219.466C191.893 218.864 191.734 218.272 191.535 217.692C190.973 216.081 190.182 214.558 189.188 213.171C188.568 212.286 187.877 211.455 187.121 210.683C186.28 209.8 185.36 208.995 184.372 208.279L174.168 198.916L168.07 193.329L164.773 190.363C163.651 189.368 162.503 188.31 161.297 187.353H161.476L142.98 206.397V206.193L158.287 226.602C160.353 229.353 162.388 232.068 164.39 234.747C166.393 237.426 168.411 240.028 170.443 242.553C172.428 245.032 174.621 247.337 176.999 249.442C179.275 251.452 181.859 253.082 184.653 254.27C187.305 255.417 190.177 255.966 193.065 255.877C195.774 255.746 198.414 254.976 200.77 253.632C202.972 252.361 204.919 250.692 206.51 248.708C207.949 246.85 209.121 244.8 209.992 242.617C211.483 238.854 212.69 234.985 213.602 231.041C214.45 227.565 215.056 224.542 215.515 222.074C215.975 219.606 216.332 217.673 216.561 216.334C216.676 215.696 216.765 215.192 216.829 214.848C216.893 214.504 216.957 214.344 216.957 214.344Z" fill="#263238"/>
<path d="M192.102 149.265C192.109 149.315 192.109 149.367 192.102 149.418C192.102 149.539 192.051 149.679 192.019 149.858C191.936 150.272 191.815 150.834 191.669 151.542C191.356 152.996 190.916 155.107 190.393 157.722C189.341 162.945 188.014 170.184 186.847 178.227C185.68 186.269 184.902 193.597 184.43 198.904C184.187 201.557 184.009 203.706 183.894 205.192C183.836 205.913 183.785 206.468 183.754 206.901C183.754 207.08 183.722 207.227 183.709 207.348C183.712 207.399 183.712 207.45 183.709 207.501C183.698 207.451 183.698 207.398 183.709 207.348C183.709 207.227 183.709 207.08 183.709 206.901C183.709 206.481 183.754 205.907 183.785 205.186C183.862 203.693 184.002 201.544 184.213 198.884C184.627 193.572 185.374 186.237 186.534 178.182C187.695 170.127 189.085 162.875 190.182 157.671C190.737 155.062 191.209 152.957 191.566 151.51C191.739 150.808 191.873 150.234 191.975 149.845L192.089 149.411C192.083 149.316 192.102 149.265 192.102 149.265Z" fill="#263238"/>
<path d="M201.133 187.608C201.133 187.608 200.955 187.506 200.668 187.27C200.381 187.034 199.979 186.677 199.494 186.231C198.233 185.053 197.032 183.812 195.897 182.513C194.766 181.218 193.701 179.866 192.708 178.463C192.325 177.927 192.026 177.48 191.828 177.187C191.711 177.032 191.619 176.86 191.554 176.677C192.036 177.203 192.486 177.759 192.899 178.341C193.709 179.381 194.845 180.803 196.171 182.315C197.498 183.826 198.761 185.14 199.686 186.078C200.197 186.56 200.68 187.071 201.133 187.608Z" fill="white"/>
<path d="M208.538 169.559C207.673 171.404 206.713 173.203 205.662 174.948C204.698 176.75 203.634 178.496 202.473 180.178C203.334 178.331 204.294 176.532 205.349 174.788C206.314 172.987 207.379 171.241 208.538 169.559Z" fill="white"/>
<path d="M219.093 188.374C219.01 188.405 217.709 185.516 216.198 181.919C214.686 178.322 213.519 175.369 213.602 175.337C213.685 175.305 214.986 178.188 216.498 181.792C218.009 185.395 219.202 188.335 219.093 188.374Z" fill="white"/>
<path d="M145.059 7.93703C148.784 7.599 152.534 8.57481 155.933 10.1183C164.358 13.945 170.832 21.2795 175.118 29.4815C179.404 37.6834 181.687 46.7719 183.486 55.8476C185.794 67.4536 187.375 79.1927 188.218 90.996C188.473 94.5549 190.355 120.417 190.769 125.679L135.505 13.1159C137.642 10.0481 141.334 8.27505 145.059 7.93703Z" fill="#263238"/>
<path d="M164.333 29.2966L139.689 19.3662L133.234 20.0869C118.725 20.0869 108.635 36.0316 108.488 47.7796C108.316 60.8351 108.629 76.7862 110.657 86.4231C114.739 105.793 129.829 107.528 129.829 107.528C129.829 107.528 129.656 112.821 129.497 119.32C129.432 122.089 129.928 124.842 130.956 127.414C131.984 129.986 133.522 132.323 135.477 134.284C137.432 136.246 139.765 137.791 142.333 138.826C144.902 139.862 147.654 140.367 150.423 140.31C155.773 140.203 160.869 138.009 164.623 134.195C168.377 130.382 170.491 125.252 170.513 119.901L170.826 35.9742C170.777 34.25 170.083 32.6068 168.881 31.3701C167.678 30.1334 166.055 29.3934 164.333 29.2966Z" fill="#D3A890"/>
<path d="M114.777 62.0467C114.802 62.702 115.083 63.3212 115.56 63.771C116.038 64.2208 116.672 64.465 117.328 64.4512C117.648 64.4614 117.967 64.4073 118.265 64.2921C118.564 64.1769 118.836 64.003 119.067 63.7805C119.297 63.5581 119.48 63.2917 119.605 62.9972C119.731 62.7026 119.796 62.3859 119.796 62.0658C119.771 61.4106 119.49 60.7913 119.013 60.3416C118.536 59.8918 117.901 59.6475 117.245 59.6614C116.925 59.6511 116.606 59.7052 116.308 59.8204C116.009 59.9356 115.737 60.1096 115.507 60.332C115.276 60.5545 115.093 60.8209 114.968 61.1154C114.843 61.4099 114.778 61.7266 114.777 62.0467Z" fill="#263238"/>
<path d="M112.353 54.4442C112.685 54.7567 114.509 53.2579 117.207 53.1303C119.905 53.0028 121.946 54.2528 122.22 53.9084C122.354 53.7553 122.009 53.1813 121.117 52.5946C119.911 51.8459 118.503 51.4873 117.086 51.5677C115.687 51.6352 114.347 52.1468 113.259 53.0283C112.449 53.7043 112.194 54.3102 112.353 54.4442Z" fill="#263238"/>
<path d="M130.097 75.5423C130.097 75.3893 128.413 75.1852 125.677 74.9747C124.988 74.9364 124.325 74.8344 124.191 74.3688C124.057 73.9032 124.254 73.0932 124.548 72.3024C125.109 70.6059 125.696 68.8264 126.321 66.9641C128.77 59.3617 130.511 53.1241 130.199 53.0285C129.886 52.9328 127.647 59.0173 125.205 66.6197L123.521 71.9835C123.298 72.7807 122.883 73.6928 123.298 74.7068C123.409 74.9444 123.574 75.1535 123.778 75.3182C123.982 75.4828 124.222 75.5987 124.478 75.6571C124.866 75.7373 125.262 75.7716 125.658 75.7592C128.394 75.7719 130.09 75.689 130.097 75.5423Z" fill="#263238"/>
<path d="M129.835 107.528C139.038 107.205 147.972 104.335 155.64 99.2363C155.64 99.2363 149.351 113.121 129.708 112.273L129.835 107.528Z" fill="#796342"/>
<path d="M131.557 81.9845C132.037 81.3118 132.681 80.7729 133.428 80.419C134.174 80.0652 134.999 79.9081 135.824 79.9628C136.421 79.985 137.008 80.1281 137.548 80.3835C138.089 80.639 138.572 81.0014 138.968 81.4488C139.349 81.8785 139.589 82.4143 139.656 82.9843C139.723 83.5543 139.615 84.1313 139.344 84.6377C138.668 85.6965 137.157 86.009 135.856 85.7092C134.559 85.3238 133.351 84.6843 132.303 83.8278C131.991 83.6241 131.717 83.3672 131.493 83.0688C131.388 82.9238 131.327 82.7509 131.319 82.5717C131.311 82.3924 131.356 82.2148 131.449 82.0611" fill="#796342"/>
<path d="M138.094 77.0098C137.654 77.0098 137.795 79.9308 135.397 82.1121C132.998 84.2933 129.867 84.153 129.861 84.5612C129.861 84.7461 130.588 85.0969 131.901 85.065C133.617 85.0043 135.257 84.3403 136.532 83.1899C137.75 82.0824 138.493 80.5466 138.605 78.904C138.681 77.6922 138.318 76.9651 138.094 77.0098Z" fill="#263238"/>
<path d="M114.024 46.9126C114.528 47.4993 116.352 46.7723 118.585 46.6319C120.817 46.4916 122.73 46.836 123.132 46.1727C123.304 45.8538 122.979 45.2543 122.124 44.7186C120.979 44.0802 119.671 43.7958 118.364 43.9014C117.057 44.007 115.811 44.4978 114.783 45.3117C114.024 45.9814 113.801 46.6256 114.024 46.9126Z" fill="#263238"/>
<path d="M144.976 61.887C144.989 62.539 144.746 63.1701 144.301 63.6464C143.856 64.1227 143.242 64.4067 142.591 64.4382C142.272 64.4669 141.951 64.4319 141.647 64.3351C141.342 64.2383 141.059 64.0817 140.816 63.8744C140.572 63.6671 140.373 63.4134 140.228 63.128C140.084 62.8426 139.998 62.5313 139.976 62.2123C139.964 61.5603 140.206 60.9292 140.651 60.4529C141.096 59.9765 141.71 59.6925 142.361 59.6611C142.68 59.6323 143.001 59.6674 143.305 59.7642C143.61 59.861 143.893 60.0176 144.136 60.2249C144.38 60.4322 144.579 60.6859 144.724 60.9713C144.868 61.2567 144.954 61.568 144.976 61.887Z" fill="#263238"/>
<path d="M149.575 54.1322C149.268 54.4638 147.349 53.0798 144.651 53.1245C141.953 53.1691 139.995 54.5404 139.695 54.2087C139.549 54.0684 139.861 53.4689 140.716 52.8311C141.874 52.0093 143.256 51.5639 144.676 51.5555C146.079 51.5332 147.453 51.9576 148.599 52.7673C149.466 53.3668 149.753 54.0046 149.575 54.1322Z" fill="#263238"/>
<path d="M148.427 45.5731C147.961 46.2109 146.092 45.5731 143.854 45.5731C141.615 45.5731 139.734 46.0387 139.287 45.4009C139.096 45.0948 139.383 44.4761 140.205 43.883C141.309 43.1761 142.597 42.8122 143.907 42.8371C145.217 42.8621 146.49 43.2749 147.566 44.0233C148.363 44.6483 148.631 45.2734 148.427 45.5731Z" fill="#263238"/>
<path d="M142.559 17.2868C148.796 14.7356 158.344 15.6221 163.702 19.6912C169.059 23.7603 172.401 30.1254 173.626 36.7393C174.85 43.3531 173.211 53.1559 171.463 59.6549C161.361 46.6441 150.965 31.637 141.22 18.3582L142.559 17.2868Z" fill="#263238"/>
<path d="M137.756 11.3749C103.526 6.55327 106.766 50.3182 106.766 50.3182C121.691 39.6608 136.659 19.2899 136.659 19.2899L142.055 18.3778L137.756 11.3749Z" fill="#263238"/>
<path d="M166.935 68.9542C166.865 67.5001 168.37 63.9859 169.799 63.6925C173.626 62.9016 180.533 62.8634 181.088 72.6215C181.84 85.9385 168.332 83.9486 168.274 83.5659C168.217 83.1833 167.171 73.9736 166.935 68.9542Z" fill="#D3A890"/>
<path d="M172.057 78.2405C172.114 78.1959 172.299 78.3936 172.694 78.5467C173.258 78.7532 173.88 78.7326 174.429 78.4893C175.807 77.8897 176.859 75.5937 176.789 73.1893C176.759 72.0457 176.474 70.9233 175.953 69.9046C175.488 68.9543 174.825 68.3102 174.11 68.2273C173.84 68.1697 173.559 68.2091 173.315 68.3385C173.071 68.468 172.881 68.6793 172.777 68.9352C172.618 69.3179 172.72 69.573 172.65 69.6049C172.58 69.6368 172.35 69.4008 172.426 68.8459C172.482 68.5104 172.65 68.2041 172.905 67.9785C173.259 67.6791 173.718 67.5323 174.18 67.5704C175.207 67.5704 176.183 68.476 176.732 69.4837C177.363 70.603 177.711 71.8599 177.746 73.1446C177.809 75.8361 176.578 78.4255 174.691 79.0888C174.339 79.2181 173.962 79.2663 173.589 79.2298C173.215 79.1934 172.855 79.0732 172.535 78.8783C172.095 78.5913 172.012 78.2979 172.057 78.2405Z" fill="#796342"/>
<path d="M134.791 18.3773C136.438 18.112 138.127 18.2903 139.682 18.8939C140.748 19.2591 141.788 19.6959 142.795 20.2014L143.611 20.6096C143.86 20.7371 144.249 20.9795 144.568 21.1772C145.209 21.6167 145.816 22.1027 146.386 22.6314C147.525 23.6946 148.591 24.8347 149.575 26.0435L151.061 27.8102C151.303 28.0972 151.552 28.3778 151.794 28.6393L152.617 29.5258C154.862 31.9622 157.407 34.5962 160.104 37.6385C163.113 40.9381 165.782 44.532 168.07 48.3661C169.337 50.5394 170.423 52.8133 171.317 55.1649C172.186 57.5818 172.912 60.048 173.492 62.5504C174.667 67.7166 175.321 72.9878 175.443 78.2847C175.524 81.4402 175.43 84.5978 175.163 87.743C179.956 91.8926 183.859 96.971 186.634 102.671C189.41 108.372 191.001 114.575 191.311 120.908C191.828 124.307 189.895 128.427 187.147 130.959C186.654 131.624 186.111 132.249 185.52 132.828C184.12 134.256 182.465 135.408 180.641 136.228C179.352 136.793 177.976 137.131 176.572 137.229C174.803 137.361 173.031 137.027 171.432 136.259C169.704 135.378 168.217 134.089 167.101 132.503C166.019 130.979 165.16 129.308 164.55 127.541C163.22 123.86 162.548 119.974 162.566 116.061C162.602 111.934 162.973 107.818 163.676 103.751C164.314 99.6186 165.092 95.5368 165.532 91.3912C166.013 87.121 166.201 82.8229 166.093 78.527C165.986 73.8134 165.466 69.1182 164.537 64.4957C164.101 62.343 163.554 60.2142 162.898 58.1178C162.25 56.1786 161.454 54.2917 160.519 52.4734C158.64 48.9822 156.472 45.6541 154.039 42.5239C151.73 39.4243 149.434 36.4905 147.438 33.697L146.692 32.6446C146.424 32.2619 146.182 31.892 145.952 31.5349C145.486 30.8142 145.085 30.1445 144.676 29.5067C143.905 28.2311 143.209 27.1214 142.521 26.203C142.21 25.7844 141.876 25.3841 141.519 25.0039C141.334 24.8317 141.239 24.7105 140.99 24.5065L140.352 23.9643C139.498 23.2564 138.739 22.6888 138.037 22.153C136.994 21.3816 135.861 20.7392 134.663 20.2397C133.828 19.9016 133.266 19.7231 133.203 19.3914C133.139 19.0598 133.63 18.6388 134.791 18.3773Z" fill="#263238"/>
<path d="M220.675 138.339C218.124 134.672 214.871 131.024 210.611 129.328C205.834 127.414 198.002 129.965 193.391 132.28C188.779 134.596 184.149 137.383 179.002 137.434C176.752 137.531 174.541 136.818 172.771 135.425C171.081 133.971 170.156 131.528 170.858 129.417C171.833 126.566 175.131 125.399 177.51 123.549C181.183 120.711 182.842 115.985 183.696 111.431C184.551 106.877 184.8 102.139 186.496 97.8145C191.362 100.876 188.065 109.652 192.421 113.415C194.743 115.424 198.161 115.047 201.235 115.43C205.98 116.023 213.277 119.206 215.834 123.243C218.392 127.28 222.569 133.09 220.643 138.352" fill="#263238"/>
<path d="M166.929 75.7598C166.929 92.9099 162.107 111.623 163.134 122.274C164.161 132.925 164.237 138.786 164.454 149.482C164.65 159.672 162.455 169.765 158.044 178.954C165.373 177.098 173.179 174.961 178.141 169.259C183.703 162.881 184.264 153.71 185.297 145.298C186.33 136.885 191.407 131.834 198.92 130.048L166.929 75.7598Z" fill="#263238"/>
<path d="M266.468 276.714C266.468 276.803 207.154 276.88 134.051 276.88C60.9477 276.88 1.608 276.803 1.608 276.714C1.608 276.624 60.8903 276.548 134.038 276.548C207.186 276.548 266.468 276.593 266.468 276.714Z" fill="#263238"/>
</svg>
