<svg width="328" height="245" viewBox="0 0 328 245" fill="none" xmlns="http://www.w3.org/2000/svg">
<path d="M328 214.774H0V214.938H328V214.774Z" fill="#EBEBEB"/>
<path d="M295.134 225.329H273.408V225.493H295.134V225.329Z" fill="#EBEBEB"/>
<path d="M217.28 227.114H211.58V227.278H217.28V227.114Z" fill="#EBEBEB"/>
<path d="M272.752 219.242H260.163V219.406H272.752V219.242Z" fill="#EBEBEB"/>
<path d="M62.7464 220.344H34.4138V220.508H62.7464V220.344Z" fill="#EBEBEB"/>
<path d="M72.7439 220.344H68.5914V220.508H72.7439V220.344Z" fill="#EBEBEB"/>
<path d="M147.698 223.112H86.2443V223.276H147.698V223.112Z" fill="#EBEBEB"/>
<path d="M155.472 185.517H28.805C27.8127 185.515 26.8616 185.12 26.1606 184.417C25.4595 183.715 25.0658 182.763 25.0658 181.771V3.71296C25.0744 2.72635 25.472 1.78299 26.1721 1.08779C26.8722 0.392589 27.8183 0.00169011 28.805 0H155.472C156.465 0 157.418 0.394642 158.121 1.09711C158.823 1.79957 159.218 2.75232 159.218 3.74576V181.771C159.218 182.764 158.823 183.717 158.121 184.42C157.418 185.122 156.465 185.517 155.472 185.517ZM28.805 0.1312C27.8562 0.132938 26.9468 0.511067 26.2765 1.18259C25.6062 1.85411 25.2298 2.76415 25.2298 3.71296V181.771C25.2298 182.72 25.6062 183.63 26.2765 184.301C26.9468 184.973 27.8562 185.351 28.805 185.353H155.472C156.421 185.351 157.331 184.973 158.003 184.302C158.674 183.63 159.052 182.72 159.054 181.771V3.71296C159.052 2.76355 158.674 1.85352 158.003 1.18219C157.331 0.510854 156.421 0.132935 155.472 0.1312H28.805Z" fill="#EBEBEB"/>
<path d="M297.371 185.517H170.698C169.705 185.515 168.753 185.12 168.051 184.418C167.349 183.716 166.954 182.764 166.952 181.771V3.71296C166.962 2.72575 167.361 1.7824 168.063 1.08738C168.764 0.392359 169.711 0.00167168 170.698 0H297.371C298.357 0.00341415 299.301 0.395075 300 1.09009C300.699 1.78511 301.095 2.72749 301.104 3.71296V181.771C301.104 182.762 300.711 183.713 300.012 184.415C299.312 185.117 298.363 185.513 297.371 185.517ZM170.698 0.1312C169.748 0.132935 168.838 0.510854 168.167 1.18219C167.496 1.85352 167.118 2.76355 167.116 3.71296V181.771C167.118 182.72 167.496 183.63 168.167 184.302C168.838 184.973 169.748 185.351 170.698 185.353H297.371C298.321 185.351 299.231 184.973 299.902 184.302C300.573 183.63 300.951 182.72 300.953 181.771V3.71296C300.951 2.76355 300.573 1.85352 299.902 1.18219C299.231 0.510854 298.321 0.132935 297.371 0.1312H170.698Z" fill="#EBEBEB"/>
<path d="M276.793 43.8142H177.901V131.567H276.793V43.8142Z" fill="#E6E6E6"/>
<path d="M274.188 46.2218H180.374V129.212H274.188V46.2218Z" fill="#F0F0F0"/>
<path d="M202.389 46.2218L180.374 129.029V90.1147L191.998 46.2218H202.389Z" fill="white"/>
<path d="M210.189 46.2218L187.977 129.212H184.434L206.647 46.2218H210.189Z" fill="white"/>
<path d="M274.188 98.5837V111.848L269.695 129.212H266.146L274.188 98.5837Z" fill="white"/>
<path d="M213.095 44.7261H211.514V131.062H213.095V44.7261Z" fill="#E6E6E6"/>
<path d="M243.724 44.7261H242.143V131.062H243.724V44.7261Z" fill="#E6E6E6"/>
<path d="M156.541 74.0099H51.2074V104.96H156.541V74.0099Z" fill="#E6E6E6"/>
<path d="M156.541 74.0099H63.3302V104.96H156.541V74.0099Z" fill="#EBEBEB"/>
<path d="M154.573 102.992V75.9779H65.2983V102.992H154.573Z" fill="#E0E0E0"/>
<path d="M83.2333 75.9779H81.6786V102.992H83.2333V75.9779Z" fill="#EBEBEB"/>
<path d="M109.093 96.1696V94.6149H82.0787V96.1696H109.093Z" fill="#EBEBEB"/>
<path d="M137.045 85.1882V83.6335H110.031V85.1882H137.045Z" fill="#EBEBEB"/>
<path d="M110.805 75.9779H109.25V102.992H110.805V75.9779Z" fill="#EBEBEB"/>
<path d="M139.033 75.9779H137.478V102.992H139.033V75.9779Z" fill="#EBEBEB"/>
<path d="M99.6427 64.4111C105.101 63.1228 108.482 57.6535 107.193 52.1951C105.905 46.7367 100.436 43.3562 94.9774 44.6445C89.519 45.9328 86.1384 51.4021 87.4267 56.8605C88.715 62.3189 94.1843 65.6994 99.6427 64.4111Z" fill="#E0E0E0"/>
<path d="M98.6958 63.0336C103.402 62.2697 106.598 57.8352 105.834 53.1289C105.07 48.4227 100.636 45.2268 95.9293 45.9907C91.2231 46.7547 88.0272 51.1891 88.7911 55.8954C89.5551 60.6016 93.9895 63.7975 98.6958 63.0336Z" fill="#F0F0F0"/>
<path d="M96.9043 60.4373V54.4021L92.9027 56.6653" fill="#F0F0F0"/>
<path d="M96.9043 60.7653C96.8173 60.7653 96.7339 60.7307 96.6724 60.6692C96.6109 60.6077 96.5763 60.5243 96.5763 60.4373V54.9662L93.0667 56.9342C93.0295 56.9562 92.9882 56.9704 92.9453 56.976C92.9024 56.9816 92.8588 56.9784 92.8172 56.9668C92.7755 56.9552 92.7367 56.9352 92.7029 56.9082C92.6691 56.8812 92.6412 56.8477 92.6207 56.8096C92.5987 56.7723 92.5845 56.731 92.5789 56.6881C92.5733 56.6453 92.5764 56.6017 92.5881 56.56C92.5997 56.5184 92.6197 56.4795 92.6467 56.4457C92.6737 56.412 92.7072 56.384 92.7453 56.3635L96.7403 54.1003C96.7902 54.0715 96.8468 54.0564 96.9043 54.0564C96.9619 54.0564 97.0185 54.0715 97.0683 54.1003C97.1171 54.1299 97.1576 54.1712 97.1863 54.2205C97.2149 54.2697 97.2307 54.3254 97.2323 54.3824V60.4176C97.235 60.4623 97.2285 60.5071 97.2132 60.5492C97.198 60.5913 97.1742 60.6298 97.1435 60.6624C97.1128 60.6949 97.0757 60.7209 97.0346 60.7386C96.9934 60.7563 96.9491 60.7654 96.9043 60.7653Z" fill="#E0E0E0"/>
<path d="M164 244.399C234.246 244.399 291.192 241.075 291.192 236.973C291.192 232.872 234.246 229.548 164 229.548C93.7539 229.548 36.8082 232.872 36.8082 236.973C36.8082 241.075 93.7539 244.399 164 244.399Z" fill="#F5F5F5"/>
<path d="M182.985 118.736V116.591H179.219V118.736C179.22 119.34 179.06 119.932 178.757 120.454C178.454 120.976 178.018 121.409 177.494 121.708C176.969 122.006 176.533 122.438 176.23 122.96C175.927 123.483 175.768 124.076 175.769 124.679V144.687C175.768 144.985 175.826 145.279 175.939 145.554C176.053 145.829 176.219 146.079 176.43 146.29C176.64 146.5 176.89 146.667 177.165 146.78C177.44 146.893 177.734 146.951 178.032 146.951H184.172C184.469 146.951 184.764 146.893 185.039 146.78C185.314 146.667 185.564 146.5 185.774 146.29C185.985 146.079 186.151 145.829 186.265 145.554C186.378 145.279 186.436 144.985 186.435 144.687V124.679C186.435 124.076 186.275 123.483 185.972 122.961C185.669 122.44 185.234 122.007 184.71 121.708C184.186 121.409 183.75 120.976 183.447 120.454C183.144 119.932 182.984 119.34 182.985 118.736Z" fill="#B2D1FF"/>
<path opacity="0.7" d="M182.985 118.736V116.591H179.219V118.736C179.22 119.34 179.06 119.932 178.757 120.454C178.454 120.976 178.018 121.409 177.494 121.708C176.969 122.006 176.533 122.438 176.23 122.96C175.927 123.483 175.768 124.076 175.769 124.679V144.687C175.768 144.985 175.826 145.279 175.939 145.554C176.053 145.829 176.219 146.079 176.43 146.29C176.64 146.5 176.89 146.667 177.165 146.78C177.44 146.893 177.734 146.951 178.032 146.951H184.172C184.469 146.951 184.764 146.893 185.039 146.78C185.314 146.667 185.564 146.5 185.774 146.29C185.985 146.079 186.151 145.829 186.265 145.554C186.378 145.279 186.436 144.985 186.435 144.687V124.679C186.435 124.076 186.275 123.483 185.972 122.961C185.669 122.44 185.234 122.007 184.71 121.708C184.186 121.409 183.75 120.976 183.447 120.454C183.144 119.932 182.984 119.34 182.985 118.736Z" fill="white"/>
<path d="M183.129 115.24H179.068V117.778H183.129V115.24Z" fill="#B2D1FF"/>
<path opacity="0.2" d="M186.435 130.728H175.769V133.64H186.435V130.728Z" fill="white"/>
<path opacity="0.2" d="M186.435 134.132H175.769V137.045H186.435V134.132Z" fill="white"/>
<path opacity="0.2" d="M186.435 137.537H175.769V140.45H186.435V137.537Z" fill="white"/>
<path d="M197.417 146.944H191.014L190.24 137.045H198.197L197.417 146.944Z" fill="#B2D1FF"/>
<path opacity="0.7" d="M198.197 137.045L197.974 139.892L197.417 146.944H191.021L190.463 139.892L190.24 137.045H198.197Z" fill="white"/>
<path opacity="0.2" d="M197.974 139.892L197.417 146.944H191.021L190.463 139.892H197.974Z" fill="white"/>
<path d="M198.794 137.537H189.643L190.299 136.31H198.138L198.794 137.537Z" fill="#B2D1FF"/>
<path d="M224.49 139.892H203.104C202.699 139.894 202.312 140.055 202.025 140.342C201.739 140.628 201.577 141.016 201.576 141.42V237.472H205.512V230.65H222.135V237.472H226.071V141.42C226.07 141.216 226.028 141.013 225.948 140.824C225.867 140.636 225.75 140.465 225.603 140.323C225.455 140.18 225.281 140.069 225.09 139.995C224.899 139.921 224.695 139.886 224.49 139.892Z" fill="#263238"/>
<path opacity="0.7" d="M224.49 139.892H203.104C202.699 139.894 202.312 140.055 202.025 140.342C201.739 140.628 201.577 141.016 201.576 141.42V237.472H205.512V230.65H222.135V237.472H226.071V141.42C226.07 141.216 226.028 141.013 225.948 140.824C225.867 140.636 225.75 140.465 225.603 140.323C225.455 140.18 225.281 140.069 225.09 139.995C224.899 139.921 224.695 139.886 224.49 139.892Z" fill="white"/>
<path opacity="0.4" d="M223.178 139.892H203.104C202.699 139.894 202.312 140.055 202.025 140.342C201.739 140.628 201.577 141.016 201.576 141.42V237.472H204.2V230.65H222.135V237.472H224.759V141.42C224.758 141.216 224.716 141.013 224.636 140.824C224.555 140.636 224.438 140.465 224.291 140.323C224.143 140.18 223.969 140.069 223.778 139.995C223.587 139.921 223.383 139.886 223.178 139.892Z" fill="white"/>
<path d="M222.377 146.944H162.891V230.479H222.377V146.944Z" fill="#263238"/>
<path opacity="0.75" d="M222.377 146.944H162.891V230.479H222.377V146.944Z" fill="white"/>
<path d="M183.792 139.892H162.412C162.006 139.892 161.617 140.053 161.329 140.339C161.042 140.626 160.879 141.015 160.877 141.42V237.472H164.813V230.65H181.436V237.472H185.372V141.42C185.373 141.215 185.331 141.012 185.251 140.823C185.171 140.634 185.054 140.463 184.906 140.321C184.759 140.178 184.584 140.067 184.393 139.993C184.201 139.919 183.997 139.885 183.792 139.892Z" fill="#263238"/>
<path opacity="0.7" d="M183.792 139.892H162.412C162.006 139.892 161.617 140.053 161.329 140.339C161.042 140.626 160.879 141.015 160.877 141.42V237.472H164.813V230.65H181.436V237.472H185.372V141.42C185.373 141.215 185.331 141.012 185.251 140.823C185.171 140.634 185.054 140.463 184.906 140.321C184.759 140.178 184.584 140.067 184.393 139.993C184.201 139.919 183.997 139.885 183.792 139.892Z" fill="white"/>
<path opacity="0.4" d="M182.48 139.892H162.412C162.006 139.892 161.617 140.053 161.329 140.339C161.042 140.626 160.879 141.015 160.877 141.42V237.472H163.501V230.65H181.436V237.472H184.06V141.42C184.06 141.216 184.018 141.013 183.937 140.824C183.857 140.636 183.74 140.465 183.592 140.323C183.445 140.18 183.271 140.069 183.08 139.995C182.888 139.921 182.684 139.886 182.48 139.892Z" fill="white"/>
<path opacity="0.2" d="M219.609 149.417H186.291V159.592H219.609V149.417Z" fill="white"/>
<path opacity="0.2" d="M219.609 161.875H186.291V227.58H219.609V161.875Z" fill="white"/>
<path d="M171.708 206.738C171.209 206.588 170.908 206.332 170.908 206.082V189.682C170.907 189.619 170.921 189.556 170.947 189.499C171 189.391 171.079 189.299 171.177 189.23C171.341 189.118 171.523 189.034 171.715 188.98C171.943 188.913 172.179 188.871 172.416 188.856H254.823C255.065 188.875 255.304 188.917 255.538 188.98C255.725 189.037 255.901 189.121 256.063 189.23C256.159 189.301 256.237 189.393 256.293 189.499C256.32 189.556 256.331 189.619 256.325 189.682V206.082C256.325 206.358 256.03 206.614 255.532 206.738C254.987 206.889 254.414 206.911 253.859 206.804L213.62 198.722L173.381 206.804C173.147 206.849 172.91 206.871 172.672 206.87C172.346 206.871 172.022 206.827 171.708 206.738ZM174.437 190.857V204.81L209.205 197.836L174.437 190.857ZM218.041 197.836L252.809 204.81V190.857L218.041 197.836ZM181.154 190.43L213.62 196.951L246.079 190.43H181.154Z" fill="#263238"/>
<g opacity="0.3">
<path d="M171.708 206.738C171.209 206.588 170.908 206.332 170.908 206.082V189.682C170.907 189.619 170.921 189.556 170.947 189.499C171 189.391 171.079 189.299 171.177 189.23C171.341 189.118 171.523 189.034 171.715 188.98C171.943 188.913 172.179 188.871 172.416 188.856H254.823C255.065 188.875 255.304 188.917 255.538 188.98C255.725 189.037 255.901 189.121 256.063 189.23C256.159 189.301 256.237 189.393 256.293 189.499C256.32 189.556 256.331 189.619 256.325 189.682V206.082C256.325 206.358 256.03 206.614 255.532 206.738C254.987 206.889 254.414 206.911 253.859 206.804L213.62 198.722L173.381 206.804C173.147 206.849 172.91 206.871 172.672 206.87C172.346 206.871 172.022 206.827 171.708 206.738ZM174.437 190.857V204.81L209.205 197.836L174.437 190.857ZM218.041 197.836L252.809 204.81V190.857L218.041 197.836ZM181.154 190.43L213.62 196.951L246.079 190.43H181.154Z" fill="white"/>
</g>
<path d="M160.917 187.865H280.25C280.482 187.864 280.712 187.909 280.926 187.998C281.141 188.086 281.335 188.216 281.499 188.38C281.664 188.544 281.793 188.739 281.882 188.954C281.97 189.168 282.015 189.398 282.014 189.63C282.014 190.098 281.828 190.547 281.498 190.878C281.167 191.209 280.718 191.395 280.25 191.395H160.917C160.449 191.395 160 191.209 159.669 190.878C159.338 190.547 159.152 190.098 159.152 189.63C159.151 189.398 159.196 189.168 159.285 188.954C159.373 188.739 159.503 188.544 159.667 188.38C159.831 188.216 160.026 188.086 160.24 187.998C160.455 187.909 160.685 187.864 160.917 187.865Z" fill="#263238"/>
<g opacity="0.3">
<path d="M160.917 187.865H280.25C280.482 187.864 280.712 187.909 280.926 187.998C281.141 188.086 281.335 188.216 281.499 188.38C281.664 188.544 281.793 188.739 281.882 188.954C281.97 189.168 282.015 189.398 282.014 189.63C282.014 190.098 281.828 190.547 281.498 190.878C281.167 191.209 280.718 191.395 280.25 191.395H160.917C160.449 191.395 160 191.209 159.669 190.878C159.338 190.547 159.152 190.098 159.152 189.63C159.151 189.398 159.196 189.168 159.285 188.954C159.373 188.739 159.503 188.544 159.667 188.38C159.831 188.216 160.026 188.086 160.24 187.998C160.455 187.909 160.685 187.864 160.917 187.865Z" fill="white"/>
</g>
<path d="M272.063 219.872C272.547 219.872 273.011 219.682 273.357 219.344C273.703 219.005 273.903 218.545 273.913 218.061L274.234 205.151C274.24 204.904 274.197 204.657 274.106 204.427C274.016 204.197 273.88 203.987 273.707 203.811C273.534 203.634 273.327 203.494 273.099 203.398C272.87 203.303 272.625 203.254 272.378 203.255H172.666C172.345 203.255 172.03 203.338 171.752 203.497C171.474 203.656 171.241 203.884 171.078 204.16L163.934 216.145C163.683 216.567 163.61 217.072 163.73 217.548C163.851 218.024 164.155 218.433 164.577 218.684C164.999 218.936 165.504 219.009 165.98 218.888C166.456 218.768 166.865 218.463 167.116 218.041L173.722 206.955H270.482L270.213 217.969C270.201 218.46 270.384 218.937 270.722 219.293C271.06 219.65 271.526 219.858 272.017 219.872H272.063Z" fill="#263238"/>
<g opacity="0.3">
<path d="M272.063 219.872C272.547 219.872 273.011 219.682 273.357 219.344C273.703 219.005 273.903 218.545 273.913 218.061L274.234 205.151C274.24 204.904 274.197 204.657 274.106 204.427C274.016 204.197 273.88 203.987 273.707 203.811C273.534 203.634 273.327 203.494 273.099 203.398C272.87 203.303 272.625 203.254 272.378 203.255H172.666C172.345 203.255 172.03 203.338 171.752 203.497C171.474 203.656 171.241 203.884 171.078 204.16L163.934 216.145C163.683 216.567 163.61 217.072 163.73 217.548C163.851 218.024 164.155 218.433 164.577 218.684C164.999 218.936 165.504 219.009 165.98 218.888C166.456 218.768 166.865 218.463 167.116 218.041L173.722 206.955H270.482L270.213 217.969C270.201 218.46 270.384 218.937 270.722 219.293C271.06 219.65 271.526 219.858 272.017 219.872H272.063Z" fill="white"/>
</g>
<path d="M71.504 124.837V192.582C71.504 194.491 72.593 196.039 73.9246 196.039H151.72C153.032 196.039 154.14 194.491 154.14 192.582V124.837C154.14 122.934 153.051 121.386 151.72 121.386H73.8984C72.5667 121.36 71.504 122.934 71.504 124.837ZM137.688 129.002C137.688 127.244 138.678 125.821 139.912 125.821H147.784C148.102 125.837 148.411 125.93 148.686 126.093C148.96 126.255 149.191 126.481 149.358 126.752C149.8 127.418 150.029 128.203 150.014 129.002C150.014 130.76 149.017 132.177 147.784 132.177H139.912C139.593 132.161 139.284 132.068 139.01 131.906C138.735 131.743 138.505 131.517 138.337 131.246C137.89 130.584 137.654 129.802 137.662 129.002H137.688ZM75.6368 129.002C75.6368 127.244 76.6339 125.821 77.8606 125.821H85.7326C86.0509 125.837 86.3604 125.93 86.6347 126.093C86.9089 126.255 87.1396 126.481 87.307 126.752C87.7465 127.42 87.9751 128.204 87.963 129.002C87.963 130.76 86.9659 132.177 85.7392 132.177H77.8672C77.549 132.161 77.2394 132.068 76.9652 131.906C76.6909 131.743 76.4602 131.517 76.2928 131.246C75.8427 130.585 75.6047 129.802 75.6106 129.002H75.6368Z" fill="#B2D1FF"/>
<path opacity="0.6" d="M71.504 124.837V192.582C71.504 194.491 72.593 196.039 73.9246 196.039H151.72C153.032 196.039 154.14 194.491 154.14 192.582V124.837C154.14 122.934 153.051 121.386 151.72 121.386H73.8984C72.5667 121.36 71.504 122.934 71.504 124.837ZM137.688 129.002C137.688 127.244 138.678 125.821 139.912 125.821H147.784C148.102 125.837 148.411 125.93 148.686 126.093C148.96 126.255 149.191 126.481 149.358 126.752C149.8 127.418 150.029 128.203 150.014 129.002C150.014 130.76 149.017 132.177 147.784 132.177H139.912C139.593 132.161 139.284 132.068 139.01 131.906C138.735 131.743 138.505 131.517 138.337 131.246C137.89 130.584 137.654 129.802 137.662 129.002H137.688ZM75.6368 129.002C75.6368 127.244 76.6339 125.821 77.8606 125.821H85.7326C86.0509 125.837 86.3604 125.93 86.6347 126.093C86.9089 126.255 87.1396 126.481 87.307 126.752C87.7465 127.42 87.9751 128.204 87.963 129.002C87.963 130.76 86.9659 132.177 85.7392 132.177H77.8672C77.549 132.161 77.2394 132.068 76.9652 131.906C76.6909 131.743 76.4602 131.517 76.2928 131.246C75.8427 130.585 75.6047 129.802 75.6106 129.002H75.6368Z" fill="white"/>
<path d="M72.7766 124.837V192.582C72.7766 194.491 73.8656 196.039 75.1973 196.039H153.019C154.331 196.039 155.439 194.491 155.439 192.582V124.837C155.439 122.934 154.35 121.386 153.019 121.386H75.1973C73.8656 121.36 72.7766 122.934 72.7766 124.837ZM138.96 129.002C138.96 127.244 139.958 125.821 141.191 125.821H149.063C149.381 125.837 149.691 125.93 149.965 126.093C150.239 126.255 150.47 126.481 150.637 126.752C151.079 127.418 151.308 128.203 151.293 129.002C151.293 130.76 150.296 132.177 149.063 132.177H141.191C140.872 132.162 140.561 132.07 140.285 131.907C140.01 131.745 139.778 131.518 139.61 131.246C139.171 130.581 138.945 129.799 138.96 129.002ZM76.9094 129.002C76.9094 127.244 77.9066 125.821 79.1333 125.821H87.0053C87.3235 125.837 87.6331 125.93 87.9073 126.093C88.1815 126.255 88.4123 126.481 88.5797 126.752C89.0191 127.42 89.2477 128.204 89.2357 129.002C89.2357 130.76 88.2386 132.177 87.0118 132.177H79.1398C78.8216 132.161 78.5121 132.068 78.2378 131.906C77.9636 131.743 77.7328 131.517 77.5654 131.246C77.1246 130.582 76.8959 129.799 76.9094 129.002Z" fill="#B2D1FF"/>
<path opacity="0.7" d="M72.7766 124.837V192.582C72.7766 194.491 73.8656 196.039 75.1973 196.039H153.019C154.331 196.039 155.439 194.491 155.439 192.582V124.837C155.439 122.934 154.35 121.386 153.019 121.386H75.1973C73.8656 121.36 72.7766 122.934 72.7766 124.837ZM138.96 129.002C138.96 127.244 139.958 125.821 141.191 125.821H149.063C149.381 125.837 149.691 125.93 149.965 126.093C150.239 126.255 150.47 126.481 150.637 126.752C151.079 127.418 151.308 128.203 151.293 129.002C151.293 130.76 150.296 132.177 149.063 132.177H141.191C140.872 132.162 140.561 132.07 140.285 131.907C140.01 131.745 139.778 131.518 139.61 131.246C139.171 130.581 138.945 129.799 138.96 129.002ZM76.9094 129.002C76.9094 127.244 77.9066 125.821 79.1333 125.821H87.0053C87.3235 125.837 87.6331 125.93 87.9073 126.093C88.1815 126.255 88.4123 126.481 88.5797 126.752C89.0191 127.42 89.2477 128.204 89.2357 129.002C89.2357 130.76 88.2386 132.177 87.0118 132.177H79.1398C78.8216 132.161 78.5121 132.068 78.2378 131.906C77.9636 131.743 77.7328 131.517 77.5654 131.246C77.1246 130.582 76.8959 129.799 76.9094 129.002Z" fill="white"/>
<path opacity="0.1" d="M78.8446 184.559H149.371C150.44 184.559 151.306 183.693 151.306 182.624V164.853C151.306 163.784 150.44 162.918 149.371 162.918H78.8446C77.7759 162.918 76.9094 163.784 76.9094 164.853V182.624C76.9094 183.693 77.7759 184.559 78.8446 184.559Z" fill="black"/>
<path d="M155.439 188.416H72.7766V189.453H155.439V188.416Z" fill="#B2D1FF"/>
<path d="M92.9355 206.738C92.4435 206.588 92.1418 206.332 92.1418 206.082V189.682C92.1256 189.622 92.1256 189.559 92.1418 189.499C92.1969 189.393 92.2754 189.301 92.3713 189.23C92.5376 189.121 92.7188 189.037 92.9093 188.98C93.1378 188.913 93.3733 188.871 93.6112 188.856H176.051C176.293 188.874 176.532 188.915 176.766 188.98C176.953 189.036 177.13 189.12 177.291 189.23C177.39 189.297 177.47 189.39 177.52 189.499C177.546 189.556 177.56 189.619 177.56 189.682V206.082C177.56 206.358 177.258 206.614 176.759 206.738C176.216 206.889 175.646 206.911 175.093 206.804L134.847 198.722L94.6083 206.804C94.053 206.91 93.4808 206.887 92.9355 206.738ZM95.671 190.857V204.81L130.439 197.836L95.671 190.857ZM139.275 197.836L174.043 204.81V190.857L139.275 197.836ZM102.388 190.43L134.847 196.951L167.313 190.43H102.388Z" fill="#263238"/>
<g opacity="0.5">
<path d="M92.9355 206.738C92.4435 206.588 92.1418 206.332 92.1418 206.082V189.682C92.1256 189.622 92.1256 189.559 92.1418 189.499C92.1969 189.393 92.2754 189.301 92.3713 189.23C92.5376 189.121 92.7188 189.037 92.9093 188.98C93.1378 188.913 93.3733 188.871 93.6112 188.856H176.051C176.293 188.874 176.532 188.915 176.766 188.98C176.953 189.036 177.13 189.12 177.291 189.23C177.39 189.297 177.47 189.39 177.52 189.499C177.546 189.556 177.56 189.619 177.56 189.682V206.082C177.56 206.358 177.258 206.614 176.759 206.738C176.216 206.889 175.646 206.911 175.093 206.804L134.847 198.722L94.6083 206.804C94.053 206.91 93.4808 206.887 92.9355 206.738ZM95.671 190.857V204.81L130.439 197.836L95.671 190.857ZM139.275 197.836L174.043 204.81V190.857L139.275 197.836ZM102.388 190.43L134.847 196.951L167.313 190.43H102.388Z" fill="white"/>
</g>
<path d="M82.1443 187.865H201.484C201.952 187.865 202.401 188.051 202.732 188.382C203.063 188.713 203.248 189.162 203.248 189.63C203.247 190.097 203.06 190.545 202.73 190.876C202.399 191.206 201.951 191.393 201.484 191.395H82.1443C81.6768 191.393 81.229 191.206 80.8984 190.876C80.5679 190.545 80.3814 190.097 80.3797 189.63C80.3797 189.162 80.5656 188.713 80.8965 188.382C81.2275 188.051 81.6763 187.865 82.1443 187.865Z" fill="#263238"/>
<g opacity="0.6">
<path d="M82.1443 187.865H201.484C201.952 187.865 202.401 188.051 202.732 188.382C203.063 188.713 203.248 189.162 203.248 189.63C203.247 190.097 203.06 190.545 202.73 190.876C202.399 191.206 201.951 191.393 201.484 191.395H82.1443C81.6768 191.393 81.229 191.206 80.8984 190.876C80.5679 190.545 80.3814 190.097 80.3797 189.63C80.3797 189.162 80.5656 188.713 80.8965 188.382C81.2275 188.051 81.6763 187.865 82.1443 187.865Z" fill="white"/>
</g>
<path d="M193.297 219.872C193.78 219.87 194.244 219.68 194.59 219.342C194.935 219.004 195.135 218.544 195.147 218.061L195.462 205.151C195.468 204.904 195.425 204.659 195.334 204.429C195.244 204.199 195.109 203.99 194.936 203.813C194.764 203.636 194.558 203.496 194.331 203.4C194.103 203.304 193.859 203.255 193.612 203.255H93.8998C93.5784 203.254 93.2623 203.338 92.9828 203.496C92.7033 203.655 92.4699 203.884 92.3058 204.16L85.1685 216.145C84.9171 216.567 84.8436 217.072 84.9641 217.548C85.0847 218.024 85.3895 218.433 85.8114 218.684C86.2333 218.936 86.7378 219.009 87.2139 218.889C87.69 218.768 88.0987 218.463 88.3501 218.041L94.9494 206.955H191.709L191.434 217.969C191.422 218.46 191.605 218.937 191.943 219.293C192.281 219.65 192.747 219.858 193.238 219.872H193.297Z" fill="#263238"/>
<g opacity="0.6">
<path d="M193.297 219.872C193.78 219.87 194.244 219.68 194.59 219.342C194.935 219.004 195.135 218.544 195.147 218.061L195.462 205.151C195.468 204.904 195.425 204.659 195.334 204.429C195.244 204.199 195.109 203.99 194.936 203.813C194.764 203.636 194.558 203.496 194.331 203.4C194.103 203.304 193.859 203.255 193.612 203.255H93.8998C93.5784 203.254 93.2623 203.338 92.9828 203.496C92.7033 203.655 92.4699 203.884 92.3058 204.16L85.1685 216.145C84.9171 216.567 84.8436 217.072 84.9641 217.548C85.0847 218.024 85.3895 218.433 85.8114 218.684C86.2333 218.936 86.7378 219.009 87.2139 218.889C87.69 218.768 88.0987 218.463 88.3501 218.041L94.9494 206.955H191.709L191.434 217.969C191.422 218.46 191.605 218.937 191.943 219.293C192.281 219.65 192.747 219.858 193.238 219.872H193.297Z" fill="white"/>
</g>
<path d="M84.0402 177.546L214.466 177.546C215.136 177.546 215.68 177.003 215.68 176.333V165.732C215.68 165.062 215.136 164.518 214.466 164.518L84.0402 164.518C83.3699 164.518 82.8266 165.062 82.8266 165.732V176.333C82.8266 177.003 83.3699 177.546 84.0402 177.546Z" fill="#263238"/>
<path opacity="0.2" d="M84.0402 177.546L214.466 177.546C215.136 177.546 215.68 177.003 215.68 176.333V165.732C215.68 165.062 215.136 164.518 214.466 164.518L84.0402 164.518C83.3699 164.518 82.8266 165.062 82.8266 165.732V176.333C82.8266 177.003 83.3699 177.546 84.0402 177.546Z" fill="white"/>
<path d="M126.903 178.104L276.655 178.104C277.43 178.104 278.059 177.475 278.059 176.7V165.299C278.059 164.524 277.43 163.895 276.655 163.895L126.903 163.895C126.128 163.895 125.499 164.524 125.499 165.299V176.7C125.499 177.475 126.128 178.104 126.903 178.104Z" fill="#B2D1FF"/>
<path opacity="0.2" d="M126.903 178.104L276.655 178.104C277.43 178.104 278.059 177.475 278.059 176.7V165.299C278.059 164.524 277.43 163.895 276.655 163.895L126.903 163.895C126.128 163.895 125.499 164.524 125.499 165.299V176.7C125.499 177.475 126.128 178.104 126.903 178.104Z" fill="white"/>
<path d="M173.25 229.534L170.416 232.368H168.579L167.779 227.816L173.25 229.534Z" fill="#B2D1FF"/>
<path d="M165.515 226.208H167.66C170.153 226.208 172.174 228.734 172.174 231.844C172.174 234.953 170.153 237.479 167.66 237.479H165.515C163.023 237.479 161.002 234.953 161.002 231.844C161.002 228.734 163.023 226.208 165.515 226.208Z" fill="#263238"/>
<path opacity="0.3" d="M165.515 237.479C168.008 237.479 170.029 234.956 170.029 231.844C170.029 228.731 168.008 226.208 165.515 226.208C163.023 226.208 161.002 228.731 161.002 231.844C161.002 234.956 163.023 237.479 165.515 237.479Z" fill="white"/>
<path opacity="0.3" d="M165.515 235.871C167.117 235.871 168.415 234.068 168.415 231.844C168.415 229.619 167.117 227.816 165.515 227.816C163.914 227.816 162.616 229.619 162.616 231.844C162.616 234.068 163.914 235.871 165.515 235.871Z" fill="white"/>
<path d="M164.689 231.312V226.766C164.688 226.333 164.773 225.905 164.938 225.505C165.104 225.106 165.347 224.743 165.653 224.437L168.277 221.813H173.223V229.561H168.946L166.44 232.067C166.337 232.168 166.213 232.247 166.078 232.299C165.943 232.351 165.798 232.374 165.653 232.368C165.388 232.348 165.141 232.228 164.961 232.032C164.782 231.835 164.685 231.578 164.689 231.312Z" fill="#B2D1FF"/>
<path opacity="0.3" d="M164.689 226.773V231.312C164.689 231.578 164.791 231.833 164.974 232.025C165.157 232.217 165.408 232.33 165.673 232.342C165.818 232.351 165.964 232.329 166.099 232.277C166.235 232.225 166.358 232.144 166.46 232.04L168.966 229.534H173.243V221.794H168.297L165.673 224.418C165.36 224.724 165.111 225.091 164.942 225.495C164.773 225.9 164.687 226.334 164.689 226.773Z" fill="white"/>
<path opacity="0.2" d="M164.689 226.773V231.312C164.689 231.578 164.791 231.833 164.974 232.025C165.157 232.217 165.408 232.33 165.673 232.342C165.818 232.351 165.964 232.329 166.099 232.277C166.235 232.225 166.358 232.144 166.46 232.04L168.966 229.534V221.794H168.31L165.686 224.418C165.371 224.723 165.12 225.089 164.948 225.494C164.777 225.898 164.689 226.333 164.689 226.773Z" fill="white"/>
<path d="M163.882 222.358H173.289C173.698 222.358 174.03 222.026 174.03 221.617V214.427C174.03 214.017 173.698 213.685 173.289 213.685H163.882C163.473 213.685 163.141 214.017 163.141 214.427V221.617C163.141 222.026 163.473 222.358 163.882 222.358Z" fill="#B2D1FF"/>
<path opacity="0.2" d="M163.141 214.42V221.636C163.14 221.734 163.158 221.831 163.195 221.922C163.232 222.013 163.287 222.095 163.355 222.165C163.424 222.234 163.506 222.289 163.597 222.327C163.687 222.365 163.784 222.384 163.882 222.384H173.282C173.48 222.382 173.668 222.303 173.807 222.163C173.946 222.023 174.024 221.833 174.024 221.636V214.42C174.022 214.224 173.943 214.037 173.805 213.898C173.666 213.759 173.478 213.681 173.282 213.679H163.882C163.685 213.679 163.497 213.757 163.358 213.896C163.219 214.035 163.141 214.224 163.141 214.42Z" fill="white"/>
<path opacity="0.2" d="M163.141 214.42V221.636C163.14 221.734 163.158 221.831 163.195 221.922C163.232 222.013 163.287 222.095 163.355 222.165C163.424 222.234 163.506 222.289 163.597 222.327C163.687 222.365 163.784 222.384 163.882 222.384H168.959C169.157 222.382 169.345 222.303 169.484 222.163C169.623 222.023 169.701 221.833 169.701 221.636V214.42C169.699 214.224 169.62 214.037 169.482 213.898C169.343 213.759 169.155 213.681 168.959 213.679H163.882C163.685 213.679 163.497 213.757 163.358 213.896C163.219 214.035 163.141 214.224 163.141 214.42Z" fill="white"/>
<path d="M273.604 221.374H170.914C170.808 221.374 170.706 221.332 170.631 221.257C170.556 221.182 170.514 221.08 170.514 220.974V214.82C170.514 214.714 170.556 214.612 170.631 214.537C170.706 214.462 170.808 214.42 170.914 214.42H273.604V221.374Z" fill="#B2D1FF"/>
<path opacity="0.3" d="M273.604 221.374H170.914C170.808 221.374 170.706 221.332 170.631 221.257C170.556 221.182 170.514 221.08 170.514 220.974V214.82C170.514 214.714 170.556 214.612 170.631 214.537C170.706 214.462 170.808 214.42 170.914 214.42H273.604V221.374Z" fill="white"/>
<path d="M278.269 229.534L275.441 232.368H273.604L272.804 227.816L278.269 229.534Z" fill="#B2D1FF"/>
<path d="M270.541 226.208H272.686C275.179 226.208 277.199 228.734 277.199 231.844C277.199 234.953 275.179 237.479 272.686 237.479H270.541C268.048 237.479 266.028 234.953 266.028 231.844C266.028 228.734 268.048 226.208 270.541 226.208Z" fill="#263238"/>
<path opacity="0.3" d="M270.541 237.479C273.034 237.479 275.054 234.956 275.054 231.844C275.054 228.731 273.034 226.208 270.541 226.208C268.048 226.208 266.028 228.731 266.028 231.844C266.028 234.956 268.048 237.479 270.541 237.479Z" fill="white"/>
<path opacity="0.3" d="M270.541 235.871C272.142 235.871 273.44 234.068 273.44 231.844C273.44 229.619 272.142 227.816 270.541 227.816C268.94 227.816 267.641 229.619 267.641 231.844C267.641 234.068 268.94 235.871 270.541 235.871Z" fill="white"/>
<path d="M269.714 231.312V226.766C269.714 226.333 269.8 225.904 269.967 225.505C270.134 225.105 270.378 224.742 270.685 224.437L273.309 221.813H278.262V229.561H273.978L271.472 232.067C271.369 232.168 271.245 232.247 271.11 232.299C270.975 232.351 270.83 232.374 270.685 232.368C270.419 232.35 270.17 232.23 269.989 232.034C269.809 231.837 269.71 231.579 269.714 231.312Z" fill="#B2D1FF"/>
<path opacity="0.3" d="M269.714 226.773V231.312C269.714 231.578 269.816 231.833 270 232.025C270.183 232.217 270.433 232.33 270.698 232.342C270.844 232.351 270.989 232.329 271.125 232.277C271.261 232.225 271.384 232.144 271.486 232.04L273.992 229.534H278.275V221.794H273.322L270.698 224.418C270.385 224.724 270.137 225.091 269.968 225.495C269.799 225.9 269.713 226.334 269.714 226.773Z" fill="white"/>
<path opacity="0.2" d="M269.714 226.773V231.312C269.714 231.578 269.816 231.833 270 232.025C270.183 232.217 270.433 232.33 270.698 232.342C270.844 232.351 270.989 232.329 271.125 232.277C271.261 232.225 271.384 232.144 271.486 232.04L273.991 229.534V221.794H273.335L270.711 224.418C270.396 224.723 270.145 225.089 269.974 225.494C269.803 225.898 269.714 226.333 269.714 226.773Z" fill="white"/>
<path d="M268.908 222.358H278.315C278.724 222.358 279.056 222.026 279.056 221.617V214.427C279.056 214.017 278.724 213.685 278.315 213.685H268.908C268.498 213.685 268.166 214.017 268.166 214.427V221.617C268.166 222.026 268.498 222.358 268.908 222.358Z" fill="#B2D1FF"/>
<path opacity="0.2" d="M268.166 214.42V221.636C268.165 221.734 268.184 221.831 268.221 221.922C268.258 222.013 268.312 222.095 268.381 222.165C268.45 222.234 268.532 222.289 268.622 222.327C268.713 222.365 268.81 222.384 268.908 222.384H278.308C278.505 222.382 278.694 222.303 278.833 222.163C278.971 222.023 279.049 221.833 279.049 221.636V214.42C279.048 214.224 278.969 214.037 278.83 213.898C278.692 213.759 278.504 213.681 278.308 213.679H268.908C268.711 213.679 268.522 213.757 268.383 213.896C268.244 214.035 268.166 214.224 268.166 214.42Z" fill="white"/>
<path opacity="0.2" d="M268.166 214.42V221.636C268.165 221.734 268.184 221.831 268.221 221.922C268.258 222.013 268.312 222.095 268.381 222.165C268.45 222.234 268.532 222.289 268.622 222.327C268.713 222.365 268.81 222.384 268.908 222.384H273.985C274.182 222.382 274.371 222.303 274.51 222.163C274.648 222.023 274.726 221.833 274.726 221.636V214.42C274.725 214.224 274.646 214.037 274.507 213.898C274.369 213.759 274.181 213.681 273.985 213.679H268.908C268.711 213.679 268.522 213.757 268.383 213.896C268.244 214.035 268.166 214.224 268.166 214.42Z" fill="white"/>
<path d="M82.3477 186.593L230.387 186.593C231.3 186.593 232.04 185.853 232.04 184.94V177.002C232.04 176.089 231.3 175.349 230.387 175.349L82.3477 175.349C81.4347 175.349 80.6946 176.089 80.6946 177.002V184.94C80.6946 185.853 81.4347 186.593 82.3477 186.593Z" fill="#B2D1FF"/>
<path opacity="0.5" d="M82.3477 186.593L230.387 186.593C231.3 186.593 232.04 185.853 232.04 184.94V177.002C232.04 176.089 231.3 175.349 230.387 175.349L82.3477 175.349C81.4347 175.349 80.6946 176.089 80.6946 177.002V184.94C80.6946 185.853 81.4347 186.593 82.3477 186.593Z" fill="white"/>
<g opacity="0.7">
<path d="M123.072 184.06H149.069C149.487 184.08 149.904 184.014 150.295 183.868C150.686 183.721 151.044 183.497 151.346 183.209C151.648 182.92 151.888 182.573 152.053 182.189C152.217 181.805 152.302 181.392 152.302 180.974C152.302 180.556 152.217 180.143 152.053 179.759C151.888 179.375 151.648 179.028 151.346 178.739C151.044 178.451 150.686 178.227 150.295 178.08C149.904 177.934 149.487 177.868 149.069 177.888H123.072C122.655 177.868 122.238 177.934 121.847 178.08C121.456 178.227 121.098 178.451 120.796 178.739C120.494 179.028 120.253 179.375 120.089 179.759C119.925 180.143 119.84 180.556 119.84 180.974C119.84 181.392 119.925 181.805 120.089 182.189C120.253 182.573 120.494 182.92 120.796 183.209C121.098 183.497 121.456 183.721 121.847 183.868C122.238 184.014 122.655 184.08 123.072 184.06Z" fill="white"/>
</g>
<g opacity="0.7">
<path d="M157.204 184.06H199.614C200.032 184.08 200.448 184.014 200.84 183.868C201.231 183.721 201.588 183.497 201.89 183.209C202.193 182.92 202.433 182.573 202.597 182.189C202.762 181.805 202.846 181.392 202.846 180.974C202.846 180.556 202.762 180.143 202.597 179.759C202.433 179.375 202.193 179.028 201.89 178.739C201.588 178.451 201.231 178.227 200.84 178.08C200.448 177.934 200.032 177.868 199.614 177.888H157.204C156.41 177.924 155.661 178.265 155.112 178.84C154.563 179.415 154.256 180.179 154.256 180.974C154.256 181.769 154.563 182.533 155.112 183.108C155.661 183.683 156.41 184.024 157.204 184.06Z" fill="white"/>
</g>
<g opacity="0.7">
<path d="M85.6539 184.06H115.594C116.011 184.08 116.428 184.014 116.819 183.868C117.21 183.721 117.568 183.497 117.87 183.209C118.172 182.92 118.413 182.573 118.577 182.189C118.741 181.805 118.826 181.392 118.826 180.974C118.826 180.556 118.741 180.143 118.577 179.759C118.413 179.375 118.172 179.028 117.87 178.739C117.568 178.451 117.21 178.227 116.819 178.08C116.428 177.934 116.011 177.868 115.594 177.888H85.6539C84.8599 177.924 84.1106 178.265 83.5617 178.84C83.0128 179.415 82.7065 180.179 82.7065 180.974C82.7065 181.769 83.0128 182.533 83.5617 183.108C84.1106 183.683 84.8599 184.024 85.6539 184.06Z" fill="white"/>
</g>
<path d="M204.075 144.53V192.582C204.075 194.491 205.157 196.039 206.496 196.039H284.31C285.622 196.039 286.738 194.491 286.738 192.582V144.53C286.738 142.628 285.649 141.079 284.31 141.079H206.496C205.157 141.079 204.075 142.628 204.075 144.53ZM270.272 148.696C270.272 146.937 271.269 145.514 272.502 145.514H280.374C280.693 145.53 281.002 145.623 281.276 145.786C281.551 145.948 281.781 146.174 281.949 146.445C282.388 147.113 282.617 147.897 282.605 148.696C282.605 150.454 281.608 151.871 280.374 151.871H272.502C272.184 151.854 271.875 151.761 271.6 151.599C271.326 151.437 271.095 151.21 270.928 150.939C270.487 150.275 270.258 149.493 270.272 148.696ZM208.228 148.696C208.228 146.937 209.225 145.514 210.451 145.514H218.323C218.642 145.53 218.951 145.623 219.225 145.786C219.5 145.948 219.73 146.174 219.898 146.445C220.34 147.111 220.569 147.896 220.554 148.696C220.554 150.454 219.557 151.871 218.323 151.871H210.451C210.133 151.854 209.824 151.761 209.549 151.599C209.275 151.437 209.044 151.21 208.877 150.939C208.431 150.276 208.198 149.494 208.208 148.696H208.228Z" fill="#B2D1FF"/>
<path opacity="0.6" d="M204.075 144.53V192.582C204.075 194.491 205.157 196.039 206.496 196.039H284.31C285.622 196.039 286.738 194.491 286.738 192.582V144.53C286.738 142.628 285.649 141.079 284.31 141.079H206.496C205.157 141.079 204.075 142.628 204.075 144.53ZM270.272 148.696C270.272 146.937 271.269 145.514 272.502 145.514H280.374C280.693 145.53 281.002 145.623 281.276 145.786C281.551 145.948 281.781 146.174 281.949 146.445C282.388 147.113 282.617 147.897 282.605 148.696C282.605 150.454 281.608 151.871 280.374 151.871H272.502C272.184 151.854 271.875 151.761 271.6 151.599C271.326 151.437 271.095 151.21 270.928 150.939C270.487 150.275 270.258 149.493 270.272 148.696ZM208.228 148.696C208.228 146.937 209.225 145.514 210.451 145.514H218.323C218.642 145.53 218.951 145.623 219.225 145.786C219.5 145.948 219.73 146.174 219.898 146.445C220.34 147.111 220.569 147.896 220.554 148.696C220.554 150.454 219.557 151.871 218.323 151.871H210.451C210.133 151.854 209.824 151.761 209.549 151.599C209.275 151.437 209.044 151.21 208.877 150.939C208.431 150.276 208.198 149.494 208.208 148.696H208.228Z" fill="white"/>
<path d="M205.374 144.53V192.582C205.374 194.491 206.456 196.039 207.795 196.039H285.609C286.921 196.039 288.036 194.491 288.036 192.582V144.53C288.036 142.628 286.948 141.079 285.609 141.079H207.795C206.456 141.079 205.374 142.628 205.374 144.53ZM271.584 148.696C271.584 146.937 272.581 145.514 273.814 145.514H281.686C282.005 145.53 282.314 145.623 282.588 145.786C282.863 145.948 283.093 146.174 283.261 146.445C283.7 147.113 283.929 147.897 283.917 148.696C283.917 150.454 282.92 151.871 281.686 151.871H273.814C273.496 151.854 273.187 151.761 272.912 151.599C272.638 151.437 272.407 151.21 272.24 150.939C271.799 150.275 271.57 149.493 271.584 148.696ZM209.54 148.696C209.54 146.937 210.537 145.514 211.763 145.514H219.635C219.954 145.53 220.263 145.623 220.537 145.786C220.812 145.948 221.042 146.174 221.21 146.445C221.652 147.111 221.881 147.896 221.866 148.696C221.866 150.454 220.869 151.871 219.635 151.871H211.763C211.445 151.854 211.136 151.761 210.861 151.599C210.587 151.437 210.356 151.21 210.189 150.939C209.739 150.278 209.501 149.495 209.507 148.696H209.54Z" fill="#B2D1FF"/>
<path opacity="0.7" d="M205.374 144.53V192.582C205.374 194.491 206.456 196.039 207.795 196.039H285.609C286.921 196.039 288.036 194.491 288.036 192.582V144.53C288.036 142.628 286.948 141.079 285.609 141.079H207.795C206.456 141.079 205.374 142.628 205.374 144.53ZM271.584 148.696C271.584 146.937 272.581 145.514 273.814 145.514H281.686C282.005 145.53 282.314 145.623 282.588 145.786C282.863 145.948 283.093 146.174 283.261 146.445C283.7 147.113 283.929 147.897 283.917 148.696C283.917 150.454 282.92 151.871 281.686 151.871H273.814C273.496 151.854 273.187 151.761 272.912 151.599C272.638 151.437 272.407 151.21 272.24 150.939C271.799 150.275 271.57 149.493 271.584 148.696ZM209.54 148.696C209.54 146.937 210.537 145.514 211.763 145.514H219.635C219.954 145.53 220.263 145.623 220.537 145.786C220.812 145.948 221.042 146.174 221.21 146.445C221.652 147.111 221.881 147.896 221.866 148.696C221.866 150.454 220.869 151.871 219.635 151.871H211.763C211.445 151.854 211.136 151.761 210.861 151.599C210.587 151.437 210.356 151.21 210.189 150.939C209.739 150.278 209.501 149.495 209.507 148.696H209.54Z" fill="white"/>
<path opacity="0.1" d="M211.435 184.559H281.962C283.031 184.559 283.897 183.693 283.897 182.624V164.853C283.897 163.784 283.031 162.918 281.962 162.918H211.435C210.367 162.918 209.5 163.784 209.5 164.853V182.624C209.5 183.693 210.367 184.559 211.435 184.559Z" fill="black"/>
<path d="M288.036 188.416H205.374V189.453H288.036V188.416Z" fill="#B2D1FF"/>
<path d="M236.003 139.728V165.62H261.803V139.728H236.003ZM245.055 141.04H252.75V146.085H245.055V141.04Z" fill="#B2D1FF"/>
<path d="M256.161 164.63H261.554V151.077H256.161V164.63Z" fill="#B2D1FF"/>
<path opacity="0.2" d="M256.161 164.63H261.554V151.077H256.161V164.63Z" fill="black"/>
<path d="M236.245 164.63H241.638V151.077H236.245V164.63Z" fill="#B2D1FF"/>
<path opacity="0.2" d="M236.245 164.63H241.638V151.077H236.245V164.63Z" fill="black"/>
<path d="M257.46 164.63H262.853V151.077H257.46V164.63Z" fill="#B2D1FF"/>
<path opacity="0.2" d="M257.46 164.63H262.853V151.077H257.46V164.63Z" fill="white"/>
<path d="M237.544 164.63H242.936V151.077H237.544V164.63Z" fill="#B2D1FF"/>
<path opacity="0.2" d="M237.544 164.63H242.936V151.077H237.544V164.63Z" fill="white"/>
<path d="M233.831 141.086H237.315V139.761H233.831V141.086Z" fill="#B2D1FF"/>
<path d="M92.929 229.534L90.1016 232.368H88.2648L87.4645 227.816L92.929 229.534Z" fill="#B2D1FF"/>
<path d="M85.2013 226.208H87.3464C89.8392 226.208 91.8597 228.734 91.8597 231.844C91.8597 234.953 89.872 237.472 87.3464 237.472H85.2013C82.7085 237.472 80.688 234.946 80.688 231.837C80.688 228.728 82.7085 226.208 85.2013 226.208Z" fill="#263238"/>
<path opacity="0.3" d="M85.2013 237.479C87.6939 237.479 89.7145 234.956 89.7145 231.844C89.7145 228.731 87.6939 226.208 85.2013 226.208C82.7087 226.208 80.688 228.731 80.688 231.844C80.688 234.956 82.7087 237.479 85.2013 237.479Z" fill="white"/>
<path opacity="0.3" d="M85.2013 235.871C86.8026 235.871 88.1008 234.068 88.1008 231.844C88.1008 229.619 86.8026 227.816 85.2013 227.816C83.5999 227.816 82.3018 229.619 82.3018 231.844C82.3018 234.068 83.5999 235.871 85.2013 235.871Z" fill="white"/>
<path d="M84.3747 231.312V226.766C84.3748 226.333 84.4607 225.904 84.6273 225.505C84.7939 225.105 85.0381 224.742 85.3456 224.437L87.9696 221.813H92.9158V229.561H88.6387L86.1328 232.067C86.0291 232.168 85.9058 232.247 85.7704 232.299C85.635 232.351 85.4905 232.374 85.3456 232.368C85.0794 232.35 84.8304 232.23 84.6498 232.034C84.4692 231.837 84.3707 231.579 84.3747 231.312Z" fill="#B2D1FF"/>
<path opacity="0.7" d="M84.3747 226.773V231.312C84.3745 231.578 84.4766 231.833 84.66 232.025C84.8433 232.217 85.0936 232.33 85.3587 232.342C85.5039 232.351 85.6494 232.329 85.7853 232.277C85.9212 232.225 86.0442 232.144 86.1459 232.04L88.6518 229.534H92.9355V221.794H87.9827L85.3587 224.418C85.0456 224.724 84.7973 225.091 84.6283 225.495C84.4592 225.9 84.373 226.334 84.3747 226.773Z" fill="white"/>
<path opacity="0.2" d="M84.3747 226.773V231.312C84.3745 231.578 84.4766 231.833 84.66 232.025C84.8433 232.217 85.0936 232.33 85.3587 232.342C85.5039 232.351 85.6494 232.329 85.7853 232.277C85.9212 232.225 86.0442 232.144 86.1459 232.04L88.6518 229.534V221.794H87.9958L85.3718 224.418C85.0564 224.723 84.8056 225.089 84.6343 225.494C84.463 225.898 84.3747 226.333 84.3747 226.773Z" fill="white"/>
<path d="M83.5678 222.358H92.9749C93.3843 222.358 93.7162 222.026 93.7162 221.617V214.427C93.7162 214.017 93.3843 213.685 92.9749 213.685H83.5678C83.1584 213.685 82.8266 214.017 82.8266 214.427V221.617C82.8266 222.026 83.1584 222.358 83.5678 222.358Z" fill="#B2D1FF"/>
<path opacity="0.5" d="M92.9683 213.679H83.5678C83.1584 213.679 82.8266 214.011 82.8266 214.42V221.61C82.8266 222.019 83.1584 222.351 83.5678 222.351H92.9683C93.3777 222.351 93.7096 222.019 93.7096 221.61V214.42C93.7096 214.011 93.3777 213.679 92.9683 213.679Z" fill="white"/>
<path opacity="0.2" d="M82.8266 214.42V221.636C82.8257 221.734 82.8442 221.831 82.8811 221.922C82.918 222.013 82.9724 222.095 83.0413 222.165C83.1103 222.234 83.1923 222.289 83.2826 222.327C83.373 222.365 83.4699 222.384 83.5678 222.384H88.6453C88.8425 222.382 89.031 222.303 89.1699 222.163C89.3087 222.023 89.3866 221.833 89.3866 221.636V214.42C89.3848 214.224 89.3062 214.037 89.1676 213.898C89.0289 213.759 88.8414 213.681 88.6453 213.679H83.5678C83.3712 213.679 83.1827 213.757 83.0437 213.896C82.9047 214.035 82.8266 214.224 82.8266 214.42Z" fill="white"/>
<path d="M193.29 221.374H90.6264C90.5739 221.374 90.5218 221.363 90.4733 221.343C90.4247 221.323 90.3806 221.294 90.3435 221.257C90.3063 221.219 90.2768 221.175 90.2567 221.127C90.2366 221.078 90.2263 221.026 90.2263 220.974V214.82C90.2263 214.768 90.2366 214.716 90.2567 214.667C90.2768 214.619 90.3063 214.575 90.3435 214.537C90.3806 214.5 90.4247 214.471 90.4733 214.451C90.5218 214.431 90.5739 214.42 90.6264 214.42H193.29V221.374Z" fill="#B2D1FF"/>
<path opacity="0.7" d="M193.29 221.374H90.6264C90.5739 221.374 90.5218 221.363 90.4733 221.343C90.4247 221.323 90.3806 221.294 90.3435 221.257C90.3063 221.219 90.2768 221.175 90.2567 221.127C90.2366 221.078 90.2263 221.026 90.2263 220.974V214.82C90.2263 214.768 90.2366 214.716 90.2567 214.667C90.2768 214.619 90.3063 214.575 90.3435 214.537C90.3806 214.5 90.4247 214.471 90.4733 214.451C90.5218 214.431 90.5739 214.42 90.6264 214.42H193.29V221.374Z" fill="white"/>
<path d="M197.961 229.534L195.127 232.368H193.29L192.49 227.816L197.961 229.534Z" fill="#B2D1FF"/>
<path d="M190.24 226.208H192.385C194.878 226.208 196.898 228.734 196.898 231.844C196.898 234.953 194.878 237.479 192.385 237.479H190.24C187.747 237.479 185.727 234.953 185.727 231.844C185.727 228.734 187.734 226.208 190.24 226.208Z" fill="#263238"/>
<path opacity="0.3" d="M190.227 237.479C192.72 237.479 194.74 234.956 194.74 231.844C194.74 228.731 192.72 226.208 190.227 226.208C187.734 226.208 185.714 228.731 185.714 231.844C185.714 234.956 187.734 237.479 190.227 237.479Z" fill="white"/>
<path opacity="0.3" d="M190.227 235.871C191.828 235.871 193.126 234.068 193.126 231.844C193.126 229.619 191.828 227.816 190.227 227.816C188.626 227.816 187.327 229.619 187.327 231.844C187.327 234.068 188.626 235.871 190.227 235.871Z" fill="white"/>
<path d="M189.4 231.312V226.766C189.4 226.333 189.486 225.904 189.653 225.505C189.82 225.105 190.064 224.742 190.371 224.437L192.995 221.813H197.948V229.561H193.664L191.158 232.067C191.055 232.169 190.932 232.248 190.796 232.3C190.661 232.352 190.516 232.375 190.371 232.368C190.105 232.35 189.856 232.23 189.675 232.034C189.495 231.837 189.396 231.579 189.4 231.312Z" fill="#B2D1FF"/>
<path opacity="0.7" d="M189.4 226.773V231.312C189.4 231.578 189.502 231.833 189.686 232.025C189.869 232.217 190.119 232.33 190.384 232.342C190.529 232.351 190.675 232.329 190.811 232.277C190.947 232.225 191.07 232.144 191.172 232.04L193.677 229.534H197.961V221.794H193.008L190.384 224.418C190.071 224.724 189.823 225.091 189.654 225.495C189.485 225.9 189.399 226.334 189.4 226.773Z" fill="white"/>
<path opacity="0.2" d="M189.4 226.773V231.312C189.4 231.578 189.502 231.833 189.686 232.025C189.869 232.217 190.119 232.33 190.384 232.342C190.53 232.351 190.675 232.329 190.811 232.277C190.947 232.225 191.07 232.144 191.172 232.04L193.677 229.534V221.794H193.021L190.397 224.418C190.082 224.723 189.831 225.089 189.66 225.494C189.489 225.898 189.4 226.333 189.4 226.773Z" fill="white"/>
<path d="M188.593 222.358H198C198.41 222.358 198.742 222.026 198.742 221.617V214.427C198.742 214.017 198.41 213.685 198 213.685H188.593C188.184 213.685 187.852 214.017 187.852 214.427V221.617C187.852 222.026 188.184 222.358 188.593 222.358Z" fill="#B2D1FF"/>
<path opacity="0.5" d="M187.852 214.42V221.636C187.851 221.734 187.87 221.831 187.907 221.922C187.944 222.013 187.998 222.095 188.067 222.165C188.136 222.234 188.218 222.289 188.308 222.327C188.399 222.365 188.496 222.384 188.593 222.384H197.994C198.191 222.382 198.38 222.303 198.518 222.163C198.657 222.023 198.735 221.833 198.735 221.636V214.42C198.733 214.224 198.655 214.037 198.516 213.898C198.378 213.759 198.19 213.681 197.994 213.679H188.593C188.397 213.679 188.208 213.757 188.069 213.896C187.93 214.035 187.852 214.224 187.852 214.42Z" fill="white"/>
<path opacity="0.2" d="M187.852 214.42V221.636C187.851 221.734 187.87 221.831 187.907 221.922C187.944 222.013 187.998 222.095 188.067 222.165C188.136 222.234 188.218 222.289 188.308 222.327C188.399 222.365 188.496 222.384 188.593 222.384H193.671C193.769 222.384 193.866 222.365 193.956 222.327C194.046 222.289 194.128 222.234 194.197 222.165C194.266 222.095 194.321 222.013 194.358 221.922C194.394 221.831 194.413 221.734 194.412 221.636V214.42C194.412 214.224 194.334 214.035 194.195 213.896C194.056 213.757 193.867 213.679 193.671 213.679H188.593C188.397 213.679 188.208 213.757 188.069 213.896C187.93 214.035 187.852 214.224 187.852 214.42Z" fill="white"/>
<path opacity="0.1" d="M148.479 135.589H79.763C78.187 135.589 76.9094 136.866 76.9094 138.442V156.83C76.9094 158.406 78.187 159.684 79.763 159.684H148.479C150.055 159.684 151.333 158.406 151.333 156.83V138.442C151.333 136.866 150.055 135.589 148.479 135.589Z" fill="black"/>
<path d="M112.228 235.366C112.227 234.948 112.35 234.539 112.581 234.191C112.813 233.843 113.142 233.571 113.528 233.41C113.914 233.249 114.339 233.206 114.749 233.287C115.159 233.368 115.536 233.569 115.832 233.864C116.128 234.159 116.33 234.535 116.412 234.945C116.494 235.355 116.453 235.78 116.293 236.167C116.133 236.553 115.863 236.883 115.515 237.116C115.167 237.348 114.759 237.472 114.341 237.472C113.782 237.472 113.245 237.25 112.849 236.856C112.454 236.461 112.23 235.925 112.228 235.366Z" fill="#263238"/>
<path d="M82.8856 235.366C82.8856 234.948 83.0096 234.54 83.242 234.192C83.4744 233.844 83.8047 233.574 84.1911 233.414C84.5774 233.254 85.0025 233.213 85.4124 233.295C85.8223 233.377 86.1987 233.579 86.4939 233.875C86.789 234.171 86.9897 234.548 87.0704 234.958C87.1512 235.368 87.1084 235.793 86.9475 236.179C86.7867 236.565 86.5149 236.894 86.1667 237.126C85.8184 237.357 85.4094 237.48 84.9913 237.479C84.4323 237.477 83.8967 237.253 83.502 236.858C83.1072 236.462 82.8856 235.925 82.8856 235.366Z" fill="#263238"/>
<path d="M114.341 236.678C113.993 236.678 113.659 236.54 113.413 236.294C113.167 236.048 113.029 235.714 113.029 235.366V233.195C113.027 232.961 112.933 232.736 112.768 232.571C112.602 232.405 112.378 232.311 112.143 232.309H87.2152C86.9797 232.309 86.7538 232.402 86.5867 232.568C86.4195 232.734 86.3248 232.959 86.323 233.195V235.366C86.323 235.714 86.1848 236.048 85.9388 236.294C85.6927 236.54 85.359 236.678 85.011 236.678C84.6631 236.678 84.3294 236.54 84.0833 236.294C83.8373 236.048 83.699 235.714 83.699 235.366V233.195C83.7008 232.264 84.072 231.371 84.7312 230.713C85.3904 230.055 86.2838 229.685 87.2152 229.685H112.143C113.073 229.687 113.965 230.057 114.623 230.715C115.281 231.373 115.651 232.265 115.653 233.195V235.366C115.653 235.714 115.515 236.048 115.269 236.294C115.022 236.54 114.689 236.678 114.341 236.678Z" fill="#263238"/>
<path d="M99.6661 232.309C99.3181 232.309 98.9844 232.171 98.7383 231.925C98.4923 231.679 98.3541 231.345 98.3541 230.997V68.4602C98.3541 68.1122 98.4923 67.7785 98.7383 67.5324C98.9844 67.2864 99.3181 67.1482 99.6661 67.1482C100.014 67.1482 100.348 67.2864 100.594 67.5324C100.84 67.7785 100.978 68.1122 100.978 68.4602V230.997C100.978 231.345 100.84 231.679 100.594 231.925C100.348 232.171 100.014 232.309 99.6661 232.309Z" fill="#263238"/>
<path d="M114.479 73.7344C114.305 73.7344 114.138 73.6653 114.015 73.5423C113.892 73.4192 113.823 73.2524 113.823 73.0784C113.823 72.9044 113.892 72.7376 114.015 72.6145C114.138 72.4915 114.305 72.4224 114.479 72.4224C115.037 72.4224 115.573 72.2005 115.968 71.8056C116.362 71.4107 116.584 70.8751 116.584 70.3166V70.1067C116.584 69.5482 116.362 69.0126 115.968 68.6177C115.573 68.2228 115.037 68.001 114.479 68.001H84.8602C84.3017 68.001 83.7661 68.2228 83.3712 68.6177C82.9763 69.0126 82.7544 69.5482 82.7544 70.1067V70.3166C82.7544 70.8751 82.9763 71.4107 83.3712 71.8056C83.7661 72.2005 84.3017 72.4224 84.8602 72.4224C85.4187 72.4224 85.9543 72.2005 86.3492 71.8056C86.7441 71.4107 86.9659 70.8751 86.9659 70.3166V69.923C86.9659 69.7491 87.0351 69.5822 87.1581 69.4592C87.2811 69.3362 87.448 69.267 87.6219 69.267C87.7959 69.267 87.9628 69.3362 88.0858 69.4592C88.2088 69.5822 88.2779 69.7491 88.2779 69.923V70.3166C88.2779 71.2231 87.9178 72.0924 87.2769 72.7334C86.6359 73.3743 85.7666 73.7344 84.8602 73.7344C83.9537 73.7344 83.0844 73.3743 82.4434 72.7334C81.8025 72.0924 81.4424 71.2231 81.4424 70.3166V70.1067C81.4424 69.2003 81.8025 68.331 82.4434 67.69C83.0844 67.049 83.9537 66.689 84.8602 66.689H114.479C114.927 66.689 115.372 66.7774 115.786 66.9491C116.201 67.1209 116.578 67.3726 116.895 67.69C117.213 68.0074 117.464 68.3841 117.636 68.7988C117.808 69.2135 117.896 69.6579 117.896 70.1067V70.3166C117.896 70.7655 117.808 71.2099 117.636 71.6246C117.464 72.0392 117.213 72.416 116.895 72.7334C116.578 73.0507 116.201 73.3025 115.786 73.4742C115.372 73.646 114.927 73.7344 114.479 73.7344Z" fill="#263238"/>
<path d="M110.037 76.037C110.037 75.689 110.176 75.3553 110.422 75.1093C110.668 74.8632 111.001 74.725 111.349 74.725C111.697 74.725 112.031 74.5868 112.277 74.3407C112.523 74.0947 112.661 73.7609 112.661 73.413V73.1703C112.65 72.6361 112.842 72.1176 113.199 71.7202C113.556 71.3229 114.051 71.0766 114.583 71.0317C114.859 71.0165 115.135 71.0577 115.394 71.1528C115.652 71.2478 115.889 71.3947 116.089 71.5845C116.29 71.7742 116.449 72.0029 116.558 72.2564C116.667 72.5099 116.722 72.7829 116.722 73.0587V73.4655C116.741 73.8008 116.887 74.1162 117.131 74.3469C117.375 74.5775 117.698 74.7058 118.034 74.7053C118.374 74.7172 118.696 74.8607 118.932 75.1054C119.168 75.3502 119.3 75.6771 119.3 76.0173V90.3706C119.3 90.7812 119.137 91.175 118.847 91.4653C118.556 91.7556 118.163 91.9187 117.752 91.9187H117.096C116.685 91.9187 116.29 92.0816 115.999 92.3718C115.708 92.6619 115.543 93.0557 115.541 93.4669V94.569H113.855V93.4669C113.854 93.0557 113.689 92.6619 113.398 92.3718C113.106 92.0816 112.712 91.9187 112.301 91.9187H111.645C111.441 91.9187 111.24 91.8787 111.052 91.8009C110.864 91.7231 110.694 91.6091 110.55 91.4653C110.406 91.3215 110.292 91.1509 110.214 90.963C110.136 90.7752 110.096 90.5739 110.096 90.3706L110.037 76.037Z" fill="#B2D1FF"/>
<path opacity="0.7" d="M110.037 76.037C110.037 75.689 110.176 75.3553 110.422 75.1093C110.668 74.8632 111.001 74.725 111.349 74.725C111.697 74.725 112.031 74.5868 112.277 74.3407C112.523 74.0947 112.661 73.7609 112.661 73.413V73.1703C112.65 72.6361 112.842 72.1176 113.199 71.7202C113.556 71.3229 114.051 71.0766 114.583 71.0317C114.859 71.0165 115.135 71.0577 115.394 71.1528C115.652 71.2478 115.889 71.3947 116.089 71.5845C116.29 71.7742 116.449 72.0029 116.558 72.2564C116.667 72.5099 116.722 72.7829 116.722 73.0587V73.4655C116.741 73.8008 116.887 74.1162 117.131 74.3469C117.375 74.5775 117.698 74.7058 118.034 74.7053C118.374 74.7172 118.696 74.8607 118.932 75.1054C119.168 75.3502 119.3 75.6771 119.3 76.0173V90.3706C119.3 90.7812 119.137 91.175 118.847 91.4653C118.556 91.7556 118.163 91.9187 117.752 91.9187H117.096C116.685 91.9187 116.29 92.0816 115.999 92.3718C115.708 92.6619 115.543 93.0557 115.541 93.4669V94.569H113.855V93.4669C113.854 93.0557 113.689 92.6619 113.398 92.3718C113.106 92.0816 112.712 91.9187 112.301 91.9187H111.645C111.441 91.9187 111.24 91.8787 111.052 91.8009C110.864 91.7231 110.694 91.6091 110.55 91.4653C110.406 91.3215 110.292 91.1509 110.214 90.963C110.136 90.7752 110.096 90.5739 110.096 90.3706L110.037 76.037Z" fill="white"/>
<path opacity="0.1" d="M111.527 90.9282H117.765C118.16 90.9282 118.48 90.608 118.48 90.2131V76.1616C118.48 75.7667 118.16 75.4466 117.765 75.4466H111.527C111.132 75.4466 110.812 75.7667 110.812 76.1616V90.2131C110.812 90.608 111.132 90.9282 111.527 90.9282Z" fill="black"/>
<path d="M118.48 84.4534V90.1541C118.48 90.3594 118.399 90.5563 118.253 90.7014C118.108 90.8466 117.911 90.9281 117.706 90.9281H111.586C111.38 90.9281 111.183 90.8466 111.038 90.7014C110.893 90.5563 110.812 90.3594 110.812 90.1541V84.4534H118.48Z" fill="#B2D1FF"/>
<path d="M114.479 73.7344C113.573 73.7327 112.704 73.372 112.064 72.7314C111.423 72.0909 111.063 71.2225 111.061 70.3166V69.923C111.061 69.749 111.13 69.5822 111.253 69.4592C111.376 69.3361 111.543 69.267 111.717 69.267C111.891 69.267 112.058 69.3361 112.181 69.4592C112.304 69.5822 112.373 69.749 112.373 69.923V70.3166C112.373 70.8751 112.595 71.4107 112.99 71.8056C113.384 72.2005 113.92 72.4224 114.479 72.4224C114.653 72.4224 114.819 72.4915 114.942 72.6145C115.065 72.7375 115.135 72.9044 115.135 73.0784C115.135 73.2524 115.065 73.4192 114.942 73.5422C114.819 73.6653 114.653 73.7344 114.479 73.7344Z" fill="#263238"/>
<path d="M111.192 140.2C110.19 140.199 109.23 139.8 108.522 139.092C107.814 138.383 107.415 137.423 107.413 136.422V126.936C107.413 126.897 107.505 125.493 106.593 125.158L106.816 124.542C108.201 125.047 108.076 126.884 108.069 126.962V136.448C108.069 137.276 108.398 138.07 108.984 138.656C109.57 139.242 110.364 139.571 111.192 139.571C112.02 139.571 112.814 139.242 113.4 138.656C113.986 138.07 114.315 137.276 114.315 136.448V93.0208H114.971V136.448C114.962 137.445 114.56 138.398 113.853 139.101C113.145 139.804 112.189 140.199 111.192 140.2Z" fill="#B2D1FF"/>
<path d="M103.55 221.367V205.289H158.811V237.479H142.398H103.55H87.1365V221.367H103.55Z" fill="#263238"/>
<path opacity="0.2" d="M87.1365 221.367V237.479H158.811V205.289H103.55V221.367H87.1365Z" fill="white"/>
<path opacity="0.2" d="M87.1365 221.367V237.479H126.523V221.367H142.929V205.289H103.55V221.367H87.1365Z" fill="white"/>
<path opacity="0.2" d="M126.523 221.367H87.1365V237.472H126.523V221.367Z" fill="white"/>
<path d="M147.797 97.4619C147.797 97.4619 146.039 93.0536 139.741 94.0901C133.444 95.1266 131.213 101.306 132.151 103.969C133.089 106.633 131.981 109.965 131.029 110.634C130.078 111.304 130.852 112.95 131.456 114.072C132.059 115.194 132.112 115.876 130.583 118.356C129.923 119.367 129.64 120.579 129.784 121.779C129.928 122.978 130.49 124.089 131.371 124.916C132.84 126.123 147.816 128.15 150.664 125.775C155.072 122.101 151.274 119.504 151.274 118.382C151.274 117.07 152.238 116.414 152.448 114.013C152.658 111.612 150.48 110.031 150.231 108.765C149.981 107.499 150.887 106.265 150.887 104.684C150.887 103.104 149.791 102.907 149.575 100.624C149.544 99.995 149.368 99.3818 149.059 98.833C148.75 98.2841 148.318 97.8147 147.797 97.4619Z" fill="#263238"/>
<path d="M101.496 228.754C104.102 227.95 106.607 226.849 108.962 225.474C110.431 224.687 110.444 225.074 111.96 224.339C112.178 224.213 112.364 224.037 112.503 223.825C112.641 223.614 112.727 223.372 112.754 223.121C112.782 222.87 112.75 222.616 112.661 222.38C112.572 222.143 112.428 221.931 112.242 221.761C111.53 221.192 110.871 220.56 110.274 219.872L105.983 220.593C105.806 222.351 102.953 226.123 100.473 227.009C98.6821 227.632 100.171 229.121 101.496 228.754Z" fill="#EBB376"/>
<path d="M129.488 147.6C129.488 147.6 113.088 167.162 107.755 176.694C105.675 180.4 105.846 221.446 105.846 221.446L111.96 219.832L118.08 181.528L142.851 157.256L147.311 148.131L129.488 147.6Z" fill="#B2D1FF"/>
<g opacity="0.2">
<path d="M105.846 221.426L111.96 219.812L117.804 183.319L118.093 181.528L128.084 171.741L142.864 157.269L147.318 148.144L129.488 147.6C129.488 147.6 113.088 167.155 107.755 176.687C105.675 180.4 105.846 221.426 105.846 221.426Z" fill="black"/>
</g>
<path opacity="0.2" d="M117.804 183.319L118.093 181.528L128.084 171.741L133.437 155.61C133.437 155.61 120.317 162.695 116.322 169.438C114.236 172.974 115.823 178.681 117.804 183.319Z" fill="black"/>
<path d="M119.733 221.682C122.392 221.084 124.972 220.179 127.421 218.986C128.95 218.33 128.93 218.704 130.498 218.081C130.726 217.971 130.925 217.809 131.078 217.608C131.232 217.408 131.336 217.173 131.382 216.925C131.428 216.676 131.415 216.42 131.343 216.177C131.272 215.935 131.144 215.713 130.97 215.529C130.299 214.909 129.684 214.231 129.134 213.502L124.797 213.889C124.489 215.634 121.353 219.176 118.821 219.872C117.004 220.377 118.382 221.958 119.733 221.682Z" fill="#EBB376"/>
<path d="M147.324 148.138C147.324 148.138 123.892 158.804 119.235 168.362C115.955 175.054 124.371 214 124.371 214L130.209 213.587C130.104 200.073 131.154 176.044 131.154 176.044C131.154 176.044 147.784 168.284 149.345 164.754C152.284 158.096 147.324 148.138 147.324 148.138Z" fill="#B2D1FF"/>
<g opacity="0.2">
<path d="M147.324 148.138C147.324 148.138 123.892 158.804 119.235 168.362C115.955 175.054 124.371 214 124.371 214L130.209 213.587C130.104 200.073 131.154 176.044 131.154 176.044C131.154 176.044 147.784 168.284 149.345 164.754C152.284 158.096 147.324 148.138 147.324 148.138Z" fill="black"/>
</g>
<path d="M132.42 126.713C130.332 128.38 128.141 129.914 125.86 131.305C123.361 132.807 120.028 134.696 116.978 134.054C111.507 132.965 106.843 129.731 102.546 126.398C102.275 126.176 102.094 125.863 102.039 125.517C101.983 125.171 102.057 124.816 102.245 124.521C102.434 124.226 102.724 124.01 103.061 123.914C103.399 123.819 103.759 123.851 104.074 124.004C107.403 125.709 110.852 127.17 114.393 128.373C115.85 128.792 117.391 129.245 118.684 128.976C122.337 127.303 125.657 124.509 128.956 122.187C129.563 121.761 130.311 121.586 131.044 121.699C131.777 121.812 132.438 122.204 132.888 122.792C133.339 123.381 133.544 124.121 133.462 124.858C133.38 125.595 133.016 126.271 132.446 126.746L132.42 126.713Z" fill="#E9B376"/>
<path d="M133.437 118.972C129.357 119.425 123.866 125.08 123.866 125.08C123.866 125.08 126.077 132.774 128.209 133.234C130.341 133.693 133.437 118.972 133.437 118.972Z" fill="#B2D1FF"/>
<path opacity="0.1" d="M129.448 132.138C129.022 132.892 128.596 133.312 128.209 133.234C127.376 133.05 126.529 131.764 125.808 130.268C126.646 128.99 127.695 127.863 128.911 126.936C129.606 128.209 129.75 130.341 129.448 132.138Z" fill="black"/>
<path d="M127.651 126.739C127.515 129.313 127.555 131.892 127.769 134.46C127.986 138.226 127.907 142.536 128.569 148.696H148.249C147.764 143.362 147.948 136.297 151.116 124.227C151.305 123.596 151.351 122.93 151.249 122.279C151.147 121.628 150.901 121.008 150.529 120.465C150.156 119.921 149.667 119.468 149.097 119.138C148.526 118.808 147.889 118.611 147.233 118.559C146.478 118.5 145.685 118.447 144.865 118.428C141.998 118.272 139.123 118.327 136.264 118.592C135.333 118.69 134.362 118.828 133.444 118.972C130.098 119.504 127.69 123.4 127.651 126.739Z" fill="#B2D1FF"/>
<path d="M98.177 123.879L98.6821 125.191C98.7763 125.435 98.9271 125.653 99.1221 125.828C99.3171 126.002 99.5508 126.128 99.8038 126.195L102.205 126.851C102.679 126.975 103.176 126.984 103.654 126.876C104.132 126.769 104.578 126.549 104.953 126.234L105.419 125.84C104.763 123.59 102.343 121.668 102.343 121.668L101.726 121.012C101.601 120.878 101.451 120.769 101.283 120.694C101.116 120.618 100.935 120.577 100.752 120.573C100.568 120.569 100.386 120.601 100.215 120.669C100.044 120.736 99.8888 120.838 99.7579 120.966L98.505 122.18C98.2911 122.401 98.1461 122.679 98.0879 122.981C98.0296 123.282 98.0606 123.595 98.177 123.879Z" fill="#EBB376"/>
<path d="M144.071 108.752C143.375 111.533 142.555 116.624 144.386 118.434C144.386 118.434 142.529 120.822 135.93 124.522C133.437 121.242 135.785 118.618 135.785 118.618C138.915 117.818 138.96 115.528 138.541 113.37L144.071 108.752Z" fill="#EBB376"/>
<path opacity="0.2" d="M141.814 110.634L138.534 113.363C138.643 113.864 138.705 114.373 138.718 114.885C139.905 114.695 141.598 113.37 141.788 112.13C141.889 111.637 141.898 111.13 141.814 110.634Z" fill="black"/>
<path d="M146.327 103.149C145.573 107.636 145.35 109.545 142.837 111.736C139.065 115.016 133.765 113.429 133.175 108.883C132.643 104.789 133.968 98.1442 138.541 96.5829C139.512 96.2136 140.564 96.1107 141.589 96.2851C142.613 96.4595 143.572 96.9047 144.366 97.5746C145.161 98.2445 145.762 99.1147 146.106 100.095C146.451 101.075 146.527 102.13 146.327 103.149Z" fill="#EBB376"/>
<path d="M140.633 104.009C140.587 104.383 140.358 104.665 140.115 104.665C139.872 104.665 139.708 104.337 139.761 103.956C139.813 103.576 140.043 103.3 140.286 103.3C140.528 103.3 140.686 103.648 140.633 104.009Z" fill="#263238"/>
<path d="M135.923 103.602C135.877 103.983 135.641 104.258 135.398 104.258C135.156 104.258 134.998 103.93 135.044 103.55C135.09 103.169 135.326 102.894 135.569 102.894C135.812 102.894 135.969 103.222 135.923 103.602Z" fill="#263238"/>
<path d="M135.674 102.92L134.815 102.605C134.815 102.605 135.189 103.346 135.674 102.92Z" fill="#263238"/>
<path d="M137.163 103.969C136.724 104.815 136.18 105.602 135.543 106.311C135.721 106.464 135.932 106.574 136.16 106.631C136.388 106.688 136.626 106.691 136.855 106.639L137.163 103.969Z" fill="#D58745"/>
<path d="M141.63 101.68C141.601 101.681 141.572 101.676 141.544 101.665C141.517 101.653 141.493 101.636 141.473 101.614C141.292 101.414 141.065 101.261 140.811 101.169C140.557 101.078 140.284 101.05 140.017 101.09C139.989 101.095 139.961 101.095 139.933 101.09C139.905 101.084 139.879 101.073 139.856 101.057C139.833 101.041 139.813 101.021 139.797 100.997C139.782 100.973 139.772 100.947 139.767 100.919C139.759 100.86 139.774 100.801 139.808 100.752C139.842 100.703 139.893 100.669 139.951 100.657C140.29 100.599 140.637 100.629 140.961 100.744C141.285 100.859 141.574 101.055 141.801 101.313C141.841 101.355 141.863 101.412 141.863 101.47C141.863 101.529 141.841 101.585 141.801 101.628C141.753 101.666 141.692 101.685 141.63 101.68Z" fill="#263238"/>
<path d="M134.296 101.024C134.241 101.03 134.185 101.016 134.139 100.985C134.099 100.943 134.077 100.888 134.077 100.83C134.077 100.773 134.099 100.718 134.139 100.676C134.342 100.38 134.612 100.136 134.926 99.9616C135.24 99.7874 135.591 99.6885 135.949 99.6726C135.978 99.6724 136.006 99.6782 136.031 99.6897C136.057 99.7012 136.08 99.7181 136.099 99.7392C136.117 99.7604 136.131 99.7853 136.14 99.8123C136.148 99.8393 136.15 99.8677 136.146 99.8957C136.14 99.955 136.113 100.01 136.069 100.051C136.026 100.092 135.97 100.116 135.91 100.119C135.627 100.134 135.35 100.215 135.104 100.355C134.857 100.495 134.645 100.69 134.487 100.926C134.463 100.954 134.434 100.978 134.402 100.995C134.369 101.011 134.333 101.022 134.296 101.024Z" fill="#263238"/>
<path d="M140.384 103.32L139.531 102.992C139.531 102.992 139.899 103.746 140.384 103.32Z" fill="#263238"/>
<path d="M145.074 106.508C145.074 106.508 143.192 101.739 143.507 97.7047C143.507 97.7047 138.14 95.8023 135.287 99.1347C135.287 99.1347 136.035 95.9859 140.797 95.4743C145.56 94.9626 150.992 100.867 145.074 106.508Z" fill="#263238"/>
<path d="M147.416 106.928C146.877 107.729 146.042 108.283 145.094 108.47C143.874 108.68 143.461 107.459 143.959 106.292C144.405 105.242 145.58 103.871 146.728 104.192C147.876 104.514 148.105 105.924 147.416 106.928Z" fill="#EBB376"/>
<path d="M136.527 108.896C136.497 108.896 136.468 108.888 136.443 108.873C136.417 108.858 136.397 108.837 136.382 108.811C136.371 108.792 136.364 108.771 136.361 108.749C136.358 108.728 136.36 108.706 136.366 108.685C136.372 108.664 136.383 108.644 136.397 108.628C136.411 108.611 136.428 108.597 136.448 108.588C137.175 108.248 137.962 108.055 138.764 108.017C138.806 108.018 138.845 108.035 138.876 108.064C138.906 108.093 138.924 108.133 138.928 108.174C138.929 108.196 138.925 108.217 138.918 108.238C138.91 108.258 138.899 108.276 138.884 108.292C138.87 108.308 138.852 108.321 138.833 108.33C138.813 108.339 138.792 108.344 138.77 108.345C138.02 108.385 137.283 108.565 136.599 108.876L136.527 108.896Z" fill="#263238"/>
<path opacity="0.1" d="M150.88 125.053C150.021 128.386 149.365 131.246 148.912 133.758C146.065 130.039 147.364 124.424 147.364 124.424C148.518 123.702 149.765 124.082 150.88 125.053Z" fill="black"/>
<path d="M152.054 122.987C153.399 130.019 154.173 137.327 155.905 144.215C157.591 149.581 159.71 154.862 161.54 160.189C161.651 160.521 161.636 160.883 161.498 161.205C161.36 161.527 161.108 161.787 160.791 161.936C160.474 162.085 160.113 162.112 159.777 162.013C159.441 161.913 159.153 161.693 158.968 161.396C155.636 155.61 152.238 149.745 150.257 143.323C148.643 136.92 147.353 130.439 146.393 123.905C145.94 120.186 151.306 119.313 152.054 122.987Z" fill="#E9B376"/>
<path d="M148.656 118.979C152.422 120.553 154.462 127.198 154.462 127.198C154.462 127.198 151.431 132.833 147.292 134.834C147.292 134.834 143.73 125.827 144.976 122.193C146.222 118.559 148.656 118.979 148.656 118.979Z" fill="#B2D1FF"/>
<path d="M159.992 159.283L165.24 159.69L164.164 164.151C164.164 164.151 160.458 164.387 159.172 161.612L159.992 159.283Z" fill="#EBB376"/>
<path d="M168.395 161.691L166.795 164.827L164.157 164.157L165.233 159.69L168.395 161.691Z" fill="#EBB376"/>
<path d="M139.426 96.2221C139.426 96.2221 139.682 99.712 141.873 99.9744C144.064 100.237 144.077 103.254 144.077 103.254L147.042 98.8854L144.707 95.9072L139.426 96.2221Z" fill="#263238"/>
<path d="M128.884 116.801C128.841 116.801 128.799 116.784 128.768 116.753C128.738 116.722 128.72 116.68 128.72 116.637C128.72 116.593 128.738 116.552 128.768 116.521C128.799 116.49 128.841 116.473 128.884 116.473C129.185 116.404 129.461 116.251 129.678 116.031C129.895 115.812 130.045 115.535 130.111 115.233C130.2 114.666 130.089 114.086 129.796 113.593C129.355 112.809 129.235 111.885 129.462 111.015C129.686 110.458 129.979 109.931 130.334 109.447C131.095 108.292 131.961 106.98 131.535 104.855C130.826 101.352 132.191 98.3869 135.602 96.0515C135.639 96.0299 135.683 96.0227 135.725 96.0311C135.768 96.0396 135.805 96.0632 135.831 96.0974C135.844 96.1155 135.852 96.1357 135.857 96.1571C135.861 96.1785 135.861 96.2005 135.857 96.2219C135.852 96.2432 135.844 96.2636 135.832 96.2816C135.819 96.2997 135.804 96.3151 135.785 96.327C132.453 98.6099 131.193 101.378 131.849 104.789C132.302 107.02 131.397 108.384 130.596 109.591C130.262 110.055 129.984 110.557 129.77 111.087C129.565 111.88 129.68 112.721 130.091 113.429C130.418 113.994 130.534 114.656 130.419 115.299C130.333 115.66 130.147 115.99 129.881 116.251C129.615 116.511 129.281 116.69 128.917 116.768L128.884 116.801Z" fill="#263238"/>
<path d="M144.628 104.442C144.496 104.445 144.366 104.415 144.248 104.356C143.789 104.147 143.592 103.576 143.388 102.913C143.074 101.942 142.732 100.84 141.42 100.486C138.58 99.7054 139.243 96.2221 139.249 96.1893C139.259 96.1479 139.284 96.1119 139.319 96.0886C139.355 96.0654 139.398 96.0568 139.439 96.0646C139.461 96.0677 139.481 96.0752 139.5 96.0867C139.518 96.0981 139.534 96.1132 139.546 96.1311C139.559 96.1489 139.567 96.1692 139.571 96.1905C139.576 96.2118 139.575 96.2337 139.571 96.2549C139.571 96.3861 138.96 99.4693 141.506 100.191C142.955 100.591 143.362 101.831 143.69 102.815C143.88 103.399 144.044 103.91 144.346 104.061C144.464 104.102 144.589 104.118 144.713 104.108C144.837 104.097 144.958 104.062 145.068 104.002C145.087 103.993 145.109 103.987 145.131 103.986C145.153 103.985 145.174 103.989 145.195 103.997C145.215 104.005 145.234 104.017 145.249 104.033C145.265 104.048 145.276 104.067 145.284 104.088C145.293 104.108 145.297 104.129 145.297 104.151C145.297 104.173 145.293 104.195 145.284 104.215C145.276 104.235 145.263 104.254 145.247 104.269C145.232 104.284 145.213 104.296 145.192 104.304C145.014 104.384 144.823 104.43 144.628 104.442Z" fill="#263238"/>
<path d="M152.612 119.602C152.587 119.603 152.562 119.598 152.539 119.588C152.517 119.577 152.497 119.562 152.481 119.543C151.569 118.421 152.061 117.148 152.533 115.922C152.814 115.324 152.989 114.683 153.051 114.026C152.984 112.855 152.606 111.723 151.956 110.746C151.346 109.637 150.768 108.588 151.116 107.341C151.693 105.268 150.736 103.714 149.962 102.461C149.481 101.846 149.171 101.115 149.063 100.342C149.063 100.298 149.08 100.257 149.111 100.226C149.142 100.195 149.183 100.178 149.227 100.178C149.27 100.178 149.312 100.195 149.343 100.226C149.374 100.257 149.391 100.298 149.391 100.342C149.504 101.058 149.795 101.735 150.237 102.31C151.044 103.622 152.048 105.242 151.438 107.446C151.123 108.568 151.641 109.513 152.244 110.608C152.922 111.64 153.313 112.833 153.379 114.065C153.318 114.76 153.136 115.44 152.841 116.073C152.376 117.267 151.943 118.395 152.736 119.353C152.752 119.367 152.765 119.385 152.773 119.405C152.782 119.425 152.786 119.446 152.786 119.467C152.786 119.489 152.782 119.51 152.773 119.53C152.765 119.55 152.752 119.568 152.736 119.582C152.719 119.595 152.698 119.603 152.676 119.606C152.655 119.61 152.633 119.608 152.612 119.602Z" fill="#263238"/>
<path d="M105.419 124.443L104.953 126.221L103.943 125.86L104.481 123.971L105.419 124.443Z" fill="#B2D1FF"/>
<path opacity="0.7" d="M105.419 124.443L104.953 126.221L103.943 125.86L104.481 123.971L105.419 124.443Z" fill="white"/>
<path d="M106.705 125.178C106.668 125.185 106.63 125.185 106.593 125.178C106.026 124.957 105.396 124.957 104.829 125.178C104.79 125.197 104.748 125.208 104.705 125.211C104.662 125.214 104.619 125.208 104.578 125.194C104.537 125.18 104.499 125.158 104.467 125.129C104.435 125.101 104.408 125.066 104.389 125.027C104.37 124.989 104.359 124.947 104.357 124.905C104.354 124.862 104.36 124.819 104.374 124.779C104.388 124.739 104.41 124.702 104.438 124.67C104.467 124.638 104.502 124.612 104.54 124.594C105.271 124.302 106.086 124.302 106.817 124.594C106.904 124.609 106.981 124.658 107.032 124.73C107.083 124.802 107.104 124.891 107.089 124.978C107.074 125.065 107.025 125.142 106.953 125.193C106.881 125.245 106.792 125.265 106.705 125.25V125.178Z" fill="#B2D1FF"/>
<path d="M59.8862 221.63C59.8862 221.63 63.0022 214.833 59.4402 208.129C55.8781 201.425 54.8482 199.85 57.1179 198.473C59.3877 197.095 60.4307 203.839 60.4307 203.839C61.5535 200.794 61.6684 197.469 60.7587 194.353C59.1843 189.505 58.1937 181.607 60.3454 180.761C62.4971 179.915 60.7587 190.601 62.6349 194.261C63.5864 191.699 64.2016 189.024 64.4651 186.304C64.7209 182.414 64.3208 176.195 66.0198 174.594C67.7189 172.994 68.8144 174.109 67.1416 182.703C66.1361 187.838 65.5808 193.051 65.4819 198.283C65.4819 198.283 69.1752 187.006 71.6614 186.678C74.1477 186.35 74.1411 190.004 72.0157 193.166C69.8902 196.328 65.7902 202.009 65.1211 204.928C65.1211 204.928 69.1817 196.446 72.8291 199.024C76.4765 201.602 69.6541 206.752 66.6102 208.601C63.5664 210.451 61.4541 222.063 61.4541 222.063L59.8862 221.63Z" fill="#B2D1FF"/>
<path opacity="0.2" d="M59.8862 221.63C59.8862 221.63 63.0022 214.833 59.4402 208.129C55.8781 201.425 54.8482 199.85 57.1179 198.473C59.3877 197.095 60.4307 203.839 60.4307 203.839C61.5535 200.794 61.6684 197.469 60.7587 194.353C59.1843 189.505 58.1937 181.607 60.3454 180.761C62.4971 179.915 60.7587 190.601 62.6349 194.261C63.5864 191.699 64.2016 189.024 64.4651 186.304C64.7209 182.414 64.3208 176.195 66.0198 174.594C67.7189 172.994 68.8144 174.109 67.1416 182.703C66.1361 187.838 65.5808 193.051 65.4819 198.283C65.4819 198.283 69.1752 187.006 71.6614 186.678C74.1477 186.35 74.1411 190.004 72.0157 193.166C69.8902 196.328 65.7902 202.009 65.1211 204.928C65.1211 204.928 69.1817 196.446 72.8291 199.024C76.4765 201.602 69.6541 206.752 66.6102 208.601C63.5664 210.451 61.4541 222.063 61.4541 222.063L59.8862 221.63Z" fill="black"/>
<path d="M62.32 224.418C62.32 224.418 59.2827 217.576 62.9235 210.924C66.5643 204.272 67.6139 202.717 65.3638 201.307C63.1138 199.896 61.9854 206.62 61.9854 206.62C60.8983 203.563 60.8224 200.238 61.769 197.135C63.4024 192.306 64.4914 184.428 62.3462 183.549C60.2011 182.67 61.8149 193.389 59.8994 197.01C58.9767 194.435 58.3923 191.752 58.161 189.026C57.951 185.13 58.4299 178.917 56.744 177.297C55.0581 175.677 53.956 176.766 55.5304 185.386C56.4731 190.535 56.9648 195.757 56.9998 200.992C56.9998 200.992 53.4378 189.663 50.9646 189.295C48.4915 188.928 48.4456 192.575 50.5317 195.777C52.6178 198.978 56.6456 204.711 57.2819 207.637C57.2819 207.637 53.3459 199.109 49.6461 201.641C45.9462 204.173 52.7293 209.415 55.7469 211.311C58.7645 213.207 60.7456 224.844 60.7456 224.844L62.32 224.418Z" fill="#B2D1FF"/>
<path d="M48.3472 219.544H73.413L71.3859 237.479H50.3808L48.3472 219.544Z" fill="#263238"/>
</svg>
