<svg width="304" height="237" viewBox="0 0 304 237" fill="none" xmlns="http://www.w3.org/2000/svg">
<path d="M269.903 171.396H160.032C159.087 171.395 158.182 171.019 157.514 170.351C156.846 169.683 156.47 168.778 156.469 167.833V7.75922C156.472 6.81584 156.849 5.91209 157.516 5.24559C158.184 4.57908 159.088 4.20402 160.032 4.20242H269.903C270.847 4.20402 271.751 4.57908 272.419 5.24559C273.086 5.91209 273.463 6.81584 273.466 7.75922V167.833C273.465 168.778 273.089 169.683 272.421 170.351C271.753 171.019 270.848 171.395 269.903 171.396ZM160.032 4.35442C159.582 4.35122 159.137 4.43687 158.72 4.60647C158.304 4.77607 157.925 5.02626 157.606 5.34266C157.287 5.65907 157.033 6.03544 156.86 6.45016C156.687 6.86488 156.597 7.30976 156.596 7.75922V167.833C156.596 168.738 156.956 169.606 157.596 170.245C158.235 170.885 159.103 171.244 160.007 171.244H269.903C270.808 171.244 271.676 170.885 272.315 170.245C272.955 169.606 273.314 168.738 273.314 167.833V7.75922C273.314 6.8546 272.955 5.98703 272.315 5.34737C271.676 4.7077 270.808 4.34834 269.903 4.34834L160.032 4.35442Z" fill="#F0F0F0"/>
<path d="M143.178 171.396H33.2819C32.3375 171.395 31.4322 171.019 30.7644 170.351C30.0966 169.683 29.7207 168.778 29.7191 167.833V7.75923C29.7207 6.81479 30.0966 5.90949 30.7644 5.24167C31.4322 4.57385 32.3375 4.19796 33.2819 4.19635H143.178C144.122 4.19796 145.028 4.57385 145.695 5.24167C146.363 5.90949 146.739 6.81479 146.741 7.75923V167.833C146.739 168.778 146.363 169.683 145.695 170.351C145.028 171.019 144.122 171.395 143.178 171.396ZM33.2819 4.35443C32.3784 4.35443 31.5117 4.71296 30.8722 5.35131C30.2327 5.98965 29.8727 6.85566 29.8711 7.75923V167.833C29.8711 168.738 30.2304 169.606 30.8701 170.245C31.5097 170.885 32.3773 171.244 33.2819 171.244H143.178C144.083 171.244 144.95 170.885 145.59 170.245C146.229 169.606 146.589 168.738 146.589 167.833V7.75923C146.589 6.85461 146.229 5.98704 145.59 5.34738C144.95 4.70771 144.083 4.34835 143.178 4.34835L33.2819 4.35443Z" fill="#F0F0F0"/>
<path d="M304 208.527H0V208.679H304V208.527Z" fill="#E0E0E0"/>
<path d="M136.478 150.761L140.466 154.713L141.013 155.26L113.38 183.198L104.442 174.163L70.455 208.527H76.7782L104.442 180.553L113.38 189.588L144.199 158.422L144.436 158.659L148.425 162.611L151.325 147.538L136.478 150.761Z" fill="#F0F0F0"/>
<path d="M81.8733 48.9026L85.8618 52.8546L86.409 53.3957L58.7754 81.3394L49.8378 72.2984L29.8711 92.4962V98.8863L49.8378 78.6946L58.7754 87.7295L89.5949 56.5634L89.8381 56.8005L93.8205 60.7525L96.7207 45.6802L81.8733 48.9026Z" fill="#F0F0F0"/>
<path d="M50.2937 40.7919C50.2945 40.9026 50.2734 41.0123 50.2316 41.1148C50.1898 41.2173 50.1281 41.3105 50.0501 41.3891C49.9721 41.4677 49.8794 41.53 49.7772 41.5725C49.675 41.6151 49.5654 41.637 49.4547 41.637H47.0227V44.069C47.0227 44.2915 46.9343 44.5049 46.7769 44.6623C46.6196 44.8196 46.4062 44.908 46.1836 44.908C45.9611 44.908 45.7477 44.8196 45.5903 44.6623C45.433 44.5049 45.3446 44.2915 45.3446 44.069V41.637H42.9126C42.796 41.6469 42.6786 41.6325 42.5679 41.5947C42.4571 41.5569 42.3554 41.4965 42.2693 41.4173C42.1831 41.3381 42.1143 41.2419 42.0672 41.1348C42.0202 41.0277 41.9958 40.9119 41.9958 40.7949C41.9958 40.6779 42.0202 40.5622 42.0672 40.455C42.1143 40.3479 42.1831 40.2517 42.2693 40.1725C42.3554 40.0934 42.4571 40.033 42.5679 39.9951C42.6786 39.9573 42.796 39.9429 42.9126 39.9528H45.3446V37.5208C45.3446 37.2983 45.433 37.0849 45.5903 36.9275C45.7477 36.7702 45.9611 36.6818 46.1836 36.6818C46.4062 36.6818 46.6196 36.7702 46.7769 36.9275C46.9343 37.0849 47.0227 37.2983 47.0227 37.5208V39.9528H49.4547C49.5649 39.9528 49.674 39.9745 49.7758 40.0167C49.8776 40.0589 49.97 40.1207 50.048 40.1986C50.1259 40.2765 50.1877 40.369 50.2298 40.4708C50.272 40.5726 50.2937 40.6817 50.2937 40.7919Z" fill="#F0F0F0"/>
<path d="M256.819 98.8863C256.819 99.1088 256.731 99.3222 256.574 99.4796C256.416 99.6369 256.203 99.7253 255.98 99.7253H253.548V102.157C253.548 102.38 253.46 102.593 253.302 102.751C253.145 102.908 252.932 102.996 252.709 102.996C252.487 102.996 252.273 102.908 252.116 102.751C251.959 102.593 251.87 102.38 251.87 102.157V99.7253H249.438C249.216 99.7253 249.002 99.6369 248.845 99.4796C248.688 99.3222 248.599 99.1088 248.599 98.8863C248.599 98.6637 248.688 98.4503 248.845 98.293C249.002 98.1356 249.216 98.0472 249.438 98.0472H251.87V95.6152C251.87 95.3927 251.959 95.1793 252.116 95.0219C252.273 94.8646 252.487 94.7762 252.709 94.7762C252.932 94.7762 253.145 94.8646 253.302 95.0219C253.46 95.1793 253.548 95.3927 253.548 95.6152V98.0472H255.98C256.203 98.0472 256.416 98.1356 256.574 98.293C256.731 98.4503 256.819 98.6637 256.819 98.8863Z" fill="#F0F0F0"/>
<path d="M175.566 20.1259C175.567 20.2366 175.546 20.3464 175.504 20.4489C175.462 20.5514 175.4 20.6446 175.323 20.7232C175.245 20.8017 175.152 20.8641 175.05 20.9066C174.947 20.9492 174.838 20.9711 174.727 20.9711H172.295V23.4031C172.295 23.5133 172.273 23.6224 172.231 23.7242C172.189 23.826 172.127 23.9185 172.049 23.9964C171.971 24.0743 171.879 24.1361 171.777 24.1782C171.675 24.2204 171.566 24.2421 171.456 24.2421C171.346 24.2421 171.237 24.2204 171.135 24.1782C171.033 24.1361 170.941 24.0743 170.863 23.9964C170.785 23.9185 170.723 23.826 170.681 23.7242C170.639 23.6224 170.617 23.5133 170.617 23.4031V20.9711H168.185C168.068 20.981 167.951 20.9666 167.84 20.9288C167.73 20.8909 167.628 20.8305 167.542 20.7514C167.455 20.6722 167.387 20.576 167.34 20.4689C167.293 20.3618 167.268 20.246 167.268 20.129C167.268 20.012 167.293 19.8962 167.34 19.7891C167.387 19.6819 167.455 19.5858 167.542 19.5066C167.628 19.4274 167.73 19.367 167.84 19.3292C167.951 19.2914 168.068 19.277 168.185 19.2869H170.617V16.8792C170.617 16.769 170.639 16.6599 170.681 16.5581C170.723 16.4563 170.785 16.3639 170.863 16.2859C170.941 16.208 171.033 16.1462 171.135 16.1041C171.237 16.0619 171.346 16.0402 171.456 16.0402C171.566 16.0402 171.675 16.0619 171.777 16.1041C171.879 16.1462 171.971 16.208 172.049 16.2859C172.127 16.3639 172.189 16.4563 172.231 16.5581C172.273 16.6599 172.295 16.769 172.295 16.8792V19.3112H174.727C174.945 19.3111 175.155 19.3962 175.312 19.5483C175.469 19.7004 175.56 19.9077 175.566 20.1259Z" fill="#F0F0F0"/>
<path d="M49.6675 145.015H34.4675V152.007H49.6675V145.015Z" fill="#F5F5F5"/>
<path d="M66.1565 145.015H50.9565V152.007H66.1565V145.015Z" fill="#F5F5F5"/>
<path d="M57.912 153.223H42.712V160.215H57.912V153.223Z" fill="#F5F5F5"/>
<path d="M247.334 14.204H232.134V21.196H247.334V14.204Z" fill="#F5F5F5"/>
<path d="M263.829 14.204H248.629V21.196H263.829V14.204Z" fill="#F5F5F5"/>
<path d="M255.585 22.412H240.385V29.404H255.585V22.412Z" fill="#F5F5F5"/>
<path d="M66.7219 114.573H57.7479V128.222H66.7219V114.573Z" fill="#F5F5F5"/>
<path d="M80.2864 106.638H71.3123V128.222H80.2864V106.638Z" fill="#F5F5F5"/>
<path d="M93.8508 94.4114H84.8768V128.222H93.8508V94.4114Z" fill="#F5F5F5"/>
<path d="M107.415 81.4732H98.4413V128.222H107.415V81.4732Z" fill="#F5F5F5"/>
<path d="M225.343 152.615H216.369V166.265H225.343V152.615Z" fill="#F5F5F5"/>
<path d="M238.908 144.675H229.933V166.259H238.908V144.675Z" fill="#F5F5F5"/>
<path d="M252.472 132.448H243.498V166.259H252.472V132.448Z" fill="#F5F5F5"/>
<path d="M266.036 119.516H257.062V166.265H266.036V119.516Z" fill="#F5F5F5"/>
<path d="M272.311 233.698C272.311 234.993 219.196 236.045 153.678 236.045C88.16 236.045 35.0512 234.993 35.0512 233.698C35.0512 232.403 88.16 231.357 153.678 231.357C219.196 231.357 272.311 232.403 272.311 233.698Z" fill="#F5F5F5"/>
<path d="M231.307 167.335L235.296 171.293L235.843 171.834L208.21 199.772L199.272 190.737L156.596 233.899H162.914L199.272 197.127L208.21 206.168L239.035 174.996L239.272 175.233L243.261 179.185L246.155 164.119L231.307 167.335Z" fill="#B2D1FF"/>
<path d="M80.0736 231.327L84.0803 209.615H56.8358L60.8425 231.315C60.9648 231.98 61.3164 232.582 61.8362 233.015C62.3561 233.448 63.0113 233.686 63.688 233.686H77.2281C77.9031 233.686 78.5569 233.451 79.0765 233.02C79.5961 232.589 79.9488 231.99 80.0736 231.327Z" fill="#263238"/>
<path d="M81.1923 189.989C77.6051 189.04 72.1271 196.488 70.4611 203.748V193.199C71.8443 190.858 73.6527 188.796 75.7933 187.119C80.2925 183.471 84.4391 178.747 80.8458 177.799C77.4775 176.911 72.4432 183.416 70.4611 190.226V176.619C71.2945 175.36 72.3203 174.24 73.5011 173.299C76.3405 170.989 78.9731 168.022 76.6871 167.42C74.7232 166.903 71.8231 170.387 70.449 174.309V169.907C70.6996 168.084 71.1924 166.303 71.9143 164.611C73.9997 160.002 75.1245 155.254 72.3763 155.613C69.6282 155.971 67.8346 164.167 69.3363 170.466V172.734C68.321 168.125 64.8311 163.352 62.5511 163.948C60.2711 164.544 62.8976 167.511 65.737 169.828C67.2348 170.98 68.4631 172.445 69.3363 174.12V184.815C67.7069 177.519 62.1863 169.992 58.5808 170.94C54.9754 171.889 59.1341 176.595 63.6394 180.267C66.0043 182.09 67.9476 184.403 69.3363 187.046V199.887C67.5975 192.725 62.2167 185.502 58.6781 186.432C55.1395 187.362 58.1674 190.816 63.2259 194.981C65.736 197.021 67.8046 199.551 69.3059 202.416V209.615H70.4186V206.028C71.8242 203.409 73.7702 201.119 76.1277 199.31C80.6391 195.631 84.7856 190.937 81.1923 189.989Z" fill="#B2D1FF"/>
<path d="M85.7584 208.606H55.1578V211.585H85.7584V208.606Z" fill="#263238"/>
<path opacity="0.2" d="M85.7584 208.606H55.1578V211.585H85.7584V208.606Z" fill="white"/>
<path d="M244.294 70.8878C242.58 76.9945 238.9 82.3654 233.824 86.1685C228.748 89.9717 222.559 91.9949 216.217 91.9246H212.654V91.6632C211.342 91.4843 210.044 91.2141 208.769 90.8546C202.389 89.064 196.822 85.1299 193.004 79.7147C189.185 74.2994 187.35 67.7338 187.806 61.1235C188.262 54.5132 190.982 48.262 195.508 43.4225C200.034 38.5831 206.089 35.451 212.654 34.5538V34.2862H216.217C220.692 34.2391 225.116 35.234 229.139 37.1921C233.163 39.1503 236.676 42.0179 239.4 45.5683C242.124 49.1186 243.984 53.2541 244.834 57.6475C245.683 62.041 245.499 66.5719 244.294 70.8818V70.8878Z" fill="#B2D1FF"/>
<path opacity="0.3" d="M244.294 70.8878C242.58 76.9945 238.9 82.3654 233.824 86.1685C228.748 89.9717 222.559 91.9949 216.217 91.9246H212.654V91.6632C211.342 91.4843 210.044 91.2141 208.769 90.8546C202.389 89.064 196.822 85.1299 193.004 79.7147C189.185 74.2994 187.35 67.7338 187.806 61.1235C188.262 54.5132 190.982 48.262 195.508 43.4225C200.034 38.5831 206.089 35.451 212.654 34.5538V34.2862H216.217C220.692 34.2391 225.116 35.234 229.139 37.1921C233.163 39.1503 236.676 42.0179 239.4 45.5683C242.124 49.1186 243.984 53.2541 244.834 57.6475C245.683 62.041 245.499 66.5719 244.294 70.8818V70.8878Z" fill="black"/>
<path d="M223.782 89.7967C238.513 83.7789 245.577 66.9585 239.559 52.2272C233.541 37.4958 216.721 30.4321 201.989 36.4498C187.258 42.4676 180.194 59.288 186.212 74.0193C192.23 88.7507 209.05 95.8144 223.782 89.7967Z" fill="#B2D1FF"/>
<path d="M222.227 83.8694C233.699 78.7091 238.815 65.2264 233.655 53.7549C228.494 42.2835 215.012 37.1673 203.54 42.3276C192.069 47.4879 186.953 60.9706 192.113 72.442C197.273 83.9135 210.756 89.0297 222.227 83.8694Z" fill="white"/>
<path d="M229.453 65.5604C230.801 56.4183 224.483 47.9142 215.341 46.5659C206.199 45.2175 197.695 51.5356 196.346 60.6776C194.998 69.8196 201.316 78.3237 210.458 79.672C219.6 81.0204 228.104 74.7024 229.453 65.5604Z" fill="#B2D1FF"/>
<path d="M223.465 64.7132C224.349 58.8732 220.332 53.4222 214.492 52.5379C208.652 51.6537 203.201 55.671 202.317 61.511C201.432 67.351 205.45 72.802 211.29 73.6863C217.13 74.5705 222.581 70.5531 223.465 64.7132Z" fill="white"/>
<path d="M211.626 67.5925C212.512 67.8406 213.451 67.8206 214.325 67.535C215.2 67.2494 215.97 66.7111 216.538 65.9881C217.106 65.2651 217.447 64.3898 217.518 63.4729C217.59 62.556 217.387 61.6386 216.937 60.8367C216.487 60.0348 215.809 59.3843 214.989 58.9676C214.169 58.5508 213.244 58.3864 212.331 58.4952C211.418 58.6039 210.557 58.981 209.858 59.5786C209.159 60.1763 208.653 60.9678 208.404 61.853C208.073 63.0414 208.226 64.3126 208.83 65.3883C209.434 66.464 210.439 67.2566 211.626 67.5925Z" fill="#B2D1FF"/>
<path d="M180.637 45.364L187.592 44.3L186.534 37.3445C186.515 37.2468 186.515 37.146 186.535 37.0484C186.556 36.9508 186.596 36.8583 186.653 36.7767C186.71 36.695 186.783 36.6258 186.868 36.5732C186.953 36.5207 187.047 36.486 187.146 36.4711C187.244 36.4563 187.345 36.4616 187.442 36.4868C187.538 36.5121 187.628 36.5566 187.707 36.6179C187.786 36.6791 187.851 36.7556 187.899 36.8429C187.948 36.9302 187.978 37.0264 187.988 37.1256L189.137 44.6405L191.806 46.6043L190.882 40.5243C190.852 40.3308 190.9 40.1334 191.016 39.9755C191.132 39.8176 191.305 39.7121 191.499 39.6823C191.692 39.6524 191.89 39.7007 192.048 39.8164C192.206 39.9321 192.311 40.1059 192.341 40.2994L193.472 47.8446L196.846 50.3253L195.928 44.2453C195.912 44.1502 195.916 44.053 195.938 43.9593C195.96 43.8655 196.001 43.7771 196.057 43.6991C196.114 43.6211 196.185 43.555 196.267 43.5048C196.35 43.4545 196.441 43.421 196.536 43.4063C196.728 43.3781 196.923 43.4259 197.079 43.5395C197.236 43.6531 197.342 43.8235 197.375 44.0143L198.542 51.5352L213.201 62.3272C214.119 63.0872 213.517 64.0478 212.764 63.835L197.515 52.6114L190.261 53.7179C190.068 53.7478 189.871 53.6995 189.713 53.5838C189.555 53.468 189.449 53.2943 189.419 53.1008C189.39 52.9073 189.438 52.7099 189.554 52.552C189.669 52.394 189.843 52.2886 190.036 52.2587L195.831 51.3771L192.456 48.8965L185.209 49.997C185.015 50.0268 184.818 49.9785 184.66 49.8628C184.502 49.7471 184.397 49.5734 184.367 49.3799C184.337 49.1863 184.385 48.9889 184.501 48.831C184.617 48.6731 184.791 48.5676 184.984 48.5378L190.778 47.6562L188.109 45.6923L180.856 46.7928C180.758 46.8126 180.657 46.8123 180.56 46.7919C180.462 46.7716 180.37 46.7316 180.288 46.6744C180.206 46.6172 180.137 46.544 180.084 46.4592C180.032 46.3745 179.997 46.2799 179.982 46.1813C179.967 46.0827 179.973 45.9821 179.998 45.8856C180.023 45.7892 180.068 45.6988 180.129 45.6201C180.19 45.5414 180.267 45.476 180.354 45.4277C180.441 45.3795 180.538 45.3496 180.637 45.3397V45.364Z" fill="#263238"/>
<path d="M116.797 233.899H116.189V215.482H137.414V197.34H158.645V179.221H179.871V161.079H201.102V142.966H222.327V124.824H243.857V125.432H222.935V143.55L222.631 143.574H201.71V161.687H180.479V179.805L180.175 179.829H159.253V197.948H138.022V216.06L137.718 216.09H116.797V233.899Z" fill="#263238"/>
<path d="M248.088 125.128L243.857 129.505V120.75L248.088 125.128Z" fill="#263238"/>
<path d="M146.048 50.684C147.507 53.9915 148.899 57.372 150.304 60.7099L152.377 65.7016C153.082 67.3311 153.775 69.0213 154.487 70.4379C154.7 70.9608 155 71.4439 155.374 71.8667C155.907 72.4623 156.471 73.0285 157.065 73.5631C158.281 74.7426 159.673 75.8917 161.041 77.0591L169.419 84.0085L167.163 87.5714C163.795 85.9419 160.53 84.2031 157.326 82.2514C155.715 81.2786 154.134 80.2511 152.535 79.1202C151.69 78.5196 150.879 77.8742 150.103 77.1867C149.616 76.7586 149.162 76.2931 148.747 75.7944L148.413 75.3445L148.151 74.9554C147.975 74.6939 147.853 74.4872 147.701 74.244C147.154 73.3442 146.692 72.5051 146.236 71.66C145.78 70.8149 145.342 69.9819 144.929 69.1429C144.096 67.4648 143.281 65.7928 142.497 64.1087C140.947 60.7403 139.493 57.372 138.162 53.9064L146.048 50.684Z" fill="#9E6141"/>
<path d="M145.883 50.149L151.556 60.789C150.042 64.3431 147.587 67.4166 144.455 69.6779L140.405 64.9963L145.883 50.149Z" fill="#B2D1FF"/>
<g opacity="0.5">
<path d="M145.883 50.149L151.556 60.789C150.042 64.3431 147.587 67.4166 144.455 69.6779L140.405 64.9963L145.883 50.149Z" fill="white"/>
</g>
<path d="M137.536 20.3934C135.823 20.2619 134.118 20.7263 132.708 21.708C131.299 22.6897 130.272 24.1284 129.802 25.7803C128.087 30.8754 126.075 33.8059 123.722 34.8091C119.885 36.4629 116.213 39.8191 118.554 44.5858C122.257 52.125 138.01 51.365 141.092 48.1426C144.175 44.9202 140.91 45.7106 144.072 42.7678C147.233 39.8251 150.583 31.4834 148.358 25.604C147.118 22.3512 142.4 19.3112 137.536 20.3934Z" fill="#263238"/>
<path d="M144.406 37.5026C144.333 37.8083 144.171 38.0855 143.941 38.299C143.71 38.5126 143.422 38.653 143.111 38.7023C142.801 38.7516 142.483 38.7076 142.198 38.576C141.912 38.4443 141.672 38.231 141.508 37.9629C141.345 37.6948 141.264 37.384 141.277 37.0701C141.29 36.7561 141.395 36.453 141.581 36.1992C141.766 35.9454 142.023 35.7524 142.318 35.6445C142.613 35.5367 142.933 35.5189 143.239 35.5934C143.646 35.6929 143.997 35.9495 144.216 36.3072C144.435 36.6649 144.503 37.0947 144.406 37.5026Z" fill="white"/>
<path d="M122.688 203.772L123.011 210.77H126.75L127.601 203.772H122.688Z" fill="#9E6141"/>
<path d="M137.116 215.695C137.116 213.415 136.192 212.734 134.94 212.655C133.687 212.576 129.139 211.038 129.139 211.038C129.139 211.038 128.306 209.591 127.479 209.293C126.652 208.995 125.734 209.864 125.734 209.864L123.412 209.579C123.412 209.579 122.804 208.539 122.238 209.451C121.351 210.868 121.059 214.777 121.022 215.695H137.116Z" fill="#B2D1FF"/>
<path d="M136.873 215.124H133.955L121.187 215.057C121.022 215.057 121.077 214.814 121.241 214.82H122.105C122.105 214.82 122.105 214.82 122.105 214.783C122.312 214.54 122.463 214.254 122.548 213.946C122.634 213.638 122.651 213.315 122.599 213C122.547 212.684 122.427 212.384 122.247 212.12C122.067 211.856 121.832 211.634 121.557 211.47C121.43 211.397 121.612 211.184 121.734 211.263C122.889 211.98 123.278 213.409 122.342 214.814H124.166L136.934 214.88C137.092 214.887 137.031 215.13 136.873 215.124Z" fill="black"/>
<path d="M128.337 212.047C129.072 211.281 130.063 211.062 130.714 211.64C130.817 211.737 130.994 211.524 130.89 211.433C130.142 210.77 128.987 211.056 128.148 211.926C128.027 212.053 128.215 212.175 128.337 212.047Z" fill="white"/>
<path d="M129.632 212.455C130.367 211.688 131.358 211.47 132.009 212.053C132.112 212.144 132.289 211.932 132.185 211.84C131.437 211.178 130.282 211.464 129.449 212.333C129.328 212.461 129.51 212.582 129.632 212.455Z" fill="white"/>
<path d="M130.939 212.868C131.675 212.096 132.666 211.883 133.316 212.461C133.42 212.552 133.596 212.339 133.486 212.248C132.745 211.585 131.589 211.871 130.75 212.74C130.629 212.868 130.817 212.99 130.939 212.868Z" fill="white"/>
<path d="M140.977 88.0699C140.977 88.0699 140.667 99.8286 139.524 116.348C139.299 119.546 139.044 122.933 138.758 126.447C138.15 133.743 137.396 141.586 136.453 149.551C134.173 168.733 127.808 205.42 127.808 205.42L122.013 205.548C122.013 205.548 116.304 172.716 122.555 149.995C122.159 146.067 121.837 142.383 121.588 138.917C120.816 129.498 120.613 120.04 120.98 110.596C120.98 110.025 121.035 109.465 121.065 108.918C121.12 108.006 121.187 107.125 121.253 106.28C121.357 104.899 121.491 103.61 121.624 102.413C122.932 91.2315 125.272 88.0091 125.272 88.0091L140.977 88.0699Z" fill="#263238"/>
<g opacity="0.2">
<path d="M139.524 116.348C139.299 119.546 139.043 122.933 138.758 126.447C132.915 121.723 125.011 113.253 121.065 108.918C121.12 108.006 121.187 107.125 121.253 106.28L139.524 116.348Z" fill="black"/>
</g>
<path d="M155.21 168.192L162.19 167.992C165.917 150.043 176.253 115.862 170.866 110.657C151.97 92.3867 116.256 83.7592 116.256 83.7592C111.945 84.6165 108.832 85.9541 107.884 90.0946C106.905 94.3506 107.507 100.108 112.693 103.756C115.86 105.988 119.825 107.465 127.777 111.119C135.544 114.803 143.576 117.9 151.805 120.385C155.046 121.376 156.128 121.698 157.885 122.209C154.225 135.439 155.168 163.048 155.21 168.192Z" fill="#263238"/>
<path d="M156.207 167.748L156.122 174.382H159.855L161.126 167.748H156.207Z" fill="#9E6141"/>
<path d="M163.151 169.852L163.625 167.377H154.59L154.547 169.852H163.151Z" fill="#263238"/>
<path d="M170.228 179.337C170.228 177.051 169.298 176.37 168.051 176.297C166.805 176.224 162.245 174.673 162.245 174.673C162.245 174.673 161.418 173.226 160.585 172.935C159.752 172.643 158.846 173.5 158.846 173.5L156.524 173.22C156.524 173.22 155.916 172.175 155.35 173.087C154.462 174.503 154.171 178.419 154.134 179.337H170.228Z" fill="#B2D1FF"/>
<path d="M169.985 178.735H167.066L154.298 178.674C154.134 178.674 154.189 178.425 154.353 178.431H155.216C155.212 178.419 155.212 178.406 155.216 178.394C155.423 178.151 155.575 177.865 155.66 177.557C155.745 177.249 155.763 176.926 155.71 176.611C155.658 176.295 155.538 175.995 155.358 175.731C155.179 175.467 154.943 175.245 154.669 175.081C154.541 175.008 154.724 174.795 154.845 174.874C155.995 175.591 156.39 177.02 155.453 178.431H157.277L170.045 178.498C170.203 178.498 170.143 178.741 169.985 178.735Z" fill="black"/>
<path d="M161.448 175.664C162.184 174.892 163.175 174.673 163.826 175.257C163.929 175.348 164.105 175.136 163.996 175.044C163.254 174.382 162.099 174.667 161.26 175.537C161.138 175.664 161.327 175.786 161.448 175.664Z" fill="white"/>
<path d="M162.725 176.072C163.461 175.3 164.452 175.087 165.102 175.664C165.206 175.756 165.382 175.549 165.279 175.452C164.531 174.789 163.376 175.081 162.543 175.95C162.415 176.078 162.603 176.193 162.725 176.072Z" fill="white"/>
<path d="M164.044 176.479C164.786 175.713 165.777 175.494 166.428 176.072C166.531 176.163 166.701 175.956 166.598 175.865C165.856 175.196 164.701 175.488 163.862 176.358C163.74 176.485 163.923 176.607 164.044 176.479Z" fill="white"/>
<path d="M128.252 206.776L128.817 204.307H121.12L121.174 206.776H128.252Z" fill="#263238"/>
<path d="M107.877 87.5045C119.697 93.0677 140.807 94.2655 141.232 91.4565C142.448 83.5525 140.959 74.3048 142.503 69.2402C149.003 65.8962 144.971 61.6706 146.4 55.7183C146.92 53.5366 146.578 51.2385 145.446 49.3027C144.313 47.367 142.477 45.943 140.32 45.3275C139.287 45.0235 138.21 44.7195 137.153 44.4399L136.508 44.2818C133.663 43.6065 130.777 43.119 127.868 42.8226C126.811 42.6949 125.704 42.5794 124.555 42.4517C123.406 42.324 122.275 42.245 121.205 42.1963C120.259 42.1447 119.313 42.2877 118.425 42.6164C117.537 42.9451 116.726 43.4527 116.042 44.1075C115.358 44.7624 114.816 45.5507 114.449 46.4236C114.082 47.2965 113.898 48.2354 113.909 49.1823C114.061 54.5868 113.858 59.9954 113.301 65.3733C113.185 66.4859 113.058 67.556 112.912 68.6018C112.426 72.2939 111.697 75.9498 110.729 79.5458C110.715 79.6138 110.697 79.6808 110.674 79.7464C110.269 81.1732 109.847 82.4844 109.41 83.6802C109.276 84.0571 109.136 84.4159 108.99 84.7624C108.704 85.4799 108.2 86.7992 107.877 87.5045Z" fill="#B2D1FF"/>
<g opacity="0.3">
<path d="M107.877 87.5045C119.697 93.0677 140.807 94.2655 141.232 91.4565C142.448 83.5525 140.959 74.3048 142.503 69.2402C149.003 65.8962 144.971 61.6706 146.4 55.7183C146.92 53.5366 146.578 51.2385 145.446 49.3027C144.313 47.367 142.477 45.943 140.32 45.3275C139.287 45.0235 138.21 44.7195 137.153 44.4399L136.508 44.2818C133.663 43.6065 130.777 43.119 127.868 42.8226C126.811 42.6949 125.704 42.5794 124.555 42.4517C123.406 42.324 122.275 42.245 121.205 42.1963C120.259 42.1447 119.313 42.2877 118.425 42.6164C117.537 42.9451 116.726 43.4527 116.042 44.1075C115.358 44.7624 114.816 45.5507 114.449 46.4236C114.082 47.2965 113.898 48.2354 113.909 49.1823C114.061 54.5868 113.858 59.9954 113.301 65.3733C113.185 66.4859 113.058 67.556 112.912 68.6018C112.426 72.2939 111.697 75.9498 110.729 79.5458C110.715 79.6138 110.697 79.6808 110.674 79.7464C110.269 81.1732 109.847 82.4844 109.41 83.6802C109.276 84.0571 109.136 84.4159 108.99 84.7624C108.704 85.4799 108.2 86.7992 107.877 87.5045Z" fill="white"/>
</g>
<path d="M107.33 51.5656C107.33 51.5656 112.419 42.0078 119.271 42.3726C123.649 42.6037 123.041 51.9912 118.171 59.044C113.635 57.2322 110.249 55.0555 107.33 51.5656Z" fill="#B2D1FF"/>
<g opacity="0.5">
<path d="M107.33 51.5656C107.33 51.5656 112.419 42.0078 119.271 42.3726C123.649 42.6037 123.041 51.9912 118.171 59.044C113.635 57.2322 110.249 55.0555 107.33 51.5656Z" fill="white"/>
</g>
<path d="M127.899 42.8226C130.215 48.3554 136.77 52.2952 136.77 52.2952C137.986 50.0882 138.144 46.3307 137.189 44.4459L136.545 44.2879C133.698 43.6091 130.81 43.1196 127.899 42.8226Z" fill="#9E6141"/>
<path d="M137.086 45.9963C137.099 46.083 137.126 46.1671 137.165 46.2456C137.973 47.948 136.709 49.2856 135 48.9269C134.835 48.8965 134.673 48.8538 134.514 48.7992C133.907 48.5982 133.378 48.2136 133 47.6987C131.846 46.1155 130.571 44.6235 129.188 43.236C131.948 42.1599 133.492 37.3445 134.107 34.2923L137.505 39.8981L138.113 41.1141C137.668 41.6912 137.295 42.32 137.001 42.9867C136.768 43.4571 136.654 43.9774 136.668 44.5021C136.683 45.0268 136.827 45.5399 137.086 45.9963Z" fill="#9E6141"/>
<g opacity="0.2">
<path d="M137.013 42.9746C137.307 42.3078 137.68 41.679 138.125 41.1019L137.517 39.8859L134.982 39.6366C135.269 40.9443 135.983 42.119 137.013 42.9746Z" fill="black"/>
</g>
<path d="M134.034 28.7048C133.018 33.7208 132.483 35.8184 134.252 39.0043C136.916 43.7954 143.178 43.9048 145.646 39.2901C147.866 35.1314 149.155 27.6286 144.941 24.4062C140.728 21.1838 135.049 23.6888 134.034 28.7048Z" fill="#9E6141"/>
<path d="M142.223 23.0504C142.223 23.0504 143.695 28.2792 146.662 28.8021C149.629 29.325 147.647 25.1541 144.88 23.1234C143.683 22.2357 142.223 23.0504 142.223 23.0504Z" fill="#263238"/>
<path d="M140.807 30.2552C140.839 30.27 140.874 30.2776 140.91 30.2776C140.946 30.2776 140.981 30.27 141.013 30.2552C141.291 30.0791 141.607 29.9709 141.934 29.9392C142.261 29.9075 142.592 29.9533 142.898 30.0728C142.93 30.0891 142.964 30.0988 142.999 30.1015C143.034 30.1041 143.07 30.0996 143.103 30.0881C143.137 30.0767 143.168 30.0586 143.194 30.0349C143.22 30.0112 143.241 29.9824 143.256 29.9503C143.271 29.9182 143.279 29.8834 143.28 29.8481C143.281 29.8128 143.275 29.7776 143.262 29.7447C143.249 29.7118 143.229 29.6819 143.204 29.6568C143.18 29.6317 143.15 29.6119 143.117 29.5986C142.731 29.4422 142.314 29.38 141.9 29.417C141.485 29.454 141.086 29.5892 140.734 29.8113C140.703 29.8282 140.677 29.8511 140.656 29.8788C140.635 29.9064 140.62 29.9381 140.612 29.9719C140.604 30.0057 140.603 30.0407 140.609 30.0749C140.616 30.109 140.629 30.1414 140.649 30.1701C140.687 30.2253 140.742 30.266 140.807 30.2856" fill="#263238"/>
<path d="M147.483 31.6962C147.511 31.7033 147.542 31.7043 147.571 31.699C147.6 31.6938 147.628 31.6825 147.653 31.6658C147.679 31.6501 147.703 31.6293 147.721 31.6045C147.74 31.5797 147.753 31.5514 147.76 31.5214C147.768 31.4913 147.769 31.4601 147.764 31.4295C147.759 31.399 147.748 31.3697 147.732 31.3435C147.542 31.0206 147.277 30.7482 146.959 30.5493C146.642 30.3503 146.281 30.2307 145.908 30.2005C145.877 30.1997 145.846 30.2051 145.818 30.2163C145.789 30.2275 145.763 30.2444 145.74 30.266C145.718 30.2875 145.701 30.3133 145.689 30.3417C145.677 30.3701 145.671 30.4007 145.671 30.4315C145.67 30.4624 145.675 30.4931 145.686 30.5218C145.698 30.5505 145.715 30.5767 145.736 30.5988C145.758 30.6209 145.783 30.6385 145.812 30.6505C145.84 30.6625 145.871 30.6687 145.902 30.6686C146.196 30.6994 146.478 30.7991 146.727 30.9597C146.975 31.1203 147.182 31.3372 147.331 31.5928C147.348 31.6193 147.37 31.6421 147.396 31.6598C147.422 31.6776 147.452 31.6899 147.483 31.6962Z" fill="#263238"/>
<path d="M132.526 27.8658C132.526 27.8658 130.641 31.0517 133.012 31.9211C135.383 32.7906 136.77 31.1672 136.751 29.7445C136.733 28.3218 136.307 26.82 139.791 27.5192C142.886 28.1272 144.801 21.7006 140.685 21.804C138.144 21.8648 133.468 23.4274 132.526 27.8658Z" fill="#263238"/>
<path d="M143.683 37.7944C143.683 37.7944 141.354 36.3778 140.94 35.2408C140.94 35.2408 140.332 37.1135 141.548 37.9829C141.862 38.2279 142.256 38.3447 142.653 38.3097C143.049 38.2747 143.417 38.0905 143.683 37.7944Z" fill="white"/>
<path d="M141.865 32.4014C141.755 32.8027 141.865 33.1858 142.144 33.2587C142.424 33.3317 142.71 33.0581 142.819 32.6507C142.929 32.2433 142.819 31.8664 142.533 31.7934C142.248 31.7205 141.974 31.9941 141.865 32.4014Z" fill="#263238"/>
<path d="M145.89 33.5931C145.78 33.9944 145.89 34.3774 146.169 34.4443C146.449 34.5112 146.729 34.2437 146.838 33.8363C146.948 33.429 146.838 33.052 146.558 32.9851C146.279 32.9182 145.993 33.1858 145.89 33.5931Z" fill="#263238"/>
<path d="M146.437 32.979H147.476C147.476 32.979 146.777 33.587 146.437 32.979Z" fill="#263238"/>
<path d="M144.351 32.8453C144.351 32.8453 144.759 34.0978 145.263 35.2226C145.305 35.3071 145.327 35.4004 145.327 35.4948C145.327 35.5893 145.305 35.6824 145.262 35.7668C145.22 35.8512 145.158 35.9245 145.082 35.981C145.006 36.0374 144.919 36.0754 144.826 36.092C144.376 36.1734 143.92 36.204 143.464 36.1832L144.351 32.8453Z" fill="#7A4224"/>
<path d="M131.371 31.6536C131.443 32.1137 131.612 32.5533 131.866 32.9432C132.121 33.3331 132.456 33.6644 132.848 33.9154C133.863 34.5234 134.727 33.4533 134.745 32.1522C134.745 30.9787 134.252 29.2581 133.091 29.2034C131.93 29.1486 131.152 30.4194 131.371 31.6354" fill="#9E6141"/>
<path d="M133.432 33.7998C133.432 33.9213 133.395 34.04 133.327 34.1406C133.258 34.2411 133.162 34.3189 133.049 34.3639C132.936 34.4089 132.812 34.419 132.693 34.393C132.575 34.3669 132.467 34.3059 132.383 34.2178C132.299 34.1297 132.244 34.0186 132.224 33.8987C132.204 33.7788 132.22 33.6557 132.271 33.5453C132.322 33.4349 132.405 33.3422 132.508 33.2792C132.612 33.2162 132.733 33.1858 132.854 33.1918C133.01 33.1996 133.157 33.2671 133.265 33.3803C133.372 33.4935 133.432 33.6437 133.432 33.7998Z" fill="white"/>
<path d="M142.4 31.7934H143.439C143.439 31.7934 142.746 32.4014 142.4 31.7934Z" fill="#263238"/>
<path d="M204.124 121.291L223.13 124.811L211.754 109.18L204.124 121.291Z" fill="#B2D1FF"/>
<g opacity="0.6">
<path d="M211.754 109.18L219.829 120.276L223.13 124.811L217.676 123.808L204.118 121.291L211.754 109.18Z" fill="white"/>
</g>
<path d="M219.829 120.276L223.13 124.811L217.658 123.808C218.292 122.578 219.018 121.397 219.829 120.276Z" fill="#263238"/>
<path d="M91.2426 33.2222L211.754 109.18L214.8 113.369L209.207 113.217L211.991 117.917L206.665 117.254L208.878 122.173L204.118 121.291L83.6122 45.3275L91.2426 33.2222Z" fill="#B2D1FF"/>
<path d="M91.2443 33.2099L83.6101 45.3233L89.51 49.0415L97.1441 36.9281L91.2443 33.2099Z" fill="#263238"/>
<path d="M79.794 36.2209L81.3856 33.6953C82.1869 32.4238 83.4604 31.5228 84.9261 31.1904C86.3917 30.8579 87.9294 31.1213 89.2008 31.9226L91.2583 33.2193L83.6241 45.3327L81.5667 44.036C80.2952 43.2348 79.3942 41.9612 79.0617 40.4956C78.7293 39.03 78.9927 37.4923 79.794 36.2209Z" fill="#B2D1FF"/>
<g opacity="0.6">
<path d="M79.794 36.2209L81.3856 33.6953C82.1869 32.4238 83.4604 31.5228 84.9261 31.1904C86.3917 30.8579 87.9294 31.1213 89.2008 31.9226L91.2583 33.2193L83.6241 45.3327L81.5667 44.036C80.2952 43.2348 79.3942 41.9612 79.0617 40.4956C78.7293 39.03 78.9927 37.4923 79.794 36.2209Z" fill="white"/>
</g>
<path d="M206.586 117.199C206.56 117.239 206.52 117.267 206.474 117.279C206.427 117.29 206.378 117.283 206.337 117.26L91.9357 45.1694C91.8945 45.1428 91.8657 45.101 91.8554 45.0531C91.8452 45.0052 91.8543 44.9552 91.8809 44.9141C91.9076 44.873 91.9494 44.8441 91.9973 44.8338C92.0452 44.8236 92.0952 44.8328 92.1363 44.8594L206.532 116.956C206.571 116.981 206.599 117.021 206.609 117.066C206.619 117.112 206.611 117.16 206.586 117.199Z" fill="#263238"/>
<path d="M209.134 113.168C209.106 113.208 209.065 113.237 209.018 113.248C208.971 113.259 208.921 113.253 208.878 113.229L94.5014 41.1323C94.4611 41.105 94.4328 41.0632 94.4226 41.0156C94.4124 40.968 94.4211 40.9183 94.4467 40.8769C94.4591 40.8566 94.4754 40.8389 94.4949 40.825C94.5143 40.8111 94.5363 40.8013 94.5596 40.7962C94.5829 40.7911 94.607 40.7908 94.6304 40.7952C94.6539 40.7997 94.6762 40.8089 94.696 40.8222L209.073 112.943C209.109 112.967 209.135 113.003 209.146 113.044C209.157 113.086 209.153 113.13 209.134 113.168Z" fill="#263238"/>
<path d="M132.465 74.2075C131.857 74.4933 131.279 74.7547 130.696 75.004C130.355 75.156 130.021 75.2959 129.68 75.4357C128.75 75.8248 127.814 76.2018 126.865 76.5483C124.98 77.2536 123.059 77.8799 121.095 78.4453C119.095 79.0181 117.065 79.4849 115.015 79.8437C113.964 80.0322 112.893 80.1599 111.769 80.2511C110.707 80.35 109.64 80.3602 108.577 80.2815L108.181 80.2511C107.678 80.1965 107.187 80.0588 106.728 79.8437C106.144 79.5668 105.623 79.1737 105.196 78.6885C104.729 78.1448 104.381 77.5089 104.175 76.8219C103.993 76.2298 103.889 75.6167 103.865 74.9979C103.836 74.2878 103.86 73.5764 103.938 72.8699C104.047 71.7475 104.213 70.6314 104.436 69.5259C104.844 67.4162 105.318 65.4098 105.841 63.4459C106.151 62.2786 106.449 61.1234 106.813 59.9682L114.59 64.8686C114.499 65.1605 114.42 65.4767 114.34 65.7503C113.83 67.6168 113.319 69.4773 112.924 71.2831C112.863 71.5627 112.802 71.8424 112.748 72.116C113.21 72.116 113.684 72.116 114.158 72.0856C115.982 72.0187 117.806 71.8363 119.715 71.6357C121.266 71.4655 122.828 71.2648 124.397 71.0277L125.412 70.8879L131.152 70.0671L132.465 74.2075Z" fill="#9E6141"/>
<path d="M130.696 70.1522C130.696 70.1522 135.687 68.5775 136.776 68.7599C137.961 68.9666 137.615 75.2107 136.113 76.1166C134.611 77.0226 131.006 74.2926 131.006 74.2926L130.696 70.1522Z" fill="#9E6141"/>
<path d="M130.702 70.2069C131.284 69.4756 132.018 68.8801 132.854 68.4619C133.967 68.0302 134.976 67.325 135.499 67.5074C136.022 67.6898 134.18 69.3861 134.18 69.3861L130.702 70.2069Z" fill="#9E6141"/>
<path d="M136.751 68.7598C136.751 68.7598 139.846 69.532 140.861 70.7662C141.877 72.0005 139.104 71.3256 139.104 71.3256C139.104 71.3256 142.345 72.3835 141.105 74.8702C140.497 76.0862 136.812 76.451 135.11 76.2808C135.104 76.2808 134.988 71.0824 136.751 68.7598Z" fill="#9E6141"/>
<path d="M165.765 78.725C165.765 78.725 165.68 78.3054 164.513 78.0318C163.721 77.8137 162.894 77.7599 162.081 77.8738L164.908 79.6978C164.908 79.6978 164.598 82.1845 165.935 83.2971C168.623 85.5346 170.696 84.203 171.274 83.7227C171.851 83.2424 170.891 81.084 169.2 79.8315C168.209 79.0928 167.001 78.7037 165.765 78.725Z" fill="#9E6141"/>
</svg>
