<svg width="328" height="245" viewBox="0 0 328 245" fill="none" xmlns="http://www.w3.org/2000/svg">
<path d="M328 214.774H0V214.938H328V214.774Z" fill="#EBEBEB"/>
<path d="M295.134 225.329H273.408V225.493H295.134V225.329Z" fill="#EBEBEB"/>
<path d="M217.28 227.114H211.58V227.278H217.28V227.114Z" fill="#EBEBEB"/>
<path d="M272.752 219.242H260.163V219.406H272.752V219.242Z" fill="#EBEBEB"/>
<path d="M62.7465 220.344H34.4138V220.508H62.7465V220.344Z" fill="#EBEBEB"/>
<path d="M72.7438 220.344H68.5913V220.508H72.7438V220.344Z" fill="#EBEBEB"/>
<path d="M147.698 223.112H86.2444V223.276H147.698V223.112Z" fill="#EBEBEB"/>
<path d="M155.472 185.517H28.805C27.8127 185.515 26.8616 185.12 26.1606 184.417C25.4595 183.715 25.0658 182.763 25.0658 181.771V3.71296C25.0744 2.72635 25.472 1.78299 26.1721 1.08779C26.8722 0.392589 27.8184 0.00169011 28.805 0H155.472C156.465 0 157.418 0.394642 158.121 1.09711C158.823 1.79957 159.218 2.75232 159.218 3.74576V181.771C159.218 182.764 158.823 183.717 158.121 184.42C157.418 185.122 156.465 185.517 155.472 185.517ZM28.805 0.131201C27.8562 0.132938 26.9468 0.511067 26.2765 1.18259C25.6063 1.85411 25.2298 2.76415 25.2298 3.71296V181.771C25.2298 182.72 25.6063 183.63 26.2765 184.301C26.9468 184.973 27.8562 185.351 28.805 185.353H155.472C156.421 185.351 157.331 184.973 158.003 184.302C158.674 183.63 159.052 182.72 159.054 181.771V3.71296C159.052 2.76355 158.674 1.85352 158.003 1.18219C157.331 0.510854 156.421 0.132935 155.472 0.131201H28.805Z" fill="#EBEBEB"/>
<path d="M297.371 185.517H170.698C169.705 185.515 168.753 185.12 168.051 184.418C167.349 183.716 166.954 182.764 166.952 181.771V3.71296C166.962 2.72575 167.361 1.7824 168.063 1.08738C168.764 0.392359 169.711 0.00167168 170.698 0H297.371C298.357 0.00341415 299.301 0.395076 300 1.09009C300.699 1.78511 301.095 2.72749 301.104 3.71296V181.771C301.104 182.762 300.711 183.713 300.012 184.415C299.312 185.117 298.363 185.513 297.371 185.517ZM170.698 0.131201C169.748 0.132935 168.838 0.510854 168.167 1.18219C167.496 1.85352 167.118 2.76355 167.116 3.71296V181.771C167.118 182.72 167.496 183.63 168.167 184.302C168.838 184.973 169.748 185.351 170.698 185.353H297.371C298.321 185.351 299.231 184.973 299.902 184.302C300.573 183.63 300.951 182.72 300.953 181.771V3.71296C300.951 2.76355 300.573 1.85352 299.902 1.18219C299.231 0.510854 298.321 0.132935 297.371 0.131201H170.698Z" fill="#EBEBEB"/>
<path d="M68.3487 68.0141C68.3487 68.0141 67.568 62.976 71.2744 59.696C74.9808 56.416 74.6463 54.5136 73.5901 54.2578C72.534 54.0019 71.5565 57.2557 69.9362 58.1478C69.9362 58.1478 69.8837 53.5165 71.5303 51.8109C73.1768 50.1053 74.0493 45.7101 72.4815 45.6314C70.9136 45.5526 70.7431 48.2554 70.4216 50.1512C70.1002 52.047 68.3487 54.7432 68.3487 54.7432C68.3487 54.7432 68.001 50.6038 66.9383 48.8917C65.8756 47.1795 68.716 43.2894 67.5943 41.5838C66.4725 39.8782 64.5439 43.1254 64.7079 46.7794C64.8719 50.4333 67.3319 54.3365 66.7415 58.1544C66.7415 58.1544 65.6656 55.4779 64.6948 55.2352C63.7239 54.9925 62.7268 53.2147 62.1101 52.5587C61.4935 51.9027 60.6472 54.1725 62.1101 56.2914C63.573 58.4102 67.3056 64.0518 66.7415 68.6176L68.3487 68.0141Z" fill="#E6E6E6"/>
<path d="M70.5529 65.705L71.7665 73.3014C71.8547 73.8531 71.8222 74.4173 71.6713 74.9552C71.5204 75.4931 71.2546 75.9919 70.8923 76.4172C70.53 76.8425 70.0798 77.1841 69.5728 77.4186C69.0657 77.6531 68.5138 77.7748 67.9551 77.7754H66.6431C66.0842 77.7746 65.5321 77.6528 65.0248 77.4184C64.5175 77.184 64.0669 76.8425 63.7041 76.4174C63.3413 75.9923 63.0749 75.4936 62.9232 74.9557C62.7715 74.4178 62.738 73.8535 62.8252 73.3014L64.0388 65.705H70.5529Z" fill="#E6E6E6"/>
<path d="M52.2504 79.3694L137.819 79.3694V74.9742L52.2504 74.9742V79.3694Z" fill="#E0E0E0"/>
<path d="M130.104 74.9677H133.876V58.7645H130.104V74.9677Z" fill="#EBEBEB"/>
<path d="M111.874 74.9677H115.646V58.7645H111.874V74.9677Z" fill="#EBEBEB"/>
<path d="M88.4347 74.3262L92.1519 74.9669L94.9042 58.9992L91.187 58.3585L88.4347 74.3262Z" fill="#EBEBEB"/>
<path d="M125.434 74.9742H129.206V60.903H125.434V74.9742Z" fill="#EBEBEB"/>
<path d="M116.768 74.9742H120.54V60.903H116.768V74.9742Z" fill="#EBEBEB"/>
<path d="M94.8969 74.9742H98.6689V60.903H94.8969V74.9742Z" fill="#EBEBEB"/>
<path d="M103.881 74.1428L107.564 74.9612L110.616 61.2251L106.934 60.4068L103.881 74.1428Z" fill="#EBEBEB"/>
<path d="M122.18 74.9742H124.063V57.9642H122.18V74.9742Z" fill="#EBEBEB"/>
<path d="M99.7579 74.9742H101.641V57.9642H99.7579V74.9742Z" fill="#EBEBEB"/>
<path d="M137.813 107.787H52.2439V112.183H137.813V107.787Z" fill="#E0E0E0"/>
<path d="M59.9584 91.5842H56.1864V107.787H59.9584V91.5842Z" fill="#EBEBEB"/>
<path d="M78.1822 91.5842H74.4102V107.787H78.1822V91.5842Z" fill="#EBEBEB"/>
<path d="M98.881 91.1768L95.1638 91.8175L97.9162 107.785L101.633 107.144L98.881 91.1768Z" fill="#EBEBEB"/>
<path d="M64.6292 93.7227H60.8572V107.794H64.6292V93.7227Z" fill="#EBEBEB"/>
<path d="M73.2949 93.7227H69.5229V107.794H73.2949V93.7227Z" fill="#EBEBEB"/>
<path d="M95.1659 93.7227H91.3939V107.794H95.1659V93.7227Z" fill="#EBEBEB"/>
<path d="M83.1429 93.2315L79.4607 94.0499L82.5135 107.786L86.1956 106.968L83.1429 93.2315Z" fill="#EBEBEB"/>
<path d="M67.8828 90.7773H66.0001V107.787H67.8828V90.7773Z" fill="#EBEBEB"/>
<path d="M90.305 90.7773H88.4222V107.787H90.305V90.7773Z" fill="#EBEBEB"/>
<path d="M129.606 94.9626H111.238V107.643H129.606V94.9626Z" fill="#EBEBEB"/>
<path d="M278.072 48.7277H173.558C172.79 48.7277 172.167 49.3503 172.167 50.1184V51.6075C172.167 52.3756 172.79 52.9982 173.558 52.9982H278.072C278.84 52.9982 279.463 52.3756 279.463 51.6075V50.1184C279.463 49.3503 278.84 48.7277 278.072 48.7277Z" fill="#E0E0E0"/>
<path d="M273.093 52.1258H178.544V136.028H273.093V52.1258Z" fill="#E6E6E6"/>
<path d="M270.607 54.4283H180.912V133.772H270.607V54.4283Z" fill="#F0F0F0"/>
<path d="M201.963 54.4283L180.912 133.601V96.3992L192.024 54.4283H201.963Z" fill="white"/>
<path d="M209.415 54.4283L188.18 133.772H184.789L206.023 54.4283H209.415Z" fill="white"/>
<path d="M267.34 54.4283L246.105 133.772H242.72L263.955 54.4283H267.34Z" fill="white"/>
<path d="M270.607 104.494V117.175L266.31 133.772H262.918L270.607 104.494Z" fill="white"/>
<path d="M212.19 53.0048H210.681V135.549H212.19V53.0048Z" fill="#E6E6E6"/>
<path d="M241.474 53.0048H239.965V135.549H241.474V53.0048Z" fill="#E6E6E6"/>
<path d="M257.683 50.0922C257.683 50.0922 259.855 78.4838 272.371 92.9486C272.371 92.9486 263.259 129.475 263.266 142.214L280.197 139.072L274.09 93.152L277.009 50.0856L257.683 50.0922Z" fill="#E0E0E0"/>
<path d="M193.953 50.0922C193.953 50.0922 191.775 78.4838 179.265 92.9486C179.265 92.9486 188.377 129.475 188.37 142.214L171.439 139.072L177.54 93.152L174.621 50.0856L193.953 50.0922Z" fill="#E0E0E0"/>
<path d="M164 244.399C234.246 244.399 291.192 241.075 291.192 236.973C291.192 232.872 234.246 229.548 164 229.548C93.7538 229.548 36.8081 232.872 36.8081 236.973C36.8081 241.075 93.7538 244.399 164 244.399Z" fill="#F5F5F5"/>
<path d="M241.074 33.843H156.01C152.811 33.843 150.218 36.4364 150.218 39.6355V201.891C150.218 205.09 152.811 207.683 156.01 207.683H241.074C244.273 207.683 246.866 205.09 246.866 201.891V39.6355C246.866 36.4364 244.273 33.843 241.074 33.843Z" fill="#263238"/>
<path d="M243.606 39.6618V201.543C243.606 201.857 243.543 202.167 243.422 202.457C243.301 202.746 243.124 203.009 242.9 203.229C242.677 203.449 242.412 203.623 242.121 203.74C241.83 203.857 241.518 203.915 241.205 203.911H155.629C155.345 203.915 155.062 203.861 154.798 203.753C154.535 203.644 154.295 203.484 154.095 203.281C153.895 203.079 153.738 202.838 153.633 202.573C153.528 202.308 153.477 202.025 153.484 201.74V39.4715C153.468 38.9674 153.653 38.4774 153.997 38.1086C154.341 37.7399 154.817 37.5223 155.321 37.5035H176.713C177.013 37.5085 177.304 37.603 177.55 37.7749C177.795 37.9467 177.984 38.188 178.091 38.4678L178.977 40.6457C179.087 40.9226 179.276 41.1607 179.521 41.3299C179.766 41.4992 180.056 41.5921 180.354 41.597H216.782C217.079 41.5949 217.368 41.5046 217.613 41.3376C217.859 41.1705 218.049 40.9343 218.159 40.6589L219.045 38.4678C219.154 38.189 219.343 37.9487 219.588 37.7771C219.833 37.6054 220.123 37.5103 220.423 37.5035H241.506C242.069 37.5189 242.602 37.7531 242.995 38.1561C243.387 38.5592 243.606 39.0994 243.606 39.6618Z" fill="#B2D1FF"/>
<path opacity="0.6" d="M243.612 47.5928H153.484V194.799H243.612V47.5928Z" fill="white"/>
<path opacity="0.6" d="M163.41 44.0045H164.525V42.5219H163.41V44.0045Z" fill="white"/>
<path opacity="0.6" d="M161.599 44.0045H162.714V42.0234H161.599V44.0045Z" fill="white"/>
<path opacity="0.6" d="M159.782 44.0045H160.897V41.5314H159.782V44.0045Z" fill="white"/>
<path opacity="0.6" d="M157.971 44.0045H159.087V41.0328H157.971V44.0045Z" fill="white"/>
<path opacity="0.6" d="M233.411 41.9774H232.749V43.46H233.411V41.9774Z" fill="white"/>
<path opacity="0.6" d="M233.864 44.0045H239.119V41.4395H233.864V44.0045Z" fill="white"/>
<path opacity="0.6" d="M242.471 118.9H154.619V136.684H242.471V118.9Z" fill="white"/>
<path opacity="0.6" d="M197.292 38.9336C197.977 38.9336 198.532 38.3785 198.532 37.6938C198.532 37.009 197.977 36.4539 197.292 36.4539C196.607 36.4539 196.052 37.009 196.052 37.6938C196.052 38.3785 196.607 38.9336 197.292 38.9336Z" fill="white"/>
<path opacity="0.6" d="M201.031 37.6938C201.031 37.851 200.985 38.0048 200.897 38.1354C200.809 38.2661 200.685 38.3678 200.54 38.4277C200.394 38.4876 200.234 38.5029 200.08 38.4718C199.926 38.4406 199.785 38.3644 199.674 38.2527C199.563 38.141 199.488 37.999 199.458 37.8446C199.428 37.6902 199.445 37.5304 199.506 37.3854C199.567 37.2405 199.67 37.117 199.801 37.0306C199.933 36.9442 200.087 36.8987 200.244 36.9C200.453 36.9018 200.654 36.9861 200.801 37.1348C200.949 37.2835 201.031 37.4844 201.031 37.6938Z" fill="white"/>
<path opacity="0.6" d="M242.471 164.485H154.619V174.831H242.471V164.485Z" fill="white"/>
<path d="M199.017 167.674V171.806H198.433V168.185H197.502V167.674H199.017Z" fill="#263238"/>
<path d="M221.925 130.492V131.331H221.446V130.492C220.789 130.477 220.155 130.246 219.642 129.836L219.917 129.258C220.35 129.616 220.886 129.825 221.446 129.855V128.123C220.633 127.92 219.767 127.664 219.767 126.647C219.767 125.913 220.291 125.27 221.446 125.178V124.325H221.925V125.165C222.462 125.182 222.984 125.341 223.44 125.624L223.191 126.221C222.812 125.974 222.376 125.83 221.925 125.801V127.533C222.758 127.743 223.657 127.992 223.657 129.009C223.657 129.757 223.106 130.393 221.925 130.492ZM221.446 127.421V125.814C220.79 125.9 220.495 126.234 220.495 126.628C220.495 127.021 220.915 127.264 221.446 127.421ZM222.922 129.061C222.922 128.583 222.476 128.405 221.925 128.248V129.849C222.62 129.783 222.922 129.462 222.922 129.061Z" fill="#263238"/>
<path d="M225.861 125.224V130.472H225.126V125.88H223.945V125.224H225.861Z" fill="#263238"/>
<path d="M226.976 129.973C226.974 129.906 226.986 129.839 227.011 129.777C227.035 129.714 227.072 129.658 227.12 129.61C227.167 129.562 227.223 129.524 227.285 129.499C227.347 129.473 227.414 129.461 227.481 129.462C227.617 129.462 227.747 129.516 227.843 129.611C227.939 129.707 227.993 129.838 227.993 129.973C227.993 130.109 227.939 130.239 227.843 130.335C227.747 130.431 227.617 130.485 227.481 130.485C227.414 130.485 227.348 130.472 227.286 130.446C227.225 130.42 227.169 130.382 227.122 130.335C227.075 130.287 227.038 130.231 227.013 130.169C226.988 130.107 226.975 130.04 226.976 129.973Z" fill="#263238"/>
<path d="M232.572 127.769C232.572 129.547 231.568 130.498 230.105 130.498C229.649 130.516 229.196 130.412 228.793 130.196L229.075 129.612C229.379 129.789 229.727 129.875 230.079 129.862C231.142 129.862 231.811 129.206 231.811 127.894V127.704C231.637 127.935 231.407 128.119 231.144 128.239C230.88 128.36 230.591 128.412 230.302 128.392C230.079 128.416 229.854 128.393 229.641 128.325C229.427 128.256 229.231 128.144 229.063 127.995C228.896 127.846 228.761 127.664 228.669 127.46C228.576 127.256 228.527 127.035 228.524 126.811C228.529 126.579 228.581 126.351 228.678 126.14C228.774 125.929 228.914 125.741 229.087 125.586C229.26 125.431 229.463 125.314 229.683 125.242C229.904 125.169 230.137 125.143 230.368 125.165C231.785 125.165 232.572 126.103 232.572 127.769ZM231.66 126.779C231.66 126.241 231.227 125.768 230.413 125.768C230.27 125.752 230.124 125.766 229.986 125.809C229.848 125.853 229.721 125.925 229.612 126.02C229.504 126.116 229.417 126.234 229.358 126.366C229.298 126.498 229.266 126.64 229.265 126.785C229.265 127.395 229.725 127.789 230.453 127.789C230.599 127.806 230.748 127.793 230.889 127.751C231.03 127.709 231.161 127.638 231.274 127.544C231.387 127.449 231.48 127.333 231.546 127.201C231.612 127.069 231.651 126.926 231.66 126.779Z" fill="#263238"/>
<path d="M237.17 127.769C237.17 129.547 236.167 130.498 234.704 130.498C234.247 130.516 233.794 130.412 233.392 130.196L233.674 129.612C233.978 129.79 234.326 129.876 234.678 129.862C235.74 129.862 236.409 129.206 236.409 127.894V127.704C236.235 127.935 236.006 128.119 235.742 128.239C235.479 128.36 235.19 128.412 234.901 128.392C234.678 128.416 234.453 128.393 234.239 128.325C234.026 128.256 233.829 128.144 233.662 127.995C233.494 127.846 233.36 127.664 233.267 127.46C233.174 127.256 233.125 127.035 233.123 126.811C233.126 126.58 233.178 126.351 233.274 126.14C233.37 125.93 233.508 125.741 233.681 125.586C233.854 125.432 234.056 125.314 234.276 125.242C234.496 125.169 234.729 125.143 234.96 125.165C236.383 125.165 237.17 126.103 237.17 127.769ZM236.258 126.779C236.258 126.241 235.826 125.768 235.012 125.768C234.868 125.752 234.723 125.766 234.585 125.809C234.447 125.853 234.319 125.925 234.211 126.02C234.103 126.116 234.016 126.234 233.956 126.366C233.896 126.498 233.865 126.64 233.864 126.785C233.864 127.395 234.317 127.789 235.051 127.789C235.198 127.806 235.346 127.793 235.487 127.751C235.629 127.709 235.76 127.638 235.873 127.544C235.986 127.449 236.078 127.333 236.145 127.201C236.211 127.069 236.25 126.926 236.258 126.779Z" fill="#263238"/>
<path d="M161.409 132.65V132.945H159.683V132.715L160.661 131.771C160.917 131.521 160.963 131.371 160.963 131.22C160.963 130.97 160.792 130.82 160.451 130.82C160.336 130.813 160.221 130.834 160.115 130.879C160.009 130.925 159.916 130.994 159.841 131.082L159.605 130.879C159.715 130.757 159.852 130.662 160.004 130.599C160.156 130.537 160.32 130.509 160.484 130.518C160.982 130.518 161.31 130.774 161.31 131.174C161.305 131.322 161.266 131.466 161.196 131.597C161.127 131.727 161.029 131.841 160.91 131.928L160.175 132.637L161.409 132.65Z" fill="#263238"/>
<path d="M161.678 131.744C161.678 130.964 162.098 130.518 162.662 130.518C163.226 130.518 163.639 130.964 163.639 131.744C163.639 132.525 163.219 132.971 162.662 132.971C162.104 132.971 161.678 132.512 161.678 131.744ZM163.298 131.744C163.298 131.128 163.036 130.82 162.642 130.82C162.248 130.82 161.986 131.128 161.986 131.744C161.986 132.361 162.248 132.669 162.642 132.669C163.036 132.669 163.298 132.361 163.298 131.744Z" fill="#263238"/>
<path d="M163.928 131.2C163.918 131.119 163.925 131.037 163.948 130.959C163.972 130.881 164.011 130.809 164.065 130.747C164.118 130.685 164.183 130.635 164.257 130.6C164.33 130.565 164.411 130.546 164.492 130.544C164.82 130.544 165.043 130.806 165.043 131.2C165.043 131.594 164.82 131.856 164.492 131.856C164.411 131.854 164.33 131.835 164.257 131.8C164.183 131.765 164.118 131.715 164.065 131.653C164.011 131.591 163.972 131.519 163.948 131.441C163.925 131.363 163.918 131.281 163.928 131.2ZM164.827 131.2C164.827 130.911 164.702 130.741 164.492 130.741C164.282 130.741 164.151 130.911 164.151 131.2C164.151 131.489 164.282 131.659 164.492 131.659C164.702 131.659 164.827 131.469 164.827 131.2ZM165.942 130.544H166.204L164.564 132.945H164.295L165.942 130.544ZM165.456 132.309C165.474 132.202 165.522 132.103 165.594 132.023C165.666 131.943 165.76 131.885 165.864 131.856C165.968 131.828 166.078 131.83 166.181 131.862C166.284 131.894 166.376 131.955 166.445 132.038C166.514 132.12 166.559 132.221 166.572 132.328C166.586 132.435 166.569 132.544 166.523 132.641C166.477 132.739 166.404 132.821 166.313 132.879C166.221 132.936 166.115 132.966 166.007 132.965C165.679 132.965 165.456 132.702 165.456 132.309ZM166.348 132.309C166.348 132.027 166.217 131.849 166.007 131.849C165.797 131.849 165.673 132.02 165.673 132.309C165.673 132.597 165.804 132.774 166.007 132.774C166.211 132.774 166.348 132.597 166.348 132.309Z" fill="#263238"/>
<path d="M166.919 132.04C166.915 131.852 166.967 131.668 167.069 131.51C167.17 131.352 167.316 131.228 167.489 131.153C167.661 131.079 167.851 131.057 168.036 131.091C168.22 131.125 168.391 131.214 168.525 131.345C168.659 131.476 168.751 131.645 168.789 131.828C168.827 132.012 168.809 132.203 168.738 132.377C168.668 132.551 168.546 132.699 168.391 132.804C168.235 132.909 168.052 132.965 167.864 132.965C167.74 132.97 167.616 132.95 167.501 132.906C167.385 132.861 167.28 132.794 167.191 132.707C167.102 132.62 167.033 132.516 166.986 132.402C166.939 132.287 166.916 132.164 166.919 132.04ZM168.474 132.04C168.482 131.955 168.473 131.87 168.446 131.79C168.419 131.71 168.375 131.636 168.317 131.574C168.259 131.512 168.189 131.463 168.111 131.43C168.033 131.397 167.949 131.381 167.864 131.384C167.719 131.417 167.59 131.498 167.497 131.614C167.404 131.73 167.354 131.875 167.354 132.023C167.354 132.172 167.404 132.316 167.497 132.432C167.59 132.549 167.719 132.63 167.864 132.663C167.946 132.666 168.028 132.652 168.104 132.621C168.18 132.591 168.249 132.545 168.306 132.486C168.364 132.427 168.408 132.357 168.437 132.28C168.466 132.204 168.479 132.122 168.474 132.04Z" fill="#263238"/>
<path d="M169.635 130.97V131.128H170.16V131.397H169.642V132.945H169.314V131.397H168.999V131.128H169.314V130.964C169.308 130.884 169.319 130.805 169.347 130.73C169.375 130.656 169.419 130.588 169.476 130.533C169.533 130.477 169.601 130.434 169.676 130.408C169.751 130.382 169.831 130.372 169.911 130.38C170.043 130.374 170.174 130.411 170.285 130.485L170.186 130.734C170.112 130.68 170.022 130.65 169.93 130.649C169.734 130.649 169.635 130.76 169.635 130.97Z" fill="#263238"/>
<path d="M170.842 130.97V131.128H171.373V131.397H170.849V132.945H170.521V131.397H170.212V131.128H170.521V130.964C170.514 130.884 170.526 130.803 170.554 130.728C170.583 130.653 170.627 130.586 170.685 130.53C170.742 130.474 170.812 130.432 170.888 130.406C170.964 130.38 171.044 130.371 171.124 130.38C171.255 130.375 171.383 130.412 171.491 130.485L171.393 130.734C171.32 130.678 171.23 130.648 171.137 130.649C170.947 130.649 170.842 130.76 170.842 130.97Z" fill="#263238"/>
<path d="M159.841 125.296C159.838 125.011 159.893 124.729 160.003 124.466C160.113 124.203 160.276 123.965 160.481 123.767C160.686 123.57 160.93 123.416 161.196 123.316C161.463 123.215 161.747 123.17 162.032 123.184C162.325 123.173 162.617 123.226 162.888 123.339C163.159 123.453 163.402 123.623 163.6 123.84L163.219 124.214C163.071 124.054 162.892 123.928 162.691 123.843C162.491 123.759 162.276 123.717 162.058 123.722C161.794 123.721 161.533 123.786 161.3 123.912C161.067 124.037 160.869 124.218 160.724 124.439C160.578 124.66 160.49 124.914 160.467 125.177C160.444 125.441 160.487 125.706 160.592 125.949C160.697 126.192 160.861 126.404 161.069 126.568C161.277 126.732 161.522 126.841 161.783 126.886C162.043 126.932 162.311 126.911 162.562 126.827C162.813 126.743 163.039 126.598 163.219 126.405L163.6 126.779C163.4 126.994 163.155 127.164 162.884 127.277C162.612 127.39 162.32 127.444 162.025 127.435C161.739 127.447 161.453 127.401 161.186 127.299C160.918 127.196 160.674 127.04 160.469 126.839C160.264 126.639 160.103 126.398 159.995 126.133C159.887 125.867 159.834 125.583 159.841 125.296Z" fill="#263238"/>
<path d="M163.948 125.768C163.942 125.446 164.033 125.128 164.209 124.857C164.384 124.587 164.637 124.374 164.933 124.247C165.23 124.12 165.558 124.084 165.875 124.143C166.193 124.203 166.485 124.356 166.715 124.582C166.945 124.809 167.103 125.099 167.168 125.415C167.233 125.731 167.202 126.06 167.08 126.358C166.957 126.657 166.749 126.913 166.481 127.093C166.213 127.273 165.897 127.369 165.574 127.369C165.36 127.379 165.146 127.345 164.946 127.268C164.746 127.192 164.564 127.075 164.411 126.924C164.258 126.774 164.138 126.594 164.059 126.395C163.979 126.196 163.941 125.983 163.948 125.768ZM166.624 125.768C166.615 125.561 166.545 125.362 166.424 125.194C166.302 125.026 166.134 124.898 165.94 124.825C165.746 124.753 165.535 124.739 165.333 124.785C165.131 124.831 164.947 124.936 164.804 125.086C164.661 125.236 164.566 125.425 164.529 125.629C164.493 125.833 164.517 126.043 164.599 126.233C164.681 126.423 164.818 126.585 164.991 126.698C165.164 126.812 165.367 126.872 165.574 126.87C165.718 126.874 165.86 126.847 165.992 126.792C166.124 126.737 166.244 126.655 166.342 126.551C166.441 126.447 166.517 126.324 166.566 126.189C166.614 126.055 166.634 125.911 166.624 125.768Z" fill="#263238"/>
<path d="M173.184 125.532V127.336H172.613V125.598C172.613 124.981 172.318 124.679 171.806 124.679C171.673 124.674 171.539 124.698 171.416 124.75C171.293 124.803 171.182 124.881 171.093 124.981C171.003 125.08 170.937 125.198 170.898 125.327C170.859 125.455 170.849 125.59 170.868 125.722V127.336H170.298V125.598C170.298 124.981 170.002 124.679 169.491 124.679C169.357 124.674 169.224 124.698 169.1 124.75C168.977 124.803 168.867 124.881 168.777 124.981C168.687 125.08 168.621 125.198 168.582 125.327C168.543 125.455 168.533 125.59 168.553 125.722V127.336H167.989V124.201H168.526V124.64C168.655 124.479 168.821 124.35 169.009 124.264C169.197 124.179 169.402 124.139 169.609 124.148C169.826 124.133 170.043 124.179 170.236 124.281C170.428 124.383 170.588 124.537 170.698 124.725C170.834 124.537 171.016 124.386 171.225 124.285C171.435 124.184 171.666 124.137 171.898 124.148C172.08 124.133 172.262 124.159 172.432 124.225C172.602 124.291 172.754 124.394 172.878 124.527C173.002 124.661 173.094 124.82 173.147 124.994C173.2 125.169 173.213 125.352 173.184 125.532Z" fill="#263238"/>
<path d="M177.468 125.768C177.479 125.98 177.446 126.191 177.371 126.389C177.295 126.587 177.18 126.767 177.031 126.918C176.882 127.068 176.703 127.186 176.506 127.264C176.309 127.342 176.098 127.377 175.887 127.369C175.672 127.379 175.457 127.335 175.263 127.243C175.068 127.15 174.9 127.011 174.772 126.838V127.336H174.227V122.954H174.798V124.673C174.927 124.509 175.093 124.379 175.282 124.292C175.472 124.205 175.679 124.165 175.887 124.174C176.098 124.165 176.309 124.2 176.506 124.277C176.703 124.354 176.882 124.471 177.031 124.621C177.179 124.771 177.295 124.951 177.371 125.148C177.446 125.346 177.479 125.557 177.468 125.768ZM176.897 125.768C176.888 125.562 176.819 125.362 176.697 125.195C176.576 125.027 176.408 124.899 176.214 124.826C176.021 124.753 175.81 124.739 175.608 124.784C175.406 124.83 175.223 124.934 175.079 125.084C174.936 125.233 174.84 125.421 174.803 125.625C174.766 125.828 174.789 126.038 174.87 126.228C174.951 126.419 175.087 126.581 175.259 126.695C175.432 126.809 175.634 126.87 175.841 126.87C175.985 126.874 176.128 126.848 176.261 126.794C176.394 126.739 176.514 126.657 176.613 126.554C176.713 126.45 176.789 126.326 176.838 126.191C176.887 126.056 176.907 125.912 176.897 125.768Z" fill="#263238"/>
<path d="M177.966 125.768C177.961 125.446 178.052 125.129 178.227 124.858C178.402 124.587 178.654 124.375 178.951 124.247C179.247 124.12 179.575 124.084 179.892 124.143C180.209 124.202 180.501 124.354 180.732 124.58C180.962 124.806 181.12 125.095 181.186 125.411C181.251 125.727 181.222 126.055 181.1 126.354C180.979 126.653 180.772 126.909 180.504 127.09C180.237 127.27 179.922 127.368 179.6 127.369C179.385 127.38 179.171 127.346 178.97 127.27C178.769 127.194 178.586 127.077 178.432 126.927C178.279 126.776 178.158 126.596 178.078 126.396C177.998 126.197 177.96 125.983 177.966 125.768ZM180.649 125.768C180.64 125.561 180.571 125.362 180.449 125.194C180.327 125.026 180.159 124.898 179.965 124.825C179.771 124.753 179.56 124.739 179.358 124.785C179.156 124.831 178.972 124.936 178.829 125.086C178.687 125.236 178.591 125.425 178.554 125.629C178.518 125.833 178.542 126.043 178.625 126.233C178.707 126.423 178.843 126.585 179.016 126.698C179.19 126.812 179.393 126.872 179.6 126.87C179.743 126.874 179.885 126.847 180.017 126.792C180.15 126.737 180.269 126.655 180.368 126.551C180.467 126.447 180.543 126.324 180.591 126.189C180.64 126.055 180.659 125.911 180.649 125.768Z" fill="#263238"/>
<path d="M186.245 126.818V127.336H183.273V126.929L184.992 125.296C185.432 124.87 185.51 124.607 185.51 124.351C185.51 123.925 185.209 123.663 184.631 123.663C184.432 123.653 184.234 123.689 184.051 123.767C183.868 123.846 183.705 123.965 183.575 124.115L183.175 123.768C183.36 123.551 183.593 123.38 183.854 123.266C184.115 123.152 184.399 123.1 184.684 123.112C185.55 123.112 186.101 123.558 186.101 124.266C186.098 124.52 186.037 124.77 185.924 124.998C185.81 125.225 185.646 125.423 185.445 125.578L184.179 126.792L186.245 126.818Z" fill="#263238"/>
<path opacity="0.6" d="M242.471 137.944H154.619V163.226H242.471V137.944Z" fill="white"/>
<path opacity="0.2" d="M189.781 145.114H159.566C159.379 145.114 159.201 145.04 159.069 144.908C158.938 144.777 158.864 144.598 158.864 144.412C158.864 144.226 158.938 144.047 159.069 143.916C159.201 143.784 159.379 143.71 159.566 143.71H189.781C189.873 143.709 189.965 143.727 190.051 143.762C190.136 143.797 190.214 143.848 190.279 143.914C190.345 143.979 190.396 144.057 190.431 144.142C190.466 144.228 190.484 144.319 190.483 144.412C190.484 144.504 190.466 144.596 190.431 144.681C190.396 144.767 190.345 144.845 190.279 144.91C190.214 144.975 190.136 145.027 190.051 145.062C189.965 145.097 189.873 145.115 189.781 145.114Z" fill="black"/>
<path opacity="0.2" d="M237.525 149.017H159.566C159.379 149.017 159.201 148.943 159.069 148.811C158.938 148.68 158.864 148.501 158.864 148.315C158.864 148.129 158.938 147.95 159.069 147.819C159.201 147.687 159.379 147.613 159.566 147.613H237.525C237.711 147.613 237.889 147.687 238.021 147.819C238.153 147.95 238.227 148.129 238.227 148.315C238.227 148.501 238.153 148.68 238.021 148.811C237.889 148.943 237.711 149.017 237.525 149.017Z" fill="black"/>
<path opacity="0.2" d="M237.525 152.914H159.565C159.473 152.915 159.381 152.897 159.296 152.862C159.21 152.827 159.133 152.775 159.067 152.71C159.002 152.645 158.95 152.567 158.915 152.481C158.88 152.396 158.863 152.304 158.864 152.212C158.864 152.026 158.938 151.847 159.069 151.715C159.201 151.584 159.379 151.51 159.565 151.51H237.525C237.711 151.51 237.889 151.584 238.021 151.715C238.152 151.847 238.226 152.026 238.226 152.212C238.227 152.304 238.21 152.396 238.175 152.481C238.14 152.567 238.088 152.645 238.023 152.71C237.957 152.775 237.88 152.827 237.794 152.862C237.709 152.897 237.617 152.915 237.525 152.914Z" fill="black"/>
<path opacity="0.2" d="M237.525 156.817H159.566C159.379 156.817 159.201 156.743 159.069 156.611C158.938 156.48 158.864 156.301 158.864 156.115C158.864 155.929 158.938 155.75 159.069 155.619C159.201 155.487 159.379 155.413 159.566 155.413H237.525C237.711 155.413 237.889 155.487 238.021 155.619C238.153 155.75 238.227 155.929 238.227 156.115C238.227 156.301 238.153 156.48 238.021 156.611C237.889 156.743 237.711 156.817 237.525 156.817Z" fill="black"/>
<path opacity="0.2" d="M215.916 167.037H211.33C211.164 167.037 211.029 167.172 211.029 167.339V171.924C211.029 172.091 211.164 172.226 211.33 172.226H215.916C216.083 172.226 216.218 172.091 216.218 171.924V167.339C216.218 167.172 216.083 167.037 215.916 167.037Z" fill="black"/>
<path d="M213.948 168.343H213.292V170.921H213.948V168.343Z" fill="white"/>
<path d="M214.912 169.3H212.334V169.956H214.912V169.3Z" fill="white"/>
<path opacity="0.2" d="M185.76 167.037H181.174C181.008 167.037 180.872 167.172 180.872 167.339V171.924C180.872 172.091 181.008 172.226 181.174 172.226H185.76C185.926 172.226 186.061 172.091 186.061 171.924V167.339C186.061 167.172 185.926 167.037 185.76 167.037Z" fill="black"/>
<path d="M183.798 168.343H183.142V170.921H183.798V168.343Z" fill="white"/>
<path d="M184.756 169.3H182.178V169.956H184.756V169.3Z" fill="white"/>
<path d="M237.413 178.484H159.67C158.399 178.484 157.368 179.515 157.368 180.787V188.646C157.368 189.918 158.399 190.948 159.67 190.948H237.413C238.685 190.948 239.715 189.918 239.715 188.646V180.787C239.715 179.515 238.685 178.484 237.413 178.484Z" fill="#B2D1FF"/>
<path d="M184.631 184.749C184.609 184.19 184.754 183.637 185.049 183.161C185.343 182.685 185.773 182.308 186.283 182.078C186.794 181.848 187.361 181.776 187.913 181.871C188.464 181.966 188.975 182.223 189.379 182.61C189.783 182.998 190.062 183.497 190.181 184.044C190.299 184.591 190.251 185.161 190.044 185.68C189.836 186.2 189.477 186.646 189.015 186.96C188.552 187.275 188.005 187.444 187.445 187.445C187.081 187.463 186.717 187.407 186.375 187.279C186.034 187.151 185.722 186.955 185.458 186.703C185.195 186.451 184.986 186.147 184.843 185.811C184.701 185.475 184.629 185.114 184.631 184.749ZM189.486 184.749C189.491 184.342 189.375 183.942 189.152 183.6C188.929 183.259 188.609 182.992 188.233 182.832C187.858 182.673 187.444 182.63 187.043 182.707C186.643 182.784 186.275 182.979 185.985 183.267C185.696 183.554 185.499 183.921 185.419 184.321C185.339 184.721 185.38 185.135 185.537 185.512C185.693 185.888 185.959 186.21 186.298 186.435C186.638 186.66 187.038 186.779 187.445 186.776C187.715 186.786 187.984 186.741 188.235 186.643C188.486 186.545 188.714 186.396 188.906 186.206C189.097 186.016 189.247 185.788 189.347 185.538C189.447 185.287 189.494 185.019 189.486 184.749Z" fill="white"/>
<path d="M194.917 187.386L193.776 185.766H193.448H192.136V187.373H191.381V182.125H193.441C194.812 182.125 195.639 182.814 195.639 183.962C195.657 184.329 195.553 184.692 195.343 184.994C195.133 185.295 194.829 185.518 194.478 185.628L195.731 187.4L194.917 187.386ZM194.917 183.949C194.917 183.195 194.412 182.768 193.448 182.768H192.136V185.143H193.448C194.386 185.143 194.891 184.703 194.891 183.949H194.917Z" fill="white"/>
<path d="M196.866 182.112H199.089C200.782 182.112 201.936 183.181 201.936 184.736C201.936 186.291 200.782 187.36 199.089 187.36H196.866V182.112ZM199.044 186.704C199.565 186.704 200.066 186.497 200.435 186.128C200.804 185.759 201.012 185.258 201.012 184.736C201.012 184.214 200.804 183.714 200.435 183.345C200.066 182.975 199.565 182.768 199.044 182.768H197.62V186.704H199.044Z" fill="white"/>
<path d="M206.916 186.73V187.386H203.091V182.138H206.811V182.794H203.839V184.415H206.463V185.071H203.839V186.776L206.916 186.73Z" fill="white"/>
<path d="M211.665 187.386L210.524 185.766H210.196H208.884V187.373H208.129V182.125H210.189C211.56 182.125 212.387 182.814 212.387 183.962C212.41 184.332 212.309 184.698 212.1 185.004C211.89 185.309 211.585 185.536 211.232 185.648L212.485 187.419L211.665 187.386ZM211.665 183.949C211.665 183.195 211.16 182.768 210.196 182.768H208.916V185.143H210.196C211.134 185.143 211.639 184.703 211.639 183.949H211.665Z" fill="white"/>
<path opacity="0.2" d="M237.472 82.8331C237.997 86.0807 237.255 89.4057 235.399 92.1221C231.922 97.0815 225.684 98.7411 221.492 102.907C217.694 106.685 215.726 112.707 210.438 114.82C208.024 115.784 205.308 115.659 202.763 115.154C197.233 114.059 192.267 111.284 187.268 108.837C180.59 105.557 172.836 104.147 166.453 100.473C163.515 98.7871 160.923 96.2418 159.893 93.0143C157.676 86.1525 162.465 79.4351 167.503 75.3023C171.275 72.2059 175.637 69.6147 178.78 65.8165C181.673 62.3135 182.867 57.6231 186.199 54.4546C188.895 51.8896 192.759 50.7547 196.472 50.8466C206.732 51.0893 211.278 57.4984 217.215 64.6226C222.141 70.5266 230.873 71.5893 235.419 77.8016C236.493 79.2918 237.197 81.0166 237.472 82.8331Z" fill="white"/>
<path d="M204.849 69.7394L202.881 96.9371C202.881 96.9371 210.097 101.864 218.153 99.771L225.979 75.2366C225.979 75.2366 220.869 67.3778 204.849 69.7394Z" fill="#263238"/>
<path d="M204.606 68.7816L204.396 71.6877C204.396 71.6877 210.563 77.4802 225.716 77.0604L227.12 73.8328C224.095 71.1658 220.446 69.3048 216.511 68.4219C212.575 67.539 208.481 67.6627 204.606 68.7816Z" fill="#263238"/>
<path opacity="0.8" d="M204.606 68.7816L204.396 71.6877C204.396 71.6877 210.563 77.4802 225.716 77.0604L227.12 73.8328C224.095 71.1658 220.446 69.3048 216.511 68.4219C212.575 67.539 208.481 67.6627 204.606 68.7816Z" fill="white"/>
<path opacity="0.2" d="M226.543 73.8787C217.359 75.1054 209.487 71.6418 206.476 70.0477C205.623 69.6016 205.164 69.3064 205.164 69.3064C205.426 69.2277 205.689 69.1621 205.951 69.0965C207.242 68.7672 208.559 68.5477 209.887 68.4405C213.996 68.1336 218.112 68.9332 221.807 70.7562C223.522 71.5739 225.116 72.6247 226.543 73.8787Z" fill="black"/>
<path d="M230.604 63.4483C230.269 66.5053 230.145 71.1038 226.543 73.8787C223.223 74.3055 219.856 74.1948 216.572 73.5507C214.689 73.1904 212.838 72.6815 211.035 72.0288C209.471 71.4802 207.948 70.8226 206.476 70.0608C206.277 69.7562 206.1 69.4384 205.945 69.1096C205.59 68.3683 205.348 67.4499 206.194 67.2793C207.637 66.9907 207.335 66.8267 207.244 66.1182C207.152 65.4097 207.427 64.675 207.722 65.377C208.018 66.0789 207.775 67.6598 208.096 67.8501C208.418 68.0403 209.992 67.1088 209.874 68.5061C209.797 69.0578 209.81 69.6183 209.913 70.1658C209.913 70.2314 209.953 70.2904 209.979 70.356C209.976 70.3631 209.974 70.371 209.974 70.379C209.974 70.3869 209.976 70.3948 209.979 70.4019C210.102 70.6918 210.314 70.9353 210.584 71.0979C210.853 71.2604 211.168 71.3337 211.481 71.3072C213.213 71.4056 214.387 70.3297 216.152 69.8312C217.917 69.3326 220.042 69.4507 220.377 71.3138C220.711 73.1768 222.194 72.5011 221.859 71.2088L221.781 70.8218C221.564 69.5491 221.721 67.9616 222.404 68.7947C223.086 69.6278 222.115 69.9558 222.692 70.5331C223.27 71.1104 224.103 70.1395 224.391 68.4339C224.68 66.7283 226.005 62.9957 224.391 60.9358C222.778 58.876 223.309 58.4496 224.391 58.6989C225.474 58.9481 224.89 60.8046 225.959 61.3229C227.029 61.8411 227.37 59.1253 226.792 57.8001C226.215 56.475 225.48 54.2381 227.12 54.5201C228.76 54.8022 228.432 57.0064 228.432 58.4561C228.432 59.9059 228.846 60.8571 229.338 60.3192C229.422 60.2207 229.541 60.1594 229.67 60.1483C229.799 60.1372 229.927 60.1774 230.026 60.2601C230.433 60.5422 230.807 61.5 230.604 63.4483Z" fill="#B2D1FF"/>
<path d="M214.676 61.5197L216.992 59.532L219.681 61.5197V64.1699L217.366 65.0359L214.676 63.8747V61.5197Z" fill="#B2D1FF"/>
<path opacity="0.8" d="M214.676 61.5197L216.992 59.532L219.681 61.5197V64.1699L217.366 65.0359L214.676 63.8747V61.5197Z" fill="white"/>
<path opacity="0.5" d="M216.992 59.532V62.7923L219.681 64.1699V61.5197L216.992 59.532Z" fill="white"/>
<path opacity="0.2" d="M230 60.2405C229.632 60.5394 229.336 60.9178 229.135 61.3472C228.934 61.7767 228.833 62.2461 228.839 62.7202C228.708 65.0031 227.973 64.9178 226.543 63.9535C225.113 62.9892 225.612 65.1015 225.959 69.2933C226.307 73.4852 222.509 74.1346 220.829 73.5573C219.15 72.98 220.521 72.488 219.465 71.8386C218.546 71.2679 218.684 73.2293 216.572 73.5508C216.19 73.5907 215.806 73.5907 215.424 73.5508C213.364 73.3343 211.941 72.8554 211.035 72.0223C210.537 71.5686 210.172 70.9881 209.979 70.3429C210.102 70.6328 210.314 70.8763 210.584 71.0389C210.853 71.2014 211.168 71.2747 211.481 71.2482C213.213 71.3466 214.387 70.2708 216.152 69.7722C217.917 69.2736 220.042 69.3917 220.377 71.2548C220.711 73.1178 222.194 72.4421 221.859 71.1498L221.781 70.7628C221.564 69.4901 221.722 67.9026 222.404 68.7357C223.086 69.5688 222.115 69.8968 222.692 70.4741C223.27 71.0514 224.103 70.0805 224.391 68.3749C224.68 66.6693 226.005 62.9367 224.391 60.8768C222.778 58.817 223.309 58.3906 224.391 58.6399C225.474 58.8892 224.89 60.7456 225.959 61.2639C227.029 61.7821 227.37 59.0663 226.792 57.7412C226.215 56.416 225.48 54.1791 227.12 54.4612C228.76 54.7432 228.432 56.9474 228.432 58.3972C228.432 59.8469 228.846 60.7981 229.338 60.2602C229.426 60.1749 229.543 60.1257 229.665 60.122C229.788 60.1184 229.907 60.1606 230 60.2405Z" fill="black"/>
<path d="M213.371 71.9435L211.298 71.4909L211.271 69.1621L212.741 68.0535L214.197 68.9719L214.676 70.953L213.371 71.9435Z" fill="#B2D1FF"/>
<path opacity="0.8" d="M213.371 71.9435L211.298 71.4909L211.271 69.1621L212.741 68.0535L214.197 68.9719L214.676 70.953L213.371 71.9435Z" fill="white"/>
<path opacity="0.5" d="M211.298 71.4909L213.102 70.1264L212.741 68.0535L211.271 69.1621L211.298 71.4909Z" fill="white"/>
<path opacity="0.8" d="M217.182 80.7536C223.394 80.7536 222.902 92.5616 215.45 92.5223C207.998 92.4829 210.163 80.7536 217.182 80.7536Z" fill="white"/>
<path opacity="0.2" d="M217.018 81.6786C222.266 81.6786 221.84 91.617 215.555 91.5973C209.271 91.5776 211.101 81.6786 217.018 81.6786Z" fill="black"/>
<path d="M166.821 100.624C166.821 100.624 165.082 103.418 165.082 104.16C165.082 104.901 166.394 108.568 167.254 109.375C168.113 110.182 178.557 112.655 191.283 110.746C204.009 108.837 207.552 102.92 208.175 101.49C208.798 100.06 208.582 94.5952 207.211 94.3525C205.84 94.1098 169.248 98.6952 166.821 100.624Z" fill="#263238"/>
<path opacity="0.5" d="M208.175 101.496C207.552 102.92 204.009 108.824 191.283 110.739C178.557 112.655 168.126 110.182 167.254 109.381C166.381 108.581 165.082 104.908 165.082 104.133C165.152 103.724 165.289 103.33 165.489 102.966C166.014 101.903 166.801 100.598 166.801 100.598C169.222 98.6755 205.827 94.077 207.191 94.3263C207.617 94.3984 207.932 94.9823 208.142 95.7826C208.608 97.5931 208.608 100.512 208.175 101.496Z" fill="white"/>
<path opacity="0.2" d="M208.162 95.8088C206.909 97.8621 202.652 102.71 190.784 104.422C177.422 106.351 166.473 103.864 165.568 103.058L165.489 102.992C166.014 101.929 166.801 100.624 166.801 100.624C169.222 98.7018 205.827 94.1032 207.191 94.3525C207.637 94.4246 207.952 95.0019 208.162 95.8088Z" fill="black"/>
<path d="M166.388 100.532C165.023 100.434 164.335 101.49 165.142 102.172C165.948 102.854 167.444 102.297 167.503 103.668C167.562 105.039 167.628 106.771 168.435 105.839C169.242 104.908 168.5 103.871 170.672 104.225C171.984 104.448 173.722 105.288 175.001 104.442C175.231 104.291 175.421 104.088 175.657 103.95C175.917 103.826 176.187 103.725 176.464 103.648C176.828 103.503 177.178 103.323 177.507 103.11C177.934 102.848 178.426 102.493 178.406 101.988C178.372 101.764 178.263 101.557 178.096 101.404C177.929 101.25 177.714 101.157 177.487 101.142C177.041 101.125 176.596 101.194 176.175 101.345C175.738 101.464 175.301 101.562 174.863 101.641C174.043 101.778 173.309 101.411 172.508 101.273C171.57 101.109 170.626 100.978 169.681 100.867C168.546 100.729 167.47 100.611 166.388 100.532Z" fill="#B2D1FF"/>
<path d="M178.931 102.238C178.931 102.238 182.368 104.96 183.68 104.908C184.992 104.855 185.392 104.724 185.904 105.465C186.416 106.206 188.731 107.761 189.066 106.213C189.4 104.665 190.634 103.851 191.447 104.101C192.261 104.35 193.802 104.757 194.425 103.609C194.521 103.391 194.663 103.197 194.842 103.04C195.021 102.883 195.233 102.769 195.462 102.703C195.875 102.546 196.295 102.382 196.708 102.244C197.25 102.175 197.784 102.054 198.302 101.883C198.847 101.575 199.05 100.906 199.418 100.401C199.805 99.8717 200.376 99.5067 201.018 99.3775C201.565 99.3215 202.115 99.2952 202.665 99.2987C202.939 99.2968 203.21 99.2291 203.453 99.1013C203.696 98.9735 203.905 98.7892 204.062 98.564C204.298 98.1442 204.233 97.6128 204.429 97.1667C204.564 96.8645 204.808 96.6243 205.112 96.4942C205.416 96.364 205.758 96.3535 206.069 96.4648C206.24 96.5569 206.427 96.6148 206.62 96.6354C207.066 96.6354 207.48 95.9794 207.827 96.2418C208.175 96.5042 208.011 96.9568 208.438 97.1471C208.483 96.4255 208.438 95.6973 208.47 94.9757C208.497 94.7226 208.449 94.4673 208.333 94.241C208.063 93.7039 207.643 93.2572 207.123 92.9554C206.603 92.6536 206.007 92.51 205.407 92.5419C203.983 92.4895 202.455 92.4763 201.267 93.2701C200.08 94.0639 199.522 95.448 198.499 96.4058C197.917 96.9161 197.268 97.3442 196.57 97.6784C194.83 98.6076 193.034 99.427 191.191 100.132C189.519 100.788 187.419 100.788 185.635 101.044C183.411 101.411 181.161 101.798 178.931 102.238Z" fill="#B2D1FF"/>
<path d="M207.381 95.4021C207.158 96.2877 206.299 96.924 205.584 97.4357L204.928 97.908C204.526 98.2239 204.085 98.4863 203.616 98.6887C203.122 98.8376 202.614 98.9344 202.101 98.9773C200.03 99.2725 198.059 100.052 196.347 101.254C195.92 101.623 195.416 101.894 194.871 102.047C194.381 102.078 193.889 102.063 193.402 102.001C193.157 101.97 192.909 102.008 192.685 102.111C192.461 102.215 192.271 102.379 192.136 102.585C192.09 102.73 192.019 102.865 191.926 102.985C191.813 103.067 191.678 103.112 191.539 103.117C189.907 103.322 188.264 103.429 186.619 103.438C184.946 103.438 183.267 103.353 181.601 103.261L178.321 103.071C177.782 103.018 177.239 103.018 176.7 103.071C176.182 103.136 175.67 103.3 175.159 103.405C174.522 103.501 173.88 103.552 173.237 103.556L171.269 103.602C169.563 103.648 168.093 102.795 166.519 102.185C166.319 102.124 166.137 102.016 165.988 101.87C165.601 101.424 165.988 100.696 165.771 100.145C165.706 100.022 165.655 99.8925 165.62 99.758C165.632 99.5649 165.685 99.3767 165.778 99.2069C165.803 99.1477 165.823 99.0862 165.837 99.0232C165.826 98.7518 165.752 98.4867 165.62 98.2492C165.527 97.9832 165.477 97.7043 165.469 97.4226C165.456 97.2654 165.456 97.1074 165.469 96.9503C165.487 96.832 165.523 96.7171 165.574 96.6091C165.889 95.9531 167.352 96.0056 167.982 95.8482C172.476 94.6936 177.074 93.8802 181.64 93.0799C186.993 92.1265 192.361 91.2518 197.745 90.4559C199.713 90.1803 201.681 89.9114 203.649 89.7015C204.336 89.5693 205.035 89.5099 205.735 89.5243C206.091 89.5557 206.426 89.7113 206.679 89.9639C206.749 90.0309 206.805 90.1112 206.843 90.2C206.914 90.4779 206.888 90.7715 206.771 91.0331C206.702 91.4678 206.702 91.9105 206.771 92.3451C206.766 92.5738 206.82 92.7999 206.929 93.0011C207.025 93.1025 207.108 93.2148 207.178 93.3357C207.303 93.6243 207.178 93.9917 207.178 94.3394C207.178 94.6871 207.506 94.9101 207.381 95.4021Z" fill="#263238"/>
<path opacity="0.2" d="M206.345 92.3124C206.128 93.2111 205.269 93.8408 204.554 94.3525L203.898 94.8183C203.498 95.1364 203.056 95.399 202.586 95.5989C202.095 95.7526 201.589 95.8516 201.077 95.8941C199.003 96.1843 197.028 96.9671 195.317 98.177C194.889 98.5435 194.385 98.8121 193.841 98.9642C193.351 98.9957 192.859 98.9781 192.372 98.9117C192.127 98.8802 191.879 98.9183 191.655 99.0215C191.431 99.1248 191.241 99.2891 191.106 99.4956C191.061 99.6408 190.99 99.7765 190.896 99.8957C190.783 99.9789 190.649 100.027 190.509 100.033C188.879 100.238 187.238 100.347 185.596 100.361C183.916 100.361 182.243 100.27 180.571 100.171L177.291 99.981C176.752 99.9318 176.209 99.9318 175.67 99.981C175.152 100.053 174.647 100.211 174.129 100.309C173.493 100.412 172.85 100.463 172.207 100.46L170.239 100.512C168.638 100.558 167.241 99.8039 165.778 99.2004C165.803 99.1412 165.823 99.0797 165.837 99.0167C165.826 98.7453 165.752 98.4802 165.62 98.2426C165.527 97.9766 165.477 97.6977 165.469 97.416C165.456 97.2589 165.456 97.1009 165.469 96.9437C165.487 96.8255 165.523 96.7105 165.574 96.6026C165.889 95.9466 167.352 95.9991 167.982 95.8416C172.476 94.6871 177.074 93.8736 181.64 93.0733C186.993 92.1199 192.361 91.2453 197.745 90.4493C199.713 90.1738 201.681 89.9048 203.649 89.6949C204.336 89.5627 205.035 89.5034 205.735 89.5178C205.75 89.6456 205.793 89.7686 205.859 89.8786C205.956 89.9818 206.04 90.0963 206.109 90.2197C206.24 90.5018 206.109 90.9085 206.109 91.2168C206.26 91.6695 206.469 91.84 206.345 92.3124Z" fill="black"/>
<path d="M164.525 95.8088C164.262 96.5173 169.674 103.681 169.674 103.681C169.674 103.681 177.435 97.5341 182.716 96.6616C187.997 95.7891 205.44 96.7272 205.44 96.7272C205.44 96.7272 206.456 90.633 206.292 89.1767C206.128 87.7203 167.444 87.9565 164.525 95.8088Z" fill="#B2D1FF"/>
<path opacity="0.7" d="M164.525 95.8088C164.262 96.5173 169.674 103.681 169.674 103.681C169.674 103.681 177.435 97.5341 182.716 96.6616C187.997 95.7891 205.44 96.7272 205.44 96.7272C205.44 96.7272 206.456 90.633 206.292 89.1767C206.128 87.7203 167.444 87.9565 164.525 95.8088Z" fill="white"/>
<path d="M169.524 95.343L171.223 98.9576C171.223 98.9576 174.831 97.6456 176.07 98.9576C176.78 99.6223 177.223 100.522 177.317 101.49C177.317 101.49 178.235 97.4554 179.823 98.4197C180.903 99.114 181.895 99.938 182.775 100.873C182.775 100.873 185.012 97.2061 186.999 98.4197L188.967 99.6267C188.967 99.6267 190.581 95.9663 193.067 95.8088C195.554 95.6514 196.577 96.0318 196.787 95.343C196.997 94.6542 202.625 90.7511 205.236 90.9085L207.86 91.0594C207.86 91.0594 208.359 87.5826 209.828 87.5826C209.828 87.5826 206.85 85.8573 206.909 83.7122C206.909 82.8922 204.987 84.9323 203.629 83.7122C202.271 82.492 163.095 90.3312 163.095 90.3312C163.095 90.3312 163.39 90.0163 161.527 90.9085C159.664 91.8007 162.275 91.5645 161.527 93.4931C160.779 95.4218 164.262 93.3816 165.253 94.7658C166.244 96.1499 169.524 95.343 169.524 95.343Z" fill="#B2D1FF"/>
<path opacity="0.5" d="M169.524 95.343L171.223 98.9576C171.223 98.9576 174.831 97.6456 176.07 98.9576C176.78 99.6223 177.223 100.522 177.317 101.49C177.317 101.49 178.235 97.4554 179.823 98.4197C180.903 99.114 181.895 99.938 182.775 100.873C182.775 100.873 185.012 97.2061 186.999 98.4197L188.967 99.6267C188.967 99.6267 190.581 95.9663 193.067 95.8088C195.554 95.6514 196.577 96.0318 196.787 95.343C196.997 94.6542 202.625 90.7511 205.236 90.9085L207.86 91.0594C207.86 91.0594 208.359 87.5826 209.828 87.5826C209.828 87.5826 206.85 85.8573 206.909 83.7122C206.909 82.8922 204.987 84.9323 203.629 83.7122C202.271 82.492 163.095 90.3312 163.095 90.3312C163.095 90.3312 163.39 90.0163 161.527 90.9085C159.664 91.8007 162.275 91.5645 161.527 93.4931C160.779 95.4218 164.262 93.3816 165.253 94.7658C166.244 96.1499 169.524 95.343 169.524 95.343Z" fill="white"/>
<path d="M179.383 94.9888C176.569 99.3381 163.823 100.414 162.839 96.7141C162.623 95.9351 162.569 95.1202 162.681 94.3197C162.856 93.0587 163.497 91.9091 164.479 91.0987C169.806 88.3304 178.373 89.7867 179.659 92.8502C179.802 93.2001 179.852 93.581 179.803 93.9559C179.755 94.3307 179.61 94.6866 179.383 94.9888Z" fill="#B2D1FF"/>
<path opacity="0.2" d="M179.659 92.8503C179.584 93.0336 179.492 93.2093 179.383 93.3751C176.569 97.7243 163.823 98.8002 162.839 95.1069C162.77 94.848 162.717 94.5851 162.681 94.3197C162.856 93.0587 163.497 91.9091 164.479 91.0987C169.806 88.3304 178.373 89.8195 179.659 92.8503Z" fill="black"/>
<path d="M205.846 92.4107C203.039 96.7535 190.286 97.8359 189.309 94.136C189.09 93.3554 189.036 92.5376 189.151 91.7351C189.326 90.4762 189.968 89.329 190.949 88.5207C196.269 85.7458 204.836 87.2087 206.128 90.2722C206.27 90.6227 206.318 91.0039 206.269 91.3786C206.219 91.7533 206.074 92.1089 205.846 92.4107Z" fill="#B2D1FF"/>
<path opacity="0.2" d="M206.128 90.2722C206.051 90.4556 205.957 90.6313 205.846 90.797C203.039 95.1397 190.286 96.2221 189.309 92.5223C189.235 92.2644 189.183 92.0012 189.151 91.7351C189.326 90.4762 189.968 89.329 190.949 88.5207C196.269 85.7458 204.836 87.248 206.128 90.2722Z" fill="black"/>
<path d="M183.569 71.6877C196.938 70.5725 208.497 82.2296 205.925 88.2583C203.354 94.2869 167.155 99.4103 163.751 92.5026C160.346 85.5949 169.504 72.8619 183.569 71.6877Z" fill="#263238"/>
<path opacity="0.5" d="M183.569 71.6877C196.938 70.5725 208.497 82.2296 205.925 88.2583C203.354 94.2869 167.155 99.4103 163.751 92.5026C160.346 85.5949 169.504 72.8619 183.569 71.6877Z" fill="white"/>
<path opacity="0.2" d="M182.591 79.2186C182.591 79.2186 181.968 80.7536 182.591 80.7536C183.214 80.7536 182.591 79.2186 182.591 79.2186Z" fill="white"/>
<path opacity="0.2" d="M187.498 77.408C187.498 77.408 188.613 78.8971 188.679 78.2149C188.744 77.5327 187.498 77.408 187.498 77.408Z" fill="white"/>
<path opacity="0.2" d="M180.17 76.8439C180.17 76.8439 178.491 77.1522 178.931 77.5852C179.37 78.0181 180.17 76.8439 180.17 76.8439Z" fill="white"/>
<path opacity="0.2" d="M174.831 78.72C174.831 78.72 173.591 78.8184 173.774 79.2317C173.958 79.645 174.831 78.72 174.831 78.72Z" fill="white"/>
<path opacity="0.2" d="M177.999 73.6163C177.999 73.6163 176.628 73.4261 176.628 73.8656C176.628 74.3051 177.999 73.6163 177.999 73.6163Z" fill="white"/>
<path opacity="0.2" d="M182.867 74.3576C182.867 74.3576 182.65 75.5384 183.149 75.4138C183.647 75.2891 182.867 74.3576 182.867 74.3576Z" fill="white"/>
<path opacity="0.2" d="M190.68 75.44C190.68 75.44 191.782 75.9451 191.782 75.44C191.782 74.9349 190.68 75.44 190.68 75.44Z" fill="white"/>
<path opacity="0.2" d="M186.822 72.8685C186.822 72.8685 187.432 72.2125 187.747 72.3699C188.062 72.5274 186.822 72.8685 186.822 72.8685Z" fill="white"/>
<path opacity="0.2" d="M181.351 72.8685C182.007 72.7438 181.66 73.577 181.66 73.577C181.66 73.577 180.669 72.9931 181.351 72.8685Z" fill="white"/>
<path opacity="0.2" d="M177.317 81.8688C177.317 81.8688 176.503 82.3674 176.628 82.7413C176.753 83.1152 177.317 81.8688 177.317 81.8688Z" fill="white"/>
<path opacity="0.2" d="M194.511 79.0152C194.511 79.0152 195.875 79.5269 195.383 79.9861C194.891 80.4453 194.511 79.0152 194.511 79.0152Z" fill="white"/>
<path opacity="0.2" d="M186.822 82.8134C186.822 82.8134 187.209 83.5678 186.822 83.7122C186.435 83.8565 186.822 82.8134 186.822 82.8134Z" fill="white"/>
<path opacity="0.2" d="M205.925 88.2583C203.347 94.2869 167.155 99.4103 163.751 92.496C163.385 91.7295 163.163 90.9024 163.095 90.0557C163.166 90.2624 163.252 90.464 163.351 90.6592C166.755 97.5669 202.947 92.4501 205.525 86.4149C205.832 85.6678 205.951 84.8571 205.872 84.0533C206.417 85.3988 206.435 86.8996 205.925 88.2583Z" fill="black"/>
<path d="M256.214 220.337C256.214 220.337 252.508 212.249 256.745 204.278C260.983 196.308 262.203 194.438 259.507 192.798C256.811 191.158 255.571 199.175 255.571 199.175C255.571 199.175 253.295 193.664 255.171 187.898C257.047 182.132 258.228 172.738 255.663 171.728C253.098 170.717 255.171 183.45 252.947 187.787C251.813 184.741 251.081 181.561 250.769 178.327C250.461 173.696 250.946 166.296 248.919 164.4C246.892 162.504 245.593 163.816 247.607 174.037C248.802 180.145 249.46 186.346 249.575 192.569C249.575 192.569 245.173 179.16 242.221 178.793C239.269 178.425 239.276 182.729 241.802 186.514C244.327 190.299 249.201 197.01 250.002 200.493C250.002 200.493 245.173 190.404 240.818 193.5C236.462 196.597 244.596 202.684 248.217 204.888C251.838 207.093 254.351 220.895 254.351 220.895L256.214 220.337Z" fill="#B2D1FF"/>
<path opacity="0.2" d="M256.214 220.337C256.214 220.337 252.508 212.249 256.745 204.278C260.983 196.308 262.203 194.438 259.507 192.798C256.811 191.158 255.571 199.175 255.571 199.175C255.571 199.175 253.295 193.664 255.171 187.898C257.047 182.132 258.228 172.738 255.663 171.728C253.098 170.717 255.171 183.45 252.947 187.787C251.813 184.741 251.081 181.561 250.769 178.327C250.461 173.696 250.946 166.296 248.919 164.4C246.892 162.504 245.593 163.816 247.607 174.037C248.802 180.145 249.46 186.346 249.575 192.569C249.575 192.569 245.173 179.16 242.221 178.793C239.269 178.425 239.276 182.729 241.802 186.514C244.327 190.299 249.201 197.01 250.002 200.493C250.002 200.493 245.173 190.404 240.818 193.5C236.462 196.597 244.596 202.684 248.217 204.888C251.838 207.093 254.351 220.895 254.351 220.895L256.214 220.337Z" fill="black"/>
<path d="M253.288 223.65C253.288 223.65 256.896 215.509 252.567 207.604C248.237 199.7 246.991 197.837 249.667 196.164C252.344 194.491 253.682 202.481 253.682 202.481C253.682 202.481 255.893 196.938 253.944 191.198C251.996 185.458 250.704 176.11 253.288 175.04C255.873 173.971 253.944 186.75 256.194 191.053C257.291 187.992 257.986 184.801 258.261 181.561C258.51 176.93 257.939 169.537 259.947 167.615C261.954 165.693 263.227 166.959 261.39 177.225C260.27 183.349 259.684 189.558 259.638 195.783C259.638 195.783 263.876 182.316 266.821 181.876C269.767 181.437 269.813 185.812 267.333 189.591C264.853 193.369 260.065 200.211 259.304 203.695C259.304 203.695 264.014 193.533 268.389 196.564C272.765 199.595 264.696 205.807 261.088 208.057C257.48 210.307 255.184 224.155 255.184 224.155L253.288 223.65Z" fill="#B2D1FF"/>
<path d="M269.937 217.851H240.122L242.536 239.184H267.523L269.937 217.851Z" fill="#263238"/>
<path d="M140.758 228.8H174.286C177.862 228.8 180.761 225.901 180.761 222.325V195.96C180.761 192.384 177.862 189.486 174.286 189.486H140.758C137.182 189.486 134.283 192.384 134.283 195.96V222.325C134.283 225.901 137.182 228.8 140.758 228.8Z" fill="#263238"/>
<path opacity="0.1" d="M140.758 228.8H174.286C177.862 228.8 180.761 225.901 180.761 222.325V195.96C180.761 192.384 177.862 189.486 174.286 189.486H140.758C137.182 189.486 134.283 192.384 134.283 195.96V222.325C134.283 225.901 137.182 228.8 140.758 228.8Z" fill="white"/>
<path opacity="0.2" d="M174.286 228.8C176.002 228.8 177.648 228.118 178.862 226.906C180.076 225.693 180.759 224.048 180.761 222.332V195.96C180.761 195.11 180.593 194.269 180.268 193.484C179.942 192.698 179.465 191.985 178.864 191.384C178.263 190.784 177.549 190.307 176.763 189.983C175.978 189.658 175.136 189.491 174.286 189.492C173.436 189.491 172.595 189.658 171.81 189.983C171.025 190.308 170.311 190.784 169.711 191.385C169.11 191.986 168.633 192.699 168.309 193.484C167.984 194.269 167.817 195.111 167.818 195.96V222.332C167.818 224.047 168.499 225.692 169.712 226.905C170.925 228.118 172.571 228.8 174.286 228.8Z" fill="white"/>
<path d="M134.388 202.54H65.9215L55.4911 148.656C55.2232 147.275 55.2641 145.851 55.6108 144.487C55.9576 143.123 56.6016 141.853 57.4968 140.767C58.3921 139.681 59.5163 138.807 60.789 138.207C62.0618 137.606 63.4515 137.295 64.8588 137.294H113.882C116.099 137.296 118.246 138.069 119.956 139.48C121.666 140.891 122.833 142.852 123.256 145.028L134.388 202.54Z" fill="#263238"/>
<g opacity="0.1">
<path d="M134.388 202.54H65.9215L55.4911 148.656C55.2232 147.275 55.2641 145.851 55.6108 144.487C55.9576 143.123 56.6016 141.853 57.4968 140.767C58.3921 139.681 59.5163 138.807 60.789 138.207C62.0618 137.606 63.4515 137.295 64.8588 137.294H113.882C116.099 137.296 118.246 138.069 119.956 139.48C121.666 140.891 122.833 142.852 123.256 145.028L134.388 202.54Z" fill="white"/>
</g>
<path opacity="0.2" d="M134.395 202.435H85.3654L74.2134 144.976C73.7899 142.805 72.6215 140.85 70.91 139.448C69.1984 138.047 67.0511 137.287 64.8391 137.301H113.882C116.093 137.291 118.238 138.052 119.949 139.453C121.66 140.854 122.829 142.807 123.256 144.976L134.395 202.435Z" fill="white"/>
<path d="M132.794 164.44C132.296 162.969 131.636 161.559 130.826 160.235C130.086 158.978 129.243 157.784 128.307 156.666C127.976 156.26 127.518 155.978 127.007 155.864C126.496 155.75 125.962 155.812 125.49 156.04C125.019 156.267 124.638 156.647 124.408 157.118C124.179 157.588 124.115 158.122 124.227 158.634L124.26 158.778C124.476 159.795 124.712 160.845 124.916 161.868C124.148 161.055 123.374 160.202 122.606 159.329C120.927 157.42 119.221 155.393 117.595 153.471L117.536 153.406C117.056 152.843 116.448 152.404 115.763 152.126C115.078 151.849 114.335 151.741 113.6 151.812C113.367 151.834 113.137 151.874 112.911 151.93C112.298 152.08 111.724 152.357 111.225 152.743C110.742 153.109 110.337 153.568 110.032 154.092C109.728 154.615 109.53 155.194 109.45 155.795C109.37 156.396 109.41 157.006 109.567 157.591C109.724 158.177 109.995 158.725 110.365 159.205C111.264 160.379 112.183 161.501 113.121 162.59C114.059 163.679 114.885 164.558 115.817 165.561C116.748 166.565 117.785 167.569 118.861 168.553C119.189 168.848 119.517 169.143 119.858 169.438C120.678 170.155 121.534 170.83 122.423 171.459C123.234 172.03 124.103 172.516 125.014 172.909C125.158 172.968 125.309 173.027 125.486 173.086C125.667 173.152 125.851 173.209 126.037 173.256C126.253 173.315 126.472 173.363 126.693 173.401L127.1 173.453C127.251 173.461 127.402 173.461 127.553 173.453C127.723 173.453 127.868 173.453 128.058 173.453C128.249 173.439 128.44 173.415 128.628 173.381C128.898 173.332 129.164 173.262 129.422 173.171C130.006 172.975 130.553 172.685 131.043 172.312C131.983 171.612 132.674 170.627 133.011 169.504C133.222 168.798 133.318 168.062 133.293 167.326C133.268 166.345 133.1 165.372 132.794 164.44Z" fill="#CE7A63"/>
<path opacity="0.1" d="M132.794 164.44C132.296 162.969 131.636 161.559 130.826 160.235C130.086 158.978 129.243 157.784 128.307 156.666C127.976 156.26 127.518 155.978 127.007 155.864C126.496 155.75 125.962 155.812 125.49 156.04C125.019 156.267 124.638 156.647 124.408 157.118C124.179 157.588 124.115 158.122 124.227 158.634L124.26 158.778C124.476 159.795 124.712 160.845 124.916 161.868C124.148 161.055 123.374 160.202 122.606 159.329C120.927 157.42 119.221 155.393 117.595 153.471L117.536 153.406C117.056 152.843 116.448 152.404 115.763 152.126C115.078 151.849 114.335 151.741 113.6 151.812C113.367 151.834 113.137 151.874 112.911 151.93C112.298 152.08 111.724 152.357 111.225 152.743C110.742 153.109 110.337 153.568 110.032 154.092C109.728 154.615 109.53 155.194 109.45 155.795C109.37 156.396 109.41 157.006 109.567 157.591C109.724 158.177 109.995 158.725 110.365 159.205C111.021 160.084 111.723 160.937 112.419 161.77L113.114 162.583C113.989 163.589 114.887 164.579 115.81 165.555C116.781 166.565 117.778 167.562 118.854 168.546L119.766 169.36C119.792 169.387 119.82 169.411 119.851 169.432C120.671 170.149 121.527 170.823 122.416 171.452C123.228 172.023 124.096 172.509 125.007 172.902C125.152 172.961 125.303 173.02 125.48 173.079C125.66 173.145 125.844 173.202 126.031 173.25C126.247 173.309 126.466 173.357 126.687 173.394L127.093 173.446C127.244 173.454 127.395 173.454 127.546 173.446C127.717 173.446 127.861 173.446 128.051 173.446C128.243 173.432 128.433 173.408 128.622 173.374C128.892 173.325 129.157 173.255 129.416 173.164C129.999 172.969 130.547 172.678 131.036 172.305C131.977 171.605 132.667 170.621 133.004 169.497C133.216 168.792 133.311 168.056 133.286 167.319C133.263 166.341 133.097 165.371 132.794 164.44Z" fill="black"/>
<path d="M123.636 158.096L123.256 156.174C123.118 155.474 123.165 154.75 123.394 154.075L123.827 152.802C123.965 152.395 124.241 152.048 124.608 151.823C124.974 151.598 125.408 151.508 125.834 151.569L127.146 151.759C127.388 151.795 127.62 151.879 127.83 152.005C128.039 152.131 128.222 152.297 128.367 152.494C128.512 152.691 128.617 152.915 128.675 153.152C128.734 153.39 128.745 153.636 128.707 153.878L128.53 155C128.53 155 128.412 158.188 126.805 160.149L126.11 159.998C125.577 159.897 125.076 159.672 124.647 159.342C124.217 159.011 123.871 158.585 123.636 158.096Z" fill="#CE7A63"/>
<path opacity="0.1" d="M123.636 158.096L123.256 156.174C123.118 155.474 123.165 154.75 123.394 154.075L123.827 152.802C123.965 152.395 124.241 152.048 124.608 151.823C124.974 151.598 125.408 151.508 125.834 151.569L127.146 151.759C127.388 151.795 127.62 151.879 127.83 152.005C128.039 152.131 128.222 152.297 128.367 152.494C128.512 152.691 128.617 152.915 128.675 153.152C128.734 153.39 128.745 153.636 128.707 153.878L128.53 155C128.53 155 128.412 158.188 126.805 160.149L126.11 159.998C125.577 159.897 125.076 159.672 124.647 159.342C124.217 159.011 123.871 158.585 123.636 158.096Z" fill="black"/>
<path opacity="0.2" d="M119.818 169.36L118.907 168.546C117.837 167.562 116.834 166.578 115.863 165.555C114.892 164.531 114.033 163.587 113.167 162.583L112.471 161.77C112.209 158.765 112.242 156.161 112.701 154.829C112.747 154.698 112.799 154.586 112.845 154.481C113.034 154.546 113.218 154.623 113.396 154.711C115.167 155.557 120.048 158.299 119.818 169.36Z" fill="black"/>
<path d="M116.558 154.659C116.912 156.85 121.38 161.146 117.759 164.932C118.92 166.532 122.075 178.36 120.921 180.833C118.953 183.031 106.252 185.327 95.5005 186.127C94.1557 181.889 94.674 172.43 88.8487 159.067C87.4973 155.964 90.2722 151.405 96.4845 149.056C99.254 148.127 102.217 147.932 105.085 148.492C108.135 149.089 115.915 150.742 116.558 154.659Z" fill="#B2D1FF"/>
<path opacity="0.7" d="M120.921 180.833C118.953 183.031 106.259 185.327 95.5005 186.127C94.8445 183.995 94.6149 180.525 93.8409 175.906C93.0979 171.397 91.9203 166.97 90.3247 162.688C89.8852 161.507 89.3932 160.294 88.8487 159.034C87.4973 155.944 90.2722 151.379 96.4845 149.03C99.2541 148.1 102.218 147.908 105.085 148.473C108.135 149.063 115.915 150.709 116.558 154.632C116.919 156.817 121.38 161.12 117.759 164.905C118.92 166.532 122.075 178.36 120.921 180.833Z" fill="white"/>
<path d="M113.442 127.841C113.442 127.841 116.066 124.738 109.211 122.213C102.356 119.687 93.7949 122.869 93.0602 132.158C92.3255 141.447 87.9828 143.015 91.8729 146.177C95.7629 149.338 102.021 145.855 107.919 146.557C113.816 147.259 114.721 149.922 115.6 144.753C116.479 139.584 115.85 133.024 115.85 133.024C115.85 133.024 116.998 128.15 113.442 127.841Z" fill="#263238"/>
<path d="M98.9904 138.226C98.9904 141.617 98.4394 147.016 96.4845 149.47C96.4845 149.47 99.5415 151.661 106.803 156.194C109.427 151.549 106.456 150.618 106.456 150.618C104.101 149.397 104.776 147.738 105.373 145.37L98.9904 138.226Z" fill="#CE7A63"/>
<path opacity="0.2" d="M105.268 145.337L99.712 140.791C99.4875 141.473 99.5154 142.213 99.7907 142.877C100.584 145.028 102.874 147.003 104.94 148.204C104.908 147.237 105.019 146.271 105.268 145.337Z" fill="black"/>
<path opacity="0.2" d="M89.918 161.671C91.0433 164.536 91.9768 167.473 92.7125 170.462C94.4247 166.617 95.9007 159.966 95.1594 157.197L89.918 161.671Z" fill="black"/>
<path d="M98.4001 131.771C98.0262 137.261 97.7441 139.577 100.086 142.719C103.602 147.449 110.3 146.688 112.274 141.407C114.059 136.658 114.374 128.478 109.421 125.663C104.468 122.849 98.7478 126.28 98.4001 131.771Z" fill="#CE7A63"/>
<path d="M106.147 136.14C106.095 136.54 106.265 136.894 106.528 136.927C106.79 136.96 107.046 136.665 107.099 136.271C107.151 135.877 106.98 135.516 106.711 135.477C106.443 135.438 106.193 135.74 106.147 136.14Z" fill="#263238"/>
<path d="M111.087 136.848C111.035 137.255 111.205 137.609 111.468 137.642C111.73 137.675 111.986 137.373 112.038 136.986C112.091 136.599 111.92 136.232 111.658 136.199C111.395 136.166 111.14 136.448 111.087 136.848Z" fill="#263238"/>
<path d="M111.52 136.192L112.524 136.035C112.524 136.035 111.946 136.73 111.52 136.192Z" fill="#263238"/>
<path d="M109.847 136.802C110.087 137.767 110.457 138.694 110.949 139.557C110.725 139.677 110.478 139.747 110.224 139.762C109.97 139.777 109.716 139.736 109.48 139.643L109.847 136.802Z" fill="#BA4D3C"/>
<path d="M96.5107 136.409C96.5683 136.906 96.7308 137.385 96.9875 137.815C97.2443 138.245 97.5893 138.615 97.9998 138.901C99.0625 139.59 100.04 138.495 100.119 137.091C100.184 135.831 99.712 133.955 98.4656 133.811C97.2192 133.667 96.327 135.097 96.5107 136.409Z" fill="#CE7A63"/>
<path d="M105.472 133.562C105.538 133.561 105.601 133.536 105.649 133.489C105.85 133.268 106.1 133.097 106.379 132.99C106.658 132.883 106.959 132.843 107.256 132.873C107.287 132.878 107.318 132.878 107.349 132.872C107.379 132.865 107.408 132.853 107.433 132.835C107.459 132.817 107.481 132.795 107.498 132.769C107.515 132.742 107.526 132.713 107.532 132.683C107.538 132.652 107.539 132.62 107.532 132.589C107.526 132.559 107.514 132.529 107.496 132.504C107.478 132.478 107.455 132.456 107.429 132.439C107.402 132.423 107.372 132.412 107.341 132.407C106.966 132.358 106.585 132.4 106.229 132.53C105.874 132.66 105.556 132.875 105.301 133.155C105.256 133.2 105.231 133.262 105.231 133.325C105.231 133.389 105.256 133.451 105.301 133.496C105.348 133.538 105.409 133.562 105.472 133.562Z" fill="#263238"/>
<path d="M113.167 134.913C113.226 134.92 113.286 134.906 113.337 134.874C113.363 134.856 113.386 134.833 113.403 134.806C113.42 134.78 113.432 134.75 113.438 134.719C113.443 134.688 113.442 134.656 113.435 134.625C113.428 134.594 113.415 134.565 113.396 134.539C113.188 134.23 112.909 133.974 112.583 133.793C112.257 133.612 111.893 133.51 111.52 133.496C111.457 133.499 111.397 133.527 111.354 133.574C111.312 133.621 111.289 133.682 111.29 133.745C111.294 133.809 111.322 133.868 111.368 133.911C111.415 133.954 111.476 133.977 111.54 133.975C111.839 133.985 112.131 134.066 112.393 134.212C112.654 134.358 112.877 134.565 113.042 134.815C113.071 134.86 113.115 134.895 113.167 134.913Z" fill="#263238"/>
<path d="M106.594 135.477L107.597 135.326C107.597 135.326 107.007 136.015 106.594 135.477Z" fill="#263238"/>
<path d="M111.317 126.05C109.965 131.01 100.552 135.011 97.8949 135.438C95.2381 135.864 94.9823 130.951 97.6981 127.822C100.414 124.693 106.272 122.016 111.317 126.05Z" fill="#263238"/>
<path d="M110.569 126.365C110.177 128.439 109.095 130.318 107.499 131.699C107.499 131.699 110.851 130.839 112.537 128.517L110.569 126.365Z" fill="#263238"/>
<path d="M108.24 141.611C107.706 141.999 107.202 142.427 106.731 142.89L106.449 142.68C105.19 141.729 104.914 140.869 104.999 140.207C105.046 139.885 105.17 139.579 105.36 139.315C105.461 139.159 105.585 139.02 105.727 138.901C106.244 139.834 106.955 140.644 107.814 141.276C108.096 141.493 108.24 141.611 108.24 141.611Z" fill="#263238"/>
<path d="M107.84 141.276L107.387 141.644C106.2 140.745 105.485 139.951 105.419 139.315C105.52 139.159 105.644 139.02 105.787 138.901C106.293 139.831 106.993 140.641 107.84 141.276Z" fill="white"/>
<path d="M106.475 142.68C105.216 141.729 104.94 140.869 105.026 140.207C105.493 140.573 105.895 141.017 106.213 141.519C106.423 141.868 106.515 142.275 106.475 142.68Z" fill="#A24E3F"/>
<path d="M119.241 157.394C119.226 157.451 119.223 157.511 119.232 157.569C119.242 157.628 119.264 157.683 119.297 157.732C119.33 157.782 119.373 157.823 119.423 157.854C119.474 157.885 119.53 157.905 119.589 157.912L124.181 158.568C124.309 158.584 124.439 158.554 124.547 158.483C124.655 158.413 124.735 158.305 124.771 158.181L127.061 149.253C127.078 149.192 127.083 149.129 127.076 149.066C127.068 149.003 127.048 148.942 127.016 148.888C126.984 148.833 126.941 148.786 126.89 148.748C126.839 148.711 126.781 148.684 126.719 148.669L122.127 148.013C121.992 148.013 121.86 148.057 121.752 148.139C121.644 148.22 121.567 148.335 121.531 148.466L119.241 157.394Z" fill="#263238"/>
<path opacity="0.5" d="M122.049 148.479L119.733 157.493C119.712 157.543 119.704 157.598 119.708 157.653C119.713 157.708 119.73 157.76 119.759 157.807C119.788 157.854 119.827 157.893 119.874 157.922C119.921 157.95 119.974 157.967 120.028 157.971L123.925 158.516C124.187 158.555 124.686 158.477 124.752 158.227L127.08 149.181C127.146 148.932 126.726 148.663 126.464 148.623L122.567 148.079C122.446 148.066 122.324 148.1 122.227 148.175C122.131 148.249 122.067 148.358 122.049 148.479Z" fill="white"/>
<path d="M115.456 158.529L117.024 155.157L121.937 158.759C121.937 158.759 119.779 161.711 117.044 162.531L116.499 161.94C116.072 161.492 115.756 160.95 115.575 160.358C115.394 159.766 115.353 159.14 115.456 158.529Z" fill="#CE7A63"/>
<path d="M120.973 154.114L122.515 155.584C122.682 155.742 122.817 155.933 122.911 156.144C123.005 156.355 123.056 156.582 123.063 156.813C123.069 157.044 123.029 157.274 122.946 157.489C122.864 157.705 122.739 157.902 122.58 158.07L121.924 158.759L117.011 155.157L118.736 153.944C119.071 153.708 119.477 153.596 119.885 153.628C120.293 153.659 120.678 153.831 120.973 154.114Z" fill="#CE7A63"/>
<path opacity="0.2" d="M100.624 176.838C98.5772 178.307 95.8941 177.225 93.8409 175.906C93.0979 171.397 91.9203 166.97 90.3247 162.688C90.4213 162.438 90.5739 162.214 90.7708 162.032C92.8306 160.32 104.429 174.089 100.624 176.838Z" fill="black"/>
<path d="M96.5829 156.987C96.6419 157.263 96.7338 157.702 96.8191 158.07L97.1011 159.237C97.2979 160.018 97.4947 160.799 97.7243 161.56C98.15 163.049 98.667 164.51 99.2725 165.935C99.781 167.178 100.442 168.352 101.24 169.432C101.536 169.809 101.873 170.152 102.244 170.455C102.485 170.655 102.761 170.809 103.058 170.908C103.058 170.908 103.235 170.941 102.959 170.908H102.723H102.546C102.329 170.954 102.29 170.98 102.27 171.006C102.251 171.032 102.454 170.96 102.677 170.849C103.261 170.522 103.812 170.139 104.324 169.707C105.584 168.679 106.788 167.584 107.932 166.427C110.339 164.039 112.714 161.422 115.102 158.883L115.141 158.844C115.519 158.441 116.028 158.188 116.577 158.129C117.125 158.071 117.677 158.211 118.131 158.525C118.584 158.839 118.91 159.306 119.049 159.84C119.188 160.374 119.13 160.94 118.887 161.435C117.263 164.736 115.381 167.903 113.258 170.908C112.149 172.485 110.932 173.984 109.618 175.395C108.857 176.204 108.027 176.946 107.138 177.612C106.539 178.054 105.89 178.422 105.203 178.708C104.705 178.919 104.183 179.066 103.648 179.147C103.504 179.147 103.307 179.193 103.136 179.206C102.946 179.216 102.756 179.216 102.566 179.206C102.313 179.197 102.061 179.175 101.811 179.141C100.351 178.958 98.9435 178.476 97.6784 177.724C96.5636 177.055 95.5497 176.231 94.6674 175.277C93.1724 173.645 91.9297 171.798 90.9807 169.799C90.1024 167.998 89.3718 166.129 88.7962 164.21C88.5141 163.272 88.2517 162.34 88.0352 161.389C87.9237 160.917 87.8187 160.445 87.7269 159.959C87.6351 159.474 87.5563 159.034 87.4645 158.431C87.2496 157.228 87.5215 155.988 88.2203 154.986C88.919 153.983 89.9875 153.299 91.1906 153.084C92.3937 152.869 93.6328 153.141 94.6355 153.84C95.6381 154.539 96.3221 155.607 96.537 156.81L96.5829 156.987Z" fill="#CE7A63"/>
<path d="M207.873 209.264C204.147 212.105 199.667 211.809 197.646 209.054C196.531 207.532 191.952 211.396 191.952 211.396C196.544 215.102 196.196 216.513 196.905 217.89C197.613 219.268 198.788 220.449 199.732 219.649C200.861 218.684 201.189 218.015 202.612 216.841C204.278 215.47 206.076 213.974 208.936 211.429C210.084 210.425 209.533 208.018 207.873 209.264Z" fill="#263238"/>
<path d="M199.07 209.146L194.478 213.922C187.544 211.199 181.778 208.674 176.982 206.365C154.678 195.613 153.091 189.413 149.981 189.079C149.352 189.107 148.736 189.273 148.177 189.564C140.876 192.667 117.575 209.52 105.537 205.964C92.1746 202.028 95.4874 186.133 95.4874 186.133C131.331 174.234 153.747 172.482 162.944 178.261C172.141 184.041 199.07 209.146 199.07 209.146Z" fill="#B2D1FF"/>
<path opacity="0.2" d="M199.07 209.146L194.478 213.922C187.544 211.199 181.778 208.674 176.982 206.365C154.678 195.613 153.091 189.413 149.981 189.079C149.352 189.107 148.736 189.273 148.177 189.564C140.876 192.667 117.575 209.52 105.537 205.964C92.1746 202.028 95.4874 186.133 95.4874 186.133C131.331 174.234 153.747 172.482 162.944 178.261C172.141 184.041 199.07 209.146 199.07 209.146Z" fill="black"/>
<path opacity="0.2" d="M176.976 206.365C154.672 195.613 153.084 189.413 149.975 189.079C149.345 189.107 148.729 189.273 148.171 189.564L148.25 189.276C148.25 189.276 157.886 186.724 164.387 188.961C169.091 190.581 174.404 200.834 176.976 206.365Z" fill="black"/>
<path d="M158.26 227.252L160.208 239.184H156.036L152.199 227.803L158.26 227.252Z" fill="#263238"/>
<path d="M105.714 227.252L103.766 239.184H107.945L111.776 227.803L105.714 227.252Z" fill="#263238"/>
<path opacity="0.1" d="M158.26 227.252L160.208 239.184H156.036L152.199 227.803L158.26 227.252Z" fill="white"/>
<path opacity="0.1" d="M105.714 227.252L103.766 239.184H107.945L111.776 227.803L105.714 227.252Z" fill="white"/>
<path d="M128.241 227.252L130.19 239.184H126.018L122.18 227.803L128.241 227.252Z" fill="#263238"/>
<path d="M71.2417 227.252L69.2933 239.184H73.4655L77.3031 227.803L71.2417 227.252Z" fill="#263238"/>
<path d="M161.802 202.435H67.9157C65.26 202.435 63.1072 204.588 63.1072 207.244V225.461C63.1072 228.116 65.26 230.269 67.9157 230.269H161.802C164.458 230.269 166.611 228.116 166.611 225.461V207.244C166.611 204.588 164.458 202.435 161.802 202.435Z" fill="#263238"/>
<path opacity="0.1" d="M161.802 202.435H67.9157C65.26 202.435 63.1072 204.588 63.1072 207.244V225.461C63.1072 228.116 65.26 230.269 67.9157 230.269H161.802C164.458 230.269 166.611 228.116 166.611 225.461V207.244C166.611 204.588 164.458 202.435 161.802 202.435Z" fill="white"/>
<path opacity="0.2" d="M161.802 202.435H104.061C101.406 202.435 99.2528 204.588 99.2528 207.244V225.461C99.2528 228.116 101.406 230.269 104.061 230.269H161.802C164.458 230.269 166.611 228.116 166.611 225.461V207.244C166.611 204.588 164.458 202.435 161.802 202.435Z" fill="white"/>
<path d="M58.3118 228.8H91.84C95.4159 228.8 98.3147 225.901 98.3147 222.325V195.96C98.3147 192.384 95.4159 189.486 91.84 189.486H58.3118C54.7359 189.486 51.8371 192.384 51.8371 195.96L51.8371 222.325C51.8371 225.901 54.7359 228.8 58.3118 228.8Z" fill="#263238"/>
<path opacity="0.1" d="M58.3118 228.8H91.84C95.4159 228.8 98.3147 225.901 98.3147 222.325V195.96C98.3147 192.384 95.4159 189.486 91.84 189.486H58.3118C54.7359 189.486 51.8371 192.384 51.8371 195.96L51.8371 222.325C51.8371 225.901 54.7359 228.8 58.3118 228.8Z" fill="white"/>
<path opacity="0.2" d="M91.8401 228.8C93.5561 228.8 95.202 228.118 96.4161 226.906C97.6301 225.693 98.3131 224.048 98.3148 222.332V195.96C98.3148 195.11 98.1473 194.269 97.8218 193.484C97.4963 192.698 97.0193 191.985 96.418 191.384C95.8167 190.784 95.1029 190.307 94.3174 189.983C93.5318 189.658 92.69 189.491 91.8401 189.492C90.9901 189.491 90.1483 189.658 89.3628 189.983C88.5773 190.307 87.8635 190.784 87.2622 191.384C86.6608 191.985 86.1838 192.698 85.8583 193.484C85.5329 194.269 85.3654 195.11 85.3654 195.96V222.332C85.3671 224.048 86.05 225.693 87.2641 226.906C88.4781 228.118 90.124 228.8 91.8401 228.8Z" fill="white"/>
<path d="M171.491 235.176C171.547 232.673 171.26 230.175 170.639 227.75C170.639 227.75 175.506 225.172 175.749 227.022C176.188 230.381 179.324 235.288 183.208 235.95C185.425 236.331 183.969 238.023 182.375 238.436C179.836 239.092 179.613 238.699 177.389 238.03C175.493 237.452 174.765 237.229 173.197 237.643C171.911 237.984 171.557 236.718 171.491 235.176Z" fill="#263238"/>
<path d="M176.464 227.252L170.56 230.033C170.56 230.033 156.056 208.51 153.996 202.829C153.996 202.829 144.097 203.025 130.734 202.612C128.307 202.54 126.87 202.612 124.253 202.435C124.253 202.435 136.874 191.06 148.249 189.276C148.833 189.184 149.404 189.118 149.975 189.079C149.975 189.079 160.09 188.285 162.95 190.732C165.811 193.179 176.464 227.252 176.464 227.252Z" fill="#B2D1FF"/>
<path opacity="0.2" d="M176.464 227.252L170.56 230.033C170.56 230.033 156.056 208.51 153.996 202.829C153.996 202.829 144.097 203.025 130.734 202.612C128.307 202.54 126.87 202.612 124.253 202.435C124.253 202.435 136.874 191.06 148.249 189.276C148.833 189.184 149.404 189.118 149.975 189.079C149.975 189.079 160.09 188.285 162.95 190.732C165.811 193.179 176.464 227.252 176.464 227.252Z" fill="black"/>
<path opacity="0.2" d="M148.256 189.276C143.821 194.596 136.533 199.286 130.741 202.612C128.314 202.54 126.877 202.612 124.26 202.435C124.253 202.435 136.874 191.06 148.256 189.276Z" fill="black"/>
</svg>
