<svg width="56" height="56" viewBox="0 0 56 56" fill="none" xmlns="http://www.w3.org/2000/svg">
<g clip-path="url(#clip0_633_2866)">
<rect width="56" height="56" rx="7" fill="#1976FF"/>
<circle cx="8.5" cy="22.5" r="35.5" fill="url(#paint0_linear_633_2866)"/>
<g clip-path="url(#clip1_633_2866)">
<path d="M35.0625 30.2342C35.0625 30.5587 34.9663 30.8759 34.786 31.1457C34.6057 31.4155 34.3495 31.6258 34.0497 31.7499C33.7499 31.8741 33.4201 31.9066 33.1018 31.8433C32.7836 31.78 32.4912 31.6237 32.2618 31.3943C32.0323 31.1649 31.8761 30.8725 31.8128 30.5543C31.7495 30.236 31.782 29.9062 31.9061 29.6064C32.0303 29.3066 32.2406 29.0504 32.5104 28.8701C32.7802 28.6898 33.0974 28.5936 33.4219 28.5936C33.857 28.5936 34.2743 28.7664 34.582 29.0741C34.8896 29.3818 35.0625 29.7991 35.0625 30.2342ZM23.5781 28.5936C23.2536 28.5936 22.9364 28.6898 22.6666 28.8701C22.3968 29.0504 22.1866 29.3066 22.0624 29.6064C21.9382 29.9062 21.9057 30.236 21.969 30.5543C22.0323 30.8725 22.1886 31.1649 22.418 31.3943C22.6475 31.6237 22.9398 31.78 23.2581 31.8433C23.5763 31.9066 23.9062 31.8741 24.206 31.7499C24.5058 31.6258 24.762 31.4155 24.9423 31.1457C25.1225 30.8759 25.2188 30.5587 25.2188 30.2342C25.2188 29.7991 25.0459 29.3818 24.7382 29.0741C24.4305 28.7664 24.0132 28.5936 23.5781 28.5936ZM43.8125 19.8436V30.7811C43.8096 33.3909 42.7716 35.893 40.9261 37.7385C39.0807 39.5839 36.5786 40.6219 33.9688 40.6248H23.0313C20.4214 40.6219 17.9193 39.5839 16.0739 37.7385C14.2284 35.893 13.1904 33.3909 13.1875 30.7811V19.8436C13.1854 18.7772 13.5728 17.7468 14.277 16.946C14.9811 16.1452 15.9535 15.6292 17.0114 15.4948C18.0692 15.3605 19.1397 15.6171 20.0217 16.2165C20.9036 16.8159 21.5363 17.7168 21.8008 18.7498H35.1992C35.4637 17.7168 36.0964 16.8159 36.9783 16.2165C37.8603 15.6171 38.9308 15.3605 39.9886 15.4948C41.0465 15.6292 42.0189 16.1452 42.723 16.946C43.4272 17.7468 43.8146 18.7772 43.8125 19.8436ZM38.3438 29.6873C38.3438 28.527 37.8828 27.4142 37.0623 26.5937C36.2419 25.7733 35.1291 25.3123 33.9688 25.3123H23.0313C21.8709 25.3123 20.7581 25.7733 19.9377 26.5937C19.1172 27.4142 18.6563 28.527 18.6563 29.6873V30.7811C18.6563 31.9414 19.1172 33.0542 19.9377 33.8747C20.7581 34.6951 21.8709 35.1561 23.0313 35.1561H33.9688C35.1291 35.1561 36.2419 34.6951 37.0623 33.8747C37.8828 33.0542 38.3438 31.9414 38.3438 30.7811V29.6873Z" fill="white"/>
</g>
</g>
<defs>
<linearGradient id="paint0_linear_633_2866" x1="40.413" y1="52.0094" x2="22.8965" y2="-27.3176" gradientUnits="userSpaceOnUse">
<stop stop-color="#1976FF"/>
<stop offset="1" stop-color="#B9D7FE"/>
</linearGradient>
<clipPath id="clip0_633_2866">
<rect width="56" height="56" rx="8" fill="white"/>
</clipPath>
<clipPath id="clip1_633_2866">
<rect width="35" height="35" fill="white" transform="translate(11 10)"/>
</clipPath>
</defs>
</svg>
