<svg width="56" height="56" viewBox="0 0 56 56" fill="none" xmlns="http://www.w3.org/2000/svg">
<g clip-path="url(#clip0_633_2877)">
<rect width="56" height="56" rx="7" fill="#1976FF"/>
<circle cx="8.5" cy="22.5" r="35.5" fill="url(#paint0_linear_633_2877)"/>
<g clip-path="url(#clip1_633_2877)">
<path d="M21.1795 17.5195C21.9109 16.609 22.0914 15.9938 22.0162 15.7231C21.9588 15.5194 21.6867 15.4141 21.684 15.4141C21.4364 15.3327 21.226 15.1656 21.0907 14.9429C20.9554 14.7202 20.904 14.4564 20.9459 14.1992C20.9878 13.942 21.1202 13.7082 21.3191 13.5399C21.5181 13.3716 21.7706 13.2799 22.0312 13.2813C22.1416 13.2814 22.2512 13.298 22.3566 13.3305C22.4934 13.3729 23.7115 13.7858 24.1053 15.075C24.4416 16.1783 24.0301 17.4608 22.883 18.8881C22.1516 19.7986 21.9711 20.4139 22.0463 20.6846C22.1037 20.8883 22.3703 20.9908 22.373 20.9922C22.6202 21.0734 22.8303 21.2401 22.9656 21.4622C23.1009 21.6844 23.1527 21.9475 23.1115 22.2043C23.0703 22.4612 22.939 22.695 22.741 22.8637C22.543 23.0324 22.2914 23.1251 22.0312 23.125C21.9209 23.1249 21.8113 23.1083 21.7059 23.0758C21.5691 23.0334 20.351 22.6205 19.9572 21.3313C19.6209 20.2279 20.0324 18.9455 21.1795 17.5195ZM25.426 21.3326C25.8197 22.6219 27.0379 23.0348 27.1746 23.0772C27.2801 23.1092 27.3898 23.1253 27.5 23.125C27.7601 23.1251 28.0118 23.0324 28.2097 22.8637C28.4077 22.695 28.5391 22.4612 28.5802 22.2043C28.6214 21.9475 28.5697 21.6844 28.4343 21.4622C28.299 21.2401 28.0889 21.0734 27.8418 20.9922C27.8418 20.9922 27.5684 20.8883 27.515 20.6846C27.4398 20.4111 27.6203 19.7986 28.3518 18.8881C29.4988 17.4608 29.9104 16.1783 29.574 15.075C29.1803 13.7858 27.9635 13.3729 27.8254 13.3305C27.72 13.298 27.6103 13.2814 27.5 13.2813C27.2401 13.2809 26.9886 13.373 26.7905 13.5412C26.5924 13.7094 26.4607 13.9426 26.4189 14.1991C26.3771 14.4556 26.428 14.7186 26.5625 14.941C26.6969 15.1634 26.9062 15.3306 27.1527 15.4127C27.1527 15.4127 27.4262 15.518 27.485 15.7217C27.5602 15.9951 27.3797 16.6076 26.6482 17.5182C25.5012 18.9455 25.0896 20.2279 25.426 21.3313V21.3326ZM30.8947 21.3326C31.2885 22.6219 32.5066 23.0348 32.6434 23.0772C32.7488 23.1092 32.8585 23.1253 32.9688 23.125C33.2289 23.1251 33.4805 23.0324 33.6785 22.8637C33.8765 22.695 34.0078 22.4612 34.049 22.2043C34.0902 21.9475 34.0384 21.6844 33.9031 21.4622C33.7678 21.2401 33.5577 21.0734 33.3105 20.9922C33.3105 20.9922 33.0371 20.8883 32.9838 20.6846C32.9086 20.4111 33.0891 19.7986 33.8205 18.8881C34.9676 17.4608 35.3791 16.1783 35.0428 15.075C34.649 13.7858 33.4322 13.3729 33.2941 13.3305C33.1887 13.298 33.0791 13.2814 32.9688 13.2813C32.7089 13.2809 32.4574 13.373 32.2593 13.5412C32.0612 13.7094 31.9294 13.9426 31.8876 14.1991C31.8458 14.4556 31.8967 14.7186 32.0312 14.941C32.1657 15.1634 32.3749 15.3306 32.6215 15.4127C32.6215 15.4127 32.8949 15.518 32.9537 15.7217C33.0289 15.9951 32.8484 16.6076 32.117 17.5182C30.9699 18.9455 30.5584 20.2279 30.8947 21.3313V21.3326ZM40.625 25.3125H14.375C14.0849 25.3125 13.8067 25.4277 13.6016 25.6329C13.3965 25.838 13.2813 26.1162 13.2812 26.4063C13.2861 29.0074 14.0019 31.5577 15.3513 33.7813C16.7008 36.005 18.6325 37.8175 20.9375 39.0227V39.5313C20.9375 40.1114 21.168 40.6678 21.5782 41.0781C21.9884 41.4883 22.5448 41.7188 23.125 41.7188H31.875C32.4552 41.7188 33.0116 41.4883 33.4218 41.0781C33.832 40.6678 34.0625 40.1114 34.0625 39.5313V39.0227C36.3675 37.8175 38.2992 36.005 39.6487 33.7813C40.9981 31.5577 41.7139 29.0074 41.7188 26.4063C41.7188 26.1162 41.6035 25.838 41.3984 25.6329C41.1933 25.4277 40.9151 25.3125 40.625 25.3125Z" fill="white"/>
</g>
</g>
<defs>
<linearGradient id="paint0_linear_633_2877" x1="40.413" y1="52.0094" x2="22.8965" y2="-27.3176" gradientUnits="userSpaceOnUse">
<stop stop-color="#1976FF"/>
<stop offset="1" stop-color="#B9D7FE"/>
</linearGradient>
<clipPath id="clip0_633_2877">
<rect width="56" height="56" rx="8" fill="white"/>
</clipPath>
<clipPath id="clip1_633_2877">
<rect width="35" height="35" fill="white" transform="translate(10 10)"/>
</clipPath>
</defs>
</svg>
