<svg width="56" height="56" viewBox="0 0 56 56" fill="none" xmlns="http://www.w3.org/2000/svg">
<g clip-path="url(#clip0_633_2872)">
<rect width="56" height="56" rx="7" fill="#1976FF"/>
<circle cx="9" cy="22.5" r="35.5" fill="url(#paint0_linear_633_2872)"/>
<path d="M41.625 28.3348V39.2723C41.625 39.8525 41.3945 40.4089 40.9843 40.8191C40.5741 41.2294 40.0177 41.4598 39.4375 41.4598H17.5625C16.9823 41.4598 16.4259 41.2294 16.0157 40.8191C15.6055 40.4089 15.375 39.8525 15.375 39.2723V17.3973C15.375 16.8172 15.6055 16.2608 16.0157 15.8505C16.4259 15.4403 16.9823 15.2098 17.5625 15.2098H28.5C28.7901 15.2098 29.0683 15.3251 29.2734 15.5302C29.4785 15.7353 29.5938 16.0135 29.5938 16.3036C29.5938 16.5937 29.4785 16.8719 29.2734 17.077C29.0683 17.2821 28.7901 17.3973 28.5 17.3973H17.5625V39.2723H39.4375V28.3348C39.4375 28.0448 39.5527 27.7666 39.7579 27.5614C39.963 27.3563 40.2412 27.2411 40.5312 27.2411C40.8213 27.2411 41.0995 27.3563 41.3046 27.5614C41.5098 27.7666 41.625 28.0448 41.625 28.3348ZM42.3988 20.3587L29.2738 33.4837C29.1722 33.5852 29.0515 33.6657 28.9187 33.7206C28.786 33.7755 28.6437 33.8037 28.5 33.8036H24.125C23.8349 33.8036 23.5567 33.6884 23.3516 33.4832C23.1465 33.2781 23.0312 32.9999 23.0312 32.7098V28.3348C23.0311 28.1912 23.0593 28.0489 23.1142 27.9161C23.1691 27.7833 23.2496 27.6627 23.3512 27.561L36.4762 14.436C36.5778 14.3343 36.6984 14.2536 36.8312 14.1986C36.9639 14.1436 37.1063 14.1152 37.25 14.1152C37.3937 14.1152 37.5361 14.1436 37.6688 14.1986C37.8016 14.2536 37.9222 14.3343 38.0238 14.436L42.3988 18.811C42.5005 18.9126 42.5812 19.0332 42.6362 19.166C42.6913 19.2988 42.7196 19.4411 42.7196 19.5848C42.7196 19.7286 42.6913 19.8709 42.6362 20.0037C42.5812 20.1365 42.5005 20.2571 42.3988 20.3587ZM40.0746 19.5848L37.25 16.7561L35.515 18.4911L38.3438 21.3198L40.0746 19.5848Z" fill="white"/>
</g>
<defs>
<linearGradient id="paint0_linear_633_2872" x1="40.913" y1="52.0094" x2="23.3965" y2="-27.3176" gradientUnits="userSpaceOnUse">
<stop stop-color="#1976FF"/>
<stop offset="1" stop-color="#B9D7FE"/>
</linearGradient>
<clipPath id="clip0_633_2872">
<rect width="56" height="56" rx="8" fill="white"/>
</clipPath>
</defs>
</svg>
