<svg width="328" height="262" viewBox="0 0 328 262" fill="none" xmlns="http://www.w3.org/2000/svg">
<path d="M328 229.466H0V229.641H328V229.466Z" fill="#EBEBEB"/>
<path d="M295.134 240.743H273.408V240.918H295.134V240.743Z" fill="#EBEBEB"/>
<path d="M217.28 242.649H211.58V242.824H217.28V242.649Z" fill="#EBEBEB"/>
<path d="M272.752 234.239H260.163V234.414H272.752V234.239Z" fill="#EBEBEB"/>
<path d="M62.7462 235.416H34.4136V235.591H62.7462V235.416Z" fill="#EBEBEB"/>
<path d="M72.7438 235.416H68.5913V235.591H72.7438V235.416Z" fill="#EBEBEB"/>
<path d="M147.698 238.374H86.2444V238.549H147.698V238.374Z" fill="#EBEBEB"/>
<path d="M155.472 198.207H28.8049C27.8126 198.205 26.8615 197.783 26.1605 197.032C25.4594 196.282 25.0657 195.265 25.0657 194.205V3.96694C25.0743 2.91285 25.4719 1.90496 26.172 1.1622C26.8721 0.419443 27.8182 0.00180572 28.8049 0H155.472C156.465 0 157.418 0.421637 158.121 1.17215C158.823 1.92267 159.218 2.94059 159.218 4.00198V194.205C159.218 195.266 158.823 196.284 158.121 197.035C157.418 197.785 156.465 198.207 155.472 198.207ZM28.8049 0.140175C27.8561 0.142032 26.9467 0.546026 26.2764 1.26348C25.6061 1.98094 25.2297 2.95323 25.2297 3.96694V194.205C25.2297 195.219 25.6061 196.191 26.2764 196.908C26.9467 197.626 27.8561 198.03 28.8049 198.032H155.472C156.421 198.03 157.331 197.626 158.003 196.909C158.674 196.192 159.052 195.219 159.054 194.205V3.96694C159.052 2.95259 158.674 1.98031 158.003 1.26305C157.331 0.545798 156.421 0.142028 155.472 0.140175H28.8049Z" fill="#EBEBEB"/>
<path d="M297.371 198.207H170.698C169.705 198.205 168.753 197.783 168.051 197.033C167.349 196.283 166.954 195.266 166.952 194.205V3.96694C166.962 2.91221 167.361 1.90433 168.062 1.16176C168.764 0.419198 169.71 0.00178603 170.698 0H297.371C298.357 0.00364769 299.301 0.4221 300 1.16466C300.699 1.90722 301.095 2.91406 301.104 3.96694V194.205C301.104 195.264 300.711 196.28 300.011 197.03C299.312 197.78 298.362 198.203 297.371 198.207ZM170.698 0.140175C169.748 0.142028 168.838 0.545798 168.167 1.26305C167.496 1.98031 167.118 2.95259 167.116 3.96694V194.205C167.118 195.219 167.496 196.192 168.167 196.909C168.838 197.626 169.748 198.03 170.698 198.032H297.371C298.321 198.03 299.231 197.626 299.902 196.909C300.573 196.192 300.951 195.219 300.953 194.205V3.96694C300.951 2.95259 300.573 1.98031 299.902 1.26305C299.231 0.545798 298.321 0.142028 297.371 0.140175H170.698Z" fill="#EBEBEB"/>
<path d="M248.145 185.486V195.438L252.081 198.494H233.713L239.578 196.167V186.18L248.145 185.486Z" fill="#E0E0E0"/>
<path d="M198.597 198.207V229.557H280.597V198.207H198.597ZM200.073 200.239H264.256V210.486H200.08L200.073 200.239Z" fill="#E0E0E0"/>
<path d="M198.597 198.207V229.557H266.231V198.207H198.597ZM200.073 200.239H264.256V210.486H200.08L200.073 200.239Z" fill="#EBEBEB"/>
<path d="M200.073 210.486H213.298V200.239H200.073V210.486Z" fill="#E0E0E0"/>
<path d="M247.889 210.486H264.257V205.363H247.889V210.486Z" fill="#E0E0E0"/>
<path d="M234.362 210.486H246.682V207.444H234.362V210.486Z" fill="#E0E0E0"/>
<path d="M219.78 210.486H231.516V204.263H219.78V210.486Z" fill="#E0E0E0"/>
<path d="M252.626 212.715L252.973 213.941H257.683L258.038 212.715H264.256V226.319H243.612V212.715H252.626Z" fill="#E0E0E0"/>
<path d="M228.091 212.715L228.445 213.941H233.156L233.51 212.715H242.517V226.319H221.872V212.715H228.091Z" fill="#E0E0E0"/>
<path d="M209.146 212.715L209.493 213.941H214.204L214.558 212.715H220.777V226.319H200.132V212.715H209.146Z" fill="#E0E0E0"/>
<path d="M210.589 191.437H271.591C272.869 191.437 273.906 190.329 273.906 188.962V151.543C273.906 150.176 272.869 149.069 271.591 149.069H210.589C209.31 149.069 208.273 150.176 208.273 151.543V188.962C208.273 190.329 209.31 191.437 210.589 191.437Z" fill="#E0E0E0"/>
<path d="M209.048 191.437H270.049C271.328 191.437 272.365 190.329 272.365 188.962V151.543C272.365 150.176 271.328 149.069 270.049 149.069H209.048C207.769 149.069 206.732 150.176 206.732 151.543V188.962C206.732 190.329 207.769 191.437 209.048 191.437Z" fill="#E6E6E6"/>
<path d="M270.436 189.376V151.122H208.661V189.376H270.436Z" fill="#F0F0F0"/>
<path d="M125.388 36.894H47.5667V122.807H125.388V36.894Z" fill="#EBEBEB"/>
<path d="M128.11 36.894H50.2888V122.807H128.11V36.894Z" fill="#F0F0F0"/>
<path d="M126.05 38.9336H52.2505V120.817H126.05V38.9336Z" fill="#E0E0E0"/>
<path d="M124.207 38.9336H52.2505V120.817H124.207V38.9336Z" fill="#F5F5F5"/>
<path d="M88.9734 38.9336H87.5105V120.817H88.9734V38.9336Z" fill="#EBEBEB"/>
<path d="M97.3569 38.9336L117.863 120.81H119.831L99.3249 38.9336H97.3569Z" fill="white"/>
<path d="M89.5965 37.6719H88.3435V122.386H89.5965V37.6719Z" fill="#F0F0F0"/>
<path d="M104.796 38.9336L124.207 116.422V73.8301L115.469 38.9336H104.796Z" fill="white"/>
<path d="M52.2505 46.3625V54.2193L68.9326 120.809H70.9006L52.2505 46.3625Z" fill="white"/>
<path d="M52.2505 62.2305V104.823L56.2521 120.809H66.9186L52.2505 62.2305Z" fill="white"/>
<path d="M262.105 41.793H214.984V103.049H262.105V41.793Z" fill="#E6E6E6"/>
<path d="M251.32 87.8755L226.563 61.8731L253.347 57.1492L251.32 87.8755Z" fill="#E0E0E0"/>
<path d="M227.16 81.715L225.933 61.7751L244.577 66.6672L245.928 81.9182L227.16 81.715Z" fill="#F0F0F0"/>
<path d="M256.868 59.3382C259.807 56.1988 259.807 51.1088 256.868 47.9694C253.93 44.8299 249.166 44.8299 246.227 47.9694C243.289 51.1088 243.289 56.1988 246.227 59.3382C249.166 62.4777 253.93 62.4777 256.868 59.3382Z" fill="#FAFAFA"/>
<path d="M229.6 88.8215C229.601 88.0488 229.388 87.2931 228.987 86.65C228.586 86.0069 228.015 85.5055 227.347 85.2092C226.68 84.9128 225.944 84.8349 225.235 84.9853C224.526 85.1357 223.874 85.5077 223.362 86.0541C222.851 86.6004 222.503 87.2967 222.362 88.0546C222.221 88.8125 222.294 89.5981 222.572 90.3117C222.849 91.0253 223.318 91.6349 223.92 92.0634C224.522 92.4918 225.229 92.7197 225.953 92.7184C226.92 92.7165 227.846 92.3054 228.53 91.575C229.214 90.8446 229.598 89.8545 229.6 88.8215Z" fill="#E0E0E0"/>
<path d="M226.812 95.6762L237.347 88.8217L228.491 81.021L226.812 95.6762Z" fill="#F5F5F5"/>
<path d="M239.263 98.5007H241.336V49.5868H239.263V98.5007Z" fill="#E0E0E0"/>
<path d="M219.406 96.335H222.089V49.5867H219.406V96.335Z" fill="#EBEBEB"/>
<path d="M243.671 96.5593H257.368V81.9251H243.671V96.5593Z" fill="#EBEBEB"/>
<path d="M87.1825 198.747L78.5102 172.043C78.5102 172.043 90.5281 181.568 90.4625 171.013C90.3969 160.458 84.9783 168.658 83.1087 164.754C81.2391 160.85 88.442 160.892 85.9098 154.977C83.3777 149.062 76.1945 158.152 74.9218 152.909C73.6492 147.667 71.6418 145.004 66.3938 145.473C66.3938 145.473 63.5665 152.37 67.0498 157.353C70.5332 162.336 58.4497 158.334 59.6961 163.345C60.9425 168.357 64.9441 172.73 66.7218 169.205C68.4996 165.679 70.7366 172.436 67.7124 174.181C64.6882 175.926 71.6484 183.468 73.2031 179.508C74.2714 176.877 75.5903 174.371 77.1391 172.029L85.1358 200.604L87.1825 198.747Z" fill="#EBEBEB"/>
<path d="M96.1235 198.985L105.898 181.905C105.898 181.905 96.2285 186.558 97.7767 179.262C99.3248 171.966 101.903 178.512 103.753 176.115C105.603 173.718 100.604 172.611 103.195 168.896C105.786 165.182 109.473 172.66 111.067 169.24C112.661 165.82 114.459 164.299 118.021 165.469C118.021 165.469 119.005 170.698 115.895 173.585C112.786 176.473 121.694 175.688 120.14 178.926C118.585 182.164 115.18 184.575 114.452 181.849C113.724 179.122 111.212 183.44 113.061 185.129C114.911 186.818 109.007 190.918 108.509 187.932C108.141 185.94 107.583 183.993 106.843 182.122L97.2715 200.604L96.1235 198.985Z" fill="#E6E6E6"/>
<path d="M89.5375 199.146L94.0114 171.637C94.0114 171.637 83.7056 182.97 82.2034 172.66C80.7012 162.35 87.1956 169.429 88.442 165.301C89.6884 161.173 82.6626 162.448 84.2501 156.245C85.8376 150.043 94.2016 157.689 94.6608 152.363C95.12 147.036 96.6944 144.092 101.877 143.665C101.877 143.665 105.662 149.903 103.018 155.355C100.375 160.808 111.546 154.858 111.087 159.953C110.628 165.048 107.368 169.997 105.117 166.857C102.867 163.717 101.68 170.697 104.888 171.875C108.096 173.052 102.415 181.603 100.329 178.008C98.8964 175.625 97.2365 173.408 95.3759 171.391L91.84 200.604L89.5375 199.146Z" fill="#F5F5F5"/>
<path d="M83.968 230.076H99.3315C99.85 230.077 100.349 229.866 100.727 229.487C101.105 229.108 101.333 228.589 101.365 228.036L102.992 199.749C103.009 199.453 102.969 199.157 102.875 198.878C102.781 198.599 102.634 198.344 102.445 198.128C102.255 197.912 102.026 197.74 101.771 197.622C101.517 197.504 101.242 197.443 100.965 197.443H82.3346C82.0573 197.443 81.7829 197.504 81.5285 197.622C81.274 197.74 81.0448 197.912 80.855 198.128C80.6651 198.344 80.5186 198.599 80.4245 198.878C80.3303 199.157 80.2905 199.453 80.3075 199.749L81.9344 228.071C81.9741 228.618 82.2058 229.128 82.583 229.5C82.9601 229.871 83.4549 230.077 83.968 230.076Z" fill="#EBEBEB"/>
<path d="M80.5242 200.604H102.992C103.492 200.604 103.974 200.407 104.346 200.052C104.719 199.696 104.956 199.207 105.013 198.676C105.047 198.371 105.02 198.062 104.934 197.768C104.849 197.475 104.705 197.205 104.515 196.975C104.324 196.745 104.089 196.561 103.827 196.435C103.564 196.309 103.28 196.244 102.992 196.244H80.5242C80.2378 196.244 79.9546 196.309 79.6932 196.434C79.4318 196.559 79.1981 196.742 79.0073 196.97C78.8166 197.198 78.6731 197.467 78.5863 197.759C78.4995 198.05 78.4714 198.358 78.5037 198.662C78.5571 199.195 78.793 199.688 79.1659 200.047C79.5389 200.405 80.0226 200.603 80.5242 200.604Z" fill="#F5F5F5"/>
<path d="M175.218 261.117C250.27 261.117 311.111 257.565 311.111 253.183C311.111 248.802 250.27 245.25 175.218 245.25C100.167 245.25 39.3262 248.802 39.3262 253.183C39.3262 257.565 100.167 261.117 175.218 261.117Z" fill="#F5F5F5"/>
<path d="M249.742 45.2974V242.572C249.742 242.98 249.661 243.384 249.503 243.761C249.345 244.138 249.114 244.479 248.824 244.765C248.533 245.052 248.188 245.277 247.809 245.429C247.43 245.581 247.024 245.655 246.616 245.649H140.616C140.246 245.655 139.879 245.586 139.537 245.447C139.194 245.308 138.882 245.102 138.621 244.84C138.36 244.579 138.153 244.268 138.014 243.925C137.876 243.582 137.807 243.215 137.813 242.845V45.0451C137.799 44.7177 137.851 44.391 137.965 44.0836C138.078 43.7763 138.251 43.4944 138.474 43.2541C138.697 43.0138 138.964 42.8198 139.262 42.6834C139.56 42.5469 139.882 42.4706 140.21 42.4589H165.406C165.795 42.4665 166.173 42.59 166.491 42.8134C166.809 43.0369 167.054 43.3503 167.193 43.7134L168.35 46.5169C168.492 46.8786 168.738 47.1897 169.058 47.4106C169.377 47.6316 169.755 47.7523 170.144 47.7575H217.53C217.915 47.7545 218.291 47.6369 218.609 47.4198C218.927 47.2026 219.174 46.8956 219.317 46.538L220.474 43.6854C220.613 43.3215 220.857 43.0071 221.175 42.7825C221.493 42.5578 221.871 42.433 222.261 42.4238H247.03C247.769 42.4476 248.47 42.7632 248.978 43.3015C249.486 43.8399 249.761 44.5573 249.742 45.2974Z" fill="#263238"/>
<path d="M249.749 55.6213H137.827V231.66H249.749V55.6213Z" fill="#CCE0FF"/>
<path opacity="0.7" d="M249.749 55.6213H137.827V231.66H249.749V55.6213Z" fill="white"/>
<path opacity="0.6" d="M151.045 50.9463H152.496V49.0189H151.045V50.9463Z" fill="white"/>
<path opacity="0.6" d="M148.683 50.9463H150.134V48.3741H148.683V50.9463Z" fill="white"/>
<path opacity="0.6" d="M146.321 50.9463H147.772V47.7293H146.321V50.9463Z" fill="white"/>
<path opacity="0.6" d="M143.959 50.9463H145.41V47.0845H143.959V50.9463Z" fill="white"/>
<path opacity="0.6" d="M236.776 48.311H235.921V50.2384H236.776V48.311Z" fill="white"/>
<path opacity="0.6" d="M237.365 50.9463H244.205V47.6031H237.365V50.9463Z" fill="white"/>
<path d="M188.248 73.101H225.078C225.188 73.1113 225.299 73.0987 225.404 73.0637C225.508 73.0288 225.604 72.9725 225.686 72.8982C225.768 72.824 225.833 72.7336 225.877 72.6327C225.922 72.5318 225.945 72.4228 225.945 72.3125C225.945 72.2022 225.922 72.0931 225.877 71.9923C225.833 71.8914 225.768 71.801 225.686 71.7267C225.604 71.6525 225.508 71.5962 225.404 71.5612C225.299 71.5263 225.188 71.5136 225.078 71.524H188.248C188.051 71.5425 187.869 71.6336 187.736 71.7794C187.604 71.9253 187.53 72.1153 187.53 72.3125C187.53 72.5097 187.604 72.6997 187.736 72.8455C187.869 72.9914 188.051 73.0824 188.248 73.101Z" fill="#263238"/>
<path d="M233.461 76.0238H188.044C187.963 76.0148 187.881 76.0231 187.803 76.0481C187.725 76.073 187.653 76.1141 187.592 76.1687C187.531 76.2232 187.483 76.29 187.449 76.3647C187.416 76.4394 187.399 76.5202 187.399 76.602C187.399 76.6838 187.416 76.7646 187.449 76.8393C187.483 76.9139 187.531 76.9807 187.592 77.0353C187.653 77.0898 187.725 77.131 187.803 77.1559C187.881 77.1809 187.963 77.1892 188.044 77.1802H233.461C233.603 77.1645 233.735 77.0968 233.83 76.9901C233.926 76.8834 233.979 76.7452 233.979 76.602C233.979 76.4587 233.926 76.3205 233.83 76.2138C233.735 76.1071 233.603 76.0395 233.461 76.0238Z" fill="#263238"/>
<path d="M220.137 79.3387H188.044C187.963 79.3297 187.881 79.338 187.803 79.363C187.725 79.388 187.653 79.4291 187.592 79.4836C187.531 79.5382 187.483 79.605 187.449 79.6796C187.416 79.7543 187.399 79.8352 187.399 79.9169C187.399 79.9987 187.416 80.0796 187.449 80.1542C187.483 80.2289 187.531 80.2957 187.592 80.3502C187.653 80.4048 187.725 80.4459 187.803 80.4709C187.881 80.4958 187.963 80.5041 188.044 80.4952H220.137C220.28 80.4795 220.411 80.4118 220.507 80.3051C220.602 80.1984 220.655 80.0602 220.655 79.9169C220.655 79.7737 220.602 79.6355 220.507 79.5288C220.411 79.4221 220.28 79.3544 220.137 79.3387Z" fill="#263238"/>
<path d="M248.41 100.785H139.158V210.037H248.41V100.785Z" fill="#CCE0FF"/>
<path d="M244.892 221.854L241.815 219.198L238.731 221.854V214.551H244.892V221.854Z" fill="#CCE0FF"/>
<path d="M233.776 214.551H229.136C228.831 214.551 228.539 214.672 228.323 214.888C228.108 215.104 227.987 215.396 227.987 215.701V218.869C227.987 219.174 228.108 219.466 228.323 219.681C228.539 219.897 228.831 220.018 229.136 220.018H230.713V221.854L231.912 220.018H233.776C233.927 220.019 234.077 219.99 234.217 219.932C234.357 219.875 234.484 219.79 234.591 219.684C234.698 219.577 234.782 219.45 234.84 219.31C234.897 219.17 234.926 219.02 234.925 218.869V215.701C234.926 215.55 234.897 215.4 234.84 215.26C234.782 215.12 234.698 214.993 234.591 214.886C234.484 214.779 234.357 214.694 234.217 214.637C234.077 214.579 233.927 214.55 233.776 214.551Z" fill="#CCE0FF"/>
<path d="M224.476 215.42C223.621 214.018 221.966 214.544 221.111 215.63C220.263 214.537 218.616 213.983 217.74 215.385C216.275 217.74 219.261 219.948 220.677 220.817L221.076 221.062L221.483 220.817C222.878 219.969 225.919 217.796 224.476 215.42Z" fill="#CCE0FF"/>
<g opacity="0.3">
<path opacity="0.7" d="M226.102 109.981H230.237L228.169 115.343L226.102 109.981Z" fill="white"/>
<path opacity="0.7" d="M239.425 136.67L240.68 140.609L234.947 140.259L239.425 136.67Z" fill="white"/>
<path d="M237.813 119.387L235.851 124.202L241.815 126.283V122.386L237.813 119.387Z" fill="white"/>
<path d="M160.479 108.691H163.514L160.479 112.665V108.691Z" fill="white"/>
<path d="M149.069 128.281L152.503 127.496L153.463 130.446L149.503 131.827L149.069 128.281Z" fill="white"/>
<path d="M183.818 112.665C184.557 112.665 185.157 112.066 185.157 111.326C185.157 110.587 184.557 109.988 183.818 109.988C183.079 109.988 182.479 110.587 182.479 111.326C182.479 112.066 183.079 112.665 183.818 112.665Z" fill="white"/>
<path d="M164.313 201.087C164.313 201.613 164.157 202.127 163.864 202.564C163.572 203.001 163.157 203.341 162.671 203.542C162.185 203.743 161.651 203.795 161.136 203.692C160.62 203.589 160.147 203.335 159.776 202.963C159.404 202.591 159.152 202.117 159.05 201.601C158.948 201.086 159.002 200.551 159.204 200.066C159.406 199.581 159.748 199.166 160.186 198.875C160.623 198.584 161.138 198.43 161.663 198.431C162.012 198.431 162.357 198.5 162.679 198.634C163.001 198.767 163.293 198.963 163.539 199.21C163.785 199.456 163.98 199.749 164.113 200.071C164.246 200.394 164.314 200.739 164.313 201.087Z" fill="white"/>
<path d="M151.522 178.008L152.503 179.669L147.758 181.701L146.679 180.594L151.522 178.008Z" fill="white"/>
<path d="M182.479 205.201L181.554 202.854H185.163L182.479 205.201Z" fill="white"/>
<path d="M220.824 202.854L221.104 200.24L226.052 201.543V205.363L220.824 202.854Z" fill="white"/>
<path d="M231.457 189.376H235.879L233.671 191.99L231.457 189.376Z" fill="white"/>
<path d="M238.731 162.476L237.813 168.027L238.829 168.952L239.782 162.476H238.731Z" fill="white"/>
<path d="M143.84 146.216L147.758 149.062L144.954 151.122L143.84 146.216Z" fill="white"/>
<path d="M161.222 123.69C161.466 123.69 161.663 123.492 161.663 123.248C161.663 123.005 161.466 122.807 161.222 122.807C160.978 122.807 160.78 123.005 160.78 123.248C160.78 123.492 160.978 123.69 161.222 123.69Z" fill="white"/>
<path d="M217.964 118.426C218.305 118.426 218.581 118.15 218.581 117.81C218.581 117.469 218.305 117.193 217.964 117.193C217.624 117.193 217.348 117.469 217.348 117.81C217.348 118.15 217.624 118.426 217.964 118.426Z" fill="white"/>
<path d="M201.41 202.349C201.41 202.481 201.357 202.607 201.264 202.701C201.171 202.794 201.044 202.847 200.912 202.847C200.78 202.847 200.654 202.794 200.56 202.701C200.467 202.607 200.415 202.481 200.415 202.349C200.415 202.217 200.467 202.09 200.56 201.997C200.654 201.904 200.78 201.851 200.912 201.851C201.044 201.851 201.171 201.904 201.264 201.997C201.357 202.09 201.41 202.217 201.41 202.349Z" fill="white"/>
<path d="M207.248 106.287L212.182 105.544V107.948L207.248 108.691V106.287Z" fill="white"/>
<path d="M239.783 108.691H241.402L240.589 110.675L239.783 108.691Z" fill="white"/>
<path d="M146.679 111.327H149.069L147.87 112.665L146.679 111.327Z" fill="white"/>
<path d="M237.281 205.201L237.049 200.604L240.589 201.851L237.281 205.201Z" fill="white"/>
<path d="M240.68 178.744L238.83 177.265V178.744L240.68 179.858V178.744Z" fill="white"/>
<path d="M145.796 163.955L147.87 165.714L146.833 167.284L144.085 165.083L145.796 163.955Z" fill="white"/>
<path d="M144.085 122.807H146.679L143.84 123.69L144.085 122.807Z" fill="white"/>
</g>
<path d="M189.285 118.609L193.974 114.2L198.613 118.651L204.248 115.546L207.641 121.013L213.871 119.415L215.792 125.547H222.226L222.569 131.967L228.8 133.565L227.524 139.873L233.166 142.971L230.37 148.76L235.059 153.162L230.91 158.075L234.358 163.507L229.115 167.235L231.106 173.347L225.106 175.653L225.513 182.073L219.121 182.816L217.922 189.138L211.544 188.261L208.811 194.086L202.854 191.654L198.754 196.616L193.588 192.782L188.388 196.567L184.337 191.57L178.358 193.939L175.681 188.093L169.303 188.899L168.16 182.57L161.775 181.764L162.245 175.351L156.267 172.989L158.313 166.892L153.106 163.114L156.61 157.717L152.503 152.762L157.241 148.41L154.5 142.586L160.17 139.544L158.958 133.229L165.203 131.694L165.602 125.274L172.036 125.337L174.02 119.218L180.236 120.88L183.678 115.448L189.285 118.609Z" fill="#CCE0FF"/>
<path opacity="0.4" d="M231.61 159.477L235.759 154.57L231.071 150.169L233.874 144.38L228.232 141.282L229.508 134.974L223.277 133.376L222.933 126.956H216.499L214.579 120.823L208.348 122.421L204.956 116.955L199.349 120.059L194.709 115.609L190.02 120.017L184.413 116.856L180.972 122.295L174.755 120.627L172.772 126.746L166.338 126.683L165.938 133.103L159.694 134.638L160.906 140.945L155.236 143.987L157.977 149.811L153.204 154.192L157.311 159.147L153.806 164.544L159.014 168.322L156.967 174.419L162.946 176.781L162.476 183.194L168.861 184L169.997 190.308L176.381 189.502L179.059 195.347L185.037 192.978L189.088 197.975L194.289 194.191L199.454 198.025L203.554 193.062L209.512 195.494L212.245 189.67L218.616 190.546L219.822 184.238L226.214 183.495L225.8 177.075L231.807 174.77L229.816 168.651L235.059 164.929L231.61 159.477ZM230.321 164.004L225.688 167.298L227.447 172.702L222.141 174.735L222.506 180.405L216.857 181.063L215.799 186.67L210.192 185.899L207.774 191.044L202.517 188.899L198.894 193.273L194.331 189.887L189.74 193.231L186.166 188.815L180.881 190.918L178.519 185.752L172.877 186.453L171.875 180.846L166.268 180.145L166.688 174.482L161.404 172.38L163.212 166.997L158.614 163.661L161.712 158.895L158.082 154.521L162.287 150.674L159.799 145.501L164.81 142.817L163.738 137.21L169.261 135.857L169.611 130.187L175.288 130.243L177.04 124.839L182.528 126.311L185.57 121.51L190.525 124.314L194.66 120.417L198.76 124.349L203.737 121.608L206.736 126.437L212.238 125.036L213.934 130.46H219.618L219.92 136.137L225.422 137.539L224.3 143.104L229.276 145.838L226.809 150.954L230.951 154.844L227.286 159.182L230.321 164.004Z" fill="#003380"/>
<path opacity="0.4" d="M189.285 118.609L193.974 114.2L198.613 118.651L204.248 115.546L207.641 121.013L213.871 119.415L215.792 125.547H222.226L222.569 131.967L228.8 133.565L227.524 139.873L233.166 142.971L230.37 148.76L235.059 153.162L230.91 158.075L234.358 163.507L229.115 167.235L231.106 173.347L225.106 175.653L225.513 182.073L219.121 182.816L217.922 189.138L211.544 188.261L208.811 194.086L202.854 191.654L198.754 196.616L193.588 192.782L188.388 196.567L184.337 191.57L178.358 193.939L175.681 188.093L169.303 188.899L168.16 182.57L161.775 181.764L162.245 175.351L156.267 172.989L158.313 166.892L153.106 163.114L156.61 157.717L152.503 152.762L157.241 148.41L154.5 142.586L160.17 139.544L158.958 133.229L165.203 131.694L165.602 125.274L172.036 125.337L174.02 119.218L180.236 120.88L183.678 115.448L189.285 118.609Z" fill="#003380"/>
<path d="M230.91 158.075L235.059 153.169L230.37 148.767L233.173 142.978L227.531 139.88L228.807 133.572L222.576 131.974L222.233 125.554H215.799L213.878 119.422L207.648 121.02L204.255 115.553L198.648 118.658L194.009 114.207L189.32 118.616L183.713 115.455L180.272 120.893L174.055 119.225L172.071 125.344L165.637 125.281L165.238 131.701L158.993 133.236L160.206 139.544L154.535 142.585L157.276 148.41L152.503 152.79L156.61 157.745L153.106 163.142L158.313 166.92L156.267 173.017L162.245 175.379L161.775 181.792L168.16 182.598L169.296 188.906L175.681 188.1L178.358 193.945L184.337 191.576L188.388 196.574L193.588 192.789L198.754 196.623L202.854 191.66L208.811 194.093L211.544 188.268L217.915 189.144L219.121 182.837L225.513 182.094L225.099 175.674L231.106 173.368L229.115 167.249L234.358 163.527L230.91 158.075ZM229.62 162.602L224.987 165.896L226.746 171.3L221.441 173.333L221.805 179.003L216.156 179.662L215.098 185.269L209.491 184.498L207.073 189.642L201.816 187.497L198.193 191.871L193.63 188.486L189.039 191.829L185.465 187.413L180.18 189.516L177.818 184.35L172.176 185.051L171.174 179.444L165.567 178.743L165.988 173.08L160.703 170.978L162.511 165.595L157.914 162.259L161.012 157.493L157.381 153.119L161.586 149.272L159.098 144.099L164.109 141.415L163.037 135.808L168.56 134.455L168.91 128.785L174.587 128.841L176.34 123.438L181.827 124.909L184.869 120.108L189.824 122.912L193.96 119.015L198.06 122.947L203.036 120.207L206.036 125.036L211.537 123.634L213.234 129.059H218.918L219.219 134.736L224.721 136.137L223.599 141.702L228.576 144.436L226.109 149.552L230.251 153.442L226.585 157.78L229.62 162.602Z" fill="#CCE0FF"/>
<path opacity="0.6" d="M230.91 158.075L235.059 153.169L230.37 148.767L233.173 142.978L227.531 139.88L228.807 133.572L222.576 131.974L222.233 125.554H215.799L213.878 119.422L207.648 121.02L204.255 115.553L198.648 118.658L194.009 114.207L189.32 118.616L183.713 115.455L180.272 120.893L174.055 119.225L172.071 125.344L165.637 125.281L165.238 131.701L158.993 133.236L160.206 139.544L154.535 142.585L157.276 148.41L152.503 152.79L156.61 157.745L153.106 163.142L158.313 166.92L156.267 173.017L162.245 175.379L161.775 181.792L168.16 182.598L169.296 188.906L175.681 188.1L178.358 193.945L184.337 191.576L188.388 196.574L193.588 192.789L198.754 196.623L202.854 191.66L208.811 194.093L211.544 188.268L217.915 189.144L219.121 182.837L225.513 182.094L225.099 175.674L231.106 173.368L229.115 167.249L234.358 163.527L230.91 158.075ZM229.62 162.602L224.987 165.896L226.746 171.3L221.441 173.333L221.805 179.003L216.156 179.662L215.098 185.269L209.491 184.498L207.073 189.642L201.816 187.497L198.193 191.871L193.63 188.486L189.039 191.829L185.465 187.413L180.18 189.516L177.818 184.35L172.176 185.051L171.174 179.444L165.567 178.743L165.988 173.08L160.703 170.978L162.511 165.595L157.914 162.259L161.012 157.493L157.381 153.119L161.586 149.272L159.098 144.099L164.109 141.415L163.037 135.808L168.56 134.455L168.91 128.785L174.587 128.841L176.34 123.438L181.827 124.909L184.869 120.108L189.824 122.912L193.96 119.015L198.06 122.947L203.036 120.207L206.036 125.036L211.537 123.634L213.234 129.059H218.918L219.219 134.736L224.721 136.137L223.599 141.702L228.576 144.436L226.109 149.552L230.251 153.442L226.585 157.78L229.62 162.602Z" fill="white"/>
<path opacity="0.4" d="M173.186 153.358C173.186 153.358 176.76 152.741 178.519 153.358C180.278 153.975 187.722 166.674 187.722 166.674C187.722 166.674 202.16 146.812 213.703 138.128C213.703 138.128 198.725 151.543 190.042 174.062C190.042 174.062 187.119 175.351 185.051 173.045C184.456 172.345 177.748 160.913 176.452 160.486C175.435 160.142 172.155 160.311 172.155 160.311L173.186 153.358Z" fill="#003380"/>
<path d="M172.485 152.657C172.485 152.657 176.059 152.04 177.819 152.657C179.578 153.274 187.021 165.974 187.021 165.974C187.021 165.974 201.459 146.111 213.002 137.427C213.002 137.427 198.025 150.842 189.341 173.361C189.341 173.361 186.418 174.65 184.351 172.344C183.755 171.644 177.048 160.212 175.751 159.785C174.735 159.441 171.455 159.61 171.455 159.61L172.485 152.657Z" fill="white"/>
<path d="M177.875 79.3038C177.889 82.1768 177.165 85.0054 175.772 87.518L175.464 88.0437C174.462 89.7057 173.179 91.1808 171.672 92.4031L171.588 92.4732C170.161 93.6232 168.556 94.5323 166.836 95.1646C164.977 95.8458 163.012 96.1922 161.033 96.1878C160.403 96.1917 159.773 96.1565 159.147 96.0827C158.096 95.971 157.059 95.7574 156.049 95.4449C153.591 94.6891 151.341 93.3745 149.475 91.6041C147.435 89.6849 145.904 87.2886 145.02 84.6308C144.135 81.9729 143.926 79.137 144.409 76.378C144.893 73.6191 146.055 71.0236 147.791 68.8252C149.527 66.6267 151.781 64.8942 154.353 63.7835C156.924 62.6728 159.731 62.2187 162.522 62.4621C165.312 62.7055 167.999 63.6388 170.339 65.1779C172.679 66.717 174.6 68.8138 175.929 71.2796C177.258 73.7453 177.953 76.5028 177.952 79.3038H177.875Z" fill="#CCE0FF"/>
<path d="M175.744 87.518L175.436 88.0436C171.571 87.9833 167.716 88.419 163.962 89.3403L162.708 89.6486L161.853 89.8729C160.78 90.1603 159.75 90.4617 158.874 90.749L158.474 90.8822L158.187 90.9733C157.143 91.3237 156.253 91.6391 155.573 91.8984C154.557 92.2839 153.975 92.5362 153.975 92.5362C153.643 92.1077 153.338 91.6582 153.064 91.1906L153.022 91.1135C151.501 88.5623 148.816 82.703 150.078 74.2925C151.48 64.9359 159.238 65.5316 161.993 66.0503C162.322 66.1047 162.647 66.1796 162.967 66.2745C162.967 66.2745 171.651 68.3211 171.973 73.7318C172.019 74.4561 172.108 75.1769 172.24 75.8905C173.056 79.8637 174.229 83.7553 175.744 87.518Z" fill="#263238"/>
<path d="M166.808 95.1646C164.949 95.8458 162.984 96.1922 161.004 96.1879C160.374 96.1917 159.745 96.1566 159.119 96.0827C158.068 95.971 157.031 95.7574 156.021 95.4449L155.481 91.0365L155.222 88.9338L166.78 90.5739V91.5621L166.815 94.4637V95.1646H166.808Z" fill="#CCE0FF"/>
<path d="M171.56 92.4731C170.133 93.6231 168.528 94.5322 166.808 95.1644C164.949 95.8456 162.984 96.1921 161.005 96.1877C160.375 96.1915 159.745 96.1564 159.119 96.0826C158.068 95.9709 157.031 95.7572 156.021 95.4448C153.563 94.6889 151.313 93.3744 149.447 91.604C149.98 91.5199 150.52 91.4568 151.059 91.3867H151.192C151.83 91.3167 152.468 91.2536 153.106 91.2045C153.863 91.1414 154.613 91.0924 155.37 91.0643H155.503L156.428 91.0293H157.528H158.818C160.22 91.0293 161.64 91.0807 163.079 91.1835L164.53 91.3026L165.294 91.3797L166.401 91.5479L166.647 91.583H166.815L168.119 91.8073C168.322 91.8423 168.525 91.8914 168.728 91.9194L169.114 91.9965L169.527 92.0736L170.228 92.2138L170.719 92.3119L171.56 92.4731Z" fill="#263238"/>
<path d="M163.85 95.3186C159.035 94.4986 157.661 92.3679 157.661 92.3679C159.722 90.5877 159.477 87.8193 159.063 86.0601C158.931 85.5112 158.752 84.9743 158.53 84.4551L164.313 85.7867C164.145 86.5909 164.035 87.406 163.983 88.2258C163.939 88.8323 163.97 89.442 164.074 90.041C164.397 91.7932 165.392 91.8633 165.392 91.8633C166.31 93.8608 163.85 95.3186 163.85 95.3186Z" fill="#E4897B"/>
<path opacity="0.2" d="M163.962 88.2678C163.918 88.8743 163.949 89.484 164.053 90.083C161.755 89.6765 160.072 87.7561 159.042 86.1021C158.91 85.5532 158.732 85.0163 158.51 84.4971L164.292 85.8287C164.124 86.6329 164.014 87.448 163.962 88.2678Z" fill="black"/>
<path d="M163.177 69.2603C168.651 69.4986 170.291 72.5054 170.445 78.1614C170.649 85.2262 168.868 90.1674 162.091 88.3731C152.881 85.9271 154.087 68.8678 163.177 69.2603Z" fill="#E4897B"/>
<path d="M166.92 77.6987C167.325 78.5361 167.828 79.3221 168.42 80.0396C168.248 80.2579 168.021 80.4255 167.762 80.5243C167.502 80.623 167.221 80.6493 166.948 80.6003L166.92 77.6987Z" fill="#DE5753"/>
<path d="M161.292 74.2924C161.23 74.2927 161.17 74.2702 161.124 74.2293C161.099 74.2063 161.08 74.1787 161.067 74.1479C161.053 74.1172 161.046 74.084 161.046 74.0506C161.046 74.0171 161.053 73.9839 161.067 73.9532C161.08 73.9225 161.099 73.8948 161.124 73.8718C161.47 73.5399 161.89 73.294 162.349 73.154C162.808 73.014 163.293 72.9838 163.766 73.0658C163.799 73.0717 163.83 73.084 163.858 73.1021C163.886 73.1201 163.91 73.1434 163.929 73.1708C163.948 73.1981 163.961 73.2289 163.968 73.2614C163.975 73.294 163.975 73.3275 163.969 73.3602C163.963 73.3929 163.951 73.4241 163.933 73.4521C163.915 73.48 163.892 73.5041 163.864 73.523C163.837 73.5419 163.806 73.5552 163.774 73.5621C163.741 73.5691 163.708 73.5695 163.675 73.5635C163.288 73.502 162.891 73.5281 162.515 73.6396C162.139 73.7512 161.793 73.9455 161.502 74.2083C161.476 74.2377 161.443 74.2606 161.407 74.2752C161.37 74.2898 161.331 74.2957 161.292 74.2924Z" fill="#263238"/>
<path d="M169.85 74.0683C169.797 74.0669 169.745 74.0498 169.702 74.0192C169.438 73.7955 169.128 73.6334 168.793 73.5449C168.458 73.4564 168.108 73.4436 167.768 73.5076C167.736 73.5186 167.703 73.523 167.669 73.5208C167.636 73.5186 167.603 73.5098 167.573 73.4947C167.543 73.4797 167.516 73.4589 167.494 73.4334C167.472 73.4079 167.456 73.3784 167.446 73.3464C167.425 73.2823 167.431 73.2128 167.461 73.1526C167.491 73.0925 167.543 73.0464 167.607 73.024C168.023 72.9329 168.455 72.938 168.869 73.0388C169.283 73.1396 169.669 73.3335 169.997 73.6057C170.051 73.6463 170.087 73.7063 170.097 73.7731C170.108 73.8398 170.092 73.908 170.053 73.9632C170.029 73.9947 169.998 74.0205 169.963 74.0387C169.928 74.0569 169.889 74.067 169.85 74.0683Z" fill="#263238"/>
<path d="M156.799 78.2313C156.799 78.2313 159.554 73.8439 159.315 70.3535C159.315 70.3535 170.354 66.3866 170.417 77.4183C170.417 77.4183 171.896 67.6902 162.497 67.0664C153.099 66.4426 152.545 80.2148 157.227 84.5252C157.227 84.5252 155.096 80.9717 156.799 78.2313Z" fill="#263238"/>
<path d="M157.647 79.4229C157.62 78.7883 157.343 78.1901 156.877 77.7584C156.412 77.3266 155.794 77.0961 155.159 77.117C153.449 77.2292 152.496 80.6775 156.68 81.6937C157.276 81.8409 157.64 81.3012 157.647 79.4229Z" fill="#E4897B"/>
<path d="M167.053 82.2123C166.681 82.7673 166.348 83.3482 166.058 83.9504L165.714 83.8523C164.187 83.3757 163.612 82.6538 163.479 81.995C163.411 81.6699 163.423 81.3332 163.514 81.0138C163.558 80.8316 163.629 80.6569 163.724 80.4951C164.537 81.2057 165.493 81.7338 166.527 82.044C166.85 82.1562 167.053 82.2123 167.053 82.2123Z" fill="#263238"/>
<path d="M166.534 82.044L166.226 82.5487C164.824 82.1001 163.829 81.5955 163.514 81.0138C163.558 80.8316 163.629 80.6569 163.724 80.4951C164.539 81.2065 165.498 81.7347 166.534 82.044Z" fill="white"/>
<path d="M165.714 83.8524C164.186 83.3758 163.612 82.6539 163.479 81.9951C164.058 82.1845 164.6 82.4765 165.077 82.8572C165.391 83.111 165.615 83.4603 165.714 83.8524Z" fill="#DE5753"/>
<path d="M163.051 69.6667C163.051 69.6667 160.458 78.5818 154.795 78.2243C149.132 77.8669 158.369 66.8351 158.369 66.8351C158.369 66.8351 167.768 63.7443 172.127 68.8537C176.487 73.963 170.417 77.4183 170.417 77.4183C170.417 77.4183 171.062 70.4587 163.051 69.6667Z" fill="#263238"/>
<path d="M158.846 77.3483C158.811 77.3478 158.777 77.3369 158.748 77.3169C158.719 77.2969 158.697 77.2688 158.685 77.2361C158.668 77.1942 158.668 77.1475 158.685 77.1057C158.702 77.064 158.735 77.0303 158.776 77.0119C163.191 75.1195 162.848 69.099 162.848 69.0359C162.846 68.9906 162.862 68.9463 162.892 68.9123C162.922 68.8783 162.964 68.8573 163.009 68.8537C163.055 68.8516 163.1 68.8671 163.135 68.897C163.171 68.9269 163.193 68.9691 163.198 69.0149C163.198 69.078 163.556 75.3228 158.916 77.3343L158.846 77.3483Z" fill="#263238"/>
<path d="M163.696 77.3904C163.745 77.8109 163.556 78.1823 163.275 78.2174C162.995 78.2524 162.722 77.93 162.673 77.5165C162.623 77.103 162.813 76.7245 163.093 76.6895C163.373 76.6544 163.647 76.9628 163.696 77.3904Z" fill="#263238"/>
<path d="M162.974 76.7176L163.857 76.248C163.857 76.248 163.486 77.0961 162.974 76.7176Z" fill="#263238"/>
<path d="M168.946 76.6755C168.995 77.096 168.805 77.4674 168.525 77.5025C168.245 77.5375 167.971 77.2221 167.922 76.8016C167.873 76.3811 168.062 76.0096 168.343 75.9746C168.623 75.9395 168.911 76.2549 168.946 76.6755Z" fill="#263238"/>
<path d="M168.209 76.0028L169.086 75.5332C169.086 75.5332 168.742 76.3953 168.209 76.0028Z" fill="#263238"/>
<path d="M171.644 92.4031L171.56 92.4732C170.133 93.6232 168.528 94.5323 166.808 95.1645V94.6669V94.4497L165.89 92.5923L166.359 91.485L166.759 90.5598L167.165 91.4429L171.644 92.4031Z" fill="#CCE0FF"/>
<path opacity="0.6" d="M171.644 92.4031L171.56 92.4732C170.133 93.6232 168.528 94.5323 166.808 95.1645V94.6669V94.4497L165.89 92.5923L166.359 91.485L166.759 90.5598L167.165 91.4429L171.644 92.4031Z" fill="white"/>
<path d="M161.11 92.4523L159.196 94.8563L159.098 96.0898C158.047 95.9781 157.01 95.7645 156 95.452C153.542 94.6962 151.292 93.3816 149.426 91.6113L151.017 91.387H151.15L154.522 90.9104L155.222 88.9409L158.657 90.9875L161.131 92.4663L161.11 92.4523Z" fill="#CCE0FF"/>
<path opacity="0.6" d="M161.103 92.4522L159.196 94.8562L159.098 96.0898C158.047 95.978 157.01 95.7644 156 95.452C153.542 94.6961 151.292 93.3815 149.426 91.6112L151.15 91.3729L154.522 90.9033L155.222 88.9338L158.657 90.9804L161.103 92.4522Z" fill="white"/>
<path d="M179.031 93.5875C179.031 94.4955 178.762 95.3831 178.257 96.138C177.753 96.893 177.036 97.4814 176.197 97.8288C175.358 98.1763 174.435 98.2672 173.545 98.0901C172.654 97.9129 171.836 97.4757 171.194 96.8337C170.552 96.1916 170.115 95.3737 169.938 94.4832C169.761 93.5926 169.852 92.6696 170.199 91.8308C170.547 90.9919 171.135 90.2749 171.89 89.7705C172.645 89.2661 173.532 88.9968 174.44 88.9968C175.658 88.9968 176.826 89.4805 177.686 90.3414C178.547 91.2023 179.031 92.37 179.031 93.5875Z" fill="white"/>
<path d="M178.358 93.5876C178.358 94.3624 178.128 95.1199 177.698 95.7642C177.267 96.4085 176.655 96.9107 175.939 97.2072C175.224 97.5037 174.436 97.5813 173.676 97.4302C172.916 97.279 172.218 96.9058 171.67 96.3579C171.122 95.81 170.749 95.1119 170.598 94.3519C170.446 93.5919 170.524 92.8041 170.82 92.0882C171.117 91.3723 171.619 90.7605 172.263 90.33C172.908 89.8995 173.665 89.6697 174.44 89.6697C175.479 89.6697 176.476 90.0824 177.21 90.8172C177.945 91.5519 178.358 92.5485 178.358 93.5876Z" fill="#263238"/>
<path d="M174.286 95.6271L172.198 93.7838L172.66 93.2582L174.174 94.5899L176.164 91.8564L176.732 92.27L174.286 95.6271Z" fill="white"/>
<path d="M271.995 233.776C271.995 233.776 267.909 224.868 272.576 216.086C277.244 207.304 278.59 205.237 275.618 203.435C272.646 201.634 271.28 210.444 271.28 210.444C271.28 210.444 268.771 204.368 270.845 198.018C272.92 191.668 274.209 181.316 271.385 180.201C268.56 179.087 270.845 193.112 268.392 197.892C267.142 194.537 266.337 191.033 265.995 187.47C265.652 182.367 266.184 174.216 263.949 172.127C261.713 170.039 260.29 171.483 262.484 182.746C263.802 189.475 264.529 196.306 264.657 203.162C264.657 203.162 259.813 188.388 256.561 187.96C253.309 187.533 253.316 192.313 256.099 196.462C258.881 200.611 264.25 208.047 265.133 211.881C265.133 211.881 259.813 200.765 255.027 204.171C250.24 207.578 259.19 214.292 263.178 216.724C267.166 219.156 269.941 234.358 269.941 234.358L271.995 233.776Z" fill="#CCE0FF"/>
<path opacity="0.2" d="M271.995 233.776C271.995 233.776 267.909 224.868 272.576 216.086C277.244 207.304 278.59 205.237 275.618 203.435C272.646 201.634 271.28 210.444 271.28 210.444C271.28 210.444 268.771 204.368 270.845 198.018C272.92 191.668 274.209 181.316 271.385 180.201C268.56 179.087 270.845 193.112 268.392 197.892C267.142 194.537 266.337 191.033 265.995 187.47C265.652 182.367 266.184 174.216 263.949 172.127C261.713 170.039 260.29 171.483 262.484 182.746C263.802 189.475 264.529 196.306 264.657 203.162C264.657 203.162 259.813 188.388 256.561 187.96C253.309 187.533 253.316 192.313 256.099 196.462C258.881 200.611 264.25 208.047 265.133 211.881C265.133 211.881 259.813 200.765 255.027 204.171C250.24 207.578 259.19 214.292 263.178 216.724C267.166 219.156 269.941 234.358 269.941 234.358L271.995 233.776Z" fill="black"/>
<path d="M268.771 237.435C268.771 237.435 272.745 228.464 267.972 219.752C263.199 211.04 261.825 208.993 264.783 207.136C267.74 205.279 269.205 214.096 269.205 214.096C269.205 214.096 271.637 207.984 269.493 201.662C267.348 195.34 265.925 185.01 268.736 183.86C271.546 182.711 269.437 196.763 271.939 201.501C273.149 198.129 273.915 194.614 274.217 191.044C274.49 185.935 273.866 177.798 276.074 175.674C278.282 173.55 279.725 174.973 277.665 186.271C276.428 193.031 275.783 199.886 275.737 206.758C275.737 206.758 280.405 191.913 283.65 191.437C286.895 190.96 286.951 195.74 284.218 199.931C281.485 204.122 276.2 211.636 275.366 215.469C275.366 215.469 280.552 204.256 285.374 207.613C290.196 210.97 281.337 217.796 277.377 220.277C273.418 222.759 270.831 238.017 270.831 238.017L268.771 237.435Z" fill="#CCE0FF"/>
<path d="M287.106 231.036H254.263L256.919 254.543H284.449L287.106 231.036Z" fill="#263238"/>
<path d="M69.4917 238.605L89.7119 236.622V211.741H97.7159V236.608L117.992 238.605C118.964 238.699 119.865 239.152 120.521 239.875C121.177 240.598 121.54 241.54 121.539 242.516V245.551H65.9453V242.502C65.9477 241.528 66.312 240.59 66.9674 239.87C67.6228 239.15 68.5225 238.699 69.4917 238.605Z" fill="#263238"/>
<path opacity="0.1" d="M69.4917 238.605L89.7119 236.622V211.741H97.7159V236.608L117.992 238.605C118.964 238.699 119.865 239.152 120.521 239.875C121.177 240.598 121.54 241.54 121.539 242.516V245.551H65.9453V242.502C65.9477 241.528 66.312 240.59 66.9674 239.87C67.6228 239.15 68.5225 238.699 69.4917 238.605Z" fill="white"/>
<path d="M120.23 254.47C123.084 254.007 125.022 251.317 124.559 248.463C124.095 245.609 121.406 243.671 118.552 244.134C115.698 244.598 113.76 247.287 114.223 250.141C114.686 252.995 117.376 254.933 120.23 254.47Z" fill="#263238"/>
<path d="M73.2496 250.161C73.7129 247.307 71.7747 244.618 68.9206 244.154C66.0664 243.691 63.3771 245.629 62.9138 248.483C62.4505 251.338 64.3887 254.027 67.2428 254.49C70.097 254.954 72.7863 253.015 73.2496 250.161Z" fill="#263238"/>
<path d="M96.174 217.845H91.2048C90.4371 217.845 89.7009 217.54 89.158 216.997C88.6152 216.455 88.3102 215.718 88.3102 214.951V192.572H99.0686V214.951C99.0686 215.718 98.7636 216.455 98.2208 216.997C97.678 217.54 96.9417 217.845 96.174 217.845Z" fill="#263238"/>
<path opacity="0.2" d="M96.174 217.845H91.2048C90.4371 217.845 89.7009 217.54 89.158 216.997C88.6152 216.455 88.3102 215.718 88.3102 214.951V192.572H99.0686V214.951C99.0686 215.718 98.7636 216.455 98.2208 216.997C97.678 217.54 96.9417 217.845 96.174 217.845Z" fill="white"/>
<path d="M65.7419 148.683C65.7419 148.683 71.7343 186.117 83.5651 192.565H71.5381C71.5381 192.565 59.6583 179.809 56.0698 148.683H65.7419Z" fill="#263238"/>
<path opacity="0.1" d="M65.7419 148.683C65.7419 148.683 71.7343 186.117 83.5651 192.565H71.5381C71.5381 192.565 59.6583 179.809 56.0698 148.683H65.7419Z" fill="white"/>
<path d="M70.9497 187.273H117.852C118.782 187.273 119.673 187.642 120.33 188.3C120.987 188.957 121.356 189.848 121.356 190.778V195.466H67.4453V190.778C67.4453 189.848 67.8145 188.957 68.4717 188.3C69.1289 187.642 70.0203 187.273 70.9497 187.273Z" fill="#CCE0FF"/>
<path d="M122.19 191.366H66.6041C65.826 191.366 65.1953 191.997 65.1953 192.775V194.051C65.1953 194.829 65.826 195.46 66.6041 195.46H122.19C122.968 195.46 123.599 194.829 123.599 194.051V192.775C123.599 191.997 122.968 191.366 122.19 191.366Z" fill="#263238"/>
<path opacity="0.6" d="M122.19 191.366H66.6041C65.826 191.366 65.1953 191.997 65.1953 192.775V194.051C65.1953 194.829 65.826 195.46 66.6041 195.46H122.19C122.968 195.46 123.599 194.829 123.599 194.051V192.775C123.599 191.997 122.968 191.366 122.19 191.366Z" fill="white"/>
<path d="M54.6121 156.295H73.8861C79.4931 156.295 83.2007 151.767 82.0723 146.181L80.6005 138.724C79.4791 133.117 73.9913 128.617 68.3492 128.617H49.0612C43.4542 128.617 39.7466 133.145 40.875 138.724L42.3679 146.181C43.4542 151.767 48.9701 156.295 54.6121 156.295Z" fill="#CCE0FF"/>
<path d="M72.7578 119.387H85.0371L86.1655 126.711L75.2459 128.617L72.7578 119.387Z" fill="#CCE0FF"/>
<path d="M154.297 221.132L149.889 222.856L146.721 216.878L143.84 211.446L148.725 208.517L151.676 215.189L154.297 221.132Z" fill="#E4897B"/>
<path opacity="0.2" d="M151.676 215.189L146.721 216.878L143.84 211.446L148.725 208.517L151.676 215.189Z" fill="black"/>
<path d="M150.765 211.93L144.766 215.168C144.766 215.168 122.106 175.33 118.623 175.66C115.14 175.989 82.0864 197.037 72.0079 189.236C61.9293 181.435 71.7345 158.04 71.7345 158.04C71.7345 158.04 91.4291 150.555 93.6929 155.131C94.6859 156.985 95.5705 158.894 96.3422 160.85C96.7837 162.252 97.1202 163.493 97.1202 163.493C97.758 163.233 118.35 154.788 127.545 159.287C136.895 163.934 150.765 211.93 150.765 211.93Z" fill="#CCE0FF"/>
<path opacity="0.3" d="M150.765 211.93L144.766 215.168C144.766 215.168 122.106 175.33 118.623 175.66C115.14 175.989 82.0864 197.037 72.0079 189.236C61.9293 181.435 71.7345 158.04 71.7345 158.04C71.7345 158.04 91.4291 150.555 93.6929 155.131C94.6859 156.985 95.5705 158.894 96.3422 160.85C96.7837 162.252 97.1202 163.493 97.1202 163.493C97.758 163.233 118.35 154.788 127.545 159.287C136.895 163.934 150.765 211.93 150.765 211.93Z" fill="white"/>
<path d="M118.188 244.415L113.485 243.876L113.464 237.245L113.457 231.155L119.141 230.888L118.637 238.051L118.188 244.415Z" fill="#E4897B"/>
<path opacity="0.2" d="M118.623 238.199L113.45 237.372V231.225L119.135 230.924L118.623 238.199Z" fill="black"/>
<path d="M141.836 213.171L150.611 208.776L151.522 212.491L144.877 215.918L141.836 213.171Z" fill="#263238"/>
<path d="M87.6091 189.32C87.6091 189.32 89.0529 189.159 111.215 185.051C111.215 185.051 111.719 213.402 112.77 234.526L119.597 234.75C119.597 234.75 129.409 187.848 128.239 180.783C127.068 173.718 118.658 172.744 118.658 172.744C118.658 172.744 104.003 184.098 87.6091 189.32Z" fill="#CCE0FF"/>
<path opacity="0.4" d="M87.6091 189.32C87.6091 189.32 89.0529 189.159 111.215 185.051C111.215 185.051 111.719 213.402 112.77 234.526L119.597 234.75C119.597 234.75 129.409 187.848 128.239 180.783C127.068 173.718 118.658 172.744 118.658 172.744C118.658 172.744 104.003 184.098 87.6091 189.32Z" fill="white"/>
<path opacity="0.3" d="M87.6091 189.32C87.6091 189.32 89.0529 189.159 111.215 185.051C111.215 185.051 111.719 213.402 112.77 234.526L119.597 234.75C119.597 234.75 129.409 187.848 128.239 180.783C127.068 173.718 118.658 172.744 118.658 172.744C118.658 172.744 104.003 184.098 87.6091 189.32Z" fill="black"/>
<path d="M111.488 232.641L120.795 232.423L119.527 236.257L111.971 236.327L111.488 232.641Z" fill="#263238"/>
<path opacity="0.3" d="M97.1202 163.514L85.0371 167.817C85.0371 167.817 91.394 163.072 96.3422 160.871C96.7837 162.301 97.1202 163.514 97.1202 163.514Z" fill="black"/>
<path d="M70.9565 156.379L70.7812 159.967L93.4265 155.166L92.9008 151.206L70.9565 156.379Z" fill="#263238"/>
<path opacity="0.2" d="M70.9565 156.379L70.7812 159.967L93.4265 155.166L92.9008 151.206L70.9565 156.379Z" fill="black"/>
<path d="M77.8382 154.184L76.708 154.394L77.7729 160.134L78.9031 159.924L77.8382 154.184Z" fill="#CCE0FF"/>
<path d="M87.7197 152.726L82.7764 153.84L83.6207 157.587L88.5641 156.473L87.7197 152.726Z" fill="white"/>
<path d="M91.5916 150.796L90.4614 151.006L91.5254 156.746L92.6555 156.537L91.5916 150.796Z" fill="#CCE0FF"/>
<path opacity="0.3" d="M77.8382 154.184L76.708 154.394L77.7729 160.134L78.9031 159.924L77.8382 154.184Z" fill="white"/>
<path opacity="0.3" d="M91.5916 150.796L90.4614 151.006L91.5254 156.746L92.6555 156.537L91.5916 150.796Z" fill="white"/>
<path d="M163.058 228.947C162.321 228.721 161.549 228.633 160.78 228.688C160.78 228.688 157.942 227.503 154.473 221.84L151.536 222.226C151.041 222.3 150.582 222.525 150.22 222.87C149.857 223.215 149.61 223.663 149.51 224.153C149.486 224.29 149.486 224.43 149.51 224.566C149.634 225.278 149.805 225.98 150.022 226.669C150.775 228.945 151.664 231.173 152.685 233.341L153.169 233.145L151.662 228.891C151.157 227.447 152.917 228.667 153.849 230.068C154.781 231.47 156.099 232.823 159.238 231.638C162.89 230.216 164.334 229.459 163.058 228.947Z" fill="#CCE0FF"/>
<path d="M153.758 220.34C153.758 220.34 158.475 227.496 160.766 228.688C160.766 228.688 158.173 230.79 154.711 227.412C150.239 223.088 149.496 224.567 149.496 224.567C149.457 223.719 149.496 222.87 149.616 222.029C149.987 220.389 153.758 220.34 153.758 220.34Z" fill="#E4897B"/>
<path d="M125.225 252.756C124.561 252.365 123.832 252.097 123.073 251.964C123.073 251.964 120.592 250.135 118.595 243.827L115.651 243.504C115.151 243.458 114.648 243.568 114.213 243.819C113.777 244.07 113.43 244.45 113.219 244.906C113.156 245.032 113.114 245.167 113.093 245.306C113.047 246.02 113.047 246.736 113.093 247.45C113.287 249.837 113.624 252.21 114.102 254.557L114.614 254.48L114.158 249.994C114.011 248.466 115.434 250.071 116.009 251.655C116.583 253.239 117.537 254.865 120.866 254.459C124.756 253.947 126.34 253.555 125.225 252.756Z" fill="#CCE0FF"/>
<path d="M118.223 242.186C118.223 242.186 121.111 250.261 123.073 251.964C123.073 251.964 120.06 253.365 117.466 249.293C114.144 244.023 113.065 245.291 113.065 245.291C113.223 244.459 113.458 243.642 113.766 242.852C114.551 241.338 118.223 242.186 118.223 242.186Z" fill="#E4897B"/>
<path d="M83.5933 94.6178C83.5933 94.6178 72.5265 89.2421 68.8749 100.821C65.2234 112.399 69.9052 120.389 69.9052 120.389C69.9052 120.389 82.7102 117.109 93.4896 119.401C93.4896 119.401 91.1627 109.532 91.7234 103.869C92.2841 98.2063 83.5933 94.6178 83.5933 94.6178Z" fill="#263238"/>
<path d="M92.228 120.823C94.6601 120.928 104.844 134.616 104.844 134.616L108.628 129.71C108.628 129.71 114.46 141.043 111.572 146.44C108.685 151.837 93.4756 137.091 93.4756 137.091L92.228 120.823Z" fill="#CCE0FF"/>
<path opacity="0.6" d="M92.2209 120.823L93.2162 131.764L93.4685 137.098C93.4685 137.098 95.9706 139.523 99.1316 142.046C103.778 145.753 109.848 149.664 111.565 146.454C114.453 141.064 108.614 129.724 108.614 129.724L104.837 134.63V134.588C104.248 133.747 94.5759 120.928 92.2209 120.823Z" fill="white"/>
<path opacity="0.2" d="M93.2163 131.764L93.4686 137.098C93.4686 137.098 95.9707 139.523 99.1317 142.046C99.4331 135.64 93.4686 126.311 93.4686 126.311L93.2163 131.764Z" fill="black"/>
<path opacity="0.2" d="M104.851 134.617L104.304 135.661L105.888 141.828C105.888 141.828 101.515 137.848 104.304 133.951L104.851 134.617Z" fill="black"/>
<path d="M93.5035 133.033C93.5035 133.201 93.5035 133.376 93.5035 133.551C93.5035 134.308 93.5035 135.107 93.4544 135.955C93.4544 136.026 93.4544 136.096 93.4544 136.173C93.4544 136.628 93.4544 137.098 93.4544 137.574C93.4544 137.659 93.4544 137.736 93.4544 137.82C93.4544 138.521 93.4053 139.222 93.3773 139.922C93.3773 140.021 93.3773 140.119 93.3773 140.217C93.3773 141.17 93.3002 142.172 93.2511 143.231C93.139 145.606 93.0058 148.242 92.8376 151.164L92.5222 151.242L71.1106 156.316H71.0265C71.0265 156.316 71.8885 144.864 70.4097 138.38C70.399 138.324 70.385 138.267 70.3676 138.212C70.3676 138.114 70.3256 138.016 70.2976 137.918C70.2695 137.82 70.1994 137.553 70.1574 137.364C70.1153 137.175 70.0593 136.986 70.0032 136.79C69.814 136.089 69.6107 135.388 69.3934 134.617C69.2533 134.112 69.0991 133.594 68.9379 133.061L68.8538 132.795C68.6645 132.164 68.4613 131.512 68.251 130.839C68.1879 130.643 68.1319 130.454 68.0688 130.25C67.7604 129.29 67.431 128.274 67.0735 127.209C66.6811 126.008 66.2512 124.734 65.7839 123.389C68.2394 122.606 70.7418 121.978 73.2763 121.51L74.3626 121.314L75.5121 121.125C77.4324 120.817 79.3739 120.599 81.3153 120.459C82.0956 120.403 82.8736 120.361 83.6492 120.333C84.1188 120.333 84.6024 120.333 85.0509 120.333H85.2472L86.6489 120.375H87.3007H87.7143H88.1628L88.8637 120.417H89.3963L90.3565 120.48L90.735 120.515H91.0714H91.3798H91.6321L92.2419 120.571C92.2419 120.571 92.2419 120.571 92.298 120.571L92.347 120.62C92.3939 120.676 92.4339 120.737 92.4662 120.803C92.6815 121.259 92.8347 121.742 92.9217 122.239C92.9217 122.38 92.9778 122.534 93.0129 122.702C93.0479 122.87 93.097 123.228 93.146 123.536C93.1951 123.844 93.2091 123.985 93.2371 124.237C93.2652 124.489 93.2862 124.692 93.3072 124.938C93.5146 127.631 93.5801 130.333 93.5035 133.033Z" fill="#263238"/>
<path d="M81.8761 124.973C76.7738 124.321 75.2458 122.134 75.2458 122.134C77.3485 120.172 76.949 117.277 76.4163 115.469C76.256 114.895 76.0449 114.337 75.7855 113.801L81.9252 114.95C81.7824 115.803 81.7027 116.665 81.6869 117.529C81.6638 118.167 81.7227 118.806 81.8621 119.429C82.2756 121.265 83.3199 121.293 83.3199 121.293C84.3992 123.305 81.8761 124.973 81.8761 124.973Z" fill="#E4897B"/>
<path opacity="0.2" d="M81.687 117.529C81.6639 118.167 81.7228 118.806 81.8622 119.429C79.4232 119.113 77.5799 117.158 76.4164 115.469C76.2561 114.895 76.045 114.337 75.7856 113.801L81.9253 114.95C81.7825 115.803 81.7029 116.665 81.687 117.529Z" fill="black"/>
<path d="M83.3201 97.7297C88.9691 98.8791 90.1676 102.278 89.3967 108.18C88.4295 115.56 85.7662 120.396 79.0168 117.403C69.8633 113.338 73.9424 95.8163 83.3201 97.7297Z" fill="#E4897B"/>
<path d="M85.8079 107.121C86.0893 108.057 86.4823 108.956 86.9784 109.799C86.7646 109.997 86.5005 110.132 86.215 110.19C85.9295 110.248 85.6335 110.227 85.3594 110.128L85.8079 107.121Z" fill="#DE5753"/>
<path d="M80.6004 102.65C80.5631 102.649 80.5262 102.641 80.4923 102.626C80.4585 102.61 80.4284 102.587 80.4042 102.559C80.3798 102.536 80.3603 102.508 80.3471 102.477C80.3338 102.446 80.3269 102.413 80.3269 102.38C80.3269 102.346 80.3338 102.313 80.3471 102.282C80.3603 102.252 80.3798 102.224 80.4042 102.201C80.8171 101.914 81.2918 101.728 81.7898 101.659C82.2878 101.59 82.7951 101.638 83.2708 101.802C83.302 101.813 83.3309 101.83 83.3555 101.852C83.3802 101.874 83.4003 101.901 83.4146 101.931C83.4289 101.961 83.4372 101.993 83.439 102.026C83.4408 102.06 83.436 102.093 83.4249 102.124C83.4139 102.155 83.3968 102.184 83.3746 102.209C83.3524 102.233 83.3256 102.254 83.2957 102.268C83.2657 102.282 83.2333 102.29 83.2001 102.292C83.167 102.294 83.1338 102.289 83.1025 102.278C82.7078 102.152 82.29 102.115 81.8792 102.169C81.4683 102.224 81.0747 102.369 80.7266 102.594C80.6899 102.622 80.6465 102.642 80.6004 102.65Z" fill="#263238"/>
<path d="M89.4946 103.82C89.4284 103.819 89.3654 103.791 89.3194 103.743C89.0785 103.467 88.7797 103.247 88.4441 103.099C88.1086 102.951 87.7446 102.879 87.378 102.888C87.3452 102.894 87.3116 102.893 87.2791 102.886C87.2466 102.878 87.216 102.864 87.1891 102.845C87.1622 102.825 87.1396 102.8 87.1227 102.771C87.1058 102.743 87.0949 102.711 87.0907 102.678C87.0847 102.645 87.0854 102.611 87.0929 102.579C87.1003 102.546 87.1143 102.516 87.134 102.489C87.1537 102.462 87.1786 102.439 87.2073 102.423C87.236 102.406 87.2679 102.395 87.3009 102.39C87.7467 102.364 88.1926 102.44 88.6045 102.612C89.0163 102.785 89.3832 103.049 89.6769 103.386C89.7004 103.409 89.7191 103.437 89.7318 103.468C89.7445 103.498 89.7511 103.531 89.7511 103.564C89.7511 103.598 89.7445 103.631 89.7318 103.661C89.7191 103.692 89.7004 103.72 89.6769 103.743C89.6283 103.791 89.563 103.819 89.4946 103.82Z" fill="#263238"/>
<path d="M75.2107 105.986C75.2107 105.986 78.7992 101.886 79.1286 98.2202C79.1286 98.2202 91.2467 95.9353 89.4875 107.409C89.4875 107.409 92.6344 97.5403 82.9764 95.3396C73.3184 93.1388 70.4588 107.346 74.608 112.595C74.608 112.595 72.9819 108.558 75.2107 105.986Z" fill="#263238"/>
<path d="M75.8907 107.367C75.9299 107.038 75.9038 106.704 75.814 106.385C75.7243 106.066 75.5725 105.768 75.3675 105.508C75.1625 105.247 74.9082 105.03 74.6192 104.868C74.3302 104.706 74.012 104.602 73.683 104.563C71.8958 104.395 70.3258 107.815 74.503 109.567C75.1058 109.82 75.5823 109.28 75.8907 107.367Z" fill="#E4897B"/>
<path d="M85.1983 111.824C84.7181 112.341 84.2754 112.891 83.8736 113.471L83.5372 113.303C82.0233 112.56 81.5678 111.719 81.5187 111.011C81.5065 110.661 81.5761 110.313 81.722 109.995C81.799 109.814 81.9004 109.644 82.0233 109.49C82.7491 110.375 83.6576 111.092 84.6867 111.593C85.0021 111.733 85.1983 111.824 85.1983 111.824Z" fill="#263238"/>
<path d="M84.6866 111.565L84.2871 112.041C82.8854 111.341 81.9532 110.64 81.7219 109.995C81.799 109.814 81.9004 109.644 82.0233 109.49C82.752 110.365 83.6603 111.072 84.6866 111.565Z" fill="white"/>
<path d="M83.5373 113.303C82.0234 112.56 81.5679 111.719 81.5188 111.011C82.093 111.299 82.6087 111.691 83.0397 112.167C83.3218 112.484 83.4961 112.881 83.5373 113.303Z" fill="#DE5753"/>
<path d="M83.1168 98.1223C83.1168 98.1223 78.9115 106.953 73.1223 105.643C67.3331 104.332 78.7293 94.4287 78.7293 94.4287C78.7293 94.4287 89.0111 92.7536 92.6837 98.8232C96.3563 104.893 89.4877 107.444 89.4877 107.444C89.4877 107.444 91.31 100.281 83.1168 98.1223Z" fill="#263238"/>
<path d="M77.5098 105.404C77.4713 105.403 77.4342 105.389 77.404 105.365C77.3738 105.341 77.3519 105.308 77.3416 105.271C77.3353 105.249 77.3336 105.226 77.3367 105.203C77.3397 105.18 77.3474 105.158 77.3592 105.139C77.371 105.119 77.3867 105.102 77.4054 105.088C77.4241 105.075 77.4453 105.066 77.4677 105.061C82.3738 103.82 83.0187 97.5053 83.0257 97.4422C83.031 97.3969 83.0537 97.3555 83.089 97.3267C83.1243 97.298 83.1695 97.2841 83.2149 97.288C83.2381 97.2887 83.2608 97.2943 83.2816 97.3045C83.3024 97.3148 83.3207 97.3294 83.3353 97.3473C83.35 97.3653 83.3605 97.3862 83.3664 97.4086C83.3722 97.431 83.3731 97.4544 83.3691 97.4773C83.3691 97.5403 82.6682 104.101 77.5518 105.397L77.5098 105.404Z" fill="#263238"/>
<path d="M82.5069 106.259C82.5069 106.708 82.2336 107.058 81.9392 107.051C81.6448 107.044 81.4065 106.666 81.4276 106.217C81.4486 105.769 81.7009 105.411 82.0023 105.425C82.3037 105.439 82.5279 105.832 82.5069 106.259Z" fill="#263238"/>
<path d="M81.8762 105.439L82.8645 105.096C82.8645 105.096 82.3458 105.902 81.8762 105.439Z" fill="#263238"/>
<path d="M88.086 106.385C88.086 106.834 87.8056 107.191 87.5113 107.177C87.2169 107.163 86.9856 106.792 86.9996 106.343C87.0136 105.895 87.273 105.544 87.5743 105.558C87.8757 105.572 88.1 105.937 88.086 106.385Z" fill="#263238"/>
<path d="M87.448 105.572L88.4362 105.229C88.4362 105.229 87.9176 106.028 87.448 105.572Z" fill="#263238"/>
<path d="M95.9357 129.858C95.9254 129.933 95.9317 130.009 95.954 130.081C95.9763 130.153 96.0142 130.22 96.065 130.276C96.1157 130.332 96.1781 130.376 96.2478 130.406C96.3175 130.435 96.3928 130.449 96.4684 130.446H102.328C102.49 130.44 102.644 130.378 102.766 130.271C102.887 130.164 102.968 130.018 102.993 129.858L104.297 118.293C104.314 118.212 104.314 118.128 104.296 118.047C104.278 117.966 104.243 117.89 104.193 117.823C104.144 117.757 104.08 117.702 104.007 117.662C103.935 117.622 103.854 117.598 103.771 117.592H97.9122C97.7369 117.613 97.5744 117.695 97.4528 117.823C97.3312 117.951 97.2582 118.117 97.2463 118.293L95.9357 129.858Z" fill="#263238"/>
<path opacity="0.5" d="M97.8981 118.216L96.5664 129.893C96.5498 129.961 96.5495 130.032 96.5654 130.1C96.5813 130.169 96.613 130.232 96.658 130.286C96.703 130.34 96.76 130.383 96.8244 130.41C96.8889 130.438 96.9589 130.451 97.029 130.446H101.998C102.335 130.446 102.944 130.264 102.979 129.935L104.311 118.216C104.311 117.887 103.778 117.62 103.442 117.62H98.4728C98.319 117.628 98.1738 117.693 98.067 117.804C97.9601 117.915 97.8997 118.062 97.8981 118.216Z" fill="white"/>
<path d="M108.215 130.825L105.159 125.638C105.183 124.511 105.096 123.384 104.9 122.274C104.633 121.629 101.641 120.172 101.052 120.396C100.463 120.62 100.253 125.961 100.786 126.704C101.318 127.447 103.19 128.225 103.19 128.225L103.064 129.241L104.851 134.638L108.215 130.825Z" fill="#E4897B"/>
<path d="M109.441 130.236L108.432 129.22L103.617 134.617L104.304 136.754L109.441 130.236Z" fill="#CCE0FF"/>
<path d="M85.0373 119.387L84.4275 121.63L85.668 123.452L88.4155 149.076L95.9358 147.968C95.4172 128 95.235 127.895 92.3333 120.711L85.5979 120.242L85.0373 119.387Z" fill="#CCE0FF"/>
<path opacity="0.6" d="M85.0373 119.387L84.4275 121.63L85.668 123.452L88.4155 149.076L95.9358 147.968C95.4172 128 95.235 127.895 92.3333 120.711L85.5979 120.242L85.0373 119.387Z" fill="white"/>
<path d="M72.7578 119.387L79.4371 122.19L77.797 124.994L79.4161 151.227L69.2955 154.192C69.2955 154.192 61.9503 134.918 65.714 123.48L72.3443 121.566L72.7578 119.387Z" fill="#CCE0FF"/>
<path opacity="0.6" d="M79.1567 147.05L79.416 151.206L74.9024 152.524L69.2954 154.164C67.2238 148.464 65.7762 142.556 64.978 136.544C64.4383 131.981 64.4523 127.279 65.7139 123.452L72.3442 121.538L72.7577 119.387L79.437 122.19L77.797 124.994L78.4418 135.409L79.1567 147.05Z" fill="white"/>
<path opacity="0.2" d="M85.0791 138.857C85.0791 138.857 82.5629 142.522 79.1567 147.05C77.839 148.802 76.3532 150.681 74.9024 152.524L69.2954 154.164C67.2238 148.464 65.7762 142.556 64.978 136.544C67.7254 133.79 71.0896 130.453 71.0896 130.453C71.0896 130.453 72.6316 135.219 71.9517 139.361L78.4418 135.388L80.4603 134.154L85.0791 138.857Z" fill="black"/>
<path d="M79.5984 135.899L86.544 130.446C86.9463 129.267 87.4408 128.121 88.0229 127.019C88.4434 126.508 94.534 124.265 95.0316 124.216C95.5292 124.167 95.0316 129.206 94.2677 130.061C93.5037 130.916 88.6046 132.612 88.6046 132.612L81.3436 139.474L79.5984 135.899Z" fill="#E4897B"/>
<path d="M65.714 123.452C61.6349 125.498 59.8196 148.529 66.9055 152.503C73.9913 156.477 84.5675 138.485 84.5675 138.485L80.4533 134.119C80.4533 134.119 71.8326 141.338 70.7953 140.672C69.758 140.006 70.9355 132.963 70.9355 132.963C70.9355 132.963 72.148 130.86 69.5968 127.475C67.0456 124.089 65.714 123.452 65.714 123.452Z" fill="#CCE0FF"/>
<path opacity="0.6" d="M65.714 123.452C61.6349 125.498 59.8196 148.529 66.9055 152.503C73.9913 156.477 84.5675 138.485 84.5675 138.485L80.4533 134.119C80.4533 134.119 71.8326 141.338 70.7953 140.672C69.758 140.006 70.9355 132.963 70.9355 132.963C70.9355 132.963 72.148 130.86 69.5968 127.475C67.0456 124.089 65.714 123.452 65.714 123.452Z" fill="white"/>
<path d="M84.6446 140.112L85.8781 139.369L81.2593 132.598L79.5632 133.544L84.6446 140.112Z" fill="#CCE0FF"/>
</svg>
