<svg width="21" height="21" viewBox="0 0 21 21" fill="none" xmlns="http://www.w3.org/2000/svg">
<g clip-path="url(#clip0_601_3040)">
<path opacity="0.8" d="M10.4375 18.1475C14.5796 18.1475 17.9375 14.7896 17.9375 10.6475C17.9375 6.50533 14.5796 3.14746 10.4375 3.14746C6.29536 3.14746 2.9375 6.50533 2.9375 10.6475C2.9375 14.7896 6.29536 18.1475 10.4375 18.1475Z" fill="#8CBAFF"/>
<path d="M10.4375 18.1475C14.5796 18.1475 17.9375 14.7896 17.9375 10.6475C17.9375 6.50533 14.5796 3.14746 10.4375 3.14746C6.29536 3.14746 2.9375 6.50533 2.9375 10.6475C2.9375 14.7896 6.29536 18.1475 10.4375 18.1475Z" stroke="#8CBAFF" stroke-width="1.25" stroke-linecap="round" stroke-linejoin="round"/>
<path d="M7.3125 10.6475H13.5625" stroke="white" stroke-width="1.25" stroke-linecap="round" stroke-linejoin="round"/>
<path d="M11.0625 8.14746L13.5625 10.6475L11.0625 13.1475" stroke="white" stroke-width="1.25" stroke-linecap="round" stroke-linejoin="round"/>
</g>
<defs>
<clipPath id="clip0_601_3040">
<rect width="20" height="20" fill="white" transform="translate(0.4375 0.647461)"/>
</clipPath>
</defs>
</svg>
