<svg width="14" height="14" viewBox="0 0 14 14" fill="none" xmlns="http://www.w3.org/2000/svg">
<path d="M12.25 7.0002C12.2501 8.38045 11.7067 9.70523 10.7373 10.6878C9.76798 11.6704 8.45067 12.2317 7.07055 12.2502H7C5.65919 12.2535 4.36859 11.7404 3.39609 10.8174C3.35433 10.7779 3.32076 10.7305 3.29729 10.6781C3.27383 10.6256 3.26092 10.569 3.25933 10.5116C3.25773 10.4541 3.26746 10.3969 3.28797 10.3432C3.30848 10.2895 3.33937 10.2404 3.37887 10.1986C3.41837 10.1568 3.4657 10.1233 3.51818 10.0998C3.57065 10.0763 3.62723 10.0634 3.68469 10.0618C3.74215 10.0602 3.79937 10.07 3.85306 10.0905C3.90676 10.111 3.95589 10.1419 3.99766 10.1814C4.62317 10.7713 5.40864 11.1638 6.25594 11.3099C7.10324 11.456 7.9748 11.3492 8.76175 11.0028C9.54871 10.6565 10.2162 10.0859 10.6807 9.36241C11.1453 8.63892 11.3864 7.79458 11.3739 6.93487C11.3614 6.07516 11.0958 5.23819 10.6104 4.52852C10.125 3.81886 9.44121 3.26795 8.64451 2.94463C7.84782 2.62131 6.97351 2.53991 6.13082 2.71059C5.28813 2.88128 4.51442 3.29648 3.90633 3.90434C3.90186 3.90917 3.89711 3.91374 3.89211 3.91801L2.43852 5.2502H3.9375C4.05353 5.2502 4.16481 5.29629 4.24686 5.37834C4.32891 5.46039 4.375 5.57167 4.375 5.6877C4.375 5.80373 4.32891 5.91501 4.24686 5.99706C4.16481 6.07911 4.05353 6.1252 3.9375 6.1252H1.3125C1.19647 6.1252 1.08519 6.07911 1.00314 5.99706C0.921094 5.91501 0.875 5.80373 0.875 5.6877V3.0627C0.875 2.94667 0.921094 2.83539 1.00314 2.75334C1.08519 2.67129 1.19647 2.6252 1.3125 2.6252C1.42853 2.6252 1.53981 2.67129 1.62186 2.75334C1.70391 2.83539 1.75 2.94667 1.75 3.0627V4.69239L3.29492 3.28145C4.02991 2.54932 4.96533 2.05135 5.9831 1.8504C7.00087 1.64946 8.05536 1.75456 9.01345 2.15242C9.97154 2.55028 10.7903 3.22308 11.3663 4.08587C11.9423 4.94867 12.2498 5.96278 12.25 7.0002Z" fill="black"/>
</svg>
