<svg width="24" height="24" viewBox="0 0 24 24" fill="none" xmlns="http://www.w3.org/2000/svg">
<g clip-path="url(#clip0_633_2883)">
<path d="M21.75 7.49982V17.9998C21.7498 18.1461 21.7357 18.2921 21.7078 18.4358C21.6957 18.5049 21.6645 18.5692 21.6176 18.6214C21.5708 18.6736 21.5102 18.7117 21.4428 18.7312C21.3755 18.7507 21.3039 18.751 21.2364 18.7319C21.1689 18.7128 21.1081 18.6752 21.0609 18.6233L8.0625 4.31982C8.00621 4.25795 7.97222 4.17904 7.96593 4.09563C7.95965 4.01223 7.98143 3.92911 8.02781 3.85951L8.37844 3.33357C8.44672 3.23122 8.53913 3.14725 8.64753 3.08905C8.75592 3.03084 8.87697 3.0002 9 2.99982H15C15.1235 2.99974 15.2451 3.03016 15.354 3.08838C15.463 3.14661 15.5558 3.23083 15.6244 3.33357L16.9012 5.24982H19.5C20.0967 5.24982 20.669 5.48687 21.091 5.90883C21.5129 6.33079 21.75 6.90308 21.75 7.49982ZM20.055 19.7454C20.1226 19.8181 20.1752 19.9034 20.2096 19.9965C20.244 20.0896 20.2595 20.1886 20.2554 20.2878C20.2513 20.3869 20.2275 20.4843 20.1854 20.5742C20.1434 20.6641 20.0839 20.7448 20.0105 20.8115C19.937 20.8783 19.851 20.9298 19.7575 20.9631C19.664 20.9963 19.5649 21.0107 19.4658 21.0054C19.3667 21.0001 19.2696 20.9751 19.1802 20.932C19.0908 20.8889 19.0109 20.8284 18.945 20.7542L18.4866 20.2498H4.5C3.90326 20.2498 3.33097 20.0128 2.90901 19.5908C2.48705 19.1689 2.25 18.5966 2.25 17.9998V7.49982C2.25 6.90308 2.48705 6.33079 2.90901 5.90883C3.33097 5.48687 3.90326 5.24982 4.5 5.24982H4.84969L3.945 4.25419C3.87738 4.18155 3.82484 4.09621 3.79044 4.00311C3.75604 3.91002 3.74046 3.81102 3.74461 3.71186C3.74875 3.61269 3.77253 3.51534 3.81458 3.42544C3.85662 3.33554 3.91609 3.25487 3.98954 3.18812C4.06299 3.12137 4.14896 3.06987 4.24246 3.03659C4.33596 3.00331 4.43514 2.98892 4.53424 2.99425C4.63335 2.99958 4.73041 3.02453 4.8198 3.06765C4.90919 3.11077 4.98914 3.1712 5.055 3.24544L20.055 19.7454ZM13.875 15.1798L9.38625 10.2411C8.87679 10.8676 8.60883 11.656 8.63102 12.4632C8.65321 13.2703 8.96408 14.0428 9.50719 14.6404C10.0503 15.238 10.7897 15.621 11.5911 15.72C12.3925 15.8189 13.2028 15.6273 13.875 15.1798Z" fill="#D4D4D8"/>
</g>
<defs>
<clipPath id="clip0_633_2883">
<rect width="24" height="24" fill="white"/>
</clipPath>
</defs>
</svg>
