<svg width="24" height="25" viewBox="0 0 24 25" fill="none" xmlns="http://www.w3.org/2000/svg">
<g clip-path="url(#clip0_601_4158)">
<path d="M12 10.5957V16.5957" stroke="#71717A" stroke-width="1.5" stroke-linecap="round" stroke-linejoin="round"/>
<path d="M9 13.5957H15" stroke="#71717A" stroke-width="1.5" stroke-linecap="round" stroke-linejoin="round"/>
<path d="M7.5 6.8457L8.77781 4.92945C8.84627 4.82685 8.93898 4.74271 9.04773 4.68449C9.15647 4.62627 9.2779 4.59578 9.40125 4.5957H14.5988C14.7221 4.59578 14.8435 4.62627 14.9523 4.68449C15.061 4.74271 15.1537 4.82685 15.2222 4.92945L16.5 6.8457H19.5C19.8978 6.8457 20.2794 7.00374 20.5607 7.28504C20.842 7.56635 21 7.94788 21 8.3457V18.8457C21 19.2435 20.842 19.6251 20.5607 19.9064C20.2794 20.1877 19.8978 20.3457 19.5 20.3457H4.5C4.10218 20.3457 3.72064 20.1877 3.43934 19.9064C3.15804 19.6251 3 19.2435 3 18.8457V8.3457C3 7.94788 3.15804 7.56635 3.43934 7.28504C3.72064 7.00374 4.10218 6.8457 4.5 6.8457H7.5Z" stroke="#71717A" stroke-width="1.5" stroke-linecap="round" stroke-linejoin="round"/>
</g>
<defs>
<clipPath id="clip0_601_4158">
<rect width="24" height="24" fill="white" transform="translate(0 0.845703)"/>
</clipPath>
</defs>
</svg>
