<svg width="17" height="16" viewBox="0 0 17 16" fill="none" xmlns="http://www.w3.org/2000/svg">
<path d="M6.14622 12.6465C6.09977 12.693 6.06292 12.7481 6.03778 12.8088C6.01263 12.8695 5.99969 12.9346 5.99969 13.0003C5.99969 13.066 6.01263 13.131 6.03778 13.1917C6.06292 13.2524 6.09977 13.3076 6.14622 13.354C6.19268 13.4005 6.24783 13.4373 6.30852 13.4625C6.36922 13.4876 6.43427 13.5006 6.49997 13.5006C6.56567 13.5006 6.63072 13.4876 6.69142 13.4625C6.75212 13.4373 6.80727 13.4005 6.85372 13.354L11.8537 8.35403C11.9002 8.30759 11.9371 8.25245 11.9623 8.19175C11.9874 8.13105 12.0004 8.06599 12.0004 8.00028C12.0004 7.93457 11.9874 7.86951 11.9623 7.80881C11.9371 7.74811 11.9002 7.69296 11.8537 7.64653L6.85372 2.64653C6.7599 2.55271 6.63265 2.5 6.49997 2.5C6.36729 2.5 6.24004 2.55271 6.14622 2.64653C6.0524 2.74035 5.99969 2.8676 5.99969 3.00028C5.99969 3.13296 6.0524 3.26021 6.14622 3.35403L10.7931 8.00028L6.14622 12.6465Z" fill="#1562D4"/>
</svg>
