<svg width="32" height="32" viewBox="0 0 32 32" fill="none" xmlns="http://www.w3.org/2000/svg">
<rect width="32" height="32" fill="#1976FF"/>
<g clip-path="url(#clip0_677_2917)">
<path d="M13.5 20.9563C12.4554 20.4774 11.5702 19.7087 10.9497 18.7415C10.3293 17.7742 9.99964 16.6491 10 15.5H22C22.0004 16.6491 21.6707 17.7742 21.0503 18.7415C20.4298 19.7087 19.5446 20.4774 18.5 20.9563V21.5C18.5 21.6326 18.4473 21.7598 18.3536 21.8536C18.2598 21.9473 18.1326 22 18 22H14C13.8674 22 13.7402 21.9473 13.6464 21.8536C13.5527 21.7598 13.5 21.6326 13.5 21.5V20.9563Z" stroke="white" stroke-linecap="round" stroke-linejoin="round"/>
<path d="M18.5 13.5C18.5 13.5 17.375 13.15 18.5 11.75C19.625 10.35 18.5 10 18.5 10" stroke="white" stroke-linecap="round" stroke-linejoin="round"/>
<path d="M16 13.5C16 13.5 14.875 13.15 16 11.75C17.125 10.35 16 10 16 10" stroke="white" stroke-linecap="round" stroke-linejoin="round"/>
<path d="M13.5 13.5C13.5 13.5 12.375 13.15 13.5 11.75C14.625 10.35 13.5 10 13.5 10" stroke="white" stroke-linecap="round" stroke-linejoin="round"/>
</g>
<defs>
<clipPath id="clip0_677_2917">
<rect width="16" height="16" fill="white" transform="translate(8 8)"/>
</clipPath>
</defs>
</svg>
