<svg width="24" height="24" viewBox="0 0 24 24" fill="none" xmlns="http://www.w3.org/2000/svg">
<path d="M5.05499 3.24489C4.98913 3.17065 4.90918 3.11022 4.81979 3.0671C4.7304 3.02398 4.63334 2.99903 4.53423 2.9937C4.43513 2.98837 4.33595 3.00276 4.24245 3.03604C4.14895 3.06932 4.06298 3.12083 3.98953 3.18757C3.91608 3.25432 3.85661 3.33499 3.81457 3.42489C3.77252 3.51479 3.74874 3.61214 3.7446 3.71131C3.74045 3.81047 3.75603 3.90947 3.79043 4.00256C3.82483 4.09566 3.87737 4.181 3.94499 4.25364L5.74874 6.23833C2.34374 8.32802 0.879366 11.5493 0.814679 11.6955C0.772035 11.7914 0.75 11.8952 0.75 12.0002C0.75 12.1052 0.772035 12.209 0.814679 12.3049C0.847491 12.379 1.64155 14.1396 3.40687 15.9049C5.75905 18.2561 8.72999 19.4993 12 19.4993C13.6806 19.5088 15.3442 19.1628 16.8816 18.484L18.9441 20.7536C19.0099 20.8279 19.0899 20.8883 19.1793 20.9314C19.2686 20.9746 19.3657 20.9995 19.4648 21.0048C19.5639 21.0102 19.6631 20.9958 19.7566 20.9625C19.8501 20.9292 19.9361 20.8777 20.0095 20.811C20.083 20.7442 20.1424 20.6636 20.1845 20.5737C20.2265 20.4837 20.2503 20.3864 20.2544 20.2872C20.2586 20.1881 20.243 20.0891 20.2086 19.996C20.1742 19.9029 20.1217 19.8175 20.0541 19.7449L5.05499 3.24489ZM9.49218 10.3549L13.3987 14.6533C12.8105 14.9628 12.136 15.0682 11.4814 14.9528C10.8268 14.8375 10.229 14.5079 9.78189 14.016C9.33481 13.5241 9.06377 12.8976 9.01134 12.235C8.9589 11.5723 9.12803 10.911 9.49218 10.3549ZM12 17.9993C9.11437 17.9993 6.59343 16.9502 4.50655 14.8821C3.64997 14.0308 2.92145 13.0598 2.34374 11.9993C2.78343 11.1752 4.18687 8.86896 6.7828 7.36989L8.4703 9.22146C7.81699 10.0582 7.48052 11.0989 7.52036 12.1597C7.56021 13.2206 7.97379 14.2331 8.68802 15.0185C9.40225 15.8039 10.3711 16.3114 11.4234 16.4515C12.4757 16.5916 13.5436 16.3551 14.4384 15.784L15.8194 17.3027C14.6006 17.7703 13.3053 18.0065 12 17.9993ZM12.5625 9.05271C12.3671 9.01541 12.1944 8.90201 12.0826 8.73744C11.9708 8.57288 11.9289 8.37064 11.9662 8.17521C12.0035 7.97978 12.1169 7.80716 12.2815 7.69535C12.4461 7.58353 12.6483 7.54166 12.8437 7.57896C13.7996 7.76427 14.67 8.25363 15.325 8.97404C15.98 9.69445 16.3846 10.6073 16.4784 11.5765C16.4969 11.7745 16.436 11.9718 16.3091 12.1249C16.1822 12.2781 15.9996 12.3745 15.8016 12.393C15.7781 12.3944 15.7547 12.3944 15.7312 12.393C15.5438 12.3938 15.3628 12.3244 15.224 12.1984C15.0852 12.0724 14.9986 11.899 14.9812 11.7124C14.9181 11.0678 14.6486 10.4607 14.2128 9.98153C13.7771 9.50233 13.1982 9.17658 12.5625 9.05271ZM23.1825 12.3049C23.1431 12.393 22.1934 14.4958 20.055 16.4111C19.9819 16.4787 19.8961 16.531 19.8027 16.565C19.7092 16.5991 19.6099 16.6142 19.5105 16.6095C19.4111 16.6048 19.3136 16.5804 19.2238 16.5376C19.1339 16.4949 19.0535 16.4347 18.9871 16.3606C18.9208 16.2864 18.8698 16.1998 18.8373 16.1058C18.8047 16.0118 18.7912 15.9123 18.7975 15.813C18.8037 15.7137 18.8297 15.6166 18.8739 15.5275C18.918 15.4383 18.9795 15.3588 19.0547 15.2936C20.1038 14.3511 20.9851 13.2371 21.6609 11.9993C21.0819 10.9378 20.3518 9.9661 19.4934 9.11458C17.4066 7.04833 14.8856 5.99927 12 5.99927C11.392 5.99853 10.7849 6.04776 10.185 6.14646C10.0874 6.16371 9.98741 6.16146 9.89073 6.13984C9.79404 6.11822 9.70259 6.07766 9.62167 6.0205C9.54074 5.96333 9.47195 5.8907 9.41925 5.8068C9.36656 5.7229 9.33101 5.62939 9.31466 5.53167C9.29832 5.43395 9.30149 5.33396 9.32401 5.23748C9.34652 5.141 9.38793 5.04993 9.44584 4.96954C9.50375 4.88915 9.57702 4.82103 9.6614 4.76912C9.74579 4.7172 9.83963 4.68252 9.93749 4.66708C10.6192 4.55452 11.309 4.49839 12 4.49927C15.27 4.49927 18.2409 5.74239 20.5931 8.09458C22.3584 9.85989 23.1525 11.6215 23.1853 11.6955C23.2279 11.7914 23.25 11.8952 23.25 12.0002C23.25 12.1052 23.2279 12.209 23.1853 12.3049H23.1825Z" fill="#71717A"/>
</svg>
