<svg width="24" height="25" viewBox="0 0 24 25" fill="none" xmlns="http://www.w3.org/2000/svg">
<path d="M12 17.3457C13.1931 17.3445 14.337 16.87 15.1806 16.0263C16.0243 15.1827 16.4988 14.0388 16.5 12.8457V6.8457C16.5 5.65223 16.0259 4.50764 15.182 3.66372C14.3381 2.81981 13.1935 2.3457 12 2.3457C10.8065 2.3457 9.66193 2.81981 8.81802 3.66372C7.97411 4.50764 7.5 5.65223 7.5 6.8457V12.8457C7.50124 14.0388 7.97575 15.1827 8.81939 16.0263C9.66303 16.87 10.8069 17.3445 12 17.3457ZM9 6.8457C9 6.05005 9.31607 5.28699 9.87868 4.72438C10.4413 4.16177 11.2044 3.8457 12 3.8457C12.7956 3.8457 13.5587 4.16177 14.1213 4.72438C14.6839 5.28699 15 6.05005 15 6.8457V12.8457C15 13.6414 14.6839 14.4044 14.1213 14.967C13.5587 15.5296 12.7956 15.8457 12 15.8457C11.2044 15.8457 10.4413 15.5296 9.87868 14.967C9.31607 14.4044 9 13.6414 9 12.8457V6.8457ZM12.75 20.3082V22.5957C12.75 22.7946 12.671 22.9854 12.5303 23.126C12.3897 23.2667 12.1989 23.3457 12 23.3457C11.8011 23.3457 11.6103 23.2667 11.4697 23.126C11.329 22.9854 11.25 22.7946 11.25 22.5957V20.3082C9.40091 20.12 7.68728 19.2529 6.44048 17.8745C5.19368 16.4961 4.50228 14.7043 4.5 12.8457C4.5 12.6468 4.57902 12.456 4.71967 12.3154C4.86032 12.1747 5.05109 12.0957 5.25 12.0957C5.44891 12.0957 5.63968 12.1747 5.78033 12.3154C5.92098 12.456 6 12.6468 6 12.8457C6 14.437 6.63214 15.9631 7.75736 17.0883C8.88258 18.2136 10.4087 18.8457 12 18.8457C13.5913 18.8457 15.1174 18.2136 16.2426 17.0883C17.3679 15.9631 18 14.437 18 12.8457C18 12.6468 18.079 12.456 18.2197 12.3154C18.3603 12.1747 18.5511 12.0957 18.75 12.0957C18.9489 12.0957 19.1397 12.1747 19.2803 12.3154C19.421 12.456 19.5 12.6468 19.5 12.8457C19.4977 14.7043 18.8063 16.4961 17.5595 17.8745C16.3127 19.2529 14.5991 20.12 12.75 20.3082Z" fill="#71717A"/>
</svg>
