<svg width="24" height="24" viewBox="0 0 24 24" fill="none" xmlns="http://www.w3.org/2000/svg">
<g clip-path="url(#clip0_631_2836)">
<path d="M12 15C13.6569 15 15 13.6569 15 12C15 10.3431 13.6569 9 12 9C10.3431 9 9 10.3431 9 12C9 13.6569 10.3431 15 12 15Z" stroke="#A1A1AA" stroke-width="1.5" stroke-linecap="round" stroke-linejoin="round"/>
<path d="M17.0316 7.5C18.1396 8.73699 18.7523 10.3393 18.7523 12C18.7523 13.6607 18.1396 15.263 17.0316 16.5" stroke="#A1A1AA" stroke-width="1.5" stroke-linecap="round" stroke-linejoin="round"/>
<path d="M6.96844 16.5C5.86038 15.263 5.24767 13.6607 5.24767 12C5.24767 10.3393 5.86038 8.73699 6.96844 7.5" stroke="#A1A1AA" stroke-width="1.5" stroke-linecap="round" stroke-linejoin="round"/>
<path d="M19.5 4.65186C21.4254 6.61304 22.5042 9.25161 22.5042 12C22.5042 14.7483 21.4254 17.3869 19.5 19.3481" stroke="#A1A1AA" stroke-width="1.5" stroke-linecap="round" stroke-linejoin="round"/>
<path d="M4.5 19.3481C2.57457 17.3869 1.49583 14.7483 1.49583 12C1.49583 9.25161 2.57457 6.61304 4.5 4.65186" stroke="#A1A1AA" stroke-width="1.5" stroke-linecap="round" stroke-linejoin="round"/>
</g>
<defs>
<clipPath id="clip0_631_2836">
<rect width="24" height="24" fill="white"/>
</clipPath>
</defs>
</svg>
